<?xml version="1.0" encoding="UTF-8" standalone="no"?>
<!-- Created with Inkscape (http://www.inkscape.org/) -->

<svg
   width="56.0px"
   height="56.0px"
   viewBox="0 0 56.0 56.0"
   version="1.1"
   id="SVGRoot"
   sodipodi:docname="advanced-facial-treatments.svg"
   inkscape:version="1.1.2 (0a00cf5339, 2022-02-04)"
   xmlns:inkscape="http://www.inkscape.org/namespaces/inkscape"
   xmlns:sodipodi="http://sodipodi.sourceforge.net/DTD/sodipodi-0.dtd"
   xmlns="http://www.w3.org/2000/svg"
   xmlns:svg="http://www.w3.org/2000/svg">
  <sodipodi:namedview
     id="namedview41937"
     pagecolor="#ffffff"
     bordercolor="#666666"
     borderopacity="1.0"
     inkscape:pageshadow="2"
     inkscape:pageopacity="0.0"
     inkscape:pagecheckerboard="0"
     inkscape:document-units="px"
     showgrid="true"
     inkscape:zoom="2.5300224"
     inkscape:cx="109.88045"
     inkscape:cy="143.47699"
     inkscape:window-width="1920"
     inkscape:window-height="1003"
     inkscape:window-x="0"
     inkscape:window-y="40"
     inkscape:window-maximized="1"
     inkscape:current-layer="layer1">
    <inkscape:grid
       type="xygrid"
       id="grid42000" />
  </sodipodi:namedview>
  <defs
     id="defs41932" />
  <g
     inkscape:label="Layer 1"
     inkscape:groupmode="layer"
     id="layer1">
    <g
       id="g41888"
       transform="matrix(0.52423955,0,0,0.52423955,-27.045153,406.68507)">
      <g
         id="g36826"
         transform="translate(3166.7683)">
        <ellipse
           style="fill:#ffffff;fill-opacity:1;stroke:#000000;stroke-width:3.40167;stroke-linecap:round;stroke-linejoin:round;stroke-miterlimit:4;stroke-dasharray:none;stroke-opacity:1;stop-color:#000000"
           id="path36387"
           cx="-2521.9619"
           cy="1441.2955"
           rx="36.160553"
           ry="33.428726"
           transform="matrix(0.76329889,0.64604551,-0.78865192,0.61483994,0,0)" />
        <ellipse
           style="fill:#ffffff;fill-opacity:1;stroke:#000000;stroke-width:2.83707;stroke-linecap:round;stroke-linejoin:round;stroke-miterlimit:4;stroke-dasharray:none;stroke-opacity:1;stop-color:#000000"
           id="circle36471"
           cx="-3056.9155"
           cy="-737.95612"
           rx="37.729115"
           ry="31.022381" />
        <ellipse
           style="fill:#ffffff;fill-opacity:1;stroke:#000000;stroke-width:3;stroke-linecap:round;stroke-linejoin:round;stroke-miterlimit:4;stroke-dasharray:none;stroke-opacity:1;stop-color:#000000"
           id="circle36389"
           cx="-3063.4331"
           cy="-725.12128"
           rx="37.894249"
           ry="38.809422" />
        <rect
           style="fill:#00ff00;fill-opacity:1;stroke:#000000;stroke-width:1.88813;stroke-linecap:round;stroke-linejoin:round;stroke-miterlimit:4;stroke-dasharray:none;stroke-opacity:1;stop-color:#000000"
           id="rect36265"
           width="71.352524"
           height="84.302925"
           x="-3096.9338"
           y="-754.1875"
           rx="128.31625"
           ry="84.302925" />
        <circle
           style="fill:#ffffff;fill-opacity:1;stroke:#000000;stroke-width:3;stroke-linecap:round;stroke-linejoin:round;stroke-miterlimit:4;stroke-dasharray:none;stroke-opacity:1;stop-color:#000000"
           id="path36549"
           cx="-3077.9229"
           cy="-712.03601"
           r="6.1219554" />
        <circle
           style="fill:#ffffff;fill-opacity:1;stroke:#000000;stroke-width:3;stroke-linecap:round;stroke-linejoin:round;stroke-miterlimit:4;stroke-dasharray:none;stroke-opacity:1;stop-color:#000000"
           id="circle36633"
           cx="-3044.5925"
           cy="-712.03601"
           r="6.1219554" />
        <path
           style="fill:#ffffff;fill-opacity:1;stroke:#000000;stroke-width:3;stroke-linecap:round;stroke-linejoin:round;stroke-miterlimit:4;stroke-dasharray:none;stroke-opacity:1;stop-color:#000000"
           id="path36657"
           sodipodi:type="arc"
           sodipodi:cx="-3061.1042"
           sodipodi:cy="-693.51813"
           sodipodi:rx="10.879171"
           sodipodi:ry="11.494885"
           sodipodi:start="0"
           sodipodi:end="3.1412059"
           sodipodi:arc-type="slice"
           d="m -3050.2251,-693.51813 a 10.879171,11.494885 0 0 1 -10.877,11.49489 10.879171,11.494885 0 0 1 -10.8813,-11.49044 l 10.8792,-0.004 z" />
      </g>
      <g
         id="g41786"
         transform="translate(3590.972,10.241557)">
        <path
           id="path41493"
           style="fill:#ffffff;fill-opacity:1;stroke:#ffffff;stroke-width:3;stroke-linecap:butt;stroke-linejoin:miter;stroke-miterlimit:4;stroke-dasharray:none;stroke-opacity:1"
           d="m -3446.9325,-744.23253 -2.6073,24.19085 -9.5318,16.50934 c 0,0 -2.4995,3.56769 0.2313,4.93085 2.7308,1.36316 4.2927,-2.69133 4.2927,-2.69133 0,0 9.0785,-17.9633 9.9948,-19.9674 1.5293,-8.70044 5.7588,-25.86822 5.7588,-25.86822 v -30.0288 l -11.2495,-0.13653 -0.8391,20.16324 c 0,0 -3.2841,3.9248 -4.2468,7.22748 -0.9627,3.30268 -0.4412,12.24993 -0.4412,12.24993 0,0 0,11.91842 0.6653,15.60524 1.3848,2.46398 5.3655,2.0062 5.3655,2.0062 l 2.6073,-24.19083"
           sodipodi:nodetypes="ccczcccccczcccc" />
        <path
           id="path37054"
           style="fill:#ffffff;fill-opacity:1;stroke:#000000;stroke-width:3;stroke-linecap:butt;stroke-linejoin:miter;stroke-miterlimit:4;stroke-dasharray:none;stroke-opacity:1"
           d="m -3450.0435,-777.29377 -0.8391,20.16324 c 0,0 -3.2841,3.9248 -4.2468,7.22748 -0.9627,3.30268 -0.4412,12.24993 -0.4412,12.24993 0,0 0,11.91842 0.6653,15.60524 1.3848,2.46398 5.3655,2.0062 5.3655,2.0062 l 2.6073,-24.19083 m 8.1385,-32.92473 v 30.0288 c 0,0 -4.2295,17.16778 -5.7588,25.86822 -0.9163,2.0041 -9.9948,19.9674 -9.9948,19.9674 0,0 -1.5619,4.05449 -4.2927,2.69133 -2.7308,-1.36316 -0.2313,-4.93085 -0.2313,-4.93085 l 9.5318,-16.50934 2.6073,-24.19085"
           sodipodi:nodetypes="cczcccccccczccc" />
      </g>
      <g
         id="g41872"
         transform="matrix(-1,0,0,1,-3380.972,10.241557)">
        <path
           id="path41868"
           style="fill:#ffffff;fill-opacity:1;stroke:#ffffff;stroke-width:3;stroke-linecap:butt;stroke-linejoin:miter;stroke-miterlimit:4;stroke-dasharray:none;stroke-opacity:1"
           d="m -3446.9325,-744.23253 -2.6073,24.19085 -9.5318,16.50934 c 0,0 -2.4995,3.56769 0.2313,4.93085 2.7308,1.36316 4.2927,-2.69133 4.2927,-2.69133 0,0 9.0785,-17.9633 9.9948,-19.9674 1.5293,-8.70044 5.7588,-25.86822 5.7588,-25.86822 v -30.0288 l -11.2495,-0.13653 -0.8391,20.16324 c 0,0 -3.2841,3.9248 -4.2468,7.22748 -0.9627,3.30268 -0.4412,12.24993 -0.4412,12.24993 0,0 0,11.91842 0.6653,15.60524 1.3848,2.46398 5.3655,2.0062 5.3655,2.0062 l 2.6073,-24.19083"
           sodipodi:nodetypes="ccczcccccczcccc" />
        <path
           id="path41870"
           style="fill:#ffffff;fill-opacity:1;stroke:#000000;stroke-width:3;stroke-linecap:butt;stroke-linejoin:miter;stroke-miterlimit:4;stroke-dasharray:none;stroke-opacity:1"
           d="m -3450.0435,-777.29377 -0.8391,20.16324 c 0,0 -3.2841,3.9248 -4.2468,7.22748 -0.9627,3.30268 -0.4412,12.24993 -0.4412,12.24993 0,0 0,11.91842 0.6653,15.60524 1.3848,2.46398 5.3655,2.0062 5.3655,2.0062 l 2.6073,-24.19083 m 8.1385,-32.92473 v 30.0288 c 0,0 -4.2295,17.16778 -5.7588,25.86822 -0.9163,2.0041 -9.9948,19.9674 -9.9948,19.9674 0,0 -1.5619,4.05449 -4.2927,2.69133 -2.7308,-1.36316 -0.2313,-4.93085 -0.2313,-4.93085 l 9.5318,-16.50934 2.6073,-24.19085"
           sodipodi:nodetypes="cczcccccccczccc" />
      </g>
    </g>
  </g>
</svg>
