<?xml version="1.0" encoding="UTF-8" standalone="no"?>
<svg
   fill-opacity="0"
   color-rendering="auto"
   color-interpolation="auto"
   text-rendering="auto"
   stroke="rgb(0,0,0)"
   stroke-linecap="square"
   width="697"
   stroke-miterlimit="10"
   shape-rendering="auto"
   stroke-opacity="0"
   fill="rgb(0,0,0)"
   stroke-dasharray="none"
   font-weight="normal"
   stroke-width="1"
   height="479"
   font-family="'Dialog'"
   font-style="normal"
   stroke-linejoin="miter"
   font-size="12px"
   stroke-dashoffset="0"
   image-rendering="auto"
   version="1.1"
   id="svg436"
   sodipodi:docname="Booking-State-Diagram.svg"
   inkscape:version="1.1.2 (0a00cf5339, 2022-02-04)"
   xmlns:inkscape="http://www.inkscape.org/namespaces/inkscape"
   xmlns:sodipodi="http://sodipodi.sourceforge.net/DTD/sodipodi-0.dtd"
   xmlns="http://www.w3.org/2000/svg"
   xmlns:svg="http://www.w3.org/2000/svg">
  <sodipodi:namedview
     id="namedview438"
     pagecolor="#ffffff"
     bordercolor="#666666"
     borderopacity="1.0"
     inkscape:pageshadow="2"
     inkscape:pageopacity="0.0"
     inkscape:pagecheckerboard="0"
     showgrid="false"
     inkscape:zoom="1.4822547"
     inkscape:cx="348.79296"
     inkscape:cy="239.5"
     inkscape:window-width="1920"
     inkscape:window-height="1003"
     inkscape:window-x="0"
     inkscape:window-y="40"
     inkscape:window-maximized="1"
     inkscape:current-layer="svg436" />
  <!--Generated by the Batik Graphics2D SVG Generator-->
  <defs
     id="genericDefs">
    <defs
       id="defs1">
      <clipPath
         clipPathUnits="userSpaceOnUse"
         id="clipPath1">
        <path
           d="M-7 -7 L31 -7 L31 31 L-7 31 L-7 -7 Z"
           id="path3" />
      </clipPath>
      <clipPath
         clipPathUnits="userSpaceOnUse"
         id="clipPath2">
        <path
           d="M-7 -7 L91 -7 L91 51 L-7 51 L-7 -7 Z"
           id="path6" />
      </clipPath>
      <clipPath
         clipPathUnits="userSpaceOnUse"
         id="clipPath3">
        <path
           d="M-80 -14 L160 -14 L160 28 L-80 28 L-80 -14 Z"
           id="path9" />
      </clipPath>
      <clipPath
         clipPathUnits="userSpaceOnUse"
         id="clipPath4">
        <path
           d="M-52 -14 L104 -14 L104 28 L-52 28 L-52 -14 Z"
           id="path12" />
      </clipPath>
      <clipPath
         clipPathUnits="userSpaceOnUse"
         id="clipPath5">
        <path
           d="M-118 -14 L236 -14 L236 28 L-118 28 L-118 -14 Z"
           id="path15" />
      </clipPath>
      <clipPath
         clipPathUnits="userSpaceOnUse"
         id="clipPath6">
        <path
           d="M0 0 L70 0 L70 106 L0 106 L0 0 Z"
           id="path18" />
      </clipPath>
      <clipPath
         clipPathUnits="userSpaceOnUse"
         id="clipPath7">
        <path
           d="M0 0 L0 37 L29 37 L29 51 L0 51 L0 106 L70 106 L70 52 L55 52 L55 38 L70 38 L70 0 Z"
           id="path21" />
      </clipPath>
      <clipPath
         clipPathUnits="userSpaceOnUse"
         id="clipPath8">
        <path
           d="M0 0 L128 0 L128 105 L0 105 L0 0 Z"
           id="path24" />
      </clipPath>
      <clipPath
         clipPathUnits="userSpaceOnUse"
         id="clipPath9">
        <path
           d="M0 0 L0 16 L5 16 L5 30 L0 30 L0 97 L1 97 L1 105 L58 105 L58 98 L128 98 L128 31 L31 31 L31 17 L128 17 L128 0 Z"
           id="path27" />
      </clipPath>
      <clipPath
         clipPathUnits="userSpaceOnUse"
         id="clipPath10">
        <path
           d="M0 0 L0 40 L26 40 L26 54 L0 54 L0 106 L70 106 L70 0 Z"
           id="path30" />
      </clipPath>
      <clipPath
         clipPathUnits="userSpaceOnUse"
         id="clipPath11">
        <path
           d="M0 0 L120 0 L120 107 L0 107 L0 0 Z"
           id="path33" />
      </clipPath>
      <clipPath
         clipPathUnits="userSpaceOnUse"
         id="clipPath12">
        <path
           d="M0 0 L0 10 L49 10 L49 30 L0 30 L0 80 L87 80 L87 94 L0 94 L0 107 L120 107 L120 0 Z"
           id="path36" />
      </clipPath>
      <clipPath
         clipPathUnits="userSpaceOnUse"
         id="clipPath13">
        <path
           d="M0 0 L0 106 L70 106 L70 57 L42 57 L42 43 L70 43 L70 0 Z"
           id="path39" />
      </clipPath>
      <clipPath
         clipPathUnits="userSpaceOnUse"
         id="clipPath14">
        <path
           d="M0 0 L70 0 L70 123 L0 123 L0 0 Z"
           id="path42" />
      </clipPath>
      <clipPath
         clipPathUnits="userSpaceOnUse"
         id="clipPath15">
        <path
           d="M0 0 L0 60 L24 60 L24 74 L0 74 L0 123 L70 123 L70 0 Z"
           id="path45" />
      </clipPath>
      <clipPath
         clipPathUnits="userSpaceOnUse"
         id="clipPath16">
        <path
           d="M0 0 L121 0 L121 109 L0 109 L0 0 Z"
           id="path48" />
      </clipPath>
      <clipPath
         clipPathUnits="userSpaceOnUse"
         id="clipPath17">
        <path
           d="M83 0 L83 4 L0 4 L0 21 L29 21 L29 35 L0 35 L0 83 L89 83 L89 97 L0 97 L0 109 L121 109 L121 0 Z"
           id="path51" />
      </clipPath>
      <clipPath
         clipPathUnits="userSpaceOnUse"
         id="clipPath18">
        <path
           d="M0 0 L0 123 L70 123 L70 70 L40 70 L40 56 L70 56 L70 0 Z"
           id="path54" />
      </clipPath>
      <clipPath
         clipPathUnits="userSpaceOnUse"
         id="clipPath19">
        <path
           d="M0 0 L0 59 L25 59 L25 73 L0 73 L0 123 L70 123 L70 0 Z"
           id="path57" />
      </clipPath>
      <clipPath
         clipPathUnits="userSpaceOnUse"
         id="clipPath20">
        <path
           d="M0 0 L113 0 L113 110 L0 110 L0 0 Z"
           id="path60" />
      </clipPath>
      <clipPath
         clipPathUnits="userSpaceOnUse"
         id="clipPath21">
        <path
           d="M72 0 L72 6 L0 6 L0 44 L25 44 L25 58 L0 58 L0 110 L65 110 L65 104 L102 104 L102 110 L113 110 L113 0 Z"
           id="path63" />
      </clipPath>
      <clipPath
         clipPathUnits="userSpaceOnUse"
         id="clipPath22">
        <path
           d="M0 0 L0 123 L70 123 L70 72 L40 72 L40 58 L70 58 L70 0 Z"
           id="path66" />
      </clipPath>
      <clipPath
         clipPathUnits="userSpaceOnUse"
         id="clipPath23">
        <path
           d="M0 0 L224 0 L224 71 L0 71 L0 0 Z"
           id="path69" />
      </clipPath>
      <clipPath
         clipPathUnits="userSpaceOnUse"
         id="clipPath24">
        <path
           d="M132 17 L132 31 L88 31 L88 17 ZM141 38 L141 52 L78 52 L78 38 ZM0 0 L0 71 L224 71 L224 8 L19 8 L19 0 Z"
           id="path72" />
      </clipPath>
      <clipPath
         clipPathUnits="userSpaceOnUse"
         id="clipPath25">
        <path
           d="M141 17 L141 31 L78 31 L78 17 ZM0 0 L0 71 L224 71 L224 0 L132 0 L132 10 L88 10 L88 0 Z"
           id="path75" />
      </clipPath>
      <clipPath
         clipPathUnits="userSpaceOnUse"
         id="clipPath26">
        <path
           d="M0 0 L126 0 L126 146 L0 146 L0 0 Z"
           id="path78" />
      </clipPath>
      <clipPath
         clipPathUnits="userSpaceOnUse"
         id="clipPath27">
        <path
           d="M99 77 L99 98 L62 98 L62 77 ZM0 0 L0 17 L22 17 L22 31 L0 31 L0 146 L47 146 L47 141 L1 141 L1 127 L53 127 L53 134 L126 134 L126 87 L115 87 L115 66 L126 66 L126 0 Z"
           id="path81" />
      </clipPath>
      <clipPath
         clipPathUnits="userSpaceOnUse"
         id="clipPath28">
        <path
           d="M0 0 L70 0 L70 151 L0 151 L0 0 Z"
           id="path84" />
      </clipPath>
      <clipPath
         clipPathUnits="userSpaceOnUse"
         id="clipPath29">
        <path
           d="M0 0 L0 77 L26 77 L26 98 L0 98 L0 134 L70 134 L70 87 L42 87 L42 66 L70 66 L70 0 ZM0 148 L0 151 L70 151 L70 148 Z"
           id="path87" />
      </clipPath>
      <clipPath
         clipPathUnits="userSpaceOnUse"
         id="clipPath30">
        <path
           d="M-38 -21 L76 -21 L76 42 L-38 42 L-38 -21 Z"
           id="path90" />
      </clipPath>
      <clipPath
         clipPathUnits="userSpaceOnUse"
         id="clipPath31">
        <path
           d="M-37 -21 L74 -21 L74 42 L-37 42 L-37 -21 Z"
           id="path93" />
      </clipPath>
      <clipPath
         clipPathUnits="userSpaceOnUse"
         id="clipPath32">
        <path
           d="M-63 -14 L126 -14 L126 28 L-63 28 L-63 -14 Z"
           id="path96" />
      </clipPath>
      <clipPath
         clipPathUnits="userSpaceOnUse"
         id="clipPath33">
        <path
           d="M-44 -14 L88 -14 L88 28 L-44 28 L-44 -14 Z"
           id="path99" />
      </clipPath>
      <clipPath
         clipPathUnits="userSpaceOnUse"
         id="clipPath34">
        <path
           d="M-288 -14 L576 -14 L576 28 L-288 28 L-288 -14 Z"
           id="path102" />
      </clipPath>
      <clipPath
         clipPathUnits="userSpaceOnUse"
         id="clipPath35">
        <path
           d="M-302 -14 L604 -14 L604 28 L-302 28 L-302 -14 Z"
           id="path105" />
      </clipPath>
      <clipPath
         clipPathUnits="userSpaceOnUse"
         id="clipPath36">
        <path
           d="M-306 -14 L612 -14 L612 28 L-306 28 L-306 -14 Z"
           id="path108" />
      </clipPath>
      <clipPath
         clipPathUnits="userSpaceOnUse"
         id="clipPath37">
        <path
           d="M-256 -14 L512 -14 L512 28 L-256 28 L-256 -14 Z"
           id="path111" />
      </clipPath>
      <clipPath
         clipPathUnits="userSpaceOnUse"
         id="clipPath38">
        <path
           d="M-258 -14 L516 -14 L516 28 L-258 28 L-258 -14 Z"
           id="path114" />
      </clipPath>
      <clipPath
         clipPathUnits="userSpaceOnUse"
         id="clipPath39">
        <path
           d="M-274 -14 L548 -14 L548 28 L-274 28 L-274 -14 Z"
           id="path117" />
      </clipPath>
      <clipPath
         clipPathUnits="userSpaceOnUse"
         id="clipPath40">
        <path
           d="M-226 -14 L452 -14 L452 28 L-226 28 L-226 -14 Z"
           id="path120" />
      </clipPath>
      <clipPath
         clipPathUnits="userSpaceOnUse"
         id="clipPath41">
        <path
           d="M-225 -20 L450 -20 L450 40 L-225 40 L-225 -20 Z"
           id="path123" />
      </clipPath>
      <clipPath
         clipPathUnits="userSpaceOnUse"
         id="clipPath42">
        <path
           d="M-242 -14 L484 -14 L484 28 L-242 28 L-242 -14 Z"
           id="path126" />
      </clipPath>
      <clipPath
         clipPathUnits="userSpaceOnUse"
         id="clipPath43">
        <path
           d="M-194 -14 L388 -14 L388 28 L-194 28 L-194 -14 Z"
           id="path129" />
      </clipPath>
      <clipPath
         clipPathUnits="userSpaceOnUse"
         id="clipPath44">
        <path
           d="M-43 -14 L86 -14 L86 28 L-43 28 L-43 -14 Z"
           id="path132" />
      </clipPath>
    </defs>
  </defs>
  <g
     fill="#ffffff"
     text-rendering="geometricPrecision"
     fill-opacity="1"
     stroke-opacity="1"
     stroke="#ffffff"
     id="g138">
    <rect
       x="0"
       width="697"
       height="479"
       y="0"
       stroke="none"
       id="rect136" />
  </g>
  <g
     font-size="11px"
     transform="translate(345,2)"
     fill-opacity="1"
     fill="#000000"
     text-rendering="geometricPrecision"
     image-rendering="optimizeQuality"
     font-family="sans-serif"
     stroke="#000000"
     stroke-opacity="1"
     id="g142">
    <circle
       r="9.5"
       clip-path="url(#clipPath1)"
       cx="9.5"
       cy="9.5"
       stroke="none"
       id="circle140" />
  </g>
  <g
     font-size="11px"
     transform="translate(329,57)"
     fill-opacity="1"
     fill="#7acff5"
     text-rendering="geometricPrecision"
     image-rendering="optimizeQuality"
     font-family="sans-serif"
     stroke="#7acff5"
     stroke-opacity="1"
     id="g146">
    <rect
       x="0"
       y="0"
       clip-path="url(#clipPath2)"
       width="80"
       rx="10"
       ry="10"
       height="40"
       stroke="none"
       id="rect144" />
  </g>
  <g
     stroke-linecap="butt"
     font-size="11px"
     transform="translate(329,57)"
     fill-opacity="1"
     fill="#000000"
     text-rendering="geometricPrecision"
     image-rendering="optimizeQuality"
     font-family="sans-serif"
     stroke-linejoin="round"
     stroke="#000000"
     stroke-opacity="1"
     stroke-miterlimit="0"
     id="g150">
    <rect
       x="0"
       y="0"
       clip-path="url(#clipPath2)"
       fill="none"
       width="80"
       rx="10"
       ry="10"
       height="40"
       id="rect148" />
  </g>
  <g
     font-size="11px"
     transform="translate(329,133)"
     fill-opacity="1"
     fill="#7acff5"
     text-rendering="geometricPrecision"
     image-rendering="optimizeQuality"
     font-family="sans-serif"
     stroke="#7acff5"
     stroke-opacity="1"
     id="g154">
    <rect
       x="0"
       y="0"
       clip-path="url(#clipPath2)"
       width="80"
       rx="10"
       ry="10"
       height="40"
       stroke="none"
       id="rect152" />
  </g>
  <g
     stroke-linecap="butt"
     font-size="11px"
     transform="translate(329,133)"
     fill-opacity="1"
     fill="#000000"
     text-rendering="geometricPrecision"
     image-rendering="optimizeQuality"
     font-family="sans-serif"
     stroke-linejoin="round"
     stroke="#000000"
     stroke-opacity="1"
     stroke-miterlimit="0"
     id="g158">
    <rect
       x="0"
       y="0"
       clip-path="url(#clipPath2)"
       fill="none"
       width="80"
       rx="10"
       ry="10"
       height="40"
       id="rect156" />
  </g>
  <g
     font-size="11px"
     transform="translate(333,227)"
     fill-opacity="1"
     fill="#7acff5"
     text-rendering="geometricPrecision"
     image-rendering="optimizeQuality"
     font-family="sans-serif"
     stroke="#7acff5"
     stroke-opacity="1"
     id="g162">
    <rect
       x="0"
       y="0"
       clip-path="url(#clipPath2)"
       width="80"
       rx="10"
       ry="10"
       height="40"
       stroke="none"
       id="rect160" />
  </g>
  <g
     stroke-linecap="butt"
     font-size="11px"
     transform="translate(333,227)"
     fill-opacity="1"
     fill="#000000"
     text-rendering="geometricPrecision"
     image-rendering="optimizeQuality"
     font-family="sans-serif"
     stroke-linejoin="round"
     stroke="#000000"
     stroke-opacity="1"
     stroke-miterlimit="0"
     id="g166">
    <rect
       x="0"
       y="0"
       clip-path="url(#clipPath2)"
       fill="none"
       width="80"
       rx="10"
       ry="10"
       height="40"
       id="rect164" />
  </g>
  <g
     font-size="11px"
     transform="translate(339,321)"
     fill-opacity="1"
     fill="#7acff5"
     text-rendering="geometricPrecision"
     image-rendering="optimizeQuality"
     font-family="sans-serif"
     stroke="#7acff5"
     stroke-opacity="1"
     id="g170">
    <rect
       x="0"
       y="0"
       clip-path="url(#clipPath2)"
       width="80"
       rx="10"
       ry="10"
       height="40"
       stroke="none"
       id="rect168" />
  </g>
  <g
     stroke-linecap="butt"
     font-size="11px"
     transform="translate(339,321)"
     fill-opacity="1"
     fill="#000000"
     text-rendering="geometricPrecision"
     image-rendering="optimizeQuality"
     font-family="sans-serif"
     stroke-linejoin="round"
     stroke="#000000"
     stroke-opacity="1"
     stroke-miterlimit="0"
     id="g174">
    <rect
       x="0"
       y="0"
       clip-path="url(#clipPath2)"
       fill="none"
       width="80"
       rx="10"
       ry="10"
       height="40"
       id="rect172" />
  </g>
  <g
     font-size="11px"
     transform="translate(572,321)"
     fill-opacity="1"
     fill="#7acff5"
     text-rendering="geometricPrecision"
     image-rendering="optimizeQuality"
     font-family="sans-serif"
     stroke="#7acff5"
     stroke-opacity="1"
     id="g178">
    <rect
       x="0"
       y="0"
       clip-path="url(#clipPath2)"
       width="80"
       rx="10"
       ry="10"
       height="40"
       stroke="none"
       id="rect176" />
  </g>
  <g
     stroke-linecap="butt"
     font-size="11px"
     transform="translate(572,321)"
     fill-opacity="1"
     fill="#000000"
     text-rendering="geometricPrecision"
     image-rendering="optimizeQuality"
     font-family="sans-serif"
     stroke-linejoin="round"
     stroke="#000000"
     stroke-opacity="1"
     stroke-miterlimit="0"
     id="g182">
    <rect
       x="0"
       y="0"
       clip-path="url(#clipPath2)"
       fill="none"
       width="80"
       rx="10"
       ry="10"
       height="40"
       id="rect180" />
  </g>
  <g
     font-size="11px"
     transform="translate(299,434)"
     fill-opacity="1"
     fill="#000000"
     text-rendering="geometricPrecision"
     image-rendering="optimizeQuality"
     font-family="sans-serif"
     stroke="#000000"
     stroke-opacity="1"
     id="g188">
    <circle
       r="7"
       clip-path="url(#clipPath1)"
       cx="10"
       cy="10"
       stroke="none"
       id="circle184" />
    <circle
       stroke-linecap="butt"
       clip-path="url(#clipPath1)"
       fill="none"
       stroke-linejoin="round"
       r="10"
       cx="10"
       cy="10"
       stroke-miterlimit="0"
       id="circle186" />
  </g>
  <g
     font-size="11px"
     transform="translate(378,441)"
     fill-opacity="1"
     fill="#000000"
     text-rendering="geometricPrecision"
     image-rendering="optimizeQuality"
     font-family="sans-serif"
     stroke="#000000"
     stroke-opacity="1"
     id="g194">
    <circle
       r="7"
       clip-path="url(#clipPath1)"
       cx="10"
       cy="10"
       stroke="none"
       id="circle190" />
    <circle
       stroke-linecap="butt"
       clip-path="url(#clipPath1)"
       fill="none"
       stroke-linejoin="round"
       r="10"
       cx="10"
       cy="10"
       stroke-miterlimit="0"
       id="circle192" />
  </g>
  <g
     font-size="11px"
     transform="translate(329,57)"
     fill-opacity="1"
     fill="#000000"
     text-rendering="geometricPrecision"
     image-rendering="optimizeQuality"
     font-family="sans-serif"
     stroke="#000000"
     stroke-opacity="1"
     id="g198">
    <text
       x="23"
       xml:space="preserve"
       y="11"
       clip-path="url(#clipPath3)"
       stroke="none"
       id="text196">offers</text>
  </g>
  <g
     font-size="11px"
     transform="translate(329,133)"
     fill-opacity="1"
     fill="#000000"
     text-rendering="geometricPrecision"
     image-rendering="optimizeQuality"
     font-family="sans-serif"
     stroke="#000000"
     stroke-opacity="1"
     id="g202">
    <text
       x="27"
       xml:space="preserve"
       y="11"
       clip-path="url(#clipPath3)"
       stroke="none"
       id="text200">staff</text>
  </g>
  <g
     font-size="11px"
     transform="translate(333,227)"
     fill-opacity="1"
     fill="#000000"
     text-rendering="geometricPrecision"
     image-rendering="optimizeQuality"
     font-family="sans-serif"
     stroke="#000000"
     stroke-opacity="1"
     id="g206">
    <text
       x="27"
       xml:space="preserve"
       y="11"
       clip-path="url(#clipPath3)"
       stroke="none"
       id="text204">time</text>
  </g>
  <g
     font-size="11px"
     transform="translate(339,321)"
     fill-opacity="1"
     fill="#000000"
     text-rendering="geometricPrecision"
     image-rendering="optimizeQuality"
     font-family="sans-serif"
     stroke="#000000"
     stroke-opacity="1"
     id="g210">
    <text
       x="14"
       xml:space="preserve"
       y="11"
       clip-path="url(#clipPath3)"
       stroke="none"
       id="text208">customer</text>
  </g>
  <g
     font-size="11px"
     transform="translate(572,321)"
     fill-opacity="1"
     fill="#000000"
     text-rendering="geometricPrecision"
     image-rendering="optimizeQuality"
     font-family="sans-serif"
     stroke="#000000"
     stroke-opacity="1"
     id="g214">
    <text
       x="26"
       xml:space="preserve"
       y="11"
       clip-path="url(#clipPath3)"
       stroke="none"
       id="text212">login</text>
  </g>
  <g
     font-size="11px"
     transform="translate(283,454)"
     fill-opacity="1"
     fill="#000000"
     text-rendering="geometricPrecision"
     image-rendering="optimizeQuality"
     font-family="sans-serif"
     stroke="#000000"
     stroke-opacity="1"
     id="g218">
    <text
       x="10"
       xml:space="preserve"
       y="11"
       clip-path="url(#clipPath4)"
       stroke="none"
       id="text216">home</text>
  </g>
  <g
     font-size="11px"
     transform="translate(329,461)"
     fill-opacity="1"
     fill="#000000"
     text-rendering="geometricPrecision"
     image-rendering="optimizeQuality"
     font-family="sans-serif"
     stroke="#000000"
     stroke-opacity="1"
     id="g222">
    <text
       x="10"
       xml:space="preserve"
       y="11"
       clip-path="url(#clipPath5)"
       stroke="none"
       id="text220">my appointments</text>
  </g>
  <g
     stroke-linecap="butt"
     font-size="11px"
     transform="translate(322,-13)"
     fill-opacity="1"
     fill="#000000"
     text-rendering="geometricPrecision"
     image-rendering="optimizeQuality"
     font-family="sans-serif"
     stroke-linejoin="round"
     stroke="#000000"
     stroke-opacity="1"
     id="g230">
    <line
       y2="70"
       fill="none"
       x1="33"
       clip-path="url(#clipPath7)"
       x2="33"
       y1="33"
       id="line224" />
    <line
       y2="58"
       fill="none"
       x1="33"
       clip-path="url(#clipPath7)"
       x2="39"
       y1="70"
       id="line226" />
    <line
       y2="58"
       fill="none"
       x1="33"
       clip-path="url(#clipPath7)"
       x2="27"
       y1="70"
       id="line228" />
  </g>
  <g
     stroke-linecap="butt"
     font-size="11px"
     transform="translate(346,8)"
     fill-opacity="1"
     fill="#000000"
     text-rendering="geometricPrecision"
     image-rendering="optimizeQuality"
     font-family="sans-serif"
     stroke-linejoin="round"
     stroke="#000000"
     stroke-opacity="1"
     id="g244">
    <line
       y2="33"
       fill="none"
       x1="33"
       clip-path="url(#clipPath9)"
       x2="33"
       y1="48"
       id="line232" />
    <line
       y2="33"
       fill="none"
       x1="33"
       clip-path="url(#clipPath9)"
       x2="91"
       y1="33"
       id="line234" />
    <line
       y2="68"
       fill="none"
       x1="91"
       clip-path="url(#clipPath9)"
       x2="91"
       y1="33"
       id="line236" />
    <line
       y2="68"
       fill="none"
       x1="91"
       clip-path="url(#clipPath9)"
       x2="63"
       y1="68"
       id="line238" />
    <line
       y2="74"
       fill="none"
       x1="63"
       clip-path="url(#clipPath9)"
       x2="75"
       y1="68"
       id="line240" />
    <line
       y2="62"
       fill="none"
       x1="63"
       clip-path="url(#clipPath9)"
       x2="75"
       y1="68"
       id="line242" />
  </g>
  <g
     stroke-linecap="butt"
     font-size="11px"
     transform="translate(321,65)"
     fill-opacity="1"
     fill="#000000"
     text-rendering="geometricPrecision"
     image-rendering="optimizeQuality"
     font-family="sans-serif"
     stroke-linejoin="round"
     stroke="#000000"
     stroke-opacity="1"
     id="g252">
    <line
       y2="68"
       fill="none"
       x1="34"
       clip-path="url(#clipPath10)"
       x2="34"
       y1="33"
       id="line246" />
    <line
       y2="56"
       fill="none"
       x1="34"
       clip-path="url(#clipPath10)"
       x2="40"
       y1="68"
       id="line248" />
    <line
       y2="56"
       fill="none"
       x1="34"
       clip-path="url(#clipPath10)"
       x2="28"
       y1="68"
       id="line250" />
  </g>
  <g
     stroke-linecap="butt"
     font-size="11px"
     transform="translate(258,119)"
     fill-opacity="1"
     fill="#000000"
     text-rendering="geometricPrecision"
     image-rendering="optimizeQuality"
     font-family="sans-serif"
     stroke-linejoin="round"
     stroke="#000000"
     stroke-opacity="1"
     id="g266">
    <line
       y2="70"
       fill="none"
       x1="83"
       clip-path="url(#clipPath12)"
       x2="83"
       y1="53"
       id="line254" />
    <line
       y2="70"
       fill="none"
       x1="83"
       clip-path="url(#clipPath12)"
       x2="33"
       y1="70"
       id="line256" />
    <line
       y2="33"
       fill="none"
       x1="33"
       clip-path="url(#clipPath12)"
       x2="33"
       y1="70"
       id="line258" />
    <line
       y2="33"
       fill="none"
       x1="33"
       clip-path="url(#clipPath12)"
       x2="71"
       y1="33"
       id="line260" />
    <line
       y2="27"
       fill="none"
       x1="71"
       clip-path="url(#clipPath12)"
       x2="59"
       y1="33"
       id="line262" />
    <line
       y2="39"
       fill="none"
       x1="71"
       clip-path="url(#clipPath12)"
       x2="59"
       y1="33"
       id="line264" />
  </g>
  <g
     stroke-linecap="butt"
     font-size="11px"
     transform="translate(362,63)"
     fill-opacity="1"
     fill="#000000"
     text-rendering="geometricPrecision"
     image-rendering="optimizeQuality"
     font-family="sans-serif"
     stroke-linejoin="round"
     stroke="#000000"
     stroke-opacity="1"
     id="g274">
    <line
       y2="35"
       fill="none"
       x1="33"
       clip-path="url(#clipPath13)"
       x2="33"
       y1="70"
       id="line268" />
    <line
       y2="47"
       fill="none"
       x1="33"
       clip-path="url(#clipPath13)"
       x2="27"
       y1="35"
       id="line270" />
    <line
       y2="47"
       fill="none"
       x1="33"
       clip-path="url(#clipPath13)"
       x2="39"
       y1="35"
       id="line272" />
  </g>
  <g
     stroke-linecap="butt"
     font-size="11px"
     transform="translate(321,139)"
     fill-opacity="1"
     fill="#000000"
     text-rendering="geometricPrecision"
     image-rendering="optimizeQuality"
     font-family="sans-serif"
     stroke-linejoin="round"
     stroke="#000000"
     stroke-opacity="1"
     id="g282">
    <line
       y2="86"
       fill="none"
       x1="33"
       clip-path="url(#clipPath15)"
       x2="33"
       y1="34"
       id="line276" />
    <line
       y2="74"
       fill="none"
       x1="33"
       clip-path="url(#clipPath15)"
       x2="39"
       y1="86"
       id="line278" />
    <line
       y2="74"
       fill="none"
       x1="33"
       clip-path="url(#clipPath15)"
       x2="27"
       y1="86"
       id="line280" />
  </g>
  <g
     stroke-linecap="butt"
     font-size="11px"
     transform="translate(262,209)"
     fill-opacity="1"
     fill="#000000"
     text-rendering="geometricPrecision"
     image-rendering="optimizeQuality"
     font-family="sans-serif"
     stroke-linejoin="round"
     stroke="#000000"
     stroke-opacity="1"
     id="g296">
    <line
       y2="72"
       fill="none"
       x1="84"
       clip-path="url(#clipPath17)"
       x2="84"
       y1="58"
       id="line284" />
    <line
       y2="72"
       fill="none"
       x1="84"
       clip-path="url(#clipPath17)"
       x2="33"
       y1="72"
       id="line286" />
    <line
       y2="33"
       fill="none"
       x1="33"
       clip-path="url(#clipPath17)"
       x2="33"
       y1="72"
       id="line288" />
    <line
       y2="33"
       fill="none"
       x1="33"
       clip-path="url(#clipPath17)"
       x2="71"
       y1="33"
       id="line290" />
    <line
       y2="27"
       fill="none"
       x1="71"
       clip-path="url(#clipPath17)"
       x2="59"
       y1="33"
       id="line292" />
    <line
       y2="39"
       fill="none"
       x1="71"
       clip-path="url(#clipPath17)"
       x2="59"
       y1="33"
       id="line294" />
  </g>
  <g
     stroke-linecap="butt"
     font-size="11px"
     transform="translate(363,139)"
     fill-opacity="1"
     fill="#000000"
     text-rendering="geometricPrecision"
     image-rendering="optimizeQuality"
     font-family="sans-serif"
     stroke-linejoin="round"
     stroke="#000000"
     stroke-opacity="1"
     id="g304">
    <line
       y2="34"
       fill="none"
       x1="33"
       clip-path="url(#clipPath18)"
       x2="33"
       y1="86"
       id="line298" />
    <line
       y2="46"
       fill="none"
       x1="33"
       clip-path="url(#clipPath18)"
       x2="27"
       y1="34"
       id="line300" />
    <line
       y2="46"
       fill="none"
       x1="33"
       clip-path="url(#clipPath18)"
       x2="39"
       y1="34"
       id="line302" />
  </g>
  <g
     stroke-linecap="butt"
     font-size="11px"
     transform="translate(326,233)"
     fill-opacity="1"
     fill="#000000"
     text-rendering="geometricPrecision"
     image-rendering="optimizeQuality"
     font-family="sans-serif"
     stroke-linejoin="round"
     stroke="#000000"
     stroke-opacity="1"
     id="g312">
    <line
       y2="86"
       fill="none"
       x1="33"
       clip-path="url(#clipPath19)"
       x2="33"
       y1="34"
       id="line306" />
    <line
       y2="74"
       fill="none"
       x1="33"
       clip-path="url(#clipPath19)"
       x2="39"
       y1="86"
       id="line308" />
    <line
       y2="74"
       fill="none"
       x1="33"
       clip-path="url(#clipPath19)"
       x2="27"
       y1="86"
       id="line310" />
  </g>
  <g
     stroke-linecap="butt"
     font-size="11px"
     transform="translate(279,300)"
     fill-opacity="1"
     fill="#000000"
     text-rendering="geometricPrecision"
     image-rendering="optimizeQuality"
     font-family="sans-serif"
     stroke-linejoin="round"
     stroke="#000000"
     stroke-opacity="1"
     id="g326">
    <line
       y2="73"
       fill="none"
       x1="76"
       clip-path="url(#clipPath21)"
       x2="76"
       y1="61"
       id="line314" />
    <line
       y2="73"
       fill="none"
       x1="76"
       clip-path="url(#clipPath21)"
       x2="33"
       y1="73"
       id="line316" />
    <line
       y2="33"
       fill="none"
       x1="33"
       clip-path="url(#clipPath21)"
       x2="33"
       y1="73"
       id="line318" />
    <line
       y2="33"
       fill="none"
       x1="33"
       clip-path="url(#clipPath21)"
       x2="59"
       y1="33"
       id="line320" />
    <line
       y2="27"
       fill="none"
       x1="59"
       clip-path="url(#clipPath21)"
       x2="47"
       y1="33"
       id="line322" />
    <line
       y2="39"
       fill="none"
       x1="59"
       clip-path="url(#clipPath21)"
       x2="47"
       y1="33"
       id="line324" />
  </g>
  <g
     stroke-linecap="butt"
     font-size="11px"
     transform="translate(365,233)"
     fill-opacity="1"
     fill="#000000"
     text-rendering="geometricPrecision"
     image-rendering="optimizeQuality"
     font-family="sans-serif"
     stroke-linejoin="round"
     stroke="#000000"
     stroke-opacity="1"
     id="g334">
    <line
       y2="34"
       fill="none"
       x1="33"
       clip-path="url(#clipPath22)"
       x2="33"
       y1="86"
       id="line328" />
    <line
       y2="46"
       fill="none"
       x1="33"
       clip-path="url(#clipPath22)"
       x2="27"
       y1="34"
       id="line330" />
    <line
       y2="46"
       fill="none"
       x1="33"
       clip-path="url(#clipPath22)"
       x2="39"
       y1="34"
       id="line332" />
  </g>
  <g
     stroke-linecap="butt"
     font-size="11px"
     transform="translate(386,297)"
     fill-opacity="1"
     fill="#000000"
     text-rendering="geometricPrecision"
     image-rendering="optimizeQuality"
     font-family="sans-serif"
     stroke-linejoin="round"
     stroke="#000000"
     stroke-opacity="1"
     id="g342">
    <line
       y2="33"
       fill="none"
       x1="33"
       clip-path="url(#clipPath24)"
       x2="187"
       y1="33"
       id="line336" />
    <line
       y2="27"
       fill="none"
       x1="187"
       clip-path="url(#clipPath24)"
       x2="175"
       y1="33"
       id="line338" />
    <line
       y2="39"
       fill="none"
       x1="187"
       clip-path="url(#clipPath24)"
       x2="175"
       y1="33"
       id="line340" />
  </g>
  <g
     stroke-linecap="butt"
     font-size="11px"
     transform="translate(386,318)"
     fill-opacity="1"
     fill="#000000"
     text-rendering="geometricPrecision"
     image-rendering="optimizeQuality"
     font-family="sans-serif"
     stroke-linejoin="round"
     stroke="#000000"
     stroke-opacity="1"
     id="g350">
    <line
       y2="33"
       fill="none"
       x1="187"
       clip-path="url(#clipPath25)"
       x2="33"
       y1="33"
       id="line344" />
    <line
       y2="39"
       fill="none"
       x1="33"
       clip-path="url(#clipPath25)"
       x2="45"
       y1="33"
       id="line346" />
    <line
       y2="27"
       fill="none"
       x1="33"
       clip-path="url(#clipPath25)"
       x2="45"
       y1="33"
       id="line348" />
  </g>
  <g
     stroke-linecap="butt"
     font-size="11px"
     transform="translate(282,327)"
     fill-opacity="1"
     fill="#000000"
     text-rendering="geometricPrecision"
     image-rendering="optimizeQuality"
     font-family="sans-serif"
     stroke-linejoin="round"
     stroke="#000000"
     stroke-opacity="1"
     id="g358">
    <line
       y2="109"
       fill="none"
       x1="89"
       clip-path="url(#clipPath27)"
       x2="33"
       y1="33"
       id="line352" />
    <line
       y2="103"
       fill="none"
       x1="33"
       clip-path="url(#clipPath27)"
       x2="44"
       y1="109"
       id="line354" />
    <line
       y2="96"
       fill="none"
       x1="33"
       clip-path="url(#clipPath27)"
       x2="34"
       y1="109"
       id="line356" />
  </g>
  <g
     stroke-linecap="butt"
     font-size="11px"
     transform="translate(355,327)"
     fill-opacity="1"
     fill="#000000"
     text-rendering="geometricPrecision"
     image-rendering="optimizeQuality"
     font-family="sans-serif"
     stroke-linejoin="round"
     stroke="#000000"
     stroke-opacity="1"
     id="g366">
    <line
       y2="114"
       fill="none"
       x1="33"
       clip-path="url(#clipPath29)"
       x2="33"
       y1="33"
       id="line360" />
    <line
       y2="102"
       fill="none"
       x1="33"
       clip-path="url(#clipPath29)"
       x2="39"
       y1="114"
       id="line362" />
    <line
       y2="102"
       fill="none"
       x1="33"
       clip-path="url(#clipPath29)"
       x2="27"
       y1="114"
       id="line364" />
  </g>
  <g
     font-size="11px"
     transform="translate(397,393)"
     fill-opacity="1"
     fill="#000000"
     text-rendering="geometricPrecision"
     image-rendering="optimizeQuality"
     font-family="sans-serif"
     stroke="#000000"
     stroke-opacity="1"
     id="g370">
    <text
       x="7"
       xml:space="preserve"
       y="14"
       clip-path="url(#clipPath30)"
       stroke="none"
       id="text368">GET</text>
  </g>
  <g
     font-size="11px"
     transform="translate(344,404)"
     fill-opacity="1"
     fill="#000000"
     text-rendering="geometricPrecision"
     image-rendering="optimizeQuality"
     font-family="sans-serif"
     stroke="#000000"
     stroke-opacity="1"
     id="g374">
    <text
       x="6"
       xml:space="preserve"
       y="14"
       clip-path="url(#clipPath31)"
       stroke="none"
       id="text372">GET</text>
  </g>
  <g
     font-size="11px"
     transform="translate(464,335)"
     fill-opacity="1"
     fill="#000000"
     text-rendering="geometricPrecision"
     image-rendering="optimizeQuality"
     font-family="sans-serif"
     stroke="#000000"
     stroke-opacity="1"
     id="g378">
    <text
       x="10"
       xml:space="preserve"
       y="11"
       clip-path="url(#clipPath32)"
       stroke="none"
       id="text376">redirect</text>
  </g>
  <g
     font-size="11px"
     transform="translate(474,314)"
     fill-opacity="1"
     fill="#000000"
     text-rendering="geometricPrecision"
     image-rendering="optimizeQuality"
     font-family="sans-serif"
     stroke="#000000"
     stroke-opacity="1"
     id="g382">
    <text
       x="10"
       xml:space="preserve"
       y="11"
       clip-path="url(#clipPath33)"
       stroke="none"
       id="text380">GET</text>
  </g>
  <g
     font-size="11px"
     transform="translate(405,291)"
     fill-opacity="1"
     fill="#000000"
     text-rendering="geometricPrecision"
     image-rendering="optimizeQuality"
     font-family="sans-serif"
     stroke="#000000"
     stroke-opacity="1"
     id="g386">
    <text
       x="9"
       xml:space="preserve"
       y="11"
       clip-path="url(#clipPath34)"
       stroke="none"
       id="text384">back (GET, providing selected time, staff, offers)</text>
  </g>
  <g
     font-size="11px"
     transform="translate(2,344)"
     fill-opacity="1"
     fill="#000000"
     text-rendering="geometricPrecision"
     image-rendering="optimizeQuality"
     font-family="sans-serif"
     stroke="#000000"
     stroke-opacity="1"
     id="g390">
    <text
       x="5"
       xml:space="preserve"
       y="11"
       clip-path="url(#clipPath35)"
       stroke="none"
       id="text388">book (POST current user, selected time, staff, offers)</text>
  </g>
  <g
     font-size="11px"
     transform="translate(45,292)"
     fill-opacity="1"
     fill="#000000"
     text-rendering="geometricPrecision"
     image-rendering="optimizeQuality"
     font-family="sans-serif"
     stroke="#000000"
     stroke-opacity="1"
     id="g394">
    <text
       x="10"
       xml:space="preserve"
       y="11"
       clip-path="url(#clipPath36)"
       stroke="none"
       id="text392">redirect (GET, providing selected time, staff, offers)</text>
  </g>
  <g
     font-size="11px"
     transform="translate(403,195)"
     fill-opacity="1"
     fill="#000000"
     text-rendering="geometricPrecision"
     image-rendering="optimizeQuality"
     font-family="sans-serif"
     stroke="#000000"
     stroke-opacity="1"
     id="g398">
    <text
       x="10"
       xml:space="preserve"
       y="11"
       clip-path="url(#clipPath37)"
       stroke="none"
       id="text396">back (GET, providing selected staff, offers)</text>
  </g>
  <g
     font-size="11px"
     transform="translate(33,230)"
     fill-opacity="1"
     fill="#000000"
     text-rendering="geometricPrecision"
     image-rendering="optimizeQuality"
     font-family="sans-serif"
     stroke="#000000"
     stroke-opacity="1"
     id="g402">
    <text
       x="9"
       xml:space="preserve"
       y="11"
       clip-path="url(#clipPath38)"
       stroke="none"
       id="text400">continue (POST selected time, staff, offers)</text>
  </g>
  <g
     font-size="11px"
     transform="translate(71,199)"
     fill-opacity="1"
     fill="#000000"
     text-rendering="geometricPrecision"
     image-rendering="optimizeQuality"
     font-family="sans-serif"
     stroke="#000000"
     stroke-opacity="1"
     id="g406">
    <text
       x="10"
       xml:space="preserve"
       y="11"
       clip-path="url(#clipPath39)"
       stroke="none"
       id="text404">redirect (GET, providing selected staff, offers)</text>
  </g>
  <g
     font-size="11px"
     transform="translate(404,106)"
     fill-opacity="1"
     fill="#000000"
     text-rendering="geometricPrecision"
     image-rendering="optimizeQuality"
     font-family="sans-serif"
     stroke="#000000"
     stroke-opacity="1"
     id="g410">
    <text
       x="10"
       xml:space="preserve"
       y="11"
       clip-path="url(#clipPath40)"
       stroke="none"
       id="text408">back (GET, providing selected offers)</text>
  </g>
  <g
     font-size="11px"
     transform="translate(82,129)"
     fill-opacity="1"
     fill="#000000"
     text-rendering="geometricPrecision"
     image-rendering="optimizeQuality"
     font-family="sans-serif"
     stroke="#000000"
     stroke-opacity="1"
     id="g414">
    <text
       x="9"
       xml:space="preserve"
       y="14"
       clip-path="url(#clipPath41)"
       stroke="none"
       id="text412">continue (POST selected staff, offers)</text>
  </g>
  <g
     font-size="11px"
     transform="translate(105,105)"
     fill-opacity="1"
     fill="#000000"
     text-rendering="geometricPrecision"
     image-rendering="optimizeQuality"
     font-family="sans-serif"
     stroke="#000000"
     stroke-opacity="1"
     id="g418">
    <text
       x="10"
       xml:space="preserve"
       y="11"
       clip-path="url(#clipPath42)"
       stroke="none"
       id="text416">redirect (GET, providing selected offers)</text>
  </g>
  <g
     font-size="11px"
     transform="translate(377,25)"
     fill-opacity="1"
     fill="#000000"
     text-rendering="geometricPrecision"
     image-rendering="optimizeQuality"
     font-family="sans-serif"
     stroke="#000000"
     stroke-opacity="1"
     id="g422">
    <text
       x="10"
       xml:space="preserve"
       y="11"
       clip-path="url(#clipPath43)"
       stroke="none"
       id="text420">continue (POST selected offers)</text>
  </g>
  <g
     font-size="11px"
     transform="translate(308,24)"
     fill-opacity="1"
     fill="#000000"
     text-rendering="geometricPrecision"
     image-rendering="optimizeQuality"
     font-family="sans-serif"
     stroke="#000000"
     stroke-opacity="1"
     id="g426">
    <text
       x="9"
       xml:space="preserve"
       y="11"
       clip-path="url(#clipPath44)"
       stroke="none"
       id="text424">GET</text>
  </g>
</svg>
