<?xml version="1.0" encoding="UTF-8" standalone="no"?>
<!-- Created with Inkscape (http://www.inkscape.org/) -->

<svg
   width="56.0px"
   height="56.0px"
   viewBox="0 0 56.0 56.0"
   version="1.1"
   id="SVGRoot"
   sodipodi:docname="child-haircut.svg"
   inkscape:version="1.1.2 (0a00cf5339, 2022-02-04)"
   xmlns:inkscape="http://www.inkscape.org/namespaces/inkscape"
   xmlns:sodipodi="http://sodipodi.sourceforge.net/DTD/sodipodi-0.dtd"
   xmlns="http://www.w3.org/2000/svg"
   xmlns:svg="http://www.w3.org/2000/svg">
  <sodipodi:namedview
     id="namedview2659"
     pagecolor="#ffffff"
     bordercolor="#666666"
     borderopacity="1.0"
     inkscape:pageshadow="2"
     inkscape:pageopacity="0.0"
     inkscape:pagecheckerboard="0"
     inkscape:document-units="px"
     showgrid="true"
     inkscape:zoom="10.12009"
     inkscape:cx="33.3001"
     inkscape:cy="30.236886"
     inkscape:window-width="1920"
     inkscape:window-height="1003"
     inkscape:window-x="0"
     inkscape:window-y="40"
     inkscape:window-maximized="1"
     inkscape:current-layer="layer1">
    <inkscape:grid
       type="xygrid"
       id="grid2722" />
  </sodipodi:namedview>
  <defs
     id="defs2654">
    <inkscape:path-effect
       effect="bspline"
       id="path-effect980"
       is_visible="true"
       lpeversion="1"
       weight="33.333333"
       steps="2"
       helper_size="0"
       apply_no_weight="true"
       apply_with_weight="true"
       only_selected="false" />
    <inkscape:path-effect
       effect="bspline"
       id="path-effect984"
       is_visible="true"
       lpeversion="1"
       weight="33.333333"
       steps="2"
       helper_size="0"
       apply_no_weight="true"
       apply_with_weight="true"
       only_selected="false" />
    <inkscape:path-effect
       effect="bspline"
       id="path-effect988"
       is_visible="true"
       lpeversion="1"
       weight="33.333333"
       steps="2"
       helper_size="0"
       apply_no_weight="true"
       apply_with_weight="true"
       only_selected="false" />
    <inkscape:path-effect
       effect="bspline"
       id="path-effect992"
       is_visible="true"
       lpeversion="1"
       weight="33.333333"
       steps="2"
       helper_size="0"
       apply_no_weight="true"
       apply_with_weight="true"
       only_selected="false" />
    <inkscape:path-effect
       effect="bspline"
       id="path-effect996"
       is_visible="true"
       lpeversion="1"
       weight="33.333333"
       steps="2"
       helper_size="0"
       apply_no_weight="true"
       apply_with_weight="true"
       only_selected="false" />
    <inkscape:path-effect
       effect="bspline"
       id="path-effect1000"
       is_visible="true"
       lpeversion="1"
       weight="33.333333"
       steps="2"
       helper_size="0"
       apply_no_weight="true"
       apply_with_weight="true"
       only_selected="false" />
    <inkscape:path-effect
       effect="bspline"
       id="path-effect1004"
       is_visible="true"
       lpeversion="1"
       weight="33.333333"
       steps="2"
       helper_size="0"
       apply_no_weight="true"
       apply_with_weight="true"
       only_selected="false" />
    <inkscape:path-effect
       effect="bspline"
       id="path-effect1008"
       is_visible="true"
       lpeversion="1"
       weight="33.333333"
       steps="2"
       helper_size="0"
       apply_no_weight="true"
       apply_with_weight="true"
       only_selected="false" />
    <inkscape:path-effect
       effect="bspline"
       id="path-effect1012"
       is_visible="true"
       lpeversion="1"
       weight="33.333333"
       steps="2"
       helper_size="0"
       apply_no_weight="true"
       apply_with_weight="true"
       only_selected="false" />
    <inkscape:path-effect
       effect="bspline"
       id="path-effect1016"
       is_visible="true"
       lpeversion="1"
       weight="33.333333"
       steps="2"
       helper_size="0"
       apply_no_weight="true"
       apply_with_weight="true"
       only_selected="false" />
    <inkscape:path-effect
       effect="bspline"
       id="path-effect1053"
       is_visible="true"
       lpeversion="1"
       weight="33.333333"
       steps="2"
       helper_size="0"
       apply_no_weight="true"
       apply_with_weight="true"
       only_selected="false" />
    <inkscape:path-effect
       effect="bspline"
       id="path-effect2040"
       is_visible="true"
       lpeversion="1"
       weight="33.333333"
       steps="2"
       helper_size="0"
       apply_no_weight="true"
       apply_with_weight="true"
       only_selected="false" />
  </defs>
  <g
     inkscape:label="Layer 1"
     inkscape:groupmode="layer"
     id="layer1">
    <g
       id="g21584">
      <path
         style="opacity:1;fill:#f4e3d7;stroke:#000000;stroke-width:0.299758;stroke-linecap:butt;stroke-linejoin:miter;stroke-miterlimit:4;stroke-dasharray:none;stroke-opacity:1"
         d="m 24.088813,41.66333 c 0.132937,0.234331 0.398644,0.702697 0.740557,1.195436 0.341912,0.492739 0.75996,1.00985 1.176743,1.444939 0.416782,0.43509 0.832225,0.788176 1.356392,1.176287 0.524166,0.388111 1.157002,0.811257 1.829178,1.24651 0.672176,0.435253 1.389588,0.88633 2.146039,1.267472 0.756451,0.381141 1.554853,0.694256 2.357076,0.959996 0.802222,0.265741 1.608245,0.484136 2.248485,0.571159 0.64024,0.08702 1.114726,0.04277 1.556584,0.08339 0.441859,0.04062 0.850991,0.165997 1.345142,0.266584 0.494151,0.100587 1.073324,0.176434 1.539757,0.208243 0.466433,0.03181 0.820122,0.01962 1.080857,-0.0044 0.260734,-0.02404 0.429305,-0.06007 0.617743,-0.151827 0.188439,-0.09176 0.397251,-0.239319 0.592623,-0.377175 0.195372,-0.137855 0.377288,-0.265993 0.549954,-0.372815 0.172667,-0.106823 0.336029,-0.19231 0.511878,-0.30507 0.175848,-0.11276 0.36422,-0.252801 0.517581,-0.384282 0.15336,-0.131481 0.271739,-0.254425 0.374666,-0.431315 0.102927,-0.17689 0.190948,-0.409177 0.2825,-0.723612 0.09155,-0.314435 0.188742,-0.718316 0.270494,-1.083384 0.08175,-0.365069 0.148613,-0.693621 0.203307,-1.006015 0.05469,-0.312393 0.09721,-0.608621 0.186228,-0.898651 0.08902,-0.29003 0.224564,-0.573742 0.373383,-0.868345 0.148819,-0.294604 0.310901,-0.600065 0.484669,-0.955831 0.173767,-0.355766 0.359212,-0.761835 0.552436,-1.179289 0.193224,-0.417454 0.394217,-0.846268 0.642904,-1.371396 0.248687,-0.525129 0.54506,-1.146555 0.761392,-1.56919 0.216331,-0.422635 0.352599,-0.646417 0.446524,-0.870932 0.09392,-0.224515 0.145501,-0.449859 0.173205,-0.590952 0.02771,-0.141092 0.03208,-0.206456 0.03393,-0.545311 0.0019,-0.338855 0.0015,-0.955432 -9.51e-4,-1.524171 -0.0024,-0.568739 -0.0069,-1.095823 -0.03058,-1.459579 -0.02371,-0.363756 -0.06676,-0.567313 -0.127053,-0.828672 -0.06029,-0.26136 -0.139704,-0.588234 -0.234479,-0.926802 -0.09477,-0.338567 -0.205867,-0.692681 -0.323203,-1.064991 -0.117336,-0.372311 -0.240909,-0.762794 -0.346868,-1.052075 -0.10596,-0.289281 -0.194345,-0.477345 -0.217828,-0.615773 -0.02348,-0.138428 0.01812,-0.227009 0.120232,-0.351062 0.102111,-0.124053 0.264666,-0.283453 0.434145,-0.450765 0.169479,-0.167312 0.345874,-0.342528 0.496512,-0.550868 0.150637,-0.20834 0.275559,-0.449887 0.361694,-0.71576 0.08613,-0.265874 0.133463,-0.556168 0.17595,-1.347749 0.04249,-0.791582 0.08028,-2.09053 0.10374,-3.083242 0.02346,-0.992712 0.03266,-1.682183 0.0079,-2.255374 -0.02475,-0.573192 -0.0835,-1.030098 -0.167399,-1.388626 -0.0839,-0.358528 -0.193039,-0.618681 -0.260387,-0.768517 -0.06735,-0.149836 -0.09296,-0.189326 -0.162118,-0.08364 -0.06916,0.105686 -0.181623,0.356719 -0.260846,0.47613 -0.07922,0.11941 -0.119867,0.108723 -0.177906,0.03458 -0.05804,-0.07414 -0.133165,-0.216246 -0.204678,-0.252542 -0.07151,-0.0363 -0.140592,0.03099 -0.21293,0.09592 -0.07234,0.06493 -0.144775,0.12489 -0.220607,0.08403 -0.07583,-0.04086 -0.153595,-0.184175 -0.233348,-0.279265 -0.07975,-0.09509 -0.177811,-0.151064 -0.244878,-0.09463 -0.06707,0.05644 -0.110896,0.220661 -0.144091,0.374029 -0.03319,0.153367 -0.05577,0.295834 -0.131786,0.285077 -0.07602,-0.01076 -0.205727,-0.17481 -0.368782,-0.430907 -0.163056,-0.256098 -0.3594,-0.604245 -0.524394,-0.882044 -0.164994,-0.277799 -0.298647,-0.485229 -0.380037,-0.572556 -0.08139,-0.08733 -0.113887,-0.0502 -0.129234,0.09459 -0.01535,0.144784 -0.01535,0.399017 0.0053,0.63097 0.02062,0.231953 0.06336,0.449481 0.106494,0.671367 0.04314,0.221887 0.08746,0.45208 0.136375,0.701641 0.04892,0.249561 0.102422,0.518478 0.164732,0.74855 0.06231,0.230072 0.140077,0.43933 0.177228,0.582298 0.03715,0.142968 0.03715,0.228721 -0.04343,0.352465 -0.08058,0.123743 -0.241727,0.28572 -0.51994,0.464367 -0.278213,0.178647 -0.673571,0.374005 -0.994619,0.525501 -0.321049,0.151496 -0.567782,0.259121 -0.870978,0.382592 -0.303195,0.123471 -0.662848,0.262781 -1.087877,0.382541 -0.425029,0.11976 -0.923695,0.221633 -1.468462,0.35976 -0.544767,0.138127 -1.139689,0.313348 -1.592854,0.42982 -0.453166,0.116471 -0.764585,0.174177 -1.033671,0.220605 -0.269087,0.04643 -0.495831,0.08157 -0.820498,0.133827 -0.324667,0.05226 -0.747233,0.121624 -1.180117,0.192344 -0.432884,0.07072 -0.86519,0.141022 -1.095103,0.164183 -0.229914,0.02316 -0.252021,-0.002 -0.168277,-0.536877 0.08374,-0.534875 0.275044,-1.587302 0.375919,-2.146273 0.100875,-0.55897 0.112042,-0.62845 0.0642,-0.599412 -0.04784,0.02904 -0.158088,0.160824 -0.262477,0.254812 -0.104389,0.09399 -0.204714,0.152274 -0.254201,0.142293 -0.04949,-0.01 -0.04805,-0.08852 -0.0612,-0.347707 -0.01315,-0.259189 -0.0409,-0.69903 -0.09225,-1.011864 -0.05135,-0.312833 -0.130975,-0.510034 -0.194216,-0.602239 -0.06324,-0.0922 -0.11246,-0.08476 -0.183638,-0.08098 -0.07118,0.0038 -0.164368,0.0039 -0.226974,0.09509 -0.06261,0.09124 -0.09435,0.273422 -0.159704,0.518375 -0.06536,0.244954 -0.164306,0.552705 -0.220978,0.834877 -0.05667,0.282172 -0.0711,0.538666 -0.10433,0.814926 -0.03323,0.27626 -0.08525,0.572304 -0.132,0.901044 -0.04675,0.32874 -0.08825,0.690133 -0.117401,1.005256 -0.02915,0.315122 -0.04595,0.583935 -0.07618,0.755787 -0.03023,0.171851 -0.07384,0.24688 -0.08844,0.236366 -0.0146,-0.01051 -1.94e-4,-0.106707 0.01297,-0.922973 0.01317,-0.816266 0.02508,-2.352583 0.02009,-3.169589 -0.005,-0.817007 -0.02692,-0.914713 -0.148038,-0.971119 -0.121115,-0.05641 -0.341596,-0.07123 -0.495586,0.114771 -0.15399,0.186005 -0.24118,0.572664 -0.314724,0.847792 -0.07354,0.275129 -0.133428,0.438756 -0.184159,0.846293 -0.05073,0.407538 -0.09234,1.058863 -0.162872,1.613771 -0.07053,0.554909 -0.169955,1.013415 -0.235058,1.265477 -0.0651,0.252062 -0.09588,0.2978 -0.115366,0.293449 -0.01948,-0.0044 -0.02877,-0.06581 0.01269,-0.679682 0.04147,-0.613872 0.133245,-1.783468 0.139697,-2.423432 0.0065,-0.639964 -0.07263,-0.750318 -0.142714,-0.813892 -0.07008,-0.06358 -0.131241,-0.08016 -0.182852,-0.05697 -0.05161,0.0232 -0.09725,0.09212 -0.191747,0.271801 -0.09449,0.179679 -0.239782,0.473018 -0.37857,0.861343 -0.138789,0.388325 -0.271073,0.871543 -0.451712,1.255595 -0.180638,0.384051 -0.409641,0.669055 -0.56842,0.911449 -0.15878,0.242395 -0.247303,0.442084 -0.301679,0.68558 -0.05438,0.243496 -0.07464,0.530671 -0.11172,0.705269 -0.03708,0.174598 -0.09096,0.236805 -0.152394,0.230814 -0.06143,-0.006 -0.130666,-0.08043 -0.227869,-0.169845 -0.0972,-0.08942 -0.222402,-0.193771 -0.363049,-0.382744 -0.140646,-0.188973 -0.29663,-0.462621 -0.425206,-0.780854 -0.128575,-0.318234 -0.22965,-0.681034 -0.303843,-0.886095 -0.07419,-0.205061 -0.121671,-0.252333 -0.14317,-0.229037 -0.0215,0.0233 -0.01678,0.117157 -0.09173,0.509756 -0.07495,0.392598 -0.229515,1.083988 -0.397911,1.474529 -0.168396,0.390541 -0.350756,0.48045 -0.471561,0.580249 -0.120804,0.0998 -0.181799,0.212868 -0.22966,0.297619 -0.04786,0.08475 -0.08533,0.145875 -0.165086,0.06335 -0.07976,-0.08252 -0.202879,-0.307423 -0.381329,-0.743208 -0.178451,-0.435786 -0.412166,-1.082428 -0.587245,-1.639313 -0.175079,-0.556886 -0.291907,-1.025694 -0.376259,-1.275562 -0.08435,-0.249867 -0.136662,-0.281528 -0.172184,-0.234864 -0.03552,0.04666 -0.05393,0.171617 -0.158911,0.696815 -0.104978,0.525197 -0.296502,1.450616 -0.535811,2.180059 -0.239309,0.729443 -0.532928,1.275141 -0.709158,1.625918 -0.17623,0.350778 -0.238334,0.512658 -0.317614,0.379962 -0.07928,-0.132696 -0.175845,-0.560114 -0.486989,-0.604907 -0.311144,-0.04479 -0.836841,0.293361 -1.293103,0.531158 -0.456261,0.237797 -0.843141,0.375235 -1.008338,0.126744 -0.165197,-0.248491 -0.108544,-0.883163 -0.01488,-1.561442 0.09366,-0.678279 0.224334,-1.400098 0.154733,-1.666834 -0.0696,-0.266736 -0.33955,-0.07815 -0.689665,0.01141 -0.350115,0.08956 -0.78057,0.08005 -1.193769,0.413531 -0.413198,0.333478 -0.808816,1.009842 -1.121648,1.660213 -0.312832,0.650371 -0.542855,1.274648 -0.929112,1.475983 -0.386258,0.201334 -0.91571,-0.01481 -1.310173,-0.096 -0.394463,-0.08119 -0.647122,-0.02454 -1.023021,-0.104496 -0.375899,-0.07996 -0.875128,-0.296697 -1.531444,-0.733384 -0.656316,-0.436688 -1.469648,-1.093385 -1.876256,-1.384452 -0.406608,-0.291068 -0.406208,-0.216533 -0.382071,0.173639 0.02414,0.390171 0.07199,1.095936 0.382719,2.106866 0.310726,1.010931 0.884188,2.326928 1.478762,3.543763 0.594574,1.216836 1.210194,2.334446 1.543234,2.927901 0.333041,0.593455 0.383448,0.662746 0.311037,0.741812 -0.07241,0.07907 -0.282873,0.175239 -0.475929,0.360736 -0.193056,0.185497 -0.37621,0.463701 -0.516099,0.744837 -0.139889,0.281137 -0.236497,0.565107 -0.289326,0.817341 -0.05283,0.252235 -0.06263,0.489843 -0.0093,0.733216 0.05337,0.243373 0.169401,0.501036 0.334377,0.801105 0.164977,0.300069 0.378842,0.642533 0.672963,1.031099 0.294121,0.388567 0.668434,0.823236 0.942164,1.187733 0.27373,0.364496 0.44692,0.658772 0.708644,0.963794 0.261724,0.305022 0.611877,0.620831 0.937971,0.872729 0.326094,0.251899 0.63548,0.444534 0.995756,0.620743 0.360277,0.176208 0.775108,0.338345 1.10208,0.502317 0.326972,0.163971 0.566082,0.329688 0.775839,0.483007 0.209758,0.153319 0.390163,0.294216 0.628102,0.401685 0.23794,0.107469 0.533378,0.181645 0.88605,0.213726 0.352673,0.03208 0.762607,0.02215 1.088195,-0.01367 0.325587,-0.03581 0.571041,-0.09852 0.768587,-0.166855 0.197546,-0.06834 0.356181,-0.146187 0.470442,-0.319689 0.114262,-0.173502 0.18772,-0.444539 0.182911,-0.829107 -0.0048,-0.384567 -0.08797,-0.882752 -0.07848,-1.052361 0.0095,-0.169609 0.111499,-0.01065 0.162411,0.06869 0.05091,0.07934 0.05096,0.07933 0.183898,0.313664 z"
         id="path978"
         inkscape:original-d="m 23.955875,41.428999 c 0.265957,0.468616 0.531662,0.936983 0.797124,1.405103 0.41831,0.517381 0.836358,1.034492 1.254169,1.551365 0.415709,0.353349 0.831151,0.706437 1.246359,1.059284 0.633105,0.42341 1.265941,0.846556 1.898541,1.269461 0.714719,0.442887 1.429162,0.898686 2.143375,1.34766 0.798679,0.313373 1.597081,0.626488 2.395251,0.939361 0.806281,0.218645 1.612303,0.437041 2.418105,0.655196 0.47475,-0.044 0.949235,-0.08826 1.423482,-0.132767 0.409397,0.125631 0.818529,0.251009 1.227421,0.37614 0.57943,0.0761 1.158603,0.151943 1.737553,0.227546 0.353952,-0.01195 0.707642,-0.02413 1.061091,-0.03656 0.168447,-0.03387 0.336643,-0.07165 0.50459,-0.107845 0.209068,-0.147321 0.41788,-0.294885 0.626449,-0.442698 0.182174,-0.127898 0.36409,-0.256036 0.545764,-0.384423 0.163617,-0.08524 0.326978,-0.170731 0.490098,-0.256468 0.188628,-0.139801 0.377001,-0.279841 0.565137,-0.420139 0.118629,-0.122701 0.23701,-0.245642 0.355142,-0.368835 0.08777,-0.230717 0.175789,-0.463005 0.262558,-0.692893 0.09688,-0.398892 0.193515,-0.802906 0.289903,-1.20473 0.06712,-0.328323 0.133975,-0.656877 0.200591,-0.98569 0.04277,-0.295991 0.08527,-0.592221 0.127541,-0.888702 0.135794,-0.283477 0.271338,-0.567188 0.406638,-0.851152 0.162337,-0.305229 0.324419,-0.61069 0.486259,-0.916406 0.185698,-0.405836 0.371144,-0.811904 0.556344,-1.21823 0.201246,-0.42858 0.40224,-0.857393 0.602989,-1.286461 0.296624,-0.621187 0.592998,-1.242613 0.889133,-1.864305 0.136521,-0.223543 0.272788,-0.447325 0.408812,-0.67136 0.05183,-0.225105 0.103402,-0.45045 0.15473,-0.676047 0.0043,-0.05662 0.0084,-0.122002 0.01227,-0.183374 -1.36e-4,-0.616354 -4.95e-4,-1.232931 -0.0012,-1.849768 -0.0042,-0.520643 -0.0086,-1.047727 -0.01331,-1.57196 -0.0428,-0.203317 -0.08585,-0.406874 -0.12915,-0.610684 -0.07823,-0.318684 -0.156705,-0.645786 -0.235429,-0.969047 -0.110849,-0.35388 -0.221941,-0.707994 -0.333284,-1.062362 -0.123328,-0.390253 -0.246902,-0.780736 -0.370726,-1.171473 -0.08814,-0.187827 -0.176528,-0.37589 -0.265162,-0.564206 0.04186,-0.08835 0.08346,-0.176933 0.124824,-0.265768 0.162807,-0.15916 0.325362,-0.31856 0.487674,-0.47821 0.176649,-0.174975 0.353044,-0.35019 0.529195,-0.525658 0.125173,-0.241308 0.250096,-0.482854 0.374772,-0.724653 0.04758,-0.290056 0.0949,-0.580351 0.141987,-0.870897 0.03795,-1.292652 0.07566,-2.591603 0.11312,-3.887774 0.0095,-0.689256 0.01865,-1.378728 0.02762,-2.068464 -0.0585,-0.456677 -0.117248,-0.913583 -0.176243,-1.370743 -0.108897,-0.25992 -0.218037,-0.520072 -0.327424,-0.780483 -0.02537,-0.03925 -0.05098,-0.07874 -0.07684,-0.118483 -0.11222,0.251288 -0.224684,0.502321 -0.337397,0.753111 -0.04564,-0.01359 -0.08672,-0.02262 -0.13045,-0.0343 -0.07355,-0.136107 -0.147336,-0.278923 -0.221378,-0.418754 -0.06883,0.06754 -0.137912,0.134827 -0.207239,0.201871 -0.07378,0.06476 -0.147809,0.122796 -0.222086,0.183826 -0.07752,-0.143071 -0.155282,-0.286384 -0.233296,-0.429946 -0.0829,-0.04426 -0.179684,-0.102465 -0.269897,-0.154067 -0.04359,0.164476 -0.08741,0.328701 -0.131489,0.492679 -0.02232,0.142723 -0.04489,0.285191 -0.06772,0.427417 -0.129464,-0.163812 -0.259172,-0.327864 -0.38913,-0.492169 -0.196103,-0.347911 -0.392447,-0.696058 -0.589043,-1.04446 -0.133412,-0.20719 -0.267065,-0.41462 -0.400969,-0.622301 -0.02634,0.03534 -0.06117,0.07043 -0.09213,0.105272 2.47e-4,0.254494 2.47e-4,0.508727 0,0.762721 0.04221,0.209721 0.08417,0.427402 0.125878,0.640732 0.04456,0.230445 0.08889,0.460637 0.132961,0.690583 0.05376,0.269174 0.107263,0.538092 0.160523,0.806767 0.07033,0.191819 0.149073,0.400714 0.223238,0.600701 2.48e-4,0.086 2.48e-4,0.171753 0,0.257259 -0.160907,0.162228 -0.322056,0.324205 -0.483456,0.485936 -0.395127,0.195613 -0.790485,0.390971 -1.186101,0.586087 -0.246498,0.107877 -0.493231,0.215502 -0.740218,0.322883 -0.359418,0.139563 -0.719072,0.278871 -1.078979,0.417936 -0.490035,0.101286 -0.988874,0.202315 -1.48368,0.303103 -0.594699,0.175475 -1.189621,0.350696 -1.784802,0.525674 -0.311185,0.05795 -0.622603,0.11566 -0.934275,0.173119 -0.226511,0.03539 -0.453256,0.07053 -0.680255,0.105433 -0.422332,0.06961 -0.844897,0.138984 -1.267716,0.208105 -0.443094,0.07143 -0.875255,0.142622 -1.313254,0.213561 -0.02185,-0.02492 -0.04396,-0.05008 -0.06632,-0.07549 0.190833,-1.044138 0.381408,-2.096697 0.571743,-3.145415 0.01141,-0.06923 0.02259,-0.138708 0.0335,-0.208433 -0.104183,0.130009 -0.216859,0.259764 -0.325659,0.389276 -0.100077,0.05853 -0.2004,0.11682 -0.300972,0.174859 0.0017,-0.07829 0.0031,-0.156827 0.0043,-0.235612 -0.02751,-0.439611 -0.05526,-0.879453 -0.08326,-1.31955 -0.07389,-0.185973 -0.154426,-0.382807 -0.232011,-0.574582 -0.04898,0.0077 -0.0982,0.01515 -0.147668,0.02234 -0.09293,2.48e-4 -0.186121,4.95e-4 -0.279554,2.3e-4 -0.03151,0.182442 -0.06325,0.364628 -0.09523,0.54657 -0.09871,0.308012 -0.197655,0.615765 -0.296856,0.923275 -0.01418,0.256753 -0.02861,0.513246 -0.04328,0.769499 -0.05177,0.296302 -0.103782,0.592347 -0.156047,0.88815 -0.04126,0.361658 -0.08275,0.723052 -0.1245,1.084207 -0.01656,0.269074 -0.03336,0.537888 -0.05042,0.806463 -0.04337,0.07528 -0.08698,0.15031 -0.13084,0.225094 0.01465,-0.09594 0.02905,-0.192134 0.04321,-0.288574 0.01215,-1.536131 0.02405,-3.072448 0.03572,-4.609042 -0.0217,-0.09746 -0.04363,-0.195169 -0.06582,-0.293125 -0.220241,-0.01458 -0.440721,-0.02942 -0.661452,-0.04449 -0.08695,0.386922 -0.174135,0.773582 -0.261574,1.160001 -0.05964,0.163882 -0.119523,0.327509 -0.179657,0.490892 -0.04137,0.651599 -0.08297,1.302925 -0.124832,1.954017 -0.09918,0.45877 -0.198603,0.917276 -0.298277,1.375546 -0.03054,0.04598 -0.06132,0.09172 -0.09234,0.137202 -0.0031,-0.05515 -0.01733,-0.115861 -0.02634,-0.174164 0.09203,-1.169392 0.183802,-2.338988 0.275332,-3.508853 -0.07885,-0.110114 -0.15793,-0.220471 -0.237265,-0.331076 -0.06092,-0.01634 -0.122079,-0.03293 -0.183493,-0.04977 -0.04343,0.06196 -0.08712,0.132178 -0.131048,0.197898 -0.145046,0.293597 -0.290334,0.586936 -0.435872,0.880031 -0.132043,0.483488 -0.264328,0.966706 -0.396863,1.449686 -0.228764,0.285261 -0.457767,0.570264 -0.687021,0.855026 -0.08828,0.199941 -0.176801,0.399631 -0.265572,0.599076 -0.02002,0.287433 -0.04028,0.574609 -0.06079,0.861543 -0.05365,0.06247 -0.107532,0.124678 -0.161667,0.186646 -0.06898,-0.07419 -0.138217,-0.148626 -0.207695,-0.22331 C 29.34001,24.641106 29.21481,24.53675 29.089362,24.432143 28.933619,24.158732 28.777635,23.885085 28.6214,23.611182 c -0.100829,-0.362566 -0.201904,-0.725365 -0.303229,-1.088419 -0.04723,-0.04702 -0.09471,-0.09429 -0.142436,-0.141815 0.005,0.0941 0.0097,0.187962 0.01416,0.281571 -0.154322,0.691665 -0.308886,1.383054 -0.4637,2.074209 -0.18212,0.09016 -0.36448,0.180069 -0.547092,0.269733 -0.05558,0.111558 -0.119842,0.222865 -0.180134,0.333924 -0.03306,0.05992 -0.0729,0.119588 -0.109727,0.17901 -0.122937,-0.224673 -0.246036,-0.449584 -0.369388,-0.674749 -0.233475,-0.646421 -0.467192,-1.293062 -0.701158,-1.939964 -0.112708,-0.467722 -0.232984,-0.935671 -0.349847,-1.403879 -0.05206,-0.03141 -0.104371,-0.06307 -0.156925,-0.09498 -0.01816,0.125205 -0.03658,0.250158 -0.05524,0.374866 -0.191283,0.925706 -0.382809,1.851124 -0.574585,2.776313 -0.286726,0.533855 -0.580452,1.079495 -0.87105,1.618871 -0.06186,0.162134 -0.123965,0.324014 -0.186317,0.485651 -0.09632,-0.427185 -0.192889,-0.854602 -0.289703,-1.282274 -0.52547,0.338414 -1.051168,0.676568 -1.57712,1.014481 -0.38665,0.13769 -0.77353,0.275127 -1.160665,0.412323 0.0569,-0.634449 0.113557,-1.269121 0.169964,-1.904053 0.130926,-0.721599 0.261601,-1.443418 0.39203,-2.1655 -0.269716,0.188841 -0.539666,0.377424 -0.809868,0.565765 -0.430229,-0.0093 -0.860686,-0.01875 -1.2914,-0.02852 -0.395386,0.676637 -0.791003,1.353002 -1.186876,2.029134 -0.229787,0.624548 -0.459808,1.248826 -0.690082,1.872867 -0.547568,-0.209163 -1.072042,-0.437497 -1.608433,-0.656615 -0.25242,0.0569 -0.505079,0.113554 -0.757991,0.169962 -0.499001,-0.216497 -0.99823,-0.433235 -1.497717,-0.650222 -0.813117,-0.656477 -1.626449,-1.313173 -2.440043,-1.970129 7.42e-4,0.07479 9.9e-4,0.149326 0.0012,0.223617 0.0481,0.706038 0.09596,1.411802 0.143569,2.117333 0.573731,1.316295 1.147194,2.632291 1.720419,3.948067 0.615891,1.1179 1.231511,2.23551 1.846893,3.352893 0.05066,0.06954 0.101065,0.138833 0.151225,0.207878 -0.196197,0.08656 -0.405352,0.185592 -0.608403,0.278015 -0.182911,0.27846 -0.366065,0.556664 -0.549469,0.834624 -0.09636,0.284226 -0.192971,0.568195 -0.289829,0.851921 -0.0092,0.220638 -0.01863,0.458261 -0.02833,0.687021 0.116286,0.257924 0.232317,0.515587 0.348104,0.77301 0.21412,0.342724 0.427984,0.685189 0.641606,1.027412 0.374576,0.434932 0.748887,0.869603 1.122958,1.304033 0.173444,0.294536 0.346634,0.588812 0.519581,0.882845 0.350413,0.31607 0.700566,0.631878 1.050478,0.947444 0.305946,0.182344 0.611632,0.38092 0.917079,0.571008 0.415098,0.162392 0.829929,0.324529 1.244523,0.486423 0.239365,0.16597 0.478474,0.331688 0.71734,0.497157 0.180659,0.14115 0.361064,0.282047 0.541226,0.422699 0.295699,0.07443 0.591138,0.148602 0.886337,0.222533 0.410196,-0.0097 0.82013,-0.01962 1.229823,-0.02981 0.243633,-0.05325 0.487005,-0.124106 0.730134,-0.186532 0.155461,-0.06726 0.310669,-0.152092 0.465629,-0.228509 0.07371,-0.270805 0.147168,-0.541843 0.22038,-0.813134 -0.08292,-0.497957 -0.166086,-0.996142 -0.249502,-1.494582 0.102261,0.159214 0.204268,0.318178 0.306028,0.476895 z"
         inkscape:path-effect="#path-effect980"
         sodipodi:nodetypes="scccccccccccccccccccccccccccccccccccccccccccccccccccccccccccccccccccccccccccccccccccccccccccccccccccccccccccccccccccccccccccccccccccccccccccccccccccccccccccccccccccccccss" />
      <path
         style="opacity:1;fill:none;stroke:#000000;stroke-width:0.299758;stroke-linecap:butt;stroke-linejoin:miter;stroke-miterlimit:4;stroke-dasharray:none;stroke-opacity:1"
         d="m 49.347919,25.543596 c -0.07393,0.153784 -0.147801,0.307461 -0.290655,0.500797 -0.142854,0.193336 -0.354716,0.426412 -0.64485,0.734492 -0.290135,0.30808 -0.658529,0.69115 -0.994949,1.078923 -0.336419,0.387773 -0.640819,0.780191 -0.963084,1.21965 -0.322266,0.439458 -0.662366,0.92591 -0.882314,1.343671 -0.219947,0.417761 -0.321041,0.771322 -0.329388,1.240096 -0.0083,0.468774 0.0753,1.054932 0.221727,1.616518 0.146422,0.561587 0.35553,1.098548 0.574764,1.597394 0.219234,0.498846 0.448549,0.959548 0.681424,1.416698 0.232876,0.457151 0.469291,0.910724 0.613312,1.254743 0.144021,0.344019 0.195733,0.578473 0.129134,0.835292 -0.0666,0.25682 -0.2514,0.536218 -0.503223,0.775125 -0.251823,0.238906 -0.570755,0.437407 -0.884629,0.5497 -0.313873,0.112292 -0.622826,0.138348 -0.858304,0.190349 -0.235478,0.052 -0.403511,0.132943 -0.657632,0.20981 -0.25412,0.07687 -0.623002,0.156652 -1.041997,0.207809 -0.418995,0.05116 -0.900892,0.07642 -1.199961,0.06385 -0.299069,-0.01257 -0.42147,-0.06576 -0.541118,-0.117759"
         id="path982"
         inkscape:path-effect="#path-effect984"
         inkscape:original-d="m 49.347919,25.543596 c -0.07363,0.153926 -0.147504,0.307604 -0.221627,0.461035 -0.211623,0.233333 -0.423486,0.466408 -0.635598,0.699241 -0.368164,0.383334 -0.736558,0.766405 -1.105208,1.149239 -0.304166,0.392683 -0.608566,0.785101 -0.913221,1.177282 -0.339869,0.486719 -0.67997,0.973171 -1.020323,1.459387 -0.10019,0.349005 -0.200624,0.702754 -0.301304,1.053762 0.0839,0.586428 0.167553,1.172585 0.250959,1.758508 0.209363,0.537229 0.418471,1.07419 0.627334,1.610915 0.229572,0.460969 0.458888,0.92167 0.687959,1.382131 0.236673,0.453841 0.473087,0.907415 0.70926,1.36075 0.05196,0.234711 0.103674,0.469164 0.155138,0.703375 -0.184562,0.279658 -0.369361,0.559057 -0.554415,0.838213 -0.318699,0.198756 -0.637632,0.397256 -0.956818,0.595515 -0.308718,0.0263 -0.617671,0.05236 -0.926878,0.07817 -0.160911,0.07971 -0.329661,0.159166 -0.494862,0.238377 -0.342522,0.07728 -0.712003,0.154299 -1.068375,0.231075 -0.481666,0.02551 -0.963563,0.05077 -1.445714,0.07578 -0.119105,-0.04327 -0.238453,-0.103487 -0.35805,-0.155601" />
      <path
         style="opacity:1;fill:none;stroke:#000000;stroke-width:0.299758;stroke-linecap:butt;stroke-linejoin:miter;stroke-miterlimit:4;stroke-dasharray:none;stroke-opacity:1"
         d="m 41.10622,30.536086 c -0.691107,0.167114 -1.382394,0.334272 -2.066086,0.516641 -0.683691,0.18237 -1.359745,0.379947 -2.082507,0.776164 -0.722763,0.396218 -1.492067,0.99103 -2.261422,1.585882"
         id="path986"
         inkscape:path-effect="#path-effect988"
         inkscape:original-d="m 41.10622,30.536086 c -0.691037,0.167405 -1.382324,0.334563 -2.073858,0.501473 -0.675833,0.197831 -1.351887,0.395408 -2.028199,0.592742 -0.769087,0.595082 -1.53839,1.189895 -2.307958,1.784472" />
      <path
         style="opacity:1;fill:none;stroke:#000000;stroke-width:0.299758;stroke-linecap:butt;stroke-linejoin:miter;stroke-miterlimit:4;stroke-dasharray:none;stroke-opacity:1"
         d="m 40.712306,34.145025 c -0.01776,-0.07883 -0.05335,-0.236787 -0.110376,-0.342934 -0.05703,-0.106148 -0.137947,-0.161938 -0.196607,-0.202413 -0.05866,-0.04048 -0.09889,-0.06828 -0.172223,-0.03921 -0.07333,0.02907 -0.180876,0.11429 -0.307283,0.223869 -0.126407,0.109579 -0.271652,0.243494 -0.446901,0.367292 -0.175249,0.123797 -0.380569,0.237508 -0.642526,0.347804 -0.261957,0.110295 -0.580596,0.21717 -0.927043,0.322424 -0.346447,0.105254 -0.720698,0.208878 -1.08912,0.316409 -0.368421,0.107531 -0.730983,0.218965 -0.987533,0.292345 -0.256549,0.07338 -0.414173,0.110355 -0.509914,0.135805 -0.09574,0.02545 -0.133068,0.04021 -0.04318,0.11474 0.08989,0.07453 0.306827,0.208603 0.56052,0.300179 0.253693,0.09158 0.544129,0.140783 0.847124,0.156385 0.302994,0.0156 0.61858,-0.0023 0.925831,-0.03071 0.307251,-0.02837 0.606176,-0.06714 0.889767,-0.148367 0.283591,-0.08122 0.551937,-0.204867 0.806706,-0.356814 0.254769,-0.151947 0.496016,-0.332209 0.65731,-0.496172 0.161295,-0.163963 0.242724,-0.311742 0.310814,-0.434066 0.06809,-0.122324 0.123907,-0.221078 0.165236,-0.299059 0.04133,-0.07798 0.06871,-0.136163 0.0904,-0.182375 0.02169,-0.04621 0.0377,-0.08047 0.0696,-0.05662 0.0319,0.02385 0.07947,0.105611 0.103216,0.130342 0.02374,0.02473 0.02383,-0.0075 0.02387,-0.02378 4.2e-5,-0.01625 7.6e-5,-0.01624 -0.01769,-0.09508 z"
         id="path990"
         inkscape:path-effect="#path-effect992"
         inkscape:original-d="m 40.730068,34.223858 c -0.03534,-0.157707 -0.07093,-0.315661 -0.106764,-0.473862 -0.07956,-0.05237 -0.159356,-0.109792 -0.239406,-0.165058 -0.03862,-0.02373 -0.0775,-0.05349 -0.116618,-0.0806 -0.107298,0.08547 -0.21484,0.170691 -0.322633,0.255668 -0.145,0.134166 -0.290244,0.268082 -0.435737,0.40175 -0.205079,0.113965 -0.410399,0.227676 -0.615971,0.341141 -0.318406,0.107128 -0.637045,0.214003 -0.955939,0.320631 -0.374019,0.103876 -0.74827,0.2075 -1.122777,0.310878 -0.362326,0.111686 -0.724888,0.22312 -1.087701,0.334308 -0.150116,0.03639 -0.307933,0.07254 -0.462271,0.10844 -0.03709,0.01502 -0.07442,0.02977 -0.112004,0.04428 0.217197,0.134322 0.434137,0.268391 0.650835,0.402218 0.290696,0.04946 0.581133,0.09866 0.871328,0.147626 0.315842,-0.0177 0.631428,-0.03563 0.94677,-0.05383 0.299181,-0.03853 0.598105,-0.07731 0.896783,-0.116328 0.268606,-0.123402 0.536952,-0.247045 0.805059,-0.370939 0.241501,-0.180021 0.482748,-0.360282 0.723749,-0.540793 0.08167,-0.147534 0.163104,-0.29531 0.244286,-0.443337 0.05333,-0.09756 0.110815,-0.195371 0.165851,-0.293427 0.02763,-0.05793 0.05501,-0.11611 0.08213,-0.174537 0.01626,-0.034 0.03226,-0.06826 0.04803,-0.102757 0.04782,0.08201 0.09539,0.163775 0.142718,0.245292 2.48e-4,-0.03201 4.95e-4,-0.06427 2.48e-4,-0.09677 z" />
      <path
         style="opacity:1;fill:none;stroke:#000000;stroke-width:0.299758;stroke-linecap:butt;stroke-linejoin:miter;stroke-miterlimit:4;stroke-dasharray:none;stroke-opacity:1"
         d="m 45.681341,31.679038 c 0.09439,4.84e-4 0.282919,0.0015 0.477704,-0.06659 0.194785,-0.06804 0.39601,-0.205047 0.556851,-0.34875 0.160841,-0.143703 0.289248,-0.303999 0.387429,-0.443893 0.09818,-0.139894 0.17009,-0.264343 0.199693,-0.436436 0.0296,-0.172093 0.01741,-0.382112 0.04692,-0.513424 0.0295,-0.131312 0.100943,-0.178665 0.166029,-0.224138 0.06509,-0.04547 0.129382,-0.09319 0.08008,-0.06491 -0.0493,0.02828 -0.209453,0.130501 -0.364874,0.228265 -0.155422,0.09777 -0.320297,0.199849 -0.498782,0.291269 -0.178484,0.09142 -0.377711,0.176566 -0.524685,0.250504 -0.146975,0.07394 -0.241639,0.136653 -0.313625,0.213042 -0.07199,0.07639 -0.121192,0.166325 -0.181239,0.327056 -0.06005,0.160731 -0.134347,0.403331 -0.157037,0.546466 -0.02269,0.143135 0.0043,0.192226 0.01773,0.216627 0.01342,0.0244 0.01342,0.02443 0.107813,0.02491 z"
         id="path994"
         inkscape:path-effect="#path-effect996"
         inkscape:original-d="m 45.586951,31.678554 c 0.188778,0.0012 0.377308,0.0022 0.565592,0.0029 0.201481,-0.136762 0.402705,-0.273769 0.603686,-0.411023 0.11858,-0.15198 0.249188,-0.310514 0.373411,-0.466146 0.07216,-0.124204 0.144066,-0.248655 0.21573,-0.373352 -0.01222,-0.219688 -0.0247,-0.42969 -0.03743,-0.644905 0.07169,-0.04711 0.143131,-0.09446 0.214325,-0.142065 0.06177,-0.03961 0.123289,-0.09107 0.184564,-0.136975 -0.159907,0.102473 -0.320054,0.204696 -0.480451,0.306672 -0.151481,0.09189 -0.315326,0.195639 -0.473361,0.293088 -0.198985,0.0854 -0.398212,0.170546 -0.597689,0.255448 -0.09441,0.06296 -0.189074,0.125676 -0.283981,0.188141 -0.04896,0.09019 -0.09817,0.180122 -0.147621,0.269814 -0.07235,0.231177 -0.144938,0.474302 -0.217779,0.711084 0.02725,0.04935 0.05425,0.09844 0.081,0.147289 z" />
      <path
         style="opacity:1;fill:none;stroke:#000000;stroke-width:0.299758;stroke-linecap:butt;stroke-linejoin:miter;stroke-miterlimit:4;stroke-dasharray:none;stroke-opacity:1"
         d="m 46.116756,40.908677 c -0.02184,0.116422 -0.0655,0.349075 -0.100682,0.516717 -0.03518,0.167641 -0.06189,0.270296 -0.11534,0.36096 -0.05345,0.09066 -0.133676,0.169499 -0.219049,0.208922 -0.08537,0.03942 -0.176129,0.03942 -0.237205,0.06455 -0.06108,0.02513 -0.09217,0.0753 -0.135344,0.160171 -0.04317,0.08487 -0.09839,0.204387 -0.14211,0.293698 -0.04372,0.08931 -0.08142,0.15848 -0.176396,0.187667 -0.09498,0.02919 -0.250276,0.02349 -0.388072,4.53e-4 -0.137797,-0.02303 -0.262791,-0.06506 -0.364702,-0.05363 -0.101912,0.01143 -0.182799,0.07565 -0.250415,0.17601 -0.06761,0.100362 -0.121871,0.236701 -0.233889,0.356279 -0.112019,0.119579 -0.290875,0.227993 -0.569529,0.316751 -0.278654,0.08876 -0.661693,0.160567 -1.003547,0.209054 -0.341855,0.04849 -0.642536,0.07363 -0.91425,0.08662 -0.271714,0.01299 -0.526496,0.01384 -0.721677,0.0046 -0.19518,-0.0092 -0.336796,-0.0286 -0.457117,-0.01958 -0.120322,0.009 -0.208535,0.04245 -0.279791,0.104919 -0.07126,0.06246 -0.120033,0.151787 -0.176232,0.190118 -0.0562,0.03833 -0.120147,0.02569 -0.114444,-0.01231 0.0057,-0.038 0.08132,-0.101291 0.153322,-0.181722 0.072,-0.08043 0.140443,-0.178063 0.250286,-0.223719 0.109843,-0.04566 0.271503,-0.03884 0.474227,-0.03883 0.202725,7e-6 0.460715,-0.0068 0.735152,-0.03302 0.274436,-0.02624 0.569758,-0.07202 0.831068,-0.126261 0.26131,-0.05424 0.488634,-0.116927 0.681774,-0.185444 0.193141,-0.06852 0.354696,-0.144045 0.510507,-0.235651 0.155812,-0.09161 0.307211,-0.1999 0.458223,-0.317051 0.151012,-0.117151 0.301654,-0.243168 0.401877,-0.341936 0.100224,-0.09877 0.150085,-0.170357 0.236608,-0.216207 0.08652,-0.04585 0.209472,-0.06588 0.326341,-0.05903 0.116869,0.0068 0.227556,0.04045 0.318271,0.05227 0.09072,0.01182 0.161533,0.002 0.21805,-0.04201 0.05652,-0.04399 0.09899,-0.122249 0.143267,-0.209165 0.04428,-0.08692 0.09528,-0.192721 0.145396,-0.25876 0.05011,-0.06604 0.101663,-0.09727 0.188379,-0.10283 0.08671,-0.0056 0.208376,0.01447 0.284868,0.01163 0.07649,-0.0028 0.108065,-0.02849 0.131987,-0.09521 0.02392,-0.06672 0.04026,-0.174737 0.06099,-0.292488 0.02073,-0.117751 0.04586,-0.245213 0.05845,-0.309042 0.01259,-0.06383 0.01259,-0.06392 -0.0093,0.0525 z"
         id="path998"
         inkscape:path-effect="#path-effect1000"
         inkscape:original-d="m 46.1386,40.792256 c -0.0434,0.232897 -0.08706,0.465549 -0.130958,0.697952 -0.02646,0.102903 -0.05317,0.205557 -0.08012,0.307962 -0.07999,0.0791 -0.160219,0.157933 -0.2407,0.236528 -0.09051,2.47e-4 -0.181266,2.47e-4 -0.272271,0 -0.03086,0.05043 -0.06195,0.100607 -0.09331,0.150541 -0.05498,0.119765 -0.110196,0.239281 -0.165665,0.358551 -0.0316,0.05958 -0.06967,0.128545 -0.104881,0.192447 -0.155055,-0.0054 -0.310349,-0.01116 -0.465893,-0.0171 -0.119825,-0.041 -0.245085,-0.08223 -0.368001,-0.12372 -0.08064,0.06447 -0.161527,0.12869 -0.242662,0.192661 -0.05402,0.136597 -0.108271,0.272938 -0.162776,0.409033 -0.168006,0.105951 -0.348509,0.211648 -0.523136,0.3171 -0.382804,0.07206 -0.765844,0.143866 -1.149135,0.215427 -0.300448,0.0254 -0.60113,0.05054 -0.902065,0.07544 -0.242514,9.9e-4 -0.497297,0.0017 -0.746316,0.0025 -0.141372,-0.0191 -0.282987,-0.03846 -0.424853,-0.05807 -0.0994,0.03571 -0.18685,0.07116 -0.280644,0.106378 -0.04853,0.08958 -0.09731,0.178902 -0.146339,0.267982 -0.0637,-0.0124 -0.12765,-0.02503 -0.191844,-0.03791 0.07586,-0.06304 0.151478,-0.126331 0.226846,-0.189868 0.0687,-0.09739 0.137135,-0.195026 0.205332,-0.292911 0.151189,0.0068 0.312856,0.01344 0.468912,0.01977 0.249408,-0.0064 0.5074,-0.01312 0.760731,-0.02002 0.29558,-0.04553 0.5909,-0.09132 0.88598,-0.137341 0.227579,-0.06244 0.454903,-0.125125 0.681983,-0.188062 0.160532,-0.07137 0.320814,-0.149622 0.48085,-0.224804 0.151648,-0.108048 0.303048,-0.216342 0.454199,-0.324882 0.150896,-0.125775 0.301537,-0.251792 0.451935,-0.378058 0.05011,-0.07134 0.09997,-0.142929 0.149582,-0.214763 0.123199,-0.01977 0.246146,-0.03981 0.368849,-0.06009 0.110942,0.03385 0.22163,0.06745 0.332074,0.100812 0.07107,-0.0096 0.14189,-0.01942 0.212462,-0.02952 0.04271,-0.07801 0.08519,-0.156267 0.127415,-0.234772 0.04269,-0.0971 0.09734,-0.201148 0.145638,-0.302094 0.0518,-0.03099 0.103354,-0.06222 0.154661,-0.0937 0.121913,0.02029 0.243575,0.04031 0.364994,0.06009 0.03182,-0.0254 0.06339,-0.05105 0.09471,-0.07694 0.01658,-0.107773 0.03292,-0.215792 0.04901,-0.324061 0.02538,-0.127219 0.05051,-0.254681 0.0754,-0.382395 z" />
      <path
         style="opacity:1;fill:none;stroke:#000000;stroke-width:0.299758;stroke-linecap:butt;stroke-linejoin:miter;stroke-miterlimit:4;stroke-dasharray:none;stroke-opacity:1"
         d="m 45.237867,42.745681 c -0.01607,0.108669 -0.04817,0.325806 -0.06782,0.570035 -0.01965,0.244229 -0.02687,0.515504 -0.02463,0.70608 0.0022,0.190575 0.01388,0.300409 -0.03417,0.422087 -0.04805,0.121679 -0.166468,0.268735 -0.275816,0.36281 -0.109348,0.09407 -0.225246,0.14647 -0.291755,0.195458 -0.06651,0.04899 -0.08853,0.0967 -0.170883,0.14245 -0.08236,0.04575 -0.225246,0.08969 -0.433833,0.0872 -0.208587,-0.0025 -0.48506,-0.0519 -0.686183,-0.13223 -0.201122,-0.08033 -0.327901,-0.191956 -0.489964,-0.297155 -0.162063,-0.105198 -0.359434,-0.203882 -0.54995,-0.259966 -0.190515,-0.05609 -0.374131,-0.06944 -0.581267,-0.06979 -0.207136,-3.49e-4 -0.437745,0.01234 -0.686744,-0.02083 -0.248998,-0.03317 -0.516432,-0.11228 -0.672559,-0.179261 -0.156128,-0.06698 -0.20993,-0.133156 -0.211849,-0.191317 -0.0019,-0.05816 0.04375,-0.113624 0.165541,-0.144694 0.121788,-0.03107 0.319423,-0.03771 0.593555,-0.04885 0.274132,-0.01114 0.624744,-0.02676 0.976994,-0.06512 0.352251,-0.03836 0.706152,-0.09943 1.02486,-0.180368 0.318708,-0.08094 0.605947,-0.183034 0.787677,-0.296516 0.181731,-0.113482 0.259964,-0.23911 0.344204,-0.356029 0.08424,-0.116919 0.174459,-0.225078 0.272423,-0.275983 0.09796,-0.05091 0.203385,-0.04454 0.337892,-0.03148 0.134508,0.01306 0.309754,0.03422 0.404092,0.03095 0.09434,-0.0033 0.116308,-0.03356 0.162818,-0.102491 0.04651,-0.06893 0.118764,-0.178178 0.143619,-0.180432 0.02485,-0.0023 0.0023,0.102345 -0.0089,0.154555 -0.01125,0.05221 -0.01125,0.05221 -0.02731,0.160879 z"
         id="path1002"
         inkscape:path-effect="#path-effect1004"
         inkscape:original-d="m 45.253934,42.637011 c -0.03185,0.217381 -0.06396,0.434517 -0.09631,0.651406 -0.007,0.271534 -0.01418,0.54281 -0.02165,0.813846 0.0119,0.110085 0.02356,0.219917 0.03495,0.329505 -0.103343,0.137328 -0.225873,0.281069 -0.339183,0.421233 -0.104485,0.05036 -0.221422,0.100459 -0.332502,0.150318 -0.02177,0.04796 -0.04379,0.09567 -0.06606,0.143134 -0.142649,0.0442 -0.28554,0.08814 -0.428682,0.131835 -0.275198,-0.04297 -0.550632,-0.09819 -0.826319,-0.147651 -0.126539,-0.111381 -0.253317,-0.223005 -0.380347,-0.33488 -0.197131,-0.09844 -0.394502,-0.197123 -0.592122,-0.296057 -0.183377,-0.01312 -0.366994,-0.02646 -0.550861,-0.04006 -0.230373,0.01294 -0.460983,0.02562 -0.691845,0.03806 -0.267197,-0.07887 -0.53463,-0.157987 -0.802318,-0.237349 -0.04582,-0.0537 -0.09829,-0.120959 -0.147816,-0.181808 0.04592,-0.05523 0.0916,-0.110686 0.137024,-0.166403 0.197888,-0.0064 0.395524,-0.01302 0.592914,-0.01992 0.350876,-0.01539 0.701488,-0.03101 1.051862,-0.04688 0.354165,-0.06082 0.708065,-0.121894 1.061728,-0.183211 0.285656,-0.09535 0.57105,-0.202639 0.856207,-0.30433 0.07849,-0.125388 0.156721,-0.251017 0.234709,-0.376897 0.09047,-0.107915 0.180689,-0.216075 0.270662,-0.324484 0.105673,0.0066 0.211094,0.01297 0.316271,0.01908 0.163743,0.02068 0.339072,0.04115 0.508237,0.06135 0.02101,-0.02587 0.04179,-0.05703 0.06231,-0.08592 0.0725,-0.108996 0.144757,-0.218238 0.216764,-0.327727 -0.02229,0.104855 -0.04483,0.209455 -0.06763,0.313811 z" />
      <path
         style="opacity:1;fill:none;stroke:#000000;stroke-width:0.299758;stroke-linecap:butt;stroke-linejoin:miter;stroke-miterlimit:4;stroke-dasharray:none;stroke-opacity:1"
         d="m 20.773355,37.134498 c 0.224876,0.161192 0.449472,0.322185 0.574815,0.539567 0.125343,0.217382 0.153017,0.504878 0.15233,0.744563 -6.86e-4,0.239685 -0.02901,0.438503 0.01771,0.62898 0.04673,0.190476 0.16828,0.372517 0.288799,0.477596 0.120519,0.105078 0.239894,0.133404 0.362712,0.201928 0.122819,0.06852 0.249097,0.17708 0.33589,0.319579 0.08679,0.1425 0.133516,0.316017 0.0358,0.374357 -0.09771,0.05834 -0.340441,3.02e-4 -0.604961,-0.01666 -0.264519,-0.01696 -0.550745,0.0072 -0.841741,-0.0371 -0.290996,-0.04434 -0.586819,-0.157342 -0.963934,-0.252771 -0.377115,-0.09543 -0.835479,-0.173211 -1.289827,-0.291967 -0.454348,-0.118755 -0.906814,-0.279297 -1.209345,-0.491238 -0.30253,-0.211941 -0.456056,-0.475834 -0.518238,-0.796156 -0.06218,-0.320323 -0.03283,-0.69699 0.07719,-1.017728 0.110018,-0.320738 0.300707,-0.585349 0.538629,-0.768499 0.237921,-0.18315 0.522888,-0.284735 0.723348,-0.380628 0.20046,-0.09589 0.322449,-0.190727 0.441437,-0.283228"
         id="path1006"
         inkscape:path-effect="#path-effect1008"
         inkscape:original-d="m 20.773355,37.134498 c 0.224842,0.161239 0.44944,0.32223 0.673786,0.482974 0.02726,0.27389 0.05427,0.561449 0.08103,0.841799 -0.02809,0.19908 -0.0564,0.3979 -0.08498,0.596479 0.121804,0.182298 0.243359,0.364338 0.364669,0.546136 0.119628,0.02858 0.239005,0.0569 0.358134,0.08498 0.126532,0.10881 0.252811,0.217365 0.378843,0.325676 0.05303,0.175199 0.09446,0.350141 0.141322,0.524839 -0.242494,-0.05779 -0.485223,-0.115833 -0.728206,-0.174121 -0.285991,0.02445 -0.572217,0.04865 -0.858695,0.07261 -0.295587,-0.112762 -0.59141,-0.225767 -0.887485,-0.339022 -0.458137,-0.07754 -0.916502,-0.15532 -1.375125,-0.23335 -0.451164,-0.156509 -0.902556,-0.320079 -1.354204,-0.480491 -0.153286,-0.263657 -0.306811,-0.527551 -0.460588,-0.791698 0.0296,-0.376432 0.05895,-0.7531 0.08806,-1.130021 0.190945,-0.264372 0.381634,-0.528983 0.572079,-0.793847 0.285223,-0.101342 0.57019,-0.202926 0.854913,-0.304761 0.114512,-0.09228 0.238292,-0.18481 0.357068,-0.277584" />
      <path
         style="opacity:1;fill:none;stroke:#000000;stroke-width:0.299758;stroke-linecap:butt;stroke-linejoin:miter;stroke-miterlimit:4;stroke-dasharray:none;stroke-opacity:1"
         d="m 19.710836,36.957258 c -0.01825,-0.155621 -0.03652,-0.311515 -0.07699,-0.461381 -0.04047,-0.149865 -0.108327,-0.305392 -0.191529,-0.440059 -0.0832,-0.134667 -0.184385,-0.254269 -0.3211,-0.37394 -0.136716,-0.11967 -0.309014,-0.239334 -0.469176,-0.316152 -0.160161,-0.07682 -0.308183,-0.110654 -0.641493,-0.149661 -0.333309,-0.03901 -0.851864,-0.08314 -1.287794,-0.111711 -0.43593,-0.02857 -0.789201,-0.04157 -1.070065,0.02419 -0.280865,0.06577 -0.489099,0.210337 -0.648857,0.446524 -0.159757,0.236186 -0.270923,0.563788 -0.244411,0.956606 0.02651,0.392819 0.19815,0.871905 0.470383,1.433486 0.272234,0.561581 0.663797,1.242335 1.056831,1.726418 0.393034,0.484082 0.794915,0.784602 1.254889,1.074157 0.459974,0.289555 0.977996,0.568177 1.411841,0.735762 0.433844,0.167586 0.783502,0.224239 1.132882,0.280847"
         id="path1010"
         inkscape:path-effect="#path-effect1012"
         inkscape:original-d="m 19.710836,36.957258 c -0.01802,-0.155647 -0.0363,-0.311541 -0.05483,-0.467684 -0.06011,-0.144664 -0.130372,-0.299141 -0.195931,-0.449083 -0.100941,-0.119358 -0.202125,-0.23896 -0.303556,-0.358812 -0.172057,-0.119419 -0.344355,-0.239083 -0.516903,-0.358998 -0.147781,-0.03359 -0.295802,-0.06743 -0.444074,-0.101513 -0.518326,-0.04388 -1.03688,-0.08802 -1.55569,-0.132396 -0.35304,-0.01275 -0.706311,-0.02575 -1.059838,-0.039 -0.207997,0.144824 -0.416231,0.289396 -0.624721,0.433725 -0.110924,0.327862 -0.22209,0.655464 -0.333507,0.982826 0.168088,0.456761 0.335922,0.93721 0.503513,1.405444 0.384319,0.650616 0.768378,1.335687 1.152196,2.00316 0.402141,0.300777 0.804022,0.601297 1.205661,0.901574 0.518292,0.27888 1.036313,0.557504 1.5541,0.835885 0.349918,0.0569 0.699575,0.113557 1.048988,0.169962" />
      <path
         style="opacity:1;fill:#000000;fill-opacity:1;stroke:#000000;stroke-width:0.299758;stroke-linecap:butt;stroke-linejoin:miter;stroke-miterlimit:4;stroke-dasharray:none;stroke-opacity:1"
         d="m 38.553232,34.638098 c -0.03542,0.04855 -0.106228,0.145597 -0.156877,0.237887 -0.05065,0.09229 -0.08373,0.187209 -0.09486,0.285833 -0.01113,0.09863 -0.0017,0.204573 0.02613,0.291929 0.02781,0.08736 0.07384,0.156114 0.124204,0.209842 0.05037,0.05373 0.104995,0.09252 0.155474,0.129809 0.05048,0.03729 0.09681,0.07305 0.189449,0.05938 0.09264,-0.01367 0.231713,-0.07651 0.384676,-0.163609 0.152964,-0.0871 0.319863,-0.19845 0.478102,-0.324388 0.15824,-0.125937 0.307859,-0.266478 0.391902,-0.372573 0.08404,-0.106094 0.10256,-0.177933 0.11051,-0.286818 0.008,-0.108884 0.0053,-0.25489 -0.03292,-0.362612 -0.0382,-0.107723 -0.116397,-0.181099 -0.179664,-0.234504 -0.06327,-0.0534 -0.117753,-0.09159 -0.16302,-0.103958 -0.04527,-0.01237 -0.08319,-8.8e-5 -0.194792,0.06962 -0.111601,0.0697 -0.293908,0.194844 -0.473272,0.290335 -0.179364,0.09549 -0.354426,0.16036 -0.442027,0.19282 -0.0876,0.03246 -0.08759,0.03246 -0.123013,0.08101 z"
         id="path1014"
         inkscape:path-effect="#path-effect1016"
         inkscape:original-d="m 38.588652,34.58955 c -0.07056,0.0973 -0.141368,0.194349 -0.212425,0.291153 -0.03153,0.08722 -0.06331,0.182593 -0.09533,0.273518 0.0097,0.106201 0.01913,0.21215 0.02833,0.317855 0.04626,0.06899 0.09229,0.137744 0.138053,0.206244 0.05488,0.03904 0.109503,0.07784 0.163884,0.116386 0.04658,0.03602 0.09292,0.07178 0.139021,0.107306 0.139331,-0.0626 0.278409,-0.125445 0.417239,-0.188539 0.167153,-0.111111 0.334051,-0.222466 0.500705,-0.33407 0.149874,-0.140301 0.299494,-0.280842 0.448869,-0.421634 0.01875,-0.07158 0.03728,-0.143416 0.05555,-0.215498 -0.0025,-0.145765 -0.0051,-0.291772 -0.008,-0.438031 -0.07585,-0.06692 -0.151933,-0.14255 -0.228274,-0.214199 -0.05223,-0.03225 -0.104707,-0.0733 -0.157433,-0.110327 -0.03768,0.01252 -0.0756,0.02481 -0.113774,0.03685 -0.183498,0.129444 -0.367236,0.252499 -0.551226,0.378377 -0.174822,0.06512 -0.349885,0.129986 -0.525196,0.194609 z" />
      <path
         style="opacity:1;fill:#000000;fill-opacity:1;stroke:#000000;stroke-width:0.299758;stroke-linecap:butt;stroke-linejoin:miter;stroke-miterlimit:4;stroke-dasharray:none;stroke-opacity:1"
         d="m 46.411149,30.233093 c -0.02408,0.01046 -0.07234,0.03143 -0.106989,0.08146 -0.03465,0.05002 -0.05551,0.128862 -0.06715,0.238454 -0.01164,0.109591 -0.01411,0.249857 0.01205,0.37073 0.02616,0.120874 0.0839,0.228087 0.127468,0.303696 0.04357,0.07561 0.07449,0.122523 0.103252,0.140161 0.02876,0.01764 0.05541,0.0063 0.118453,-0.03869 0.06305,-0.04503 0.16257,-0.12383 0.259803,-0.218914 0.09723,-0.09508 0.192225,-0.206498 0.266632,-0.316332 0.07441,-0.109834 0.128258,-0.218162 0.150817,-0.311072 0.02256,-0.09291 0.01375,-0.17056 -0.0357,-0.257611 -0.04944,-0.08705 -0.143302,-0.187308 -0.211804,-0.224884 -0.0685,-0.03758 -0.119832,-0.01065 -0.214649,0.03661 -0.09482,0.04726 -0.236398,0.116574 -0.30724,0.151255 -0.07084,0.03468 -0.07087,0.03467 -0.09495,0.04514 z"
         id="path1051"
         inkscape:path-effect="#path-effect1053"
         inkscape:original-d="m 46.43523,30.222629 c -0.04803,0.02123 -0.09629,0.0422 -0.144817,0.06293 -0.02061,0.07909 -0.04147,0.157929 -0.06257,0.236525 -0.0022,0.140516 -0.0047,0.280781 -0.0074,0.420799 0.05644,0.100833 0.112615,0.208889 0.168548,0.312963 0.03116,0.04716 0.06209,0.09407 0.09277,0.140735 0.02691,-0.01106 0.05356,-0.02234 0.07997,-0.03389 0.09977,-0.07855 0.199293,-0.157346 0.298569,-0.236389 0.09524,-0.111171 0.190232,-0.222585 0.284976,-0.334246 0.0541,-0.108086 0.107952,-0.216414 0.161558,-0.324992 -0.0086,-0.07741 -0.01738,-0.155063 -0.02644,-0.232966 -0.09183,-0.0945 -0.183891,-0.19644 -0.276208,-0.295031 -0.04364,0.02546 -0.09587,0.05067 -0.144176,0.07563 -0.14134,0.06956 -0.282919,0.138875 -0.424749,0.207941 z" />
      <path
         id="path1121"
         style="opacity:1;fill:#d38d5f;stroke:#000000;stroke-width:0.299758;stroke-linecap:butt;stroke-linejoin:miter;stroke-miterlimit:4;stroke-dasharray:none;stroke-opacity:1"
         d="M 14.269602,0.10649117 C 13.918805,0.69116339 13.56771,1.2753659 13.216425,1.8595315 c 0.03736,0.4112568 0.0743,0.8222234 0.111166,1.2329767 0.184144,0.4580584 0.36832,0.9160716 0.551964,1.3736259 0.191365,0.2954988 0.382368,0.5904639 0.573231,0.8854618 0.0046,0.1863326 0.0089,0.3724131 0.01304,0.5582472 C 14.329556,5.862817 14.193208,5.815747 14.056446,5.768227 13.613511,5.590596 13.170223,5.4127526 12.726805,5.23463 12.283565,4.7502921 11.839919,4.2655946 11.396194,3.7807711 10.962936,3.3498959 10.529778,2.9187398 10.096036,2.4873783 9.6247948,2.1346514 9.1530516,1.7816156 8.6813259,1.4284007 c -0.1682394,0.090612 -0.33683,0.1810337 -0.5055643,0.2711485 0.0074,0.1881075 0.014873,0.375955 0.021752,0.5635637 0.1021636,-0.133224 0.2037976,-0.2664818 0.3054663,-0.400198 0.198534,0.054694 0.3969443,0.1091681 0.5949784,0.1633658 0.575295,0.5238276 1.1502237,1.0475023 1.7250087,1.570825 0.41743,0.461965 0.834902,0.9232814 1.251826,1.3847424 0.183944,0.1551417 0.40492,0.3103206 0.607064,0.4649641 0.216768,0.3708236 0.43333,0.7413398 0.649597,1.1116605 2.48e-4,0.2861988 2.48e-4,0.5722138 0,0.8579121 -0.330008,0.013289 -0.660331,0.026357 -0.990828,0.039149 C 11.91128,7.6372758 11.481418,7.8185223 11.051584,7.999765 10.75609,8.2631072 10.460651,8.5262017 10.164671,8.789044 9.7953479,8.9863696 9.4257189,9.183332 9.0559091,9.3801585 8.395001,9.7873503 7.7337093,10.194362 7.0723211,10.601051 6.818058,10.751213 6.5638938,10.901367 6.3091405,11.051032 c -0.1020447,0.07471 -0.2043766,0.149088 -0.3069139,0.223297 0.1126438,-9.89e-4 0.2247332,-0.002 0.3368821,-0.0034 C 6.854861,10.951207 7.3705169,10.631247 7.8857669,10.311037 8.637517,10.001108 9.3887797,9.690574 10.14002,9.380151 10.638219,9.0268049 11.136301,8.6735544 11.633996,8.3197225 11.978891,8.1391315 12.323449,7.9580244 12.667842,7.7769423 12.118835,8.1605966 11.569657,8.5441174 11.020165,8.9272692 10.679311,9.1473505 10.314508,9.3674363 9.9611893,9.5870148 9.4163647,9.8714167 8.8713866,10.155227 8.3260794,10.439127 7.9518599,10.616909 7.5770415,10.794475 7.202337,10.971759 7.030601,11.091634 6.8369866,11.255218 6.6537559,11.396605 7.1914807,11.141516 7.7289283,10.886104 8.2661483,10.630527 8.7087672,10.473702 9.1639847,10.316594 9.6127061,10.159278 9.9576456,10.043076 10.302595,9.9270123 10.647034,9.8103151 10.246856,10.080446 9.8461377,10.350265 9.4454741,10.619893 9.2381698,10.878831 9.0123701,11.155571 8.795395,11.42319 c -0.2260324,0.306048 -0.4520722,0.611814 -0.678597,0.917361 -0.1100007,0.399998 -0.2205881,0.80013 -0.3310813,1.199626 -0.038407,0.513706 -0.077098,1.027174 -0.1159994,1.540375 -0.084975,0.50812 -0.1697316,1.015845 -0.2551986,1.523459 0.060267,-0.211608 0.120028,-0.423483 0.1797984,-0.63558 0.1779176,-0.475695 0.3556943,-0.951579 0.5331145,-1.427759 0.09788,-0.197347 0.1955125,-0.39521 0.2928975,-0.593046 -0.023385,0.34029 -0.047179,0.680522 -0.07105,1.020309 -0.05778,0.250349 -0.1157246,0.500283 -0.1739978,0.75013 -0.027073,0.332756 -0.054601,0.66534 -0.082166,0.997595 -0.014255,0.318833 -0.028756,0.637697 -0.0435,0.956029 0.078422,-0.372935 0.1569722,-0.760963 0.2348991,-1.141629 0.1299515,-0.322101 0.2596258,-0.644071 0.3890798,-0.966661 0.060406,0.02306 0.1203721,0.04558 0.1802834,0.06814 0.026954,0.352306 0.053772,0.704271 0.080233,1.056077 0.1656063,0.514763 0.3307869,1.052716 0.4958957,1.57856 0.04031,0.467342 0.080538,0.93434 0.1203498,1.401175 0.1361629,0.474451 0.2722663,0.960822 0.4079318,1.440807 0.09814,0.446067 0.1957381,0.891814 0.2933801,1.337377 0.08087,0.351117 0.161778,0.702082 0.24215,1.052696 0.149994,0.251981 0.29967,0.509331 0.449498,0.765596 0.05131,-0.01873 0.150556,0.03446 0.340747,0.170614 0.406603,0.291069 1.219492,0.948055 1.875808,1.384743 0.656315,0.436687 1.155774,0.653254 1.531674,0.733212 0.375899,0.07996 0.628747,0.02321 1.023212,0.104401 0.394463,0.08118 0.923568,0.297517 1.309827,0.09618 0.386255,-0.201333 0.616612,-0.82572 0.929442,-1.476092 0.312834,-0.65037 0.70813,-1.326765 1.121327,-1.660242 0.413198,-0.333477 0.843714,-0.323687 1.193828,-0.413246 0.350113,-0.08956 0.620114,-0.278338 0.689712,-0.01161 0.0696,0.266736 -0.061,0.988728 -0.154665,1.667006 -0.09365,0.67828 -0.150214,1.312668 0.015,1.561159 0.165196,0.248491 0.551967,0.111164 1.008229,-0.126633 0.456261,-0.237797 0.981763,-0.575973 1.292909,-0.531181 0.311143,0.04479 0.407917,0.472436 0.487198,0.605132 0.07928,0.132696 0.141317,-0.02961 0.317547,-0.380381 0.17623,-0.350778 0.469736,-0.896484 0.709048,-1.625924 0.239309,-0.729445 0.431035,-1.654625 0.536012,-2.179823 0.104978,-0.525199 0.123496,-0.6503 0.159016,-0.696962 0.03552,-0.04666 0.08771,-0.01497 0.172065,0.234896 0.08435,0.249869 0.200952,0.718624 0.376032,1.275511 0.175078,0.556886 0.408807,1.203666 0.587247,1.639457 0.17844,0.435793 0.301608,0.660849 0.381349,0.743364 0.07974,0.08251 0.117437,0.02143 0.165297,-0.06332 0.04786,-0.08475 0.108778,-0.197935 0.229583,-0.297732 0.120803,-0.0998 0.303336,-0.189937 0.471731,-0.58048 0.168396,-0.390542 0.322828,-1.081559 0.397781,-1.474158 0.07495,-0.392599 0.07033,-0.486614 0.09184,-0.509915 0.0215,-0.02329 0.06887,0.02403 0.143067,0.229099 0.0742,0.205065 0.174955,0.567712 0.303531,0.885945 0.128576,0.318234 0.284685,0.592091 0.425331,0.781063 0.140647,0.188975 0.265778,0.2929 0.362982,0.382314 0.0972,0.08942 0.166698,0.164141 0.228131,0.170132 0.06143,0.006 0.115173,-0.05643 0.15225,-0.23103 0.03708,-0.174595 0.05727,-0.461685 0.111649,-0.70518 0.05438,-0.243497 0.14282,-0.442968 0.301599,-0.685363 0.158779,-0.242395 0.387758,-0.52751 0.568395,-0.911561 0.18064,-0.384054 0.313126,-0.867368 0.451917,-1.255693 0.138789,-0.388325 0.283951,-0.681616 0.378446,-0.861296 0.09449,-0.179679 0.140271,-0.248433 0.191882,-0.271633 0.05162,-0.02319 0.112621,-0.0065 0.182699,0.05703 0.07008,0.06358 0.149521,0.173483 0.143067,0.813445 -0.0065,0.639963 -0.09821,1.810031 -0.139682,2.423903 -0.04147,0.613873 -0.03253,0.675215 -0.01304,0.679562 0.01947,0.0044 0.05041,-0.04132 0.115517,-0.293379 0.06511,-0.252062 0.164366,-0.710936 0.234899,-1.265845 0.07053,-0.554907 0.112151,-1.20582 0.162882,-1.613358 0.05073,-0.407536 0.110604,-0.571182 0.184148,-0.846311 0.07354,-0.27513 0.160657,-0.66176 0.31465,-0.847762 0.15399,-0.186005 0.374782,-0.17144 0.495896,-0.115032 0.121117,0.0564 0.142916,0.154003 0.1479,0.971009 0.005,0.81701 -0.0067,2.353418 -0.01982,3.169685 -0.01316,0.816264 -0.02765,0.912644 -0.01304,0.923162 0.0146,0.01052 0.05822,-0.0645 0.08845,-0.236349 0.03022,-0.171853 0.04673,-0.440808 0.07588,-0.75593 0.02915,-0.315122 0.07069,-0.676588 0.11745,-1.005328 0.04675,-0.32874 0.09872,-0.624667 0.131948,-0.900927 0.03323,-0.27626 0.04773,-0.532723 0.104401,-0.814896 0.05666,-0.282172 0.155524,-0.590242 0.22088,-0.835196 0.06536,-0.244953 0.09738,-0.426897 0.159984,-0.51813 0.06261,-0.09124 0.155497,-0.09144 0.226681,-0.09522 0.07118,-0.0038 0.120429,-0.01101 0.183666,0.0812 0.06324,0.0922 0.142951,0.289395 0.1943,0.602229 0.05135,0.312833 0.07917,0.752423 0.09231,1.01161 0.01317,0.259188 0.0119,0.338016 0.06138,0.347999 0.04949,0.01 0.149843,-0.04859 0.254234,-0.142582 0.104388,-0.09399 0.214609,-0.225679 0.262447,-0.254717 0.04784,-0.02904 0.03659,0.04036 -0.06428,0.599332 -0.100877,0.558969 -0.292286,1.611598 -0.376031,2.146471 -0.08375,0.534873 -0.06172,0.560142 0.168197,0.536981 0.229913,-0.02316 0.662344,-0.09361 1.095228,-0.164334 0.432885,-0.07072 0.855625,-0.140108 1.180295,-0.192365 0.324667,-0.05226 0.551126,-0.08745 0.820211,-0.133881 0.269087,-0.04643 0.580678,-0.103928 1.033844,-0.2204 0.453165,-0.116472 1.047808,-0.292039 1.592575,-0.430164 0.544767,-0.138129 1.043814,-0.239838 1.468843,-0.3596 0.425027,-0.119758 0.784297,-0.258841 1.087493,-0.382313 0.303196,-0.123471 0.549914,-0.231302 0.870963,-0.382797 0.321048,-0.151496 0.71648,-0.346734 0.994694,-0.525381 0.278212,-0.178648 0.439486,-0.340739 0.520063,-0.464481 0.08058,-0.123745 0.08066,-0.20938 0.0435,-0.352348 -0.03715,-0.142968 -0.115071,-0.352341 -0.177381,-0.582414 -0.06231,-0.230072 -0.115899,-0.499119 -0.164816,-0.74868 -0.04891,-0.249559 -0.09315,-0.479424 -0.136299,-0.701311 -0.04313,-0.221888 -0.08571,-0.439395 -0.106333,-0.671347 -0.02061,-0.231955 -0.02066,-0.486447 -0.0053,-0.631229 0.01534,-0.144785 0.04766,-0.182063 0.129048,-0.09473 0.08138,0.08733 0.215389,0.294949 0.380381,0.572748 0.164996,0.277798 0.36136,0.625981 0.524414,0.882078 0.163058,0.256097 0.292764,0.419889 0.368783,0.430647 0.07602,0.01076 0.09827,-0.131312 0.131466,-0.284682 0.03319,-0.153367 0.07697,-0.317659 0.144032,-0.374096 0.06707,-0.05644 0.165292,-2.48e-4 0.245047,0.09473 0.07976,0.09509 0.157619,0.238017 0.23345,0.278881 0.07583,0.04087 0.148061,-0.01916 0.2204,-0.0841 0.07234,-0.06494 0.141634,-0.131996 0.213149,-0.0957 0.07151,0.0363 0.14641,0.178646 0.204448,0.252781 0.05803,0.07414 0.09864,0.08461 0.177866,-0.0348 0.07923,-0.119409 0.19184,-0.370393 0.260999,-0.476081 0.05652,-0.08637 0.08753,-0.05518 0.132431,0.03335 0.07822,-0.09094 0.156696,-0.181654 0.2349,-0.2726 0.156999,-0.197164 0.348166,-0.39491 0.521996,-0.592564 0.179372,-0.325218 0.358591,-0.650618 0.537465,-0.976327 C 49.993649,15.50683 49.653968,14.85938 49.331905,14.229865 48.407586,13.041146 47.482813,11.852592 46.558042,10.663385 45.581375,9.8307408 44.604751,8.9636157 43.62761,8.113333 42.059811,7.3079192 40.491615,6.5020888 38.923351,5.6961962 36.823459,4.8169654 34.723483,3.9374014 32.623135,3.0576936 30.92296,2.3928154 29.2227,1.6923806 27.522063,1.009338 26.492905,1.1784721 25.390088,1.347233 24.323864,1.5158685 23.345327,1.4821505 22.366644,1.4485815 21.387628,1.4143691 20.834944,1.1765616 20.282008,0.93830403 19.728839,0.70000631 19.159025,1.127957 18.589113,1.5558023 18.018814,1.9832494 17.435335,2.4974534 16.819042,3.0113758 16.218892,3.5250744 15.947251,3.7020166 15.675642,3.8030624 15.403511,3.9417056 15.185506,4.4826212 14.967093,5.0233532 14.748599,5.5637633 14.422529,5.0123141 14.096412,4.4049925 13.769853,3.8252229 13.629722,3.1552211 13.489498,2.4845666 13.348873,1.8140838 13.656076,1.2450088 13.962914,0.67603459 14.269617,0.10647632 Z" />
      <path
         style="opacity:1;fill:none;stroke:#000000;stroke-width:0.299758;stroke-linecap:butt;stroke-linejoin:miter;stroke-miterlimit:4;stroke-dasharray:none;stroke-opacity:1"
         d="m 22.937103,43.560334 c 0.07693,0.426316 0.151039,0.836991 0.156157,1.173476 0.0051,0.336485 -0.06004,0.591194 -0.08326,0.809709 -0.02322,0.218516 -0.0045,0.401623 0.144007,0.777894 0.148498,0.376272 0.42668,0.946101 0.863807,1.485215 0.437127,0.539115 1.037659,1.051486 1.801562,1.600642 0.763903,0.549155 1.69341,1.137071 2.422007,1.535585 0.728596,0.398513 1.266612,0.611783 1.799151,0.822882"
         id="path2038"
         inkscape:path-effect="#path-effect2040"
         inkscape:original-d="m 22.937103,43.560334 c 0.07574,0.426531 0.151236,0.836955 0.226482,1.255062 -0.06492,0.254972 -0.130075,0.509682 -0.195482,0.764154 0.01448,0.182913 0.03762,0.36557 0.05606,0.547985 0.27844,0.5701 0.556622,1.139929 0.834563,1.709522 0.598497,0.506007 1.196724,1.021079 1.794716,1.531246 0.929792,0.588188 1.859299,1.176104 2.788578,1.763784 0.527087,0.21147 1.06592,0.422681 1.59851,0.63365" />
      <path
         id="path2042"
         style="opacity:1;fill:#f4e3d7;fill-opacity:1;stroke:#000000;stroke-width:0.299758;stroke-linecap:butt;stroke-linejoin:miter;stroke-miterlimit:4;stroke-dasharray:none;stroke-opacity:1"
         d="m 23.764634,41.208936 c -0.01168,0.0077 -0.01987,0.02962 -0.02222,0.07201 -0.0095,0.169611 0.07397,0.667645 0.07879,1.052213 0.0048,0.384566 -0.06893,0.655892 -0.183183,0.829395 -0.11426,0.1735 -0.272734,0.251146 -0.470281,0.31948 -0.06373,0.02205 -0.142231,0.04171 -0.217015,0.06187 -0.0015,0.04744 0.0025,0.07818 0.01304,0.118901 0.02681,0.102376 0.08059,0.306936 0.05509,0.453364 -0.02549,0.14643 -0.131676,0.23671 -0.304981,0.324798 -0.173305,0.08809 -0.414915,0.174396 -0.68488,0.282266 -0.269962,0.107868 -0.568261,0.237138 -0.808613,0.379414 -0.240348,0.142275 -0.422823,0.297864 -0.521513,0.457232 -0.09869,0.159367 -0.11397,0.322229 -0.08024,0.540363 0.03374,0.218135 0.116799,0.49152 0.224751,0.741913 0.107952,0.250393 0.24354,0.482032 0.440312,0.795078 0.196772,0.313047 0.455989,0.709429 0.861778,1.214128 0.405792,0.504698 0.963054,1.123442 1.624476,1.725491 0.66142,0.602049 1.429108,1.189952 2.224771,1.71389 0.795663,0.523939 1.619012,0.983916 2.476103,1.375076 0.857091,0.391158 1.748139,0.713953 2.61627,0.977295 0.868128,0.263343 1.727061,0.470395 2.630769,0.664578 0.903707,0.194186 1.858665,0.376855 2.70182,0.469315 0.84315,0.09246 1.581333,0.09482 2.153237,0.01982 0.571905,-0.07501 0.981263,-0.227383 1.319008,-0.396333 0.337747,-0.168947 0.603612,-0.354583 0.854047,-0.577096 0.250435,-0.222514 0.485495,-0.481985 0.68343,-0.776712 0.197933,-0.294727 0.358867,-0.624946 0.449496,-1.07251 0.09063,-0.447566 0.110555,-1.012484 0.111167,-1.468843 4.95e-4,-0.327727 0.09673,-0.46348 -0.100315,-1.450379 -0.149133,-9.9e-4 -1.322378,0.04086 -1.504827,0.02842 -0.466432,-0.03181 -1.045742,-0.107729 -1.53989,-0.208317 -0.494152,-0.100587 -0.903251,-0.225696 -1.345111,-0.266314 -0.441858,-0.04062 -0.916566,0.0034 -1.556809,-0.08361 -0.64024,-0.08702 -1.446232,-0.305557 -2.248452,-0.571298 -0.802224,-0.26574 -1.600272,-0.578752 -2.356722,-0.959893 -0.756451,-0.381142 -1.474294,-0.832041 -2.146472,-1.267295 -0.672177,-0.435252 -1.304758,-0.858398 -1.828922,-1.24651 -0.524166,-0.38811 -0.939445,-0.741337 -1.356226,-1.176426 -0.416784,-0.435091 -0.834998,-0.952422 -1.176911,-1.44516 -0.341913,-0.492738 -0.607525,-0.960945 -0.740463,-1.195277 -0.132938,-0.23433 -0.133238,-0.234343 -0.184149,-0.31368 -0.03818,-0.0595 -0.105086,-0.163778 -0.140167,-0.140649 z"
         sodipodi:nodetypes="ssssscsssssssssssssssssssssscsssssssssssss" />
    </g>
  </g>
</svg>
