<?xml version="1.0" encoding="UTF-8" standalone="no"?>
<!-- Created with Inkscape (http://www.inkscape.org/) -->

<svg
   width="56.0px"
   height="56.0px"
   viewBox="0 0 56.0 56.0"
   version="1.1"
   id="SVGRoot"
   sodipodi:docname="child-haircut.svg"
   inkscape:version="1.1.2 (0a00cf5339, 2022-02-04)"
   xmlns:inkscape="http://www.inkscape.org/namespaces/inkscape"
   xmlns:sodipodi="http://sodipodi.sourceforge.net/DTD/sodipodi-0.dtd"
   xmlns="http://www.w3.org/2000/svg"
   xmlns:svg="http://www.w3.org/2000/svg">
  <sodipodi:namedview
     id="namedview2659"
     pagecolor="#ffffff"
     bordercolor="#666666"
     borderopacity="1.0"
     inkscape:pageshadow="2"
     inkscape:pageopacity="0.0"
     inkscape:pagecheckerboard="0"
     inkscape:document-units="px"
     showgrid="true"
     inkscape:zoom="2.5300224"
     inkscape:cx="-17.39115"
     inkscape:cy="127.66685"
     inkscape:window-width="1920"
     inkscape:window-height="1003"
     inkscape:window-x="0"
     inkscape:window-y="40"
     inkscape:window-maximized="1"
     inkscape:current-layer="layer1">
    <inkscape:grid
       type="xygrid"
       id="grid2722" />
  </sodipodi:namedview>
  <defs
     id="defs2654">
    <inkscape:path-effect
       effect="bspline"
       id="path-effect980"
       is_visible="true"
       lpeversion="1"
       weight="33.333333"
       steps="2"
       helper_size="0"
       apply_no_weight="true"
       apply_with_weight="true"
       only_selected="false" />
    <inkscape:path-effect
       effect="bspline"
       id="path-effect984"
       is_visible="true"
       lpeversion="1"
       weight="33.333333"
       steps="2"
       helper_size="0"
       apply_no_weight="true"
       apply_with_weight="true"
       only_selected="false" />
    <inkscape:path-effect
       effect="bspline"
       id="path-effect988"
       is_visible="true"
       lpeversion="1"
       weight="33.333333"
       steps="2"
       helper_size="0"
       apply_no_weight="true"
       apply_with_weight="true"
       only_selected="false" />
    <inkscape:path-effect
       effect="bspline"
       id="path-effect992"
       is_visible="true"
       lpeversion="1"
       weight="33.333333"
       steps="2"
       helper_size="0"
       apply_no_weight="true"
       apply_with_weight="true"
       only_selected="false" />
    <inkscape:path-effect
       effect="bspline"
       id="path-effect996"
       is_visible="true"
       lpeversion="1"
       weight="33.333333"
       steps="2"
       helper_size="0"
       apply_no_weight="true"
       apply_with_weight="true"
       only_selected="false" />
    <inkscape:path-effect
       effect="bspline"
       id="path-effect1000"
       is_visible="true"
       lpeversion="1"
       weight="33.333333"
       steps="2"
       helper_size="0"
       apply_no_weight="true"
       apply_with_weight="true"
       only_selected="false" />
    <inkscape:path-effect
       effect="bspline"
       id="path-effect1004"
       is_visible="true"
       lpeversion="1"
       weight="33.333333"
       steps="2"
       helper_size="0"
       apply_no_weight="true"
       apply_with_weight="true"
       only_selected="false" />
    <inkscape:path-effect
       effect="bspline"
       id="path-effect1008"
       is_visible="true"
       lpeversion="1"
       weight="33.333333"
       steps="2"
       helper_size="0"
       apply_no_weight="true"
       apply_with_weight="true"
       only_selected="false" />
    <inkscape:path-effect
       effect="bspline"
       id="path-effect1012"
       is_visible="true"
       lpeversion="1"
       weight="33.333333"
       steps="2"
       helper_size="0"
       apply_no_weight="true"
       apply_with_weight="true"
       only_selected="false" />
    <inkscape:path-effect
       effect="bspline"
       id="path-effect1016"
       is_visible="true"
       lpeversion="1"
       weight="33.333333"
       steps="2"
       helper_size="0"
       apply_no_weight="true"
       apply_with_weight="true"
       only_selected="false" />
    <inkscape:path-effect
       effect="bspline"
       id="path-effect1053"
       is_visible="true"
       lpeversion="1"
       weight="33.333333"
       steps="2"
       helper_size="0"
       apply_no_weight="true"
       apply_with_weight="true"
       only_selected="false" />
    <inkscape:path-effect
       effect="bspline"
       id="path-effect2040"
       is_visible="true"
       lpeversion="1"
       weight="33.333333"
       steps="2"
       helper_size="0"
       apply_no_weight="true"
       apply_with_weight="true"
       only_selected="false" />
  </defs>
  <g
     inkscape:label="Layer 1"
     inkscape:groupmode="layer"
     id="layer1">
    <g
       id="g2586"
       style="display:inline;opacity:0.691657;stroke-width:2.42262724;stroke-miterlimit:4;stroke-dasharray:none"
       transform="matrix(0.24766501,0,0,0.24766501,-33.762364,-15.692844)">
      <path
         style="fill:#f4e3d7;stroke:#000000;stroke-width:2.42262724;stroke-linecap:butt;stroke-linejoin:miter;stroke-opacity:1;stroke-miterlimit:4;stroke-dasharray:none"
         d="m 233.4682,231.64674 c 0.53719,0.94693 1.61091,2.83958 2.99256,4.83073 1.38166,1.99114 3.07098,4.08077 4.75519,5.83895 1.6842,1.75819 3.363,3.185 5.48114,4.75334 2.11814,1.56835 4.67541,3.27827 7.39165,5.03711 2.71625,1.75885 5.61529,3.58164 8.67208,5.12182 3.0568,1.54018 6.28312,2.80546 9.52488,3.87931 3.24175,1.07385 6.49886,1.95638 9.08606,2.30804 2.58719,0.35166 4.50457,0.17282 6.29011,0.33696 1.78553,0.16414 3.43883,0.67079 5.43567,1.07726 1.99685,0.40647 4.33727,0.71297 6.22211,0.8415 1.88485,0.12854 3.31409,0.0793 4.36772,-0.0179 1.05362,-0.0972 1.7348,-0.24276 2.49628,-0.61354 0.76147,-0.37078 1.60528,-0.96708 2.39477,-1.52415 0.78949,-0.55707 1.52461,-1.07487 2.22235,-1.50654 0.69775,-0.43166 1.35788,-0.77711 2.06848,-1.23277 0.7106,-0.45566 1.4718,-1.02157 2.09153,-1.55288 0.61972,-0.53131 1.09809,-1.02811 1.51401,-1.74292 0.41593,-0.71481 0.77162,-1.65348 1.14158,-2.9241 0.36996,-1.27062 0.7627,-2.90269 1.09306,-4.37792 0.33035,-1.47523 0.60054,-2.80291 0.82155,-4.06527 0.22102,-1.26237 0.39281,-2.45943 0.75254,-3.63143 0.35973,-1.172 0.90746,-2.31847 1.50883,-3.50896 0.60138,-1.19048 1.25635,-2.42484 1.95854,-3.86248 0.70219,-1.43764 1.45156,-3.07855 2.23238,-4.76547 0.78081,-1.68692 1.59302,-3.41974 2.59795,-5.54177 1.00494,-2.12203 2.20257,-4.63319 3.07676,-6.34105 0.87419,-1.70786 1.42485,-2.61215 1.8044,-3.51941 0.37955,-0.90726 0.58796,-1.81787 0.69992,-2.38803 0.11196,-0.57017 0.12963,-0.83428 0.1371,-2.20358 0.007,-1.3693 0.006,-3.86087 -0.004,-6.15913 -0.01,-2.29825 -0.0278,-4.42818 -0.12361,-5.89811 -0.0958,-1.46993 -0.26979,-2.2925 -0.51342,-3.34864 -0.24363,-1.05615 -0.56454,-2.37704 -0.94752,-3.74518 -0.38298,-1.36814 -0.8319,-2.7991 -1.30606,-4.3036 -0.47415,-1.50449 -0.97351,-3.08242 -1.40168,-4.2514 -0.42818,-1.16897 -0.78534,-1.92894 -0.88024,-2.48831 -0.0949,-0.55937 0.0732,-0.91735 0.48586,-1.41864 0.41262,-0.50129 1.0695,-1.14542 1.75436,-1.82153 0.68487,-0.6761 1.39767,-1.38415 2.00639,-2.22604 0.60873,-0.8419 1.11353,-1.81798 1.4616,-2.89237 0.34807,-1.07438 0.53932,-2.24745 0.71101,-5.44621 0.17169,-3.19876 0.32441,-8.44777 0.4192,-12.45929 0.0948,-4.01151 0.13199,-6.79765 0.032,-9.1139 -0.10003,-2.31625 -0.33742,-4.16259 -0.67646,-5.61139 -0.33904,-1.4488 -0.78007,-2.50008 -1.05221,-3.10555 -0.27215,-0.60548 -0.37564,-0.76507 -0.65511,-0.338 -0.27946,0.42708 -0.73393,1.4415 -1.05408,1.92403 -0.32014,0.48253 -0.48437,0.43935 -0.7189,0.13976 -0.23453,-0.29958 -0.53812,-0.87384 -0.8271,-1.02051 -0.28898,-0.14667 -0.56813,0.12524 -0.86044,0.38763 -0.29232,0.26239 -0.58504,0.50468 -0.89147,0.33955 -0.30643,-0.16513 -0.62067,-0.74425 -0.94296,-1.12851 -0.32229,-0.38426 -0.71852,-0.61044 -0.98953,-0.38238 -0.27102,0.22807 -0.44813,0.89169 -0.58227,1.51145 -0.13413,0.61975 -0.22534,1.19546 -0.53253,1.15199 -0.30718,-0.0435 -0.83133,-0.70641 -1.49023,-1.74129 -0.6589,-1.03488 -1.45232,-2.44173 -2.11906,-3.56431 -0.66673,-1.12258 -1.20682,-1.9608 -1.53571,-2.31369 -0.32889,-0.35289 -0.46021,-0.20283 -0.52223,0.38223 -0.062,0.58507 -0.062,1.61242 0.0213,2.54973 0.0833,0.93732 0.25602,1.81634 0.43034,2.71298 0.17433,0.89664 0.35342,1.82684 0.55109,2.83531 0.19767,1.00846 0.41389,2.09515 0.66568,3.02487 0.25179,0.92971 0.56605,1.77532 0.71617,2.35305 0.15013,0.57773 0.15013,0.92425 -0.17548,1.4243 -0.32561,0.50004 -0.97681,1.15458 -2.10106,1.87649 -1.12425,0.72191 -2.72188,1.51134 -4.01923,2.12353 -1.29735,0.61219 -2.29439,1.0471 -3.51959,1.54605 -1.22521,0.49894 -2.67856,1.06189 -4.39608,1.54583 -1.71753,0.48395 -3.73263,0.89562 -5.93401,1.45378 -2.20139,0.55817 -4.60545,1.26623 -6.43668,1.73689 -1.83123,0.47066 -3.08966,0.70384 -4.17703,0.89146 -1.08737,0.18761 -2.00364,0.32962 -3.31562,0.54079 -1.31197,0.21117 -3.01954,0.49148 -4.76881,0.77726 -1.74927,0.28578 -3.4962,0.56986 -4.42527,0.66346 -0.92908,0.0936 -1.01841,-0.008 -0.68,-2.16949 0.33841,-2.16141 1.11145,-6.41424 1.51909,-8.67302 0.40764,-2.25879 0.45278,-2.53955 0.25946,-2.42221 -0.19331,0.11734 -0.63882,0.64989 -1.06066,1.02969 -0.42184,0.3798 -0.82724,0.61533 -1.02723,0.575 -0.19998,-0.0403 -0.19421,-0.3577 -0.24737,-1.40507 -0.0532,-1.04737 -0.16531,-2.82476 -0.37281,-4.08891 -0.2075,-1.26414 -0.52927,-2.06103 -0.78482,-2.43363 -0.25554,-0.3726 -0.45444,-0.3425 -0.74209,-0.32723 -0.28765,0.0153 -0.6642,0.0156 -0.91719,0.38426 -0.253,0.36867 -0.38128,1.10488 -0.64538,2.09473 -0.26411,0.98985 -0.66396,2.23347 -0.89297,3.37372 -0.22901,1.14025 -0.28731,2.17673 -0.4216,3.29309 -0.13429,1.11636 -0.34448,2.31267 -0.53341,3.6411 -0.18892,1.32842 -0.35662,2.7888 -0.47441,4.0622 -0.11778,1.2734 -0.18569,2.35967 -0.30784,3.05412 -0.12214,0.69444 -0.29837,0.99763 -0.35737,0.95514 -0.059,-0.0425 -8e-4,-0.4312 0.0524,-3.7297 0.0532,-3.29851 0.10132,-9.50672 0.0812,-12.80822 -0.0201,-3.3015 -0.1088,-3.69632 -0.59822,-3.92426 -0.48942,-0.22794 -1.38038,-0.28787 -2.00265,0.46376 -0.62227,0.75164 -0.9746,2.31412 -1.27179,3.4259 -0.29719,1.11179 -0.53918,1.773 -0.74418,3.41985 -0.205,1.64684 -0.37314,4.27883 -0.65816,6.5212 -0.28502,2.24237 -0.68678,4.09518 -0.94986,5.11375 -0.26308,1.01856 -0.38748,1.20338 -0.46622,1.1858 -0.0787,-0.0176 -0.11629,-0.26591 0.0513,-2.74655 0.16758,-2.48064 0.53844,-7.20694 0.56451,-9.79301 0.0261,-2.58607 -0.29351,-3.03203 -0.5767,-3.28893 -0.28318,-0.2569 -0.53034,-0.32394 -0.73891,-0.23019 -0.20856,0.0937 -0.39298,0.37225 -0.77483,1.09833 -0.38185,0.72608 -0.96895,1.91144 -1.5298,3.48065 -0.56084,1.56921 -1.0954,3.52189 -1.82535,5.07383 -0.72995,1.55194 -1.65535,2.70363 -2.29697,3.68314 -0.64162,0.97951 -0.99934,1.78645 -1.21908,2.77041 -0.21973,0.98396 -0.30161,2.14442 -0.45143,2.84996 -0.14983,0.70553 -0.36758,0.95693 -0.61583,0.93271 -0.24826,-0.0242 -0.52801,-0.32501 -0.92081,-0.68633 -0.39279,-0.36132 -0.89872,-0.78302 -1.46707,-1.54666 -0.56835,-0.76363 -1.19867,-1.86944 -1.71824,-3.15541 -0.51957,-1.28597 -0.92801,-2.75203 -1.22783,-3.58069 -0.29982,-0.82865 -0.49168,-1.01967 -0.57855,-0.92552 -0.0869,0.0942 -0.0678,0.47343 -0.37069,2.05991 -0.30288,1.58648 -0.92747,4.38036 -1.60795,5.95853 -0.68048,1.57816 -1.41739,1.94148 -1.90556,2.34476 -0.48816,0.40328 -0.73464,0.8602 -0.92805,1.20267 -0.19341,0.34248 -0.34481,0.58949 -0.66704,0.25606 -0.32222,-0.33344 -0.81966,-1.2423 -1.54073,-3.00332 -0.72108,-1.76101 -1.66551,-4.37408 -2.373,-6.62443 -0.70749,-2.25036 -1.17959,-4.1448 -1.52046,-5.15451 -0.34087,-1.00971 -0.55224,-1.13764 -0.69578,-0.94908 -0.14354,0.18857 -0.21794,0.69351 -0.64215,2.81581 -0.4242,2.12231 -1.19815,5.8619 -2.16519,8.80956 -0.96704,2.94765 -2.15355,5.15281 -2.86569,6.57029 -0.71214,1.41748 -0.9631,2.07163 -1.28346,1.53541 -0.32037,-0.53623 -0.71059,-2.26341 -1.96791,-2.44441 -1.25733,-0.18101 -3.38165,1.18546 -5.22539,2.14639 -1.84375,0.96093 -3.40712,1.51631 -4.07467,0.51217 -0.66756,-1.00415 -0.43862,-3.56884 -0.0601,-6.30974 0.37848,-2.74091 0.90653,-5.65776 0.62527,-6.73563 -0.28125,-1.07787 -1.37211,-0.31581 -2.78691,0.0461 -1.4148,0.36192 -3.15427,0.3235 -4.82399,1.67107 -1.66972,1.34757 -3.2684,4.08074 -4.53254,6.70887 -1.26415,2.62813 -2.19366,5.15082 -3.75452,5.9644 -1.56086,0.81359 -3.70035,-0.0598 -5.29437,-0.38791 -1.59401,-0.32809 -2.615,-0.0991 -4.134,-0.42227 -1.51899,-0.32312 -3.53636,-1.19894 -6.18852,-2.96358 -2.65215,-1.76464 -5.9388,-4.41834 -7.58186,-5.59454 -1.64307,-1.1762 -1.6414,-0.875 -1.54384,0.70168 0.0976,1.57667 0.29095,4.42864 1.54658,8.51378 1.25564,4.08515 3.57298,9.40305 5.97564,14.32025 2.40265,4.91719 4.89035,9.43342 6.23616,11.83155 1.34581,2.39813 1.5495,2.67814 1.25689,2.99765 -0.29262,0.3195 -1.14308,0.70813 -1.92322,1.45772 -0.78013,0.74959 -1.52025,1.8738 -2.08554,3.00986 -0.56528,1.13607 -0.95567,2.28358 -1.16915,3.30285 -0.21348,1.01927 -0.25307,1.97945 -0.0374,2.96291 0.21567,0.98346 0.68455,2.02467 1.35122,3.23724 0.66666,1.21257 1.53088,2.59646 2.71942,4.16664 1.18853,1.57018 2.70112,3.32667 3.80725,4.79959 1.10614,1.47292 1.806,2.66208 2.86361,3.89466 1.05762,1.23259 2.47258,2.50876 3.79032,3.52668 1.31773,1.01791 2.56795,1.79634 4.02382,2.5084 1.45587,0.71205 3.13219,1.36724 4.45347,2.02985 1.32128,0.6626 2.28752,1.33226 3.13514,1.95182 0.84763,0.61955 1.57664,1.18891 2.53814,1.62319 0.96151,0.43428 2.15537,0.73402 3.58051,0.86367 1.42513,0.12964 3.08167,0.0895 4.39736,-0.0552 1.31569,-0.1447 2.30756,-0.3981 3.10583,-0.67425 0.79828,-0.27614 1.43932,-0.59073 1.90105,-1.29185 0.46172,-0.70111 0.75857,-1.79637 0.73914,-3.3504 -0.0194,-1.55402 -0.3555,-3.56717 -0.31715,-4.25256 0.0383,-0.68538 0.45056,-0.043 0.6563,0.27759 0.20573,0.3206 0.20572,0.32056 0.74292,1.26748 z"
         id="path978"
         inkscape:original-d="m 232.931,230.69982 c 1.07472,1.89366 2.14843,3.78632 3.22115,5.67798 1.69038,2.09072 3.3797,4.18035 5.06806,6.26902 1.67987,1.42787 3.35866,2.85469 5.0365,4.28053 2.55836,1.71099 5.11563,3.42091 7.67195,5.12986 2.88816,1.78969 5.7752,3.63156 8.66131,5.44585 3.22744,1.26633 6.45376,2.53162 9.67914,3.79593 3.25816,0.88354 6.51527,1.76607 9.77149,2.64763 1.91845,-0.17784 3.83583,-0.35667 5.75225,-0.53651 1.65436,0.50767 3.30765,1.01432 4.95997,1.51997 2.34146,0.3075 4.68188,0.614 7.0214,0.91951 1.43031,-0.0483 2.85956,-0.0975 4.28784,-0.14776 0.68069,-0.13686 1.36036,-0.28953 2.03903,-0.4358 0.84484,-0.59532 1.68864,-1.19162 2.53146,-1.78893 0.73616,-0.51683 1.47128,-1.03463 2.20542,-1.55344 0.66117,-0.34447 1.32131,-0.68992 1.98047,-1.03638 0.76224,-0.56493 1.52345,-1.13083 2.2837,-1.69777 0.47938,-0.49583 0.95775,-0.99263 1.43512,-1.49045 0.35466,-0.93232 0.71036,-1.87099 1.06099,-2.79996 0.3915,-1.61191 0.78199,-3.24452 1.17149,-4.86828 0.2712,-1.32674 0.54139,-2.65442 0.81058,-3.98314 0.1728,-1.19609 0.34459,-2.39315 0.51539,-3.59122 0.54874,-1.14552 1.09647,-2.29199 1.64321,-3.43948 0.656,-1.23342 1.31097,-2.46778 1.96496,-3.70317 0.7504,-1.63997 1.49978,-3.28088 2.24817,-4.92283 0.81323,-1.73188 1.62544,-3.4647 2.43666,-5.19855 1.19865,-2.5102 2.39629,-5.02136 3.59296,-7.5336 0.55168,-0.90333 1.10233,-1.80763 1.652,-2.71295 0.20942,-0.90964 0.41784,-1.82025 0.62526,-2.73188 0.0175,-0.22882 0.0341,-0.49301 0.0496,-0.74101 -5.5e-4,-2.49067 -0.002,-4.98224 -0.005,-7.47486 -0.0169,-2.1039 -0.0349,-4.23383 -0.0538,-6.35224 -0.17297,-0.8216 -0.34693,-1.64417 -0.52189,-2.46776 -0.31612,-1.28779 -0.63324,-2.6096 -0.95136,-3.91589 -0.44794,-1.43002 -0.89686,-2.86098 -1.34679,-4.29297 -0.49837,-1.577 -0.99773,-3.15493 -1.4981,-4.73389 -0.35617,-0.759 -0.71334,-1.51896 -1.07151,-2.27994 0.16914,-0.357 0.33727,-0.71498 0.50441,-1.07396 0.6579,-0.64316 1.31478,-1.28729 1.97068,-1.93243 0.71383,-0.70707 1.42664,-1.41511 2.13846,-2.12417 0.50582,-0.97512 1.01063,-1.9512 1.51444,-2.9283 0.19226,-1.17211 0.38351,-2.34518 0.57377,-3.51927 0.15337,-5.22357 0.30574,-10.47259 0.45711,-15.71038 0.0382,-2.78526 0.0754,-5.5714 0.11159,-8.3586 -0.2364,-1.84542 -0.47379,-3.69176 -0.71219,-5.53913 -0.44005,-1.05033 -0.88108,-2.1016 -1.32311,-3.15391 -0.1025,-0.1586 -0.206,-0.31819 -0.31049,-0.47879 -0.45348,1.01545 -0.90794,2.02987 -1.36341,3.0433 -0.18446,-0.0549 -0.35044,-0.0914 -0.52715,-0.1386 -0.2972,-0.55 -0.59538,-1.12712 -0.89458,-1.69217 -0.27815,0.27292 -0.5573,0.54483 -0.83745,0.81575 -0.29815,0.2617 -0.59729,0.49622 -0.89744,0.74284 -0.31325,-0.57815 -0.62749,-1.15727 -0.94274,-1.7374 -0.33503,-0.17885 -0.7261,-0.41406 -1.09065,-0.62258 -0.17612,0.66464 -0.35323,1.32827 -0.53134,1.9909 -0.0902,0.57674 -0.18142,1.15245 -0.27363,1.72718 -0.52316,-0.66196 -1.04731,-1.32489 -1.57246,-1.98884 -0.79245,-1.4059 -1.58587,-2.81275 -2.38031,-4.22063 -0.53911,-0.83725 -1.0792,-1.67547 -1.6203,-2.5147 -0.10642,0.1428 -0.24719,0.2846 -0.37229,0.4254 0.001,1.0284 0.001,2.05575 0,3.08213 0.17056,0.84748 0.34012,1.72712 0.50867,2.58918 0.1801,0.93122 0.3592,1.86142 0.53729,2.79063 0.21723,1.08772 0.43345,2.17441 0.64867,3.26012 0.2842,0.77513 0.6024,1.61927 0.9021,2.42741 0.001,0.34753 0.001,0.69405 0,1.03958 -0.65022,0.65556 -1.30142,1.3101 -1.95363,1.96365 -1.5967,0.79047 -3.19433,1.5799 -4.793,2.36836 -0.99609,0.43593 -1.99313,0.87084 -2.9912,1.30476 -1.4524,0.56397 -2.90575,1.12691 -4.36012,1.68887 -1.98022,0.40929 -3.99601,0.81755 -5.99551,1.22483 -2.40316,0.70909 -4.80722,1.41715 -7.21233,2.12423 -1.25749,0.23419 -2.51592,0.46738 -3.77538,0.69957 -0.91532,0.14302 -1.83159,0.28503 -2.74889,0.42605 -1.70663,0.28132 -3.4142,0.56163 -5.1228,0.84095 -1.79053,0.28867 -3.53688,0.57633 -5.30682,0.86299 -0.0883,-0.10068 -0.17765,-0.20235 -0.26798,-0.30503 0.77115,-4.21933 1.54126,-8.47269 2.3104,-12.71053 0.0461,-0.27976 0.0913,-0.56051 0.1354,-0.84227 -0.421,0.52536 -0.87632,1.0497 -1.31598,1.57305 -0.40441,0.23654 -0.80981,0.47207 -1.21622,0.7066 0.007,-0.31637 0.0125,-0.63373 0.0173,-0.9521 -0.11116,-1.77645 -0.22332,-3.55384 -0.33648,-5.33226 -0.29857,-0.75151 -0.62403,-1.54691 -0.93755,-2.32187 -0.19791,0.0311 -0.39681,0.0612 -0.59672,0.0903 -0.37556,0.001 -0.75211,0.002 -1.12967,9.3e-4 -0.12729,0.73724 -0.25557,1.47345 -0.38485,2.20867 -0.39887,1.24467 -0.79872,2.48829 -1.19959,3.73093 -0.0573,1.03753 -0.11559,2.07401 -0.17489,3.10952 -0.2092,1.19735 -0.41938,2.39366 -0.63058,3.58899 -0.1667,1.46145 -0.3344,2.92183 -0.5031,4.38125 -0.0669,1.08732 -0.13483,2.17359 -0.20374,3.25889 -0.17524,0.30421 -0.35148,0.6074 -0.52872,0.9096 0.0592,-0.38771 0.11738,-0.77641 0.17457,-1.16612 0.0491,-6.20746 0.0972,-12.41567 0.14434,-18.625 -0.0877,-0.39384 -0.17632,-0.78867 -0.26598,-1.18451 -0.88999,-0.0589 -1.78094,-0.11887 -2.67291,-0.17981 -0.35135,1.56354 -0.70367,3.12602 -1.05701,4.68753 -0.241,0.66224 -0.48299,1.32345 -0.72599,1.98368 -0.16715,2.63309 -0.33529,5.26508 -0.50444,7.89612 -0.40079,1.85388 -0.80255,3.70669 -1.20533,5.55854 -0.12339,0.18581 -0.24779,0.37062 -0.37318,0.55443 -0.0127,-0.22284 -0.07,-0.46819 -0.10644,-0.70379 0.37188,-4.72548 0.74274,-9.45178 1.11261,-14.17917 -0.3186,-0.44497 -0.63819,-0.89092 -0.95878,-1.33787 -0.24617,-0.066 -0.49332,-0.13308 -0.74149,-0.20113 -0.17552,0.2504 -0.35204,0.53413 -0.52956,0.7997 -0.58613,1.18642 -1.17323,2.37179 -1.76135,3.55618 -0.53358,1.95376 -1.06814,3.90643 -1.60371,5.85814 -0.92443,1.15273 -1.84982,2.30442 -2.77623,3.45513 -0.35673,0.80796 -0.71445,1.6149 -1.07317,2.42085 -0.0809,1.16151 -0.16276,2.32198 -0.24564,3.48147 -0.21677,0.25242 -0.43453,0.50382 -0.65329,0.75423 -0.27877,-0.2998 -0.55853,-0.60059 -0.83929,-0.90239 -0.50495,-0.42071 -1.01088,-0.84241 -1.51781,-1.26512 -0.62935,-1.10485 -1.25968,-2.21065 -1.89102,-3.31748 -0.40745,-1.46512 -0.81589,-2.93118 -1.22534,-4.39827 -0.19086,-0.19003 -0.38272,-0.38105 -0.57558,-0.57307 0.0201,0.38028 0.0392,0.75955 0.0572,1.13782 -0.62361,2.795 -1.2482,5.58888 -1.8738,8.38182 -0.73594,0.36433 -1.47285,0.72765 -2.21078,1.08998 -0.22459,0.4508 -0.48428,0.90059 -0.72792,1.34938 -0.13359,0.24213 -0.2946,0.48325 -0.4434,0.72337 -0.49647,-0.9079 -0.99391,-1.81676 -1.49237,-2.72664 -0.94347,-2.61217 -1.88791,-5.22523 -2.83336,-7.83934 -0.45545,-1.89005 -0.94148,-3.78102 -1.41372,-5.67303 -0.21038,-0.12694 -0.42176,-0.25487 -0.63413,-0.38381 -0.0734,0.50595 -0.14781,1.01088 -0.22321,1.51482 -0.77297,3.74075 -1.54692,7.48034 -2.32188,11.219 -1.15865,2.15729 -2.34559,4.36221 -3.51989,6.54181 -0.24997,0.65518 -0.50094,1.30933 -0.7529,1.9625 -0.38924,-1.72624 -0.77946,-3.45342 -1.17068,-5.18163 -2.12341,1.36752 -4.24774,2.73399 -6.3731,4.09949 -1.56244,0.5564 -3.12581,1.11178 -4.69021,1.66618 0.22995,-2.56379 0.45888,-5.12848 0.68682,-7.69422 0.52907,-2.91596 1.05712,-5.83281 1.58418,-8.75072 -1.08991,0.7631 -2.18077,1.52516 -3.27265,2.28624 -1.73854,-0.0374 -3.47801,-0.0758 -5.21851,-0.11525 -1.59774,2.73427 -3.19642,5.46744 -4.79613,8.19967 -0.92856,2.52378 -1.85807,5.04647 -2.7886,7.5682 -2.21271,-0.84522 -4.33209,-1.76791 -6.49963,-2.65336 -1.02002,0.22994 -2.04101,0.45887 -3.06302,0.68681 -2.01645,-0.87486 -4.03382,-1.75069 -6.05223,-2.62753 -3.28578,-2.6528 -6.57243,-5.30649 -9.86014,-7.96123 0.003,0.30221 0.004,0.60342 0.005,0.90363 0.19439,2.85308 0.38777,5.70505 0.58016,8.55608 2.31843,5.31911 4.63578,10.63701 6.95216,15.95402 2.4888,4.5174 4.9765,9.03363 7.46324,13.54894 0.20471,0.28101 0.4084,0.56102 0.6111,0.84003 -0.79283,0.3498 -1.63802,0.74997 -2.45854,1.12345 -0.73914,1.12525 -1.47926,2.24946 -2.22039,3.37269 -0.3894,1.14855 -0.77979,2.29606 -1.17119,3.44259 -0.0371,0.89159 -0.0753,1.85182 -0.11447,2.77623 0.46991,1.04226 0.93879,2.08347 1.40668,3.12371 0.86525,1.38494 1.72947,2.76883 2.59271,4.15174 1.51365,1.75755 3.02623,3.51404 4.53784,5.26956 0.70088,1.19021 1.40074,2.37937 2.09961,3.56755 1.41601,1.27723 2.83097,2.5534 4.24495,3.82859 1.23632,0.73685 2.47159,1.53929 3.70589,2.30743 1.6774,0.65622 3.35372,1.31141 5.02908,1.96562 0.96727,0.67068 1.9335,1.34034 2.89875,2.009 0.73004,0.57038 1.45905,1.13974 2.18708,1.70811 1.19491,0.30076 2.38877,0.6005 3.58166,0.89925 1.65759,-0.0391 3.31412,-0.0793 4.96968,-0.12043 0.98451,-0.21518 1.96797,-0.50151 2.95045,-0.75377 0.62821,-0.27178 1.2554,-0.6146 1.88159,-0.9234 0.29786,-1.09431 0.5947,-2.18957 0.89055,-3.28585 -0.33508,-2.01223 -0.67115,-4.02538 -1.00823,-6.03956 0.41323,0.64338 0.82544,1.28575 1.23665,1.92712 z"
         inkscape:path-effect="#path-effect980"
         sodipodi:nodetypes="scccccccccccccccccccccccccccccccccccccccccccccccccccccccccccccccccccccccccccccccccccccccccccccccccccccccccccccccccccccccccccccccccccccccccccccccccccccccccccccccccccccccss" />
      <path
         style="fill:none;stroke:#000000;stroke-width:2.42262724;stroke-linecap:butt;stroke-linejoin:miter;stroke-opacity:1;stroke-miterlimit:4;stroke-dasharray:none"
         d="m 335.53949,166.50738 c -0.29873,0.62143 -0.59726,1.24244 -1.17453,2.02371 -0.57727,0.78126 -1.43339,1.72311 -2.60582,2.96805 -1.17242,1.24495 -2.66109,2.79292 -4.02056,4.3599 -1.35946,1.56698 -2.58953,3.15273 -3.89179,4.92857 -1.30227,1.77583 -2.67661,3.74158 -3.56541,5.42973 -0.8888,1.68816 -1.29731,3.11689 -1.33104,5.0112 -0.0337,1.8943 0.3043,4.26294 0.89599,6.5323 0.59169,2.26936 1.43669,4.4392 2.3226,6.45502 0.88592,2.01582 1.81258,3.8775 2.75362,5.72483 0.94104,1.84734 1.89639,3.68021 2.47837,5.07038 0.58199,1.39017 0.79096,2.33759 0.52183,3.37539 -0.26913,1.03781 -1.0159,2.16684 -2.03351,3.13226 -1.01761,0.96541 -2.3064,1.76755 -3.57476,2.22131 -1.26835,0.45377 -2.51682,0.55906 -3.46838,0.76918 -0.95155,0.21013 -1.63058,0.53722 -2.65747,0.84784 -1.02689,0.31061 -2.51753,0.63302 -4.21068,0.83974 -1.69315,0.20673 -3.64048,0.3088 -4.849,0.258 -1.20853,-0.0508 -1.70315,-0.26574 -2.18665,-0.47586"
         id="path982"
         inkscape:path-effect="#path-effect984"
         inkscape:original-d="m 335.53949,166.50738 c -0.29753,0.62201 -0.59606,1.24302 -0.89559,1.86303 -0.85516,0.94289 -1.71129,1.88474 -2.56843,2.82561 -1.48774,1.54904 -2.97641,3.09702 -4.46611,4.64404 -1.22913,1.58682 -2.4592,3.17257 -3.6903,4.75736 -1.3734,1.96682 -2.74774,3.93256 -4.1231,5.89734 -0.40486,1.41032 -0.81071,2.83981 -1.21756,4.25822 0.33904,2.36974 0.67708,4.73838 1.01412,7.10608 0.84603,2.17093 1.69103,4.34077 2.53504,6.50966 0.92769,1.86276 1.85435,3.72444 2.78002,5.58515 0.95639,1.83396 1.91173,3.66684 2.8661,5.49875 0.20997,0.94846 0.41894,1.89588 0.62691,2.84232 -0.74581,1.13009 -1.49258,2.25913 -2.24038,3.38719 -1.28785,0.80317 -2.57665,1.6053 -3.86647,2.40646 -1.24752,0.10629 -2.49599,0.21157 -3.74549,0.31586 -0.65023,0.3221 -1.33215,0.64318 -1.99972,0.96327 -1.38412,0.31227 -2.87718,0.62352 -4.31727,0.93377 -1.9464,0.10308 -3.89373,0.20515 -5.84209,0.30622 -0.4813,-0.17483 -0.96358,-0.41819 -1.44687,-0.62878" />
      <path
         style="fill:none;stroke:#000000;stroke-width:2.42262724;stroke-linecap:butt;stroke-linejoin:miter;stroke-opacity:1;stroke-miterlimit:4;stroke-dasharray:none"
         d="m 302.23503,186.68188 c -2.79274,0.67531 -5.58621,1.35079 -8.34899,2.08773 -2.76278,0.73695 -5.49469,1.53535 -8.41535,3.13646 -2.92067,1.6011 -6.0294,4.00472 -9.13834,6.4085"
         id="path986"
         inkscape:path-effect="#path-effect988"
         inkscape:original-d="m 302.23503,186.68188 c -2.79246,0.67648 -5.58593,1.35196 -8.3804,2.02644 -2.73102,0.79943 -5.46293,1.59783 -8.19589,2.39525 -3.10786,2.40471 -6.21659,4.80833 -9.32639,7.211" />
      <path
         style="fill:none;stroke:#000000;stroke-width:2.42262724;stroke-linecap:butt;stroke-linejoin:miter;stroke-opacity:1;stroke-miterlimit:4;stroke-dasharray:none"
         d="m 300.64324,201.2655 c -0.0718,-0.31856 -0.21559,-0.95685 -0.44602,-1.38578 -0.23043,-0.42894 -0.55745,-0.6544 -0.7945,-0.81796 -0.23705,-0.16357 -0.39959,-0.27592 -0.69594,-0.15846 -0.29634,0.11746 -0.73091,0.46183 -1.24172,0.90464 -0.51081,0.4428 -1.09774,0.98395 -1.80592,1.48421 -0.70817,0.50026 -1.53786,0.95977 -2.59642,1.40547 -1.05856,0.4457 -2.34617,0.87757 -3.74616,1.3029 -1.39998,0.42533 -2.91232,0.84407 -4.4011,1.2786 -1.48878,0.43453 -2.95388,0.88484 -3.99059,1.18136 -1.03671,0.29653 -1.67367,0.44594 -2.06055,0.54879 -0.38687,0.10284 -0.53773,0.16248 -0.17449,0.46367 0.36323,0.30119 1.23988,0.84296 2.26504,1.21301 1.02517,0.37006 2.19882,0.5689 3.42321,0.63196 1.22439,0.063 2.49966,-0.009 3.74125,-0.12407 1.2416,-0.11463 2.44954,-0.27132 3.59552,-0.59954 1.14598,-0.32823 2.23037,-0.82786 3.25988,-1.44188 1.02951,-0.61401 2.00438,-1.34244 2.65617,-2.00502 0.6518,-0.66258 0.98084,-1.25974 1.25599,-1.75405 0.27515,-0.49431 0.50071,-0.89336 0.66772,-1.20848 0.16701,-0.31512 0.27765,-0.55022 0.36531,-0.73698 0.0877,-0.18675 0.15236,-0.32516 0.28128,-0.22879 0.12891,0.0964 0.32115,0.42677 0.41709,0.52671 0.0959,0.0999 0.0963,-0.0304 0.0964,-0.0961 1.7e-4,-0.0657 2.8e-4,-0.0657 -0.0715,-0.38423 z"
         id="path990"
         inkscape:path-effect="#path-effect992"
         inkscape:original-d="m 300.71501,201.58406 c -0.14281,-0.63729 -0.28662,-1.27558 -0.43143,-1.91486 -0.32148,-0.21162 -0.64395,-0.44367 -0.96743,-0.667 -0.15608,-0.0959 -0.31316,-0.21616 -0.47125,-0.32573 -0.43359,0.34539 -0.86816,0.68976 -1.30375,1.03315 -0.58594,0.54216 -1.17287,1.08331 -1.7608,1.62346 -0.82872,0.46053 -1.65841,0.92003 -2.48912,1.37854 -1.28667,0.4329 -2.57428,0.86478 -3.86292,1.29566 -1.5114,0.41976 -3.02374,0.8385 -4.53711,1.25625 -1.46415,0.45132 -2.92925,0.90162 -4.39537,1.35093 -0.60661,0.14707 -1.24435,0.29314 -1.86802,0.4382 -0.14987,0.0607 -0.30074,0.1203 -0.45261,0.17895 0.87769,0.54279 1.75434,1.08456 2.63001,1.62535 1.17469,0.19985 2.34834,0.3987 3.52101,0.59655 1.27631,-0.0715 2.55158,-0.14399 3.82587,-0.21749 1.20898,-0.1557 2.41692,-0.31239 3.62387,-0.47008 1.08543,-0.49866 2.16981,-0.9983 3.25322,-1.49895 0.9759,-0.72746 1.95077,-1.45589 2.92465,-2.18533 0.33006,-0.59618 0.6591,-1.19334 0.98715,-1.79151 0.21551,-0.39425 0.4478,-0.78949 0.6702,-1.18573 0.11164,-0.23411 0.22228,-0.4692 0.33192,-0.7053 0.0657,-0.13742 0.13039,-0.27583 0.19408,-0.41524 0.19325,0.33141 0.38548,0.66181 0.57672,0.99122 10e-4,-0.12935 0.002,-0.2597 10e-4,-0.39104 z" />
      <path
         style="fill:none;stroke:#000000;stroke-width:2.42262724;stroke-linecap:butt;stroke-linejoin:miter;stroke-opacity:1;stroke-miterlimit:4;stroke-dasharray:none"
         d="m 320.72296,191.30053 c 0.38143,0.002 1.14327,0.006 1.93039,-0.26904 0.78711,-0.27493 1.60026,-0.82857 2.25022,-1.40927 0.64995,-0.5807 1.16884,-1.22845 1.56558,-1.79376 0.39675,-0.5653 0.68733,-1.0682 0.80696,-1.76362 0.11962,-0.69543 0.0704,-1.5441 0.1896,-2.07473 0.11922,-0.53063 0.40791,-0.72199 0.67092,-0.90574 0.26301,-0.18376 0.52283,-0.37658 0.32359,-0.26231 -0.19924,0.11428 -0.84639,0.52736 -1.47444,0.92241 -0.62805,0.39506 -1.29432,0.80759 -2.01557,1.17701 -0.72125,0.36942 -1.52631,0.71351 -2.12025,1.01229 -0.59393,0.29878 -0.97644,0.5522 -1.26733,0.86089 -0.2909,0.30868 -0.48974,0.67211 -0.73238,1.32162 -0.24265,0.64951 -0.5429,1.62985 -0.63459,2.20825 -0.0917,0.57839 0.0174,0.77678 0.0716,0.87539 0.0542,0.0986 0.0542,0.0986 0.43566,0.10061 z"
         id="path994"
         inkscape:path-effect="#path-effect996"
         inkscape:original-d="m 320.34153,191.29856 c 0.76285,0.005 1.52469,0.009 2.28554,0.0118 0.81418,-0.55265 1.62732,-1.10629 2.43948,-1.66093 0.47918,-0.61415 1.00696,-1.25478 1.50894,-1.88368 0.29159,-0.50191 0.58217,-1.00481 0.87176,-1.50871 -0.0494,-0.88775 -0.0998,-1.73636 -0.15125,-2.60604 0.2897,-0.19036 0.57839,-0.38172 0.86608,-0.57408 0.24961,-0.16007 0.49821,-0.36801 0.74582,-0.55351 -0.64618,0.41409 -1.29333,0.82717 -1.94149,1.23925 -0.61213,0.3713 -1.27422,0.79057 -1.91284,1.18436 -0.80409,0.34509 -1.60916,0.68917 -2.41524,1.03226 -0.38153,0.25443 -0.76404,0.50785 -1.14756,0.76027 -0.19785,0.36444 -0.39669,0.72787 -0.59653,1.09031 -0.29235,0.93418 -0.58569,1.91664 -0.88004,2.87347 0.11011,0.1994 0.21922,0.39779 0.32733,0.59519 z" />
      <path
         style="fill:none;stroke:#000000;stroke-width:2.42262724;stroke-linecap:butt;stroke-linejoin:miter;stroke-opacity:1;stroke-miterlimit:4;stroke-dasharray:none"
         d="m 322.48246,228.59722 c -0.0883,0.47045 -0.26468,1.41059 -0.40686,2.08803 -0.14218,0.67743 -0.2501,1.09225 -0.46608,1.45861 -0.21598,0.36637 -0.54019,0.68496 -0.88518,0.84427 -0.34499,0.1593 -0.71173,0.1593 -0.95853,0.26083 -0.2468,0.10153 -0.37247,0.3043 -0.54691,0.64726 -0.17443,0.34296 -0.39757,0.82591 -0.57425,1.18682 -0.17667,0.3609 -0.32901,0.64041 -0.71281,0.75835 -0.38381,0.11794 -1.01136,0.0949 -1.56818,0.002 -0.55683,-0.0931 -1.06194,-0.26289 -1.47376,-0.21671 -0.41182,0.0462 -0.73868,0.30569 -1.01191,0.71124 -0.27323,0.40556 -0.49248,0.95651 -0.94514,1.43972 -0.45267,0.48322 -1.17542,0.92132 -2.30145,1.27999 -1.12604,0.35866 -2.67389,0.64884 -4.05531,0.84477 -1.38142,0.19594 -2.59647,0.29756 -3.69446,0.35004 -1.09798,0.0525 -2.12755,0.0559 -2.91627,0.0185 -0.78872,-0.0374 -1.36098,-0.11558 -1.84719,-0.0791 -0.48621,0.0364 -0.8427,0.17157 -1.13063,0.42398 -0.28794,0.25241 -0.48505,0.61337 -0.71215,0.76826 -0.2271,0.15489 -0.48551,0.10383 -0.46246,-0.0497 0.0231,-0.15356 0.32861,-0.40931 0.61956,-0.73432 0.29095,-0.32502 0.56753,-0.71956 1.0114,-0.90405 0.44388,-0.18449 1.09713,-0.15695 1.91634,-0.15692 0.81921,4e-5 1.86173,-0.0274 2.97072,-0.13343 1.109,-0.10604 2.30237,-0.29103 3.35832,-0.51022 1.05595,-0.21919 1.97456,-0.4725 2.75504,-0.74937 0.78048,-0.27688 1.43331,-0.58208 2.06294,-0.95226 0.62963,-0.37018 1.24143,-0.80779 1.85166,-1.2812 0.61024,-0.4734 1.21898,-0.98263 1.62398,-1.38175 0.405,-0.39913 0.60648,-0.6884 0.95612,-0.87368 0.34964,-0.18529 0.84647,-0.26623 1.31874,-0.23855 0.47226,0.0277 0.91955,0.16346 1.28613,0.21124 0.36657,0.0478 0.65274,0.008 0.88113,-0.16974 0.22839,-0.17777 0.40001,-0.494 0.57894,-0.84523 0.17892,-0.35124 0.38503,-0.77877 0.58753,-1.04564 0.2025,-0.26686 0.41082,-0.39308 0.76124,-0.41553 0.35041,-0.0225 0.84203,0.0585 1.15114,0.047 0.3091,-0.0115 0.43667,-0.11513 0.53335,-0.38474 0.0967,-0.26961 0.1627,-0.70611 0.24648,-1.18194 0.0838,-0.47583 0.18533,-0.9909 0.23618,-1.24883 0.0509,-0.25793 0.0509,-0.25825 -0.0374,0.21221 z"
         id="path998"
         inkscape:path-effect="#path-effect1000"
         inkscape:original-d="m 322.57073,228.12676 c -0.1754,0.94113 -0.3518,1.88127 -0.5292,2.8204 -0.10692,0.41583 -0.21485,0.83065 -0.32377,1.24447 -0.32322,0.31961 -0.64744,0.6382 -0.97266,0.9558 -0.36575,10e-4 -0.73249,10e-4 -1.10024,0 -0.12468,0.20378 -0.25036,0.40655 -0.37703,0.60833 -0.22216,0.48397 -0.4453,0.96693 -0.66945,1.4489 -0.12768,0.24076 -0.28155,0.51944 -0.42382,0.77767 -0.62657,-0.022 -1.25411,-0.0451 -1.88266,-0.0691 -0.48421,-0.16565 -0.99038,-0.3323 -1.48708,-0.49995 -0.32587,0.26052 -0.65273,0.52003 -0.98059,0.77854 -0.21826,0.55198 -0.43752,1.10293 -0.65777,1.65289 -0.67891,0.42814 -1.40832,0.85526 -2.11398,1.28139 -1.5469,0.29119 -3.09475,0.58136 -4.64362,0.87053 -1.2141,0.10263 -2.42915,0.20425 -3.64522,0.30487 -0.97999,0.004 -2.00956,0.007 -3.01584,0.01 -0.57128,-0.0772 -1.14354,-0.15543 -1.71682,-0.23465 -0.40166,0.14429 -0.75505,0.28758 -1.13407,0.42987 -0.19612,0.36198 -0.39323,0.72294 -0.59135,1.08291 -0.25742,-0.0501 -0.51583,-0.10113 -0.77524,-0.15319 0.30656,-0.25476 0.61212,-0.5105 0.91668,-0.76725 0.27758,-0.39356 0.55416,-0.7881 0.82974,-1.18365 0.61095,0.0276 1.26424,0.0543 1.89486,0.0799 1.00785,-0.026 2.05039,-0.053 3.07409,-0.0809 1.19443,-0.184 2.38781,-0.36899 3.58022,-0.55499 0.91964,-0.25232 1.83825,-0.50563 2.75587,-0.75995 0.64871,-0.28843 1.2964,-0.60462 1.9431,-0.90843 0.61281,-0.43662 1.22461,-0.87423 1.83541,-1.31284 0.60976,-0.50825 1.2185,-1.01748 1.82625,-1.52772 0.20249,-0.28829 0.40397,-0.57757 0.60446,-0.86785 0.49784,-0.0799 0.99467,-0.16088 1.49051,-0.24283 0.44831,0.1368 0.8956,0.27259 1.3419,0.40738 0.28719,-0.0388 0.57337,-0.0785 0.85855,-0.11927 0.17263,-0.31524 0.34425,-0.63147 0.51488,-0.94871 0.17251,-0.3924 0.39334,-0.81283 0.58852,-1.22075 0.20933,-0.12522 0.41765,-0.25143 0.62498,-0.37865 0.49265,0.082 0.98428,0.16289 1.47493,0.24283 0.12857,-0.10264 0.25615,-0.20627 0.38272,-0.31091 0.067,-0.43551 0.13305,-0.87201 0.19807,-1.30952 0.10256,-0.51409 0.20411,-1.02916 0.30467,-1.54525 z" />
      <path
         style="fill:none;stroke:#000000;stroke-width:2.42262724;stroke-linecap:butt;stroke-linejoin:miter;stroke-opacity:1;stroke-miterlimit:4;stroke-dasharray:none"
         d="m 318.93089,236.02049 c -0.0649,0.43913 -0.19465,1.31657 -0.27405,2.30349 -0.0794,0.98692 -0.10857,2.08314 -0.0995,2.85325 0.009,0.77012 0.0561,1.21395 -0.13808,1.70565 -0.19419,0.4917 -0.67269,1.08595 -1.11455,1.4661 -0.44187,0.38015 -0.91022,0.59188 -1.17898,0.78985 -0.26876,0.19796 -0.35773,0.39075 -0.69053,0.57563 -0.33279,0.18487 -0.91021,0.36245 -1.7531,0.35237 -0.8429,-0.0101 -1.96012,-0.20971 -2.77285,-0.53434 -0.81273,-0.32462 -1.32504,-0.77569 -1.97993,-1.20079 -0.65489,-0.4251 -1.45246,-0.82388 -2.22233,-1.05052 -0.76987,-0.22663 -1.51185,-0.28059 -2.34888,-0.282 -0.83703,-0.001 -1.76892,0.0498 -2.77511,-0.0842 -1.0062,-0.13402 -2.08689,-0.45372 -2.7178,-0.72439 -0.63091,-0.27067 -0.84833,-0.53809 -0.85608,-0.7731 -0.008,-0.23501 0.17681,-0.45915 0.66895,-0.58471 0.49214,-0.12556 1.29078,-0.15239 2.39854,-0.19739 1.10777,-0.045 2.52457,-0.10816 3.94801,-0.26318 1.42343,-0.15502 2.85353,-0.40179 4.14143,-0.72886 1.28789,-0.32707 2.44861,-0.73964 3.18297,-1.19821 0.73437,-0.45857 1.05051,-0.96624 1.39092,-1.4387 0.34041,-0.47247 0.70499,-0.90954 1.10086,-1.11525 0.39587,-0.20571 0.82187,-0.18001 1.36541,-0.12723 0.54354,0.0528 1.2517,0.13826 1.63292,0.12508 0.38121,-0.0132 0.46999,-0.13561 0.65793,-0.41417 0.18794,-0.27857 0.47992,-0.72 0.58036,-0.72911 0.10044,-0.009 0.009,0.41358 -0.0361,0.62455 -0.0455,0.21098 -0.0455,0.21103 -0.11038,0.65016 z"
         id="path1002"
         inkscape:path-effect="#path-effect1004"
         inkscape:original-d="m 318.99582,235.58136 c -0.12873,0.87843 -0.25846,1.75587 -0.38919,2.63231 -0.0282,1.09726 -0.0573,2.19348 -0.0875,3.28873 0.0481,0.44485 0.0952,0.88868 0.14125,1.33152 -0.41761,0.55494 -0.91275,1.13579 -1.37063,1.70219 -0.42222,0.20348 -0.89476,0.40595 -1.34363,0.60743 -0.088,0.1938 -0.17696,0.3866 -0.26694,0.5784 -0.57644,0.17858 -1.15386,0.35616 -1.73229,0.53274 -1.11207,-0.17362 -2.22509,-0.39677 -3.33913,-0.59665 -0.51134,-0.45009 -1.02365,-0.90116 -1.53697,-1.35324 -0.7966,-0.39779 -1.59417,-0.79657 -2.39275,-1.19636 -0.74102,-0.053 -1.48301,-0.10692 -2.22601,-0.16188 -0.93093,0.0523 -1.86282,0.10353 -2.79573,0.15379 -1.07973,-0.31871 -2.16042,-0.63842 -3.24214,-0.95912 -0.18518,-0.217 -0.39721,-0.48879 -0.59732,-0.73468 0.18557,-0.22315 0.37014,-0.44728 0.55371,-0.67243 0.79966,-0.0258 1.5983,-0.0526 2.39595,-0.0805 1.41788,-0.0622 2.83469,-0.12531 4.25054,-0.18947 1.43117,-0.24579 2.86127,-0.49257 4.29041,-0.74035 1.15433,-0.38533 2.3076,-0.81886 3.45991,-1.22979 0.31715,-0.50669 0.6333,-1.01435 0.94845,-1.52303 0.36558,-0.43608 0.73016,-0.87315 1.09374,-1.31123 0.42702,0.0267 0.85302,0.0524 1.27804,0.0771 0.66168,0.0836 1.37018,0.16626 2.05377,0.2479 0.0849,-0.10454 0.16885,-0.23047 0.25177,-0.3472 0.29299,-0.44045 0.58496,-0.88189 0.87594,-1.32433 -0.0901,0.42371 -0.18117,0.8464 -0.27326,1.2681 z" />
      <path
         style="fill:none;stroke:#000000;stroke-width:2.42262724;stroke-linecap:butt;stroke-linejoin:miter;stroke-opacity:1;stroke-miterlimit:4;stroke-dasharray:none"
         d="m 220.07053,213.34587 c 0.90872,0.65137 1.8163,1.30193 2.32281,2.18037 0.50652,0.87843 0.61835,2.0402 0.61558,3.00875 -0.003,0.96856 -0.11724,1.77199 0.0716,2.5417 0.18882,0.76971 0.68001,1.50533 1.16702,1.92995 0.48701,0.42462 0.96941,0.53908 1.46572,0.81598 0.4963,0.27691 1.00659,0.71558 1.35732,1.29141 0.35072,0.57584 0.53953,1.27702 0.14468,1.51277 -0.39485,0.23575 -1.37571,0.001 -2.44462,-0.0673 -1.06892,-0.0685 -2.22555,0.0292 -3.40146,-0.14991 -1.1759,-0.17917 -2.37131,-0.63582 -3.89522,-1.02145 -1.52391,-0.38562 -3.37615,-0.69994 -5.21216,-1.17983 -1.836,-0.47988 -3.66441,-1.12863 -4.88692,-1.98507 -1.22252,-0.85645 -1.84291,-1.92284 -2.09419,-3.21725 -0.25128,-1.29441 -0.13267,-2.81651 0.3119,-4.11261 0.44457,-1.29609 1.21514,-2.36537 2.17658,-3.10548 0.96143,-0.7401 2.11297,-1.1506 2.92303,-1.53811 0.81005,-0.3875 1.303,-0.77071 1.78383,-1.14451"
         id="path1006"
         inkscape:path-effect="#path-effect1008"
         inkscape:original-d="m 220.07053,213.34587 c 0.90858,0.65156 1.81617,1.30212 2.72275,1.95168 0.11015,1.10678 0.2193,2.2688 0.32746,3.40169 -0.11348,0.80447 -0.22794,1.6079 -0.34341,2.41035 0.49221,0.73666 0.98341,1.47228 1.47362,2.20692 0.48341,0.11547 0.96581,0.22994 1.44721,0.3434 0.51131,0.4397 1.0216,0.87837 1.53089,1.31605 0.21428,0.70797 0.38172,1.41491 0.57108,2.12086 -0.97991,-0.23354 -1.96077,-0.46808 -2.94266,-0.70362 -1.15568,0.0988 -2.31231,0.1966 -3.46996,0.2934 -1.19446,-0.45567 -2.38987,-0.91232 -3.5863,-1.36998 -1.85132,-0.31333 -3.70356,-0.62764 -5.55684,-0.94296 -1.82314,-0.63245 -3.6472,-1.29343 -5.4723,-1.94165 -0.61942,-1.06543 -1.23981,-2.13182 -1.86122,-3.19923 0.11961,-1.52115 0.23822,-3.04325 0.35583,-4.56638 0.7716,-1.06832 1.54217,-2.1376 2.31175,-3.20791 1.15258,-0.40952 2.30412,-0.82002 3.45468,-1.23153 0.46274,-0.37291 0.96293,-0.74681 1.4429,-1.12171" />
      <path
         style="fill:none;stroke:#000000;stroke-width:2.42262724;stroke-linecap:butt;stroke-linejoin:miter;stroke-opacity:1;stroke-miterlimit:4;stroke-dasharray:none"
         d="m 215.77692,212.62965 c -0.0737,-0.62886 -0.14757,-1.25883 -0.31111,-1.86443 -0.16354,-0.60559 -0.43775,-1.23408 -0.77396,-1.77827 -0.33621,-0.54418 -0.74509,-1.02749 -1.29756,-1.51108 -0.55246,-0.48358 -1.24871,-0.96714 -1.89592,-1.27756 -0.64721,-0.31041 -1.24536,-0.44715 -2.59226,-0.60477 -1.34689,-0.15763 -3.44235,-0.33596 -5.20393,-0.45142 -1.76158,-0.11546 -3.18914,-0.16798 -4.32411,0.0978 -1.13496,0.26576 -1.97643,0.84997 -2.62201,1.80439 -0.64557,0.95442 -1.09479,2.27825 -0.98765,3.86562 0.10713,1.58737 0.80071,3.52334 1.9008,5.79267 1.10009,2.26933 2.68238,5.02024 4.27062,6.97641 1.58824,1.95616 3.21223,3.17055 5.07097,4.34063 1.85874,1.17008 3.95205,2.29599 5.70521,2.9732 1.75315,0.67721 3.1661,0.90614 4.57794,1.13489"
         id="path1010"
         inkscape:path-effect="#path-effect1012"
         inkscape:original-d="m 215.77692,212.62965 c -0.0728,-0.62897 -0.1467,-1.25893 -0.22155,-1.8899 -0.24289,-0.58458 -0.52683,-1.20882 -0.79175,-1.81473 -0.4079,-0.48232 -0.81678,-0.96563 -1.22666,-1.44995 -0.69528,-0.48257 -1.39153,-0.96613 -2.08879,-1.4507 -0.59718,-0.13574 -1.19533,-0.27247 -1.79449,-0.41021 -2.09454,-0.17734 -4.19,-0.35568 -6.2865,-0.53501 -1.42662,-0.0515 -2.85418,-0.10405 -4.28277,-0.15757 -0.84051,0.58523 -1.68198,1.16944 -2.52448,1.75267 -0.44824,1.32488 -0.89746,2.64871 -1.34769,3.97157 0.67924,1.84576 1.35745,3.78724 2.03468,5.67936 1.55302,2.62912 3.10499,5.39747 4.65599,8.09471 1.62504,1.21543 3.24903,2.42982 4.87204,3.64323 2.0944,1.12695 4.18771,2.25286 6.28007,3.37779 1.41401,0.22994 2.82696,0.45888 4.23893,0.68681" />
      <path
         style="fill:#000000;fill-opacity:1;stroke:#000000;stroke-width:2.42262724;stroke-linecap:butt;stroke-linejoin:miter;stroke-opacity:1;stroke-miterlimit:4;stroke-dasharray:none"
         d="m 291.91848,203.25799 c -0.14313,0.19617 -0.42926,0.58835 -0.63393,0.96128 -0.20467,0.37293 -0.33835,0.75651 -0.38333,1.15505 -0.045,0.39854 -0.007,0.82668 0.10558,1.1797 0.11239,0.35302 0.29834,0.63082 0.50188,0.84794 0.20354,0.21712 0.42429,0.37389 0.62828,0.52457 0.20399,0.15068 0.39125,0.29522 0.76557,0.23997 0.37432,-0.0552 0.93632,-0.3092 1.55445,-0.66115 0.61812,-0.35195 1.29255,-0.80194 1.93199,-1.31084 0.63944,-0.50891 1.24405,-1.07683 1.58366,-1.50558 0.33962,-0.42874 0.41443,-0.719 0.44656,-1.159 0.0321,-0.44 0.0214,-1.03 -0.133,-1.4653 -0.15435,-0.4353 -0.47036,-0.73182 -0.72602,-0.94763 -0.25567,-0.21582 -0.47584,-0.37011 -0.65875,-0.4201 -0.18292,-0.05 -0.33618,-3.5e-4 -0.78716,0.28132 -0.45097,0.28167 -1.18767,0.78736 -1.91247,1.17324 -0.72481,0.38588 -1.43223,0.64801 -1.78622,0.77918 -0.35399,0.13117 -0.35396,0.13117 -0.49709,0.32735 z"
         id="path1014"
         inkscape:path-effect="#path-effect1016"
         inkscape:original-d="m 292.06161,203.06181 c -0.28513,0.39318 -0.57126,0.78536 -0.8584,1.17654 -0.12741,0.35243 -0.25581,0.73785 -0.38522,1.10528 0.0392,0.42915 0.0773,0.85729 0.11447,1.28444 0.18696,0.27882 0.37291,0.55662 0.55787,0.83343 0.22175,0.15777 0.4425,0.31454 0.66225,0.47031 0.18826,0.14554 0.37552,0.29008 0.56178,0.43362 0.56303,-0.25297 1.12504,-0.50692 1.68605,-0.76188 0.67546,-0.449 1.34989,-0.89898 2.02333,-1.34997 0.60564,-0.56695 1.21025,-1.13487 1.81387,-1.70381 0.0758,-0.28928 0.15063,-0.57954 0.22445,-0.87082 -0.01,-0.58903 -0.0205,-1.17904 -0.0323,-1.77007 -0.30649,-0.27042 -0.61396,-0.57604 -0.92245,-0.86557 -0.21106,-0.13035 -0.42312,-0.29622 -0.63618,-0.44583 -0.15225,0.0506 -0.3055,0.10027 -0.45976,0.14891 -0.74151,0.52308 -1.48399,1.02034 -2.22749,1.52901 -0.70645,0.26314 -1.41387,0.52527 -2.1223,0.78641 z" />
      <path
         style="fill:#000000;fill-opacity:1;stroke:#000000;stroke-width:2.42262724;stroke-linecap:butt;stroke-linejoin:miter;stroke-opacity:1;stroke-miterlimit:4;stroke-dasharray:none"
         d="m 323.6721,185.45749 c -0.0973,0.0423 -0.29235,0.12703 -0.43236,0.32916 -0.14001,0.20213 -0.22429,0.52072 -0.27136,0.96357 -0.0471,0.44286 -0.0571,1.00967 0.0486,1.49811 0.10569,0.48844 0.33903,0.92169 0.51508,1.22724 0.17605,0.30555 0.30099,0.49512 0.4172,0.56639 0.1162,0.0713 0.2239,0.0256 0.47867,-0.15636 0.25477,-0.18198 0.65693,-0.50039 1.04985,-0.88462 0.39292,-0.38423 0.77677,-0.83445 1.07745,-1.27829 0.30067,-0.44384 0.51828,-0.88159 0.60944,-1.25702 0.0912,-0.37544 0.0555,-0.68924 -0.14424,-1.04101 -0.1998,-0.35177 -0.57909,-0.75691 -0.85589,-0.90876 -0.2768,-0.15185 -0.48425,-0.043 -0.8674,0.14795 -0.38316,0.19098 -0.95528,0.47107 -1.24155,0.61121 -0.28627,0.14015 -0.28623,0.14015 -0.38353,0.18243 z"
         id="path1051"
         inkscape:path-effect="#path-effect1053"
         inkscape:original-d="m 323.7694,185.41521 c -0.19407,0.0858 -0.38913,0.17052 -0.5852,0.25428 -0.0833,0.3196 -0.16757,0.63819 -0.25286,0.95579 -0.009,0.56782 -0.019,1.13463 -0.03,1.70044 0.22804,0.40746 0.45507,0.84411 0.6811,1.26467 0.12595,0.19057 0.25089,0.38014 0.37484,0.56871 0.10872,-0.0447 0.21643,-0.0903 0.32315,-0.13696 0.40318,-0.31742 0.80534,-0.63583 1.20651,-0.95524 0.38487,-0.44924 0.76872,-0.89946 1.15158,-1.35068 0.21862,-0.43677 0.43623,-0.87452 0.65285,-1.31328 -0.0346,-0.31281 -0.0702,-0.62661 -0.10685,-0.94141 -0.37106,-0.38189 -0.7431,-0.79381 -1.11615,-1.19221 -0.17632,0.10287 -0.38741,0.20474 -0.58261,0.30561 -0.57115,0.2811 -1.14327,0.56119 -1.7164,0.84028 z" />
      <path
         id="path1121"
         style="fill:#d38d5f;stroke:#000000;stroke-width:2.42262724;stroke-linecap:butt;stroke-linejoin:miter;stroke-opacity:1;stroke-miterlimit:4;stroke-dasharray:none"
         d="m 193.78906,63.716797 c -1.41756,2.362643 -2.83633,4.723388 -4.25586,7.083984 0.15098,1.661876 0.30025,3.32258 0.44922,4.982422 0.74412,1.851 1.48837,3.701818 2.23047,5.550781 0.7733,1.194102 1.54514,2.386047 2.31641,3.578125 0.0187,0.752964 0.036,1.50491 0.0527,2.25586 -0.55067,-0.190031 -1.10165,-0.38024 -1.6543,-0.572266 -1.78989,-0.717802 -3.5812,-1.436462 -5.37304,-2.15625 -1.79112,-1.957195 -3.58388,-3.915843 -5.37696,-5.875 -1.75078,-1.741154 -3.50116,-3.483443 -5.2539,-5.226562 -1.90427,-1.425359 -3.81057,-2.851966 -5.7168,-4.279297 -0.67985,0.366159 -1.36112,0.731552 -2.04297,1.095703 0.0299,0.760137 0.0601,1.519223 0.0879,2.277344 0.41284,-0.538354 0.82354,-1.076845 1.23438,-1.617188 0.80227,0.221016 1.60404,0.441145 2.40429,0.660156 2.32475,2.116772 4.64802,4.232926 6.97071,6.347657 1.68682,1.866787 3.37381,3.730953 5.05859,5.595703 0.74331,0.626923 1.63627,1.253996 2.45313,1.878906 0.87595,1.498487 1.75107,2.995732 2.625,4.492187 0.001,1.156521 0.001,2.312299 0,3.466797 -1.33355,0.0537 -2.66838,0.106507 -4.00391,0.158203 -1.73497,0.734411 -3.47203,1.466823 -5.20898,2.199219 -1.19408,1.064158 -2.38794,2.127315 -3.58399,3.189453 -1.49242,0.797387 -2.98608,1.593306 -4.48047,2.388676 -2.67071,1.64545 -5.34297,3.29017 -8.01562,4.93359 -1.02747,0.6068 -2.05454,1.21357 -3.08399,1.81836 -0.41236,0.30188 -0.82588,0.60246 -1.24023,0.90234 0.45519,-0.004 0.90814,-0.008 1.36133,-0.0137 2.08414,-1.292 4.16789,-2.58495 6.25,-3.87891 3.0378,-1.25244 6.07363,-2.5073 9.10937,-3.76171 2.01321,-1.427861 4.02594,-2.855336 6.03711,-4.28516 1.39371,-0.729763 2.78606,-1.461611 4.17774,-2.193359 -2.21852,1.550336 -4.43773,3.100132 -6.65821,4.648437 -1.37738,0.889342 -2.85154,1.778702 -4.27929,2.666012 -2.20162,1.14926 -4.40386,2.29613 -6.60743,3.44336 -1.51221,0.71841 -3.02684,1.43595 -4.54101,2.15235 -0.69398,0.48441 -1.47637,1.14545 -2.2168,1.71679 2.17293,-1.03081 4.34474,-2.06292 6.51563,-3.0957 1.78861,-0.63372 3.62813,-1.26859 5.4414,-1.9043 1.39389,-0.46957 2.78782,-0.93858 4.17969,-1.41015 -1.61711,1.09159 -3.2364,2.18192 -4.85547,3.27148 -0.83771,1.04636 -1.75016,2.16466 -2.62695,3.2461 -0.91339,1.23673 -1.82681,2.47232 -2.74219,3.70703 -0.44451,1.61638 -0.89139,3.2333 -1.33789,4.84765 -0.1552,2.07587 -0.31155,4.15078 -0.46875,6.22461 -0.34338,2.0533 -0.68588,4.105 -1.03125,6.15625 0.24354,-0.8551 0.48503,-1.71128 0.72656,-2.56836 0.71896,-1.92227 1.43735,-3.8453 2.1543,-5.76953 0.39553,-0.79747 0.79006,-1.59703 1.18359,-2.39648 -0.0945,1.3751 -0.19065,2.74997 -0.28711,4.12304 -0.23349,1.01165 -0.46764,2.02163 -0.70312,3.03125 -0.1094,1.34466 -0.22064,2.68862 -0.33203,4.03125 -0.0576,1.2884 -0.1162,2.57692 -0.17578,3.86329 0.3169,-1.50702 0.63432,-3.07503 0.94922,-4.61329 0.52513,-1.3016 1.04914,-2.60267 1.57226,-3.90625 0.2441,0.0932 0.48642,0.18419 0.72852,0.27539 0.10892,1.42366 0.21729,2.84594 0.32422,4.26758 0.66921,2.08014 1.3367,4.25399 2.0039,6.37891 0.16289,1.88852 0.32545,3.77564 0.48633,5.66211 0.55023,1.91724 1.10022,3.88265 1.64844,5.82226 0.39658,1.80254 0.79097,3.60379 1.18554,5.4043 0.32679,1.41885 0.65374,2.83709 0.97852,4.25391 0.60612,1.01825 1.21096,2.05819 1.81641,3.09375 0.20734,-0.0757 0.60839,0.13927 1.37695,0.68945 1.64307,1.1762 4.92793,3.83106 7.58008,5.5957 2.65215,1.76464 4.67045,2.63978 6.18945,2.96289 1.519,0.32312 2.54075,0.0938 4.13477,0.42188 1.59401,0.32808 3.73211,1.20226 5.29297,0.38867 1.56085,-0.81358 2.49171,-3.33671 3.75585,-5.96484 1.26415,-2.62813 2.86153,-5.36142 4.53125,-6.70899 1.66972,-1.34757 3.40942,-1.30801 4.82422,-1.66992 1.4148,-0.36191 2.50586,-1.12475 2.78711,-0.0469 0.28125,1.07787 -0.24652,3.99542 -0.625,6.73632 -0.37847,2.74091 -0.60701,5.30445 0.0606,6.3086 0.66755,1.00414 2.23048,0.44921 4.07422,-0.51172 1.84374,-0.96093 3.96728,-2.32749 5.22461,-2.14649 1.25732,0.18101 1.64838,1.9091 1.96875,2.44532 0.32036,0.53622 0.57106,-0.11963 1.2832,-1.53711 0.71214,-1.41748 1.89819,-3.62266 2.86524,-6.57031 0.96704,-2.94766 1.7418,-6.68629 2.16601,-8.8086 0.42421,-2.12231 0.49904,-2.62784 0.64258,-2.8164 0.14354,-0.18857 0.35444,-0.0605 0.69531,0.94921 0.34087,1.00971 0.81204,2.90394 1.51953,5.1543 0.70749,2.25036 1.65198,4.86398 2.37305,6.625 0.72107,1.76102 1.21879,2.67047 1.54102,3.00391 0.32222,0.33343 0.47456,0.0866 0.66796,-0.25586 0.19341,-0.34248 0.43957,-0.79985 0.92774,-1.20313 0.48816,-0.40328 1.22577,-0.76753 1.90625,-2.3457 0.68048,-1.57817 1.30454,-4.37055 1.60742,-5.95703 0.30288,-1.58648 0.28422,-1.96639 0.37109,-2.06055 0.0869,-0.0941 0.27831,0.0971 0.57813,0.92578 0.29982,0.82866 0.70699,2.29411 1.22656,3.58008 0.51957,1.28597 1.1504,2.39262 1.71875,3.15625 0.56835,0.76364 1.074,1.1836 1.4668,1.54492 0.39279,0.36133 0.67362,0.66329 0.92187,0.6875 0.24825,0.0242 0.46541,-0.22806 0.61524,-0.93359 0.14982,-0.70553 0.23144,-1.86565 0.45117,-2.84961 0.21973,-0.98396 0.57713,-1.79002 1.21875,-2.76953 0.64162,-0.97951 1.56692,-2.13165 2.29687,-3.68359 0.72996,-1.55195 1.26533,-3.50501 1.82618,-5.07422 0.56084,-1.56921 1.14744,-2.75439 1.52929,-3.48047 0.38185,-0.72608 0.56683,-1.00391 0.77539,-1.09766 0.20857,-0.0937 0.4551,-0.0264 0.73828,0.23047 0.28319,0.2569 0.60421,0.70104 0.57813,3.28711 -0.0261,2.58607 -0.39688,7.31428 -0.56445,9.79492 -0.16758,2.48064 -0.13147,2.72852 -0.0527,2.74609 0.0787,0.0176 0.20372,-0.16697 0.4668,-1.18554 0.26308,-1.01857 0.6642,-2.87287 0.94922,-5.11524 0.28501,-2.24236 0.4532,-4.87268 0.6582,-6.51953 0.205,-1.64684 0.44695,-2.30813 0.74414,-3.41992 0.29719,-1.11179 0.64921,-2.67415 1.27149,-3.42578 0.62227,-0.75164 1.51448,-0.69278 2.0039,-0.46484 0.48943,0.22793 0.57752,0.62232 0.59766,3.92382 0.0201,3.30151 -0.0269,9.51009 -0.0801,12.8086 -0.0532,3.2985 -0.11173,3.68797 -0.0527,3.73047 0.059,0.0425 0.23528,-0.26064 0.35742,-0.95508 0.12214,-0.69445 0.18885,-1.78129 0.30664,-3.05469 0.11779,-1.2734 0.28568,-2.73407 0.47461,-4.0625 0.18893,-1.32843 0.39891,-2.52426 0.5332,-3.64062 0.13429,-1.11636 0.19287,-2.15272 0.42188,-3.29297 0.229,-1.14025 0.62847,-2.38515 0.89257,-3.375 0.26411,-0.98985 0.3935,-1.72508 0.64649,-2.09375 0.25299,-0.36868 0.62836,-0.3695 0.91601,-0.38477 0.28765,-0.0153 0.48665,-0.0445 0.74219,0.32813 0.25554,0.37259 0.57766,1.16944 0.78516,2.43359 0.2075,1.26415 0.31989,3.04052 0.37305,4.08789 0.0532,1.04737 0.0481,1.36591 0.24804,1.40625 0.19999,0.0403 0.60551,-0.19637 1.02735,-0.57617 0.42183,-0.37981 0.86723,-0.91196 1.06054,-1.0293 0.19331,-0.11734 0.14788,0.16309 -0.25976,2.42188 -0.40764,2.25878 -1.18112,6.51242 -1.51953,8.67383 -0.33842,2.1614 -0.24939,2.26351 0.67968,2.16992 0.92907,-0.0936 2.67651,-0.37829 4.42578,-0.66407 1.74928,-0.28578 3.45756,-0.56617 4.76954,-0.77734 1.31197,-0.21117 2.22708,-0.3534 3.31445,-0.54101 1.08737,-0.18762 2.3465,-0.41997 4.17773,-0.89063 1.83123,-0.47066 4.23416,-1.18012 6.43555,-1.73828 2.20139,-0.55817 4.21802,-0.96918 5.93555,-1.45313 1.71752,-0.48394 3.16932,-1.04597 4.39453,-1.54492 1.2252,-0.49894 2.22218,-0.93468 3.51953,-1.54687 1.29735,-0.61219 2.89528,-1.40114 4.01953,-2.12305 1.12425,-0.72191 1.77595,-1.37691 2.10156,-1.87695 0.32561,-0.50005 0.32591,-0.8461 0.17578,-1.42383 -0.15012,-0.57773 -0.465,-1.4238 -0.71679,-2.35352 -0.2518,-0.92971 -0.46835,-2.01692 -0.66602,-3.02539 -0.19766,-1.00846 -0.37645,-1.93734 -0.55078,-2.83398 -0.17432,-0.89664 -0.34636,-1.77558 -0.42969,-2.71289 -0.0833,-0.93732 -0.0835,-1.96572 -0.0215,-2.55078 0.062,-0.58507 0.1926,-0.73571 0.52148,-0.38282 0.32889,0.3529 0.87038,1.19188 1.53711,2.31446 0.66674,1.12257 1.46024,2.52957 2.11914,3.56445 0.65891,1.03488 1.18305,1.69676 1.49024,1.74023 0.30718,0.0435 0.39711,-0.53063 0.53125,-1.15039 0.13413,-0.61975 0.31101,-1.28365 0.58203,-1.51171 0.27101,-0.22807 0.66794,-0.001 0.99023,0.38281 0.3223,0.38426 0.63693,0.96182 0.94336,1.12695 0.30643,0.16513 0.59831,-0.0774 0.89063,-0.33984 0.29232,-0.26239 0.57234,-0.53339 0.86133,-0.38672 0.28898,0.14667 0.59164,0.7219 0.82617,1.02148 0.23453,0.29959 0.3986,0.34191 0.71875,-0.14062 0.32015,-0.48253 0.77522,-1.49675 1.05469,-1.92383 0.22838,-0.34902 0.35372,-0.22299 0.53515,0.13477 0.31607,-0.36746 0.6332,-0.73406 0.94922,-1.10157 0.63443,-0.79673 1.40693,-1.59582 2.10937,-2.39453 0.72484,-1.3142 1.44906,-2.62913 2.17188,-3.94531 -1.2263,-2.46873 -2.59894,-5.08506 -3.90039,-7.62891 -3.73504,-4.80365 -7.47202,-9.60656 -11.20899,-14.41211 -3.94668,-3.36469 -7.89319,-6.868717 -11.84179,-10.304684 -6.33543,-3.254653 -12.67246,-6.51099 -19.00977,-9.767578 -8.4856,-3.552945 -16.97154,-7.107237 -25.45898,-10.66211 -6.87036,-2.686753 -13.74106,-5.517189 -20.61328,-8.277344 -4.1588,0.683466 -8.61525,1.365424 -12.92383,2.046875 -3.95424,-0.136254 -7.90907,-0.271905 -11.86524,-0.410156 -2.23338,-0.960973 -4.46778,-1.923765 -6.70312,-2.886719 -2.3026,1.729336 -4.6056,3.458246 -6.91016,5.185547 -2.35782,2.077883 -4.84824,4.154628 -7.27343,6.230469 -1.09769,0.715018 -2.19526,1.123341 -3.29493,1.683594 -0.88095,2.185824 -1.76355,4.370906 -2.64648,6.554687 -1.31764,-2.22839 -2.63547,-4.682558 -3.95508,-7.02539 -0.56627,-2.707457 -1.13291,-5.417552 -1.70117,-8.126953 1.2414,-2.299615 2.48132,-4.598823 3.7207,-6.900391 z" />
      <path
         style="fill:none;stroke:#000000;stroke-width:2.42262724;stroke-linecap:butt;stroke-linejoin:miter;stroke-opacity:1;stroke-miterlimit:4;stroke-dasharray:none"
         d="m 228.81417,239.31248 c 0.31088,1.72273 0.61035,3.38225 0.63103,4.74198 0.0207,1.35972 -0.24262,2.389 -0.33647,3.27201 -0.0939,0.88302 -0.0182,1.62295 0.58192,3.14345 0.60008,1.5205 1.7242,3.82316 3.49062,6.00171 1.76641,2.17854 4.19315,4.24902 7.28006,6.46814 3.08691,2.21912 6.84302,4.59488 9.78725,6.20526 2.94423,1.61038 5.11835,2.4722 7.27032,3.32524"
         id="path2038"
         inkscape:path-effect="#path-effect2040"
         inkscape:original-d="m 228.81417,239.31248 c 0.30607,1.7236 0.61114,3.38211 0.91521,5.07167 -0.26232,1.03033 -0.52563,2.05961 -0.78994,3.08792 0.0585,0.73915 0.15202,1.47726 0.22653,2.21439 1.12517,2.30376 2.24929,4.60642 3.37244,6.90813 2.41851,2.04476 4.83593,4.12615 7.2524,6.18772 3.75726,2.37685 7.51337,4.7526 11.26856,7.1274 2.12994,0.85454 4.30735,1.70804 6.45953,2.56056" />
      <path
         id="path2042"
         style="fill:#ffccaa;stroke:#000000;stroke-width:2.42262724;stroke-linecap:butt;stroke-linejoin:miter;stroke-opacity:1;stroke-miterlimit:4;stroke-dasharray:none"
         d="m 232.1582,229.81055 c -0.0472,0.0311 -0.0803,0.11967 -0.0898,0.29101 -0.0384,0.68539 0.29893,2.69793 0.31836,4.25196 0.0194,1.55402 -0.27851,2.65044 -0.74024,3.35156 -0.46172,0.70111 -1.10211,1.01487 -1.90039,1.29101 -0.25753,0.0891 -0.57475,0.16854 -0.87695,0.25 -0.006,0.19172 0.01,0.3159 0.0527,0.48047 0.10832,0.4137 0.32567,1.24032 0.22265,1.83203 -0.10302,0.59172 -0.5321,0.95654 -1.23242,1.3125 -0.70032,0.35597 -1.67666,0.70473 -2.76758,1.14063 -1.09091,0.43589 -2.29633,0.95827 -3.26758,1.5332 -0.97124,0.57493 -1.70862,1.20366 -2.10742,1.84766 -0.3988,0.644 -0.46055,1.30212 -0.32422,2.18359 0.13634,0.88148 0.47198,1.98622 0.90821,2.99805 0.43623,1.01183 0.98414,1.94788 1.77929,3.21289 0.79515,1.26501 1.84264,2.86678 3.48242,4.90625 1.63979,2.03947 3.89167,4.5398 6.56446,6.97266 2.67278,2.43286 5.77498,4.80856 8.99023,6.92578 3.21525,2.11722 6.54238,3.97597 10.00586,5.55664 3.46348,1.58066 7.06418,2.88506 10.57227,3.94922 3.50808,1.06416 6.979,1.90085 10.63086,2.68554 3.65185,0.7847 7.51081,1.52286 10.91797,1.89649 3.40715,0.37362 6.39012,0.38319 8.70117,0.0801 2.31105,-0.30312 3.96525,-0.91885 5.33007,-1.60157 1.36483,-0.68271 2.43918,-1.43286 3.45118,-2.33203 1.012,-0.89917 1.96187,-1.94769 2.76172,-3.13867 0.79984,-1.19098 1.45017,-2.52539 1.8164,-4.33398 0.36624,-1.8086 0.44675,-4.09142 0.44922,-5.93555 0.002,-1.32434 0.39089,-1.87291 -0.40537,-5.86094 -0.60264,-0.004 -5.34369,0.16512 -6.08096,0.11485 -1.88484,-0.12854 -4.22581,-0.43533 -6.22265,-0.8418 -1.99685,-0.40647 -3.65001,-0.91203 -5.43555,-1.07617 -1.78554,-0.16414 -3.70382,0.0138 -6.29102,-0.33789 -2.58719,-0.35166 -5.84418,-1.23475 -9.08593,-2.3086 -3.24176,-1.07385 -6.46665,-2.33872 -9.52344,-3.8789 -3.0568,-1.54018 -5.95758,-3.36225 -8.67383,-5.1211 -2.71625,-1.75884 -5.27249,-3.46876 -7.39062,-5.03711 -2.11814,-1.56834 -3.79627,-2.99572 -5.48047,-4.7539 -1.68421,-1.75819 -3.3742,-3.84871 -4.75586,-5.83985 -1.38166,-1.99114 -2.45499,-3.88315 -2.99219,-4.83008 -0.5372,-0.94692 -0.53841,-0.94697 -0.74414,-1.26757 -0.1543,-0.24046 -0.42465,-0.66182 -0.56641,-0.56836 z"
         sodipodi:nodetypes="ssssscsssssssssssssssssssssscsssssssssssss" />
    </g>
  </g>
</svg>
