<?xml version="1.0" encoding="UTF-8" standalone="no"?>
<!-- Created with Inkscape (http://www.inkscape.org/) -->

<svg
   width="56.0px"
   height="56.0px"
   viewBox="0 0 56.0 56.0"
   version="1.1"
   id="SVGRoot"
   sodipodi:docname="conditioning.svg"
   inkscape:version="1.1.2 (0a00cf5339, 2022-02-04)"
   xmlns:inkscape="http://www.inkscape.org/namespaces/inkscape"
   xmlns:sodipodi="http://sodipodi.sourceforge.net/DTD/sodipodi-0.dtd"
   xmlns:xlink="http://www.w3.org/1999/xlink"
   xmlns="http://www.w3.org/2000/svg"
   xmlns:svg="http://www.w3.org/2000/svg">
  <sodipodi:namedview
     id="namedview19922"
     pagecolor="#ffffff"
     bordercolor="#666666"
     borderopacity="1.0"
     inkscape:pageshadow="2"
     inkscape:pageopacity="0.0"
     inkscape:pagecheckerboard="0"
     inkscape:document-units="px"
     showgrid="true"
     inkscape:zoom="10.12009"
     inkscape:cx="27.667739"
     inkscape:cy="29.545192"
     inkscape:window-width="1920"
     inkscape:window-height="1003"
     inkscape:window-x="0"
     inkscape:window-y="40"
     inkscape:window-maximized="1"
     inkscape:current-layer="layer1">
    <inkscape:grid
       type="xygrid"
       id="grid19985" />
  </sodipodi:namedview>
  <defs
     id="defs19917">
    <inkscape:path-effect
       effect="bspline"
       id="path-effect1964"
       is_visible="true"
       lpeversion="1"
       weight="33.333333"
       steps="2"
       helper_size="0"
       apply_no_weight="true"
       apply_with_weight="true"
       only_selected="false" />
    <inkscape:path-effect
       effect="bspline"
       id="path-effect1428"
       is_visible="true"
       lpeversion="1"
       weight="33.333333"
       steps="2"
       helper_size="0"
       apply_no_weight="true"
       apply_with_weight="true"
       only_selected="false" />
    <inkscape:path-effect
       effect="bspline"
       id="path-effect1432"
       is_visible="true"
       lpeversion="1"
       weight="33.333333"
       steps="2"
       helper_size="0"
       apply_no_weight="true"
       apply_with_weight="true"
       only_selected="false" />
    <inkscape:path-effect
       effect="bspline"
       id="path-effect1948"
       is_visible="true"
       lpeversion="1"
       weight="33.333333"
       steps="2"
       helper_size="0"
       apply_no_weight="true"
       apply_with_weight="true"
       only_selected="false" />
    <inkscape:path-effect
       effect="bspline"
       id="path-effect1960"
       is_visible="true"
       lpeversion="1"
       weight="33.333333"
       steps="2"
       helper_size="0"
       apply_no_weight="true"
       apply_with_weight="true"
       only_selected="false" />
    <inkscape:path-effect
       effect="bspline"
       id="path-effect1956"
       is_visible="true"
       lpeversion="1"
       weight="33.333333"
       steps="2"
       helper_size="0"
       apply_no_weight="true"
       apply_with_weight="true"
       only_selected="false" />
    <inkscape:path-effect
       effect="bspline"
       id="path-effect2004"
       is_visible="true"
       lpeversion="1"
       weight="33.333333"
       steps="2"
       helper_size="0"
       apply_no_weight="true"
       apply_with_weight="true"
       only_selected="false" />
    <radialGradient
       inkscape:collect="always"
       xlink:href="#linearGradient2239"
       id="radialGradient2241"
       cx="359.2919"
       cy="277.73123"
       fx="359.2919"
       fy="277.73123"
       r="14.6227"
       gradientTransform="matrix(0.09008515,-0.26292692,0.22084203,0.07566611,-69.763617,93.402541)"
       gradientUnits="userSpaceOnUse" />
    <linearGradient
       inkscape:collect="always"
       id="linearGradient2239">
      <stop
         style="stop-color:#ffe680;stop-opacity:1;"
         offset="0"
         id="stop2235" />
      <stop
         style="stop-color:#ffe680;stop-opacity:0;"
         offset="1"
         id="stop2237" />
    </linearGradient>
    <inkscape:path-effect
       effect="bspline"
       id="path-effect11584"
       is_visible="true"
       lpeversion="1"
       weight="33.333333"
       steps="2"
       helper_size="0"
       apply_no_weight="true"
       apply_with_weight="true"
       only_selected="false" />
    <inkscape:path-effect
       effect="skeletal"
       id="path-effect11586"
       is_visible="true"
       lpeversion="1"
       pattern="m -4.9599708,-1.0545608 c 0,-0.837689 0.6798635,-1.5175525 1.5175525,-1.5175525 0.8376889,0 1.5175524,0.6798635 1.5175524,1.5175525 0,0.83768892 -0.6798635,1.5175524 -1.5175524,1.5175524 -0.837689,0 -1.5175525,-0.67986348 -1.5175525,-1.5175524 z"
       copytype="single_stretched"
       prop_scale="0.14035058"
       scale_y_rel="false"
       spacing="0"
       normal_offset="0"
       tang_offset="0"
       prop_units="false"
       vertical_pattern="false"
       hide_knot="false"
       fuse_tolerance="0" />
    <inkscape:path-effect
       effect="bspline"
       id="path-effect1952"
       is_visible="true"
       lpeversion="1"
       weight="33.333333"
       steps="2"
       helper_size="0"
       apply_no_weight="true"
       apply_with_weight="true"
       only_selected="false" />
    <radialGradient
       inkscape:collect="always"
       xlink:href="#linearGradient2239"
       id="radialGradient18906"
       cx="542.61633"
       cy="100.80136"
       fx="542.61633"
       fy="100.80136"
       r="40.52631"
       gradientTransform="matrix(-0.16718076,0.08580893,-0.02159092,-0.04206496,131.57422,-36.55978)"
       gradientUnits="userSpaceOnUse" />
    <inkscape:path-effect
       effect="bspline"
       id="path-effect18802"
       is_visible="true"
       lpeversion="1"
       weight="33.333333"
       steps="2"
       helper_size="0"
       apply_no_weight="true"
       apply_with_weight="true"
       only_selected="false" />
  </defs>
  <g
     inkscape:label="Layer 1"
     inkscape:groupmode="layer"
     id="layer1">
    <g
       id="g20143"
       style="stroke-width:0.6;stroke-miterlimit:4;stroke-dasharray:none">
      <path
         style="fill:#ffffff;fill-opacity:1;stroke:#000000;stroke-width:0.6;stroke-linecap:butt;stroke-linejoin:miter;stroke-opacity:1;stroke-miterlimit:4;stroke-dasharray:none"
         d="M 41.478407,3.004607 C 41.396067,2.7445423 41.710903,2.7365189 42.06089,2.6740259 42.410878,2.6115329 42.796029,2.4945885 43.34546,2.2648893 43.894891,2.03519 44.608582,1.6927528 45.256676,1.3521963 45.904771,1.0116399 46.487239,0.67298332 46.98541,0.43496335 47.483582,0.19694338 47.897407,0.05957331 48.301715,0.0420571 c 0.404308,-0.01751621 0.799029,0.08477954 1.132589,0.39650167 0.33356,0.31172213 0.605985,0.83277643 0.614619,1.31979973 0.0086,0.4870232 -0.246452,0.9400563 -0.880227,1.3796003 C 48.534921,3.5775029 47.522448,4.003575 46.690629,4.3778675 45.85881,4.7521599 45.207699,5.0746505 44.69366,5.3588974 44.17962,5.6431442 43.802692,5.8891283 43.513009,6.138205 43.223326,6.3872817 43.02093,6.6394137 42.869932,6.3316952 42.718934,6.0239766 42.619325,5.1563569 42.32979,4.4665201 42.040255,3.7766832 41.560748,3.2646718 41.478407,3.004607 Z"
         id="path1962"
         inkscape:path-effect="#path-effect1964"
         inkscape:original-d="m 41.081153,2.7525676 c 0.314916,-0.00794 0.629752,-0.015966 0.944507,-0.02407 0.385247,-0.1168688 0.770398,-0.2338132 1.155477,-0.3508404 0.7138,-0.3423707 1.427491,-0.684808 2.141117,-1.0273325 0.582572,-0.3385897 1.16504,-0.67724625 1.747439,-1.01598996 0.413921,-0.13729513 0.827746,-0.27466506 1.241499,-0.41211824 0.394817,0.10238019 0.789538,0.20467592 1.184186,0.30689324 0.272516,0.52115548 0.544941,1.04220976 0.817291,1.56319406 -0.255016,0.4531316 -0.510102,0.9061648 -0.765274,1.3591266 -1.012433,0.4261697 -2.024906,0.8522421 -3.037481,1.2782424 -0.651056,0.3225837 -1.302167,0.6450743 -1.953371,0.9674907 -0.376862,0.2460738 -0.75379,0.4920577 -1.130805,0.7379661 -0.202324,0.2522229 -0.40472,0.5043549 -0.607201,0.7564122 C 42.719004,6.0239686 42.619395,5.1563489 42.519704,4.2886318 42.040258,3.7766806 41.56075,3.2646695 41.081153,2.7525676 Z" />
      <path
         style="fill:#000000;stroke:#000000;stroke-width:0.6;stroke-linecap:butt;stroke-linejoin:miter;stroke-opacity:1;stroke-miterlimit:4;stroke-dasharray:none"
         d="m 25.303537,50.750174 c 0.315509,0 0.946446,0 1.396802,-0.02434 0.450357,-0.02434 0.720138,-0.07301 1.017326,-0.342577 0.297188,-0.269568 0.614409,-0.748821 0.839061,-1.238829 0.224652,-0.490008 0.35301,-0.985165 0.310265,-1.963647 -0.04274,-0.978482 -0.256612,-2.440256 -0.488287,-3.752316 -0.231675,-1.312059 -0.481148,-2.474332 -0.583955,-3.382199 -0.102807,-0.907868 -0.05892,-1.561262 -0.008,-2.14925 0.05093,-0.587988 0.108914,-1.110531 0.269558,-1.946983 0.160644,-0.836452 0.423948,-1.986748 0.61474,-2.827559 0.190792,-0.840811 0.309062,-1.372094 0.481012,-1.973535 0.171951,-0.60144 0.397572,-1.272989 0.65425,-2.048533 0.256678,-0.775544 0.544396,-1.655034 0.912202,-2.57097 0.367806,-0.915937 0.815677,-1.86825 1.166612,-2.628287 0.350935,-0.760036 0.604915,-1.327757 0.942243,-1.943031 0.337329,-0.615275 0.75798,-1.27805 1.14997,-1.91059 0.391989,-0.63254 0.762035,-1.245983 0.950771,-1.580422 0.188735,-0.334439 0.199522,-0.395489 -0.04839,-0.07344 -0.247915,0.322044 -0.754511,1.027202 -1.206611,1.685765 -0.4521,0.658563 -0.854736,1.278277 -1.405431,2.086869 -0.550696,0.808591 -1.255716,1.81529 -1.921115,2.852917 -0.665398,1.037627 -1.293018,2.108803 -1.742699,2.971773 -0.449681,0.862969 -0.721399,1.51767 -1.109794,2.370671 -0.388395,0.853 -0.897033,1.911726 -1.352911,2.937761 -0.455877,1.026035 -0.860764,2.023049 -1.40476,3.61028 -0.543996,1.587232 -1.227068,3.764566 -1.63779,5.416267 -0.410723,1.651701 -0.549084,2.777662 -0.47596,3.938165 0.07313,1.160502 0.35902,2.361014 0.788537,3.114436 0.429516,0.753421 1.003213,1.062538 1.29002,1.217074 0.286806,0.154536 0.286811,0.154536 0.60232,0.154536 z"
         id="path1426"
         inkscape:path-effect="#path-effect1428"
         inkscape:original-d="m 24.988028,50.750174 c 0.631018,8.1e-5 1.261955,8.1e-5 1.89281,0 0.269874,-0.04859 0.539655,-0.09726 0.809362,-0.146006 0.333227,-0.484805 0.641967,-0.969671 0.96283,-1.454628 0.128443,-0.495096 0.256801,-0.990253 0.38508,-1.4855 -0.213796,-1.461752 -0.427664,-2.923526 -0.641617,-4.38541 -0.249403,-1.162238 -0.498877,-2.324511 -0.748436,-3.486886 0.04397,-0.653341 0.08786,-1.306735 0.131668,-1.960224 0.05806,-0.522483 0.116041,-1.045026 0.173942,-1.567659 0.263394,-1.15026 0.526698,-2.300555 0.789926,-3.450953 0.118356,-0.531225 0.236626,-1.062508 0.354818,-1.593882 0.225711,-0.671496 0.451333,-1.343044 0.676879,-2.014688 0.28781,-0.879445 0.575528,-1.758935 0.863171,-2.638523 0.447969,-0.952271 0.895839,-1.904585 1.343639,-2.856997 0.25407,-0.567663 0.508051,-1.135383 0.761955,-1.703195 0.420749,-0.662722 0.8414,-1.325497 1.26198,-1.988365 0.354141,-0.6078 0.733446,-1.215657 1.100048,-1.823605 0.01087,-0.06097 0.02166,-0.12202 0.03236,-0.18315 -0.506536,0.705266 -1.013132,1.410424 -1.519818,2.115515 -0.391518,0.615925 -0.800148,1.231745 -1.200343,1.847498 -0.697351,1.004127 -1.406217,2.008132 -2.109447,3.012078 -0.627564,1.0713 -1.255183,2.142476 -1.882896,3.213592 -0.271647,0.654808 -0.543365,1.309509 -0.815169,1.964142 -0.497208,1.055111 -1.013625,2.110099 -1.520558,3.165028 -0.404823,0.997134 -0.809709,1.994148 -1.214684,2.991101 -0.683018,2.177501 -1.36609,4.354835 -2.049255,6.532132 -0.138286,1.126086 -0.276648,2.252047 -0.415093,3.377949 0.272983,1.19786 0.570559,2.39559 0.855717,3.593266 0.573801,0.30921 1.147498,0.618327 1.721126,0.92737 z" />
      <path
         style="fill:#ffe6d5;stroke:#000000;stroke-width:0.6;stroke-linecap:butt;stroke-linejoin:miter;stroke-opacity:1;stroke-miterlimit:4;stroke-dasharray:none"
         d="M 0.04510377,27.693818 C 6.7921858,27.627339 13.539368,27.560858 17.20252,27.566813 c 3.663152,0.006 4.24234,0.08432 4.727892,0.261636 0.485553,0.177311 0.893262,0.46464 1.107881,0.825954 0.214619,0.361315 0.244025,0.800368 0.0091,1.471225 -0.234957,0.670856 -0.72617,1.557959 -1.342264,2.703489 -0.616093,1.145531 -1.35296,2.542067 -1.849536,3.611149 -0.496576,1.069082 -0.752832,1.810631 -1.074304,2.610075 -0.321473,0.799443 -0.708143,1.656746 -0.930521,2.709028 -0.222378,1.052282 -0.280464,2.299432 -0.253022,3.356981 0.02744,1.057548 0.140394,1.925421 0.38994,2.903255 0.249546,0.977834 0.638555,2.073759 1.45387,2.976603 0.815316,0.902845 2.058264,1.616701 3.242957,2.11739 1.184692,0.500689 2.311057,0.788221 3.615827,0.717677 1.304771,-0.07054 2.796916,-0.501704 3.93147,-1.271798 1.134555,-0.770094 1.920721,-1.887053 2.39821,-3.065993 0.47749,-1.17894 0.648626,-2.423177 0.670405,-3.406682 0.02178,-0.983504 -0.105822,-1.706253 -0.290557,-2.545935 -0.184734,-0.839681 -0.426598,-1.796248 -0.603532,-2.752477 -0.176933,-0.956229 -0.288912,-1.912055 -0.219465,-2.956282 0.06945,-1.044228 0.321195,-2.180645 0.560001,-3.186653 0.238806,-1.006008 0.465087,-1.88349 0.80389,-2.958075 0.338803,-1.074584 0.787257,-2.33816 1.329375,-3.060747 0.542119,-0.722587 1.176356,-0.900075 1.898455,-0.986994 0.722098,-0.08692 1.531983,-0.08329 3.185384,-0.04581 1.653402,0.03748 4.190306,0.109931 6.966389,0.138362 2.776084,0.02843 5.811129,0.01341 8.846334,-0.0016 0,0 0.178396,28.140273 0.178396,28.140273 0,0 -55.70239573,0.08425 -55.70239573,0.08425 0,0 -0.2075625,-28.261286 -0.2075625,-28.261286 z"
         id="path1430"
         inkscape:path-effect="#path-effect1432"
         inkscape:original-d="m 0.04510377,27.693818 c 0,0 13.49426523,-0.132878 20.24124623,-0.199438 0.579312,0.07846 1.158501,0.156823 1.737601,0.235113 0.38808,0.281849 0.799717,0.563604 1.199428,0.845284 0.04292,0.440044 0.05903,0.879988 0.0884,1.319862 -0.4952,0.904158 -0.990479,1.789009 -1.485868,2.683394 -0.736798,1.396673 -1.473664,2.79321 -2.210646,4.189695 -0.256167,0.741659 -0.512424,1.483208 -0.768784,2.224692 -0.386586,0.857415 -0.773255,1.714718 -1.160032,2.571956 -0.05799,1.24728 -0.116076,2.49443 -0.174262,3.741522 0.113063,0.867988 0.226008,1.735862 0.338862,2.603672 0.374659,1.091948 0.775223,2.183771 1.162683,3.275536 1.243097,0.713964 2.486045,1.42782 3.728916,2.141609 1.126511,0.287624 2.252876,0.575154 3.379163,0.862612 1.4878,-0.412906 2.975441,-0.859656 4.463013,-1.289604 0.783955,-1.108618 1.567779,-2.227225 2.351519,-3.34096 0.171243,-1.244204 0.342378,-2.488441 0.513418,-3.732783 -0.127507,-0.722697 -0.255109,-1.445446 -0.382812,-2.168289 -0.241774,-0.956524 -0.483638,-1.913091 -0.725606,-2.869756 -0.111885,-0.955784 -0.223863,-1.91161 -0.335944,-2.867536 0.242223,-1.134438 0.502747,-2.268911 0.75397,-3.403487 0.22639,-0.877436 0.452669,-1.754918 0.678855,-2.632496 0.46274,-1.267563 0.899876,-2.535156 1.349664,-3.802854 0.634363,-0.177415 1.2686,-0.354903 1.902751,-0.532476 0.810018,0.0037 1.619902,0.0074 2.429705,0.0109 2.496763,0.07965 5.033903,0.143851 7.550706,0.215655 3.035366,-0.01494 9.105616,-0.04506 9.105616,-0.04506 l 0.178396,28.140273 -55.70239573,0.08425 z"
         sodipodi:nodetypes="cccccccccccccccccccccccccccccc" />
      <path
         style="fill:#ff9955;stroke:#000000;stroke-width:0.6;stroke-linecap:butt;stroke-linejoin:miter;stroke-opacity:1;stroke-miterlimit:4;stroke-dasharray:none"
         d="m 25.298029,23.948208 c 0.169303,-0.06604 0.507867,-0.198104 0.766591,-0.350068 0.258723,-0.151964 0.437641,-0.323836 0.597751,-0.52526 0.16011,-0.201423 0.301418,-0.432409 0.40111,-0.717858 0.09969,-0.285449 0.157628,-0.624612 0.148104,-0.988543 -0.0095,-0.363932 -0.0866,-0.752251 -0.219053,-1.210347 -0.132453,-0.458096 -0.320289,-0.985944 -0.502798,-1.476976 -0.182509,-0.491032 -0.359683,-0.945221 -0.567152,-1.453389 -0.207469,-0.508167 -0.445225,-1.070282 -0.645615,-1.572494 -0.20039,-0.502211 -0.364233,-0.946751 -0.483432,-1.166708 -0.1192,-0.219957 -0.194217,-0.216354 -0.270453,-0.07529 -0.07624,0.141063 -0.153602,0.419515 -0.431905,1.166286 -0.278303,0.746772 -0.757521,1.96182 -1.118854,2.904108 -0.361333,0.942288 -0.604762,1.611761 -0.746606,2.084872 -0.141844,0.473112 -0.182102,0.749815 -0.164488,1.017572 0.01761,0.267758 0.09306,0.526524 0.198353,0.767698 0.105294,0.241173 0.2404,0.46474 0.440523,0.683316 0.200122,0.218577 0.465219,0.432174 0.728721,0.595706 0.263503,0.163533 0.525387,0.277021 0.808446,0.332562 0.283059,0.05554 0.587293,0.05317 0.739373,0.05199 0.152081,-0.0012 0.152081,-0.0011 0.321384,-0.06718 z"
         id="path1946"
         inkscape:path-effect="#path-effect1948"
         inkscape:original-d="m 25.128726,24.014248 c 0.338644,-0.131983 0.677208,-0.264047 1.01569,-0.39619 0.179006,-0.1718 0.357924,-0.343672 0.536765,-0.515629 0.141394,-0.230915 0.282702,-0.461901 0.423933,-0.692971 0.06041,-0.339483 0.116087,-0.679032 0.174009,-1.018668 -0.077,-0.388255 -0.154077,-0.776574 -0.231235,-1.164981 -0.187763,-0.527789 -0.375599,-1.055637 -0.563519,-1.583575 -0.177101,-0.454127 -0.354275,-0.908316 -0.531533,-1.362594 -0.237684,-0.562057 -0.475439,-1.124172 -0.71328,-1.68638 -0.163351,-0.442061 -0.326777,-0.886754 -0.490286,-1.330252 -0.07493,0.0037 -0.149947,0.0073 -0.22504,0.01081 -0.07729,0.278545 -0.154655,0.556997 -0.232103,0.835375 -0.479156,1.215177 -0.958373,2.430226 -1.437681,3.645218 -0.243358,0.66958 -0.486789,1.339053 -0.730303,2.008458 -0.04018,0.276796 -0.08044,0.553499 -0.120777,0.830128 0.07553,0.258857 0.150975,0.517624 0.226342,0.776316 0.135191,0.223656 0.270297,0.447223 0.405325,0.670714 0.265187,0.213685 0.530283,0.427282 0.795303,0.640802 0.261976,0.113574 0.52386,0.227063 0.785669,0.340473 0.304327,-0.0023 0.608561,-0.0046 0.912721,-0.0071 z" />
      <path
         style="fill:#ffffff;fill-opacity:1;stroke:#000000;stroke-width:0.6;stroke-linecap:butt;stroke-linejoin:miter;stroke-opacity:1;stroke-miterlimit:4;stroke-dasharray:none"
         d="m 40.504882,6.7955238 c 0.0589,0.073171 0.176638,0.2194251 0.340048,0.3444378 0.16341,0.1250128 0.37246,0.2288198 0.691425,0.3056987 0.318964,0.076879 0.753671,0.1275439 1.03752,0.035211 0.283848,-0.092333 0.419848,-0.3273288 0.543702,-0.5854555 C 43.241431,6.637289 43.353133,6.3560319 43.381227,6.0247812 43.409322,5.6935305 43.352074,5.3005643 43.23624,4.9186229 43.120405,4.5366814 42.948025,4.1662047 42.732795,3.8370717 42.517565,3.5079388 42.25681,3.2187531 41.992726,3.00129 41.728642,2.7838269 41.456872,2.6345888 41.166069,2.565555 40.875266,2.496521 40.56365,2.507142 40.280782,2.608192 c -0.282869,0.1010496 -0.532418,0.2889057 -0.694848,0.5483583 -0.162429,0.2594526 -0.238143,0.6014725 -0.263873,1.0353196 -0.02573,0.433847 -0.0029,0.9658843 0.192541,1.4040217 0.195455,0.4381374 0.563454,0.7823351 0.747415,0.9543982 0.183961,0.1720632 0.183962,0.1720631 0.242865,0.245234 z"
         id="path1958"
         inkscape:path-effect="#path-effect1960"
         inkscape:original-d="m 40.445979,6.7223528 c 0.117816,0.146334 0.235551,0.2925884 0.353206,0.4387624 0.209139,0.1038918 0.418189,0.2076991 0.627164,0.3114277 0.428922,0.050407 0.863669,0.1007317 1.295383,0.1509764 0.136087,-0.2349255 0.272086,-0.4699219 0.408009,-0.7050035 0.111787,-0.2811883 0.22349,-0.562445 0.335113,-0.8437885 C 43.408538,5.6936446 43.352142,5.3005545 43.295665,4.9133474 43.1219,4.5359859 42.948061,4.1661881 42.774138,3.7924879 42.515512,3.5097896 42.256815,3.2187489 41.998032,2.9317588 41.727479,2.785944 41.456857,2.6346166 41.186149,2.485925 c -0.311214,8.759e-4 -0.622496,0.0213 -0.933864,0.03183 -0.251892,0.1947806 -0.503853,0.3794325 -0.7559,0.5690281 -0.07279,0.3292397 -0.148501,0.6712603 -0.222874,1.0067801 0.0229,0.5321502 0.04571,1.0641877 0.06845,1.5961767 0.368094,0.3442914 0.736092,0.6884896 1.104017,1.032613 z"
         sodipodi:nodetypes="ccccccccccccccc" />
      <path
         style="fill:none;stroke:#000000;stroke-width:0.6;stroke-linecap:butt;stroke-linejoin:miter;stroke-opacity:1;stroke-miterlimit:4;stroke-dasharray:none"
         d="m 40.69154,6.6585284 c 0.04986,0.067497 0.149528,0.2024021 0.297904,0.309255 0.148377,0.1068529 0.347373,0.1864807 0.508861,0.1955422 0.161487,0.00906 0.286497,-0.052001 0.37395,-0.1902698 0.08745,-0.1382688 0.137397,-0.353818 0.161942,-0.6372144 0.02455,-0.2833963 0.02368,-0.6346626 -0.04362,-1.025455 C 41.923278,4.9195939 41.789523,4.4892766 41.552004,4.1951194 41.314485,3.9009623 40.97164,3.7423322 40.63061,3.6680495 40.28958,3.5937668 39.949654,3.6035317 39.747937,3.743004 39.54622,3.8824762 39.482828,4.1515817 39.460729,4.4133634 c -0.0221,0.2617817 -0.0029,0.5161945 0.09277,0.7949702 0.09569,0.2787758 0.267844,0.5818877 0.461977,0.8163993 0.194133,0.2345117 0.4102,0.4004376 0.518192,0.483368 0.107991,0.082931 0.108009,0.082931 0.157872,0.1504275 z"
         id="path1954"
         inkscape:path-effect="#path-effect1956"
         inkscape:original-d="m 40.641676,6.5910318 c 0.09974,0.1349846 0.199405,0.2698887 0.298987,0.4047123 0.197141,0.078934 0.396137,0.1585619 0.594086,0.2377222 0.125091,-0.060982 0.2501,-0.1220449 0.37503,-0.1831888 0.05002,-0.2154695 0.09997,-0.4310171 0.149829,-0.6466466 -8.04e-4,-0.351186 -0.0016,-0.7024524 -0.0026,-1.0537986 -0.13368,-0.430254 -0.267435,-0.8605712 -0.401272,-1.2909774 -0.342023,-0.1562238 -0.684112,-0.3164872 -1.026289,-0.4748514 -0.339865,0.00985 -0.679791,0.019611 -1.019817,0.029296 -0.06332,0.2691978 -0.126708,0.5383044 -0.190183,0.8073359 0.01926,0.2545039 0.03843,0.5089172 0.05753,0.7632551 0.172239,0.303204 0.344391,0.6063159 0.516466,0.9093531 0.216156,0.1660129 0.432223,0.331939 0.648215,0.4977878 z"
         sodipodi:nodetypes="ccccccccccccc" />
      <path
         style="fill:none;stroke:#000000;stroke-width:0.6;stroke-linecap:butt;stroke-linejoin:miter;stroke-opacity:1;stroke-miterlimit:4;stroke-dasharray:none"
         d="m 24.971867,12.574912 c -0.06162,-0.02165 -0.18495,-0.06498 -0.256891,-0.05097 -0.07194,0.01401 -0.09238,0.08533 -0.09932,0.157696 -0.0069,0.07237 -4.12e-4,0.145754 0.02209,0.1994 0.0225,0.05365 0.06089,0.08756 0.141947,0.120483 0.08106,0.03292 0.204765,0.06488 0.254146,-0.0027 0.04938,-0.06762 0.02452,-0.234875 0.01208,-0.318551 -0.01244,-0.08368 -0.01243,-0.08367 -0.07405,-0.105322 z"
         id="path2002"
         inkscape:path-effect="#path-effect2004"
         inkscape:original-d="m 25.033485,12.59656 c -0.123252,-0.04325 -0.246584,-0.08658 -0.369997,-0.129991 -0.02036,0.07141 -0.04079,0.142729 -0.06131,0.213973 0.0066,0.07346 0.01314,0.146845 0.01959,0.220147 0.03847,0.034 0.07686,0.06792 0.115174,0.101763 0.123792,0.03205 0.247499,0.06401 0.371127,0.09589 -0.02478,-0.167185 -0.04964,-0.334443 -0.07459,-0.501784 z" />
      <path
         style="fill:url(#radialGradient2241);fill-opacity:1;stroke:none;stroke-width:0.6;stroke-linecap:butt;stroke-linejoin:miter;stroke-opacity:1;stroke-miterlimit:4;stroke-dasharray:none"
         d="m 23.931141,17.616222 c 0,0 -1.311585,1.986139 -1.264339,3.110295 0.01668,0.396924 0.68366,0.491676 1.080792,0.50233 0.45646,0.01225 1.238724,-0.05448 1.271424,-0.509936 0.06692,-0.932093 -1.087877,-3.102689 -1.087877,-3.102689 z"
         id="path2137"
         sodipodi:nodetypes="csssc" />
      <path
         style="fill:#ffca70;fill-opacity:1;stroke:none;stroke-width:0.6;stroke-linecap:butt;stroke-linejoin:miter;stroke-opacity:1;stroke-miterlimit:4;stroke-dasharray:none"
         d="m 31.560841,23.586034 c 0.08113,0.04321 -1.941509,3.578696 -4.087485,8.806449 0,0 0,1e-6 0,1e-6 -0.595977,1.452242 -1.222733,3.061761 -1.781958,4.736987 -0.589041,1.764542 -1.043669,3.423024 -1.373792,5.030543 -0.46884,2.315914 -0.594823,4.028883 -0.120003,5.618194 0.28927,0.929448 0.737579,1.502417 1.316126,1.682424 0.822387,0.282089 1.388299,-0.106557 1.399008,-0.07527 0.01071,0.03129 -0.476896,0.495541 -1.450821,0.252506 -0.652342,-0.179973 -1.225636,-0.792811 -1.536023,-1.774404 -0.537084,-1.635909 -0.459413,-3.446965 0.001,-5.78152 0.316386,-1.627834 0.767239,-3.309946 1.360199,-5.087386 0.564031,-1.690729 1.201914,-3.303135 1.81678,-4.756059 0,0 10e-7,-1e-6 10e-7,-1e-6 2.217485,-5.241555 4.375799,-8.695676 4.456931,-8.652468 z"
         id="path11582"
         inkscape:path-effect="#path-effect11584;#path-effect11586"
         inkscape:original-d="m 31.560841,23.586034 c -1.457461,2.736901 -2.915658,5.474952 -4.374109,8.213249 -1.254458,3.770801 -2.508546,7.54017 -3.76275,11.309565 0.142539,1.793687 0.285022,3.587618 0.427417,5.381361 0.563159,0.455005 1.126203,0.9099 1.689202,1.364744 0.457468,-0.156451 0.914837,-0.312977 1.372134,-0.469586"
         sodipodi:nodetypes="cccccc" />
      <path
         style="fill:#ff9955;fill-opacity:1;stroke:#000000;stroke-width:0.6;stroke-linecap:butt;stroke-linejoin:miter;stroke-opacity:1;stroke-miterlimit:4;stroke-dasharray:none"
         d="m 24.845983,12.985082 c 0.01405,-0.03494 0.04216,-0.104852 0.0339,-0.167453 -0.0083,-0.0626 -0.05297,-0.117923 -0.0955,-0.148264 -0.04252,-0.03034 -0.08205,-0.03551 -0.103744,-0.05984 -0.0217,-0.02433 -0.02535,-0.07147 -9e-4,-0.122309 0.02445,-0.05084 0.07996,-0.110405 0.263799,-0.318366 0.183839,-0.207961 0.499767,-0.568502 0.758559,-0.810749 0.258792,-0.242247 0.461521,-0.367441 0.787124,-0.556557 0.325603,-0.189116 0.774054,-0.442141 2.838043,-1.4271995 2.063989,-0.985059 5.743353,-2.702078 7.69781,-3.6064626 1.954457,-0.9043846 2.183918,-0.9960964 2.40149,-1.0912907 0.217571,-0.095194 0.425571,-0.1949801 0.640066,-0.1842705 0.214495,0.010709 0.436574,0.1312853 0.622079,0.2745093 0.185505,0.143224 0.334447,0.3090539 0.425788,0.5236685 0.09134,0.2146145 0.125143,0.4779975 0.117574,0.6340991 -0.0076,0.1561017 -0.05649,0.2050026 -0.173369,0.2927396 -0.116878,0.087737 -0.301718,0.2143125 -0.621387,0.3926772 -0.31967,0.1783648 -0.77416,0.408511 -2.80925,1.3717669 -2.03509,0.963256 -5.650629,2.6595497 -7.618163,3.6115547 -1.967533,0.952004 -2.286962,1.159676 -2.531638,1.290669 -0.244676,0.130993 -0.413105,0.184822 -0.827948,0.213574 -0.414844,0.02875 -1.075348,0.03217 -1.419354,0.01506 -0.344006,-0.01711 -0.371487,-0.05482 -0.385259,-0.07373 -0.01377,-0.0189 -0.01376,-0.0189 2.83e-4,-0.05383 z"
         id="path1950"
         inkscape:path-effect="#path-effect1952"
         inkscape:original-d="m 24.831936,13.020021 c 0.02819,-0.06984 0.0563,-0.139752 0.08433,-0.209749 -0.04464,-0.05525 -0.08935,-0.110576 -0.134153,-0.165986 -0.03986,-0.0083 -0.07979,-0.01036 -0.119803,-0.01566 -6.43e-4,-0.04364 -0.0069,-0.09058 -0.01055,-0.135985 0.05405,-0.05475 0.108019,-0.11575 0.161908,-0.173746 0.312339,-0.359202 0.62972,-0.71847 0.944459,-1.077827 0.202817,-0.125118 0.405546,-0.250312 0.608199,-0.375589 0.448549,-0.252954 0.896999,-0.505979 1.345379,-0.759088 3.67959,-1.7170071 7.358954,-3.4340255 11.03831,-5.1511589 0.229552,-0.091636 0.459013,-0.1833478 0.6884,-0.2751424 0.206925,-0.096173 0.413763,-0.1983799 0.620524,-0.2976904 0.222168,0.1206613 0.444246,0.2412373 0.666249,0.3617353 0.149028,0.1659172 0.297969,0.3317473 0.446833,0.4975003 0.03388,0.2634717 0.06769,0.5268536 0.101407,0.790159 -0.04885,0.048986 -0.09777,0.097889 -0.146777,0.1467136 -0.184767,0.1266608 -0.369607,0.2532364 -0.554531,0.3797339 -0.454429,0.2302357 -0.908919,0.4603821 -1.363499,0.690453 -3.615604,1.696441 -7.231143,3.3927346 -10.846834,5.0889816 -0.319361,0.207759 -0.63879,0.41543 -0.958305,0.623026 -0.16911,0.05676 -0.338295,0.108223 -0.507563,0.162215 -0.66045,0.0035 -1.320954,0.0069 -1.981551,0.01025 -0.0274,-0.03764 -0.05488,-0.07536 -0.08244,-0.113154 z" />
      <path
         style="fill:url(#radialGradient18906);fill-opacity:1;stroke:none;stroke-width:0.6;stroke-linecap:butt;stroke-linejoin:miter;stroke-opacity:1;stroke-miterlimit:4;stroke-dasharray:none"
         d="M 35.458841,6.6624497 C 36.316858,6.2619277 38.032856,5.4609003 38.935793,5.0510695 39.83873,4.6412388 39.92857,4.6226032 40.044852,4.63599 c 0.116282,0.013387 0.260692,0.059303 0.391947,0.1529203 0.131254,0.093618 0.250235,0.235149 0.34948,0.4310764 0.09925,0.1959273 0.178794,0.4462288 0.205686,0.6074564 0.02689,0.1612276 -0.0015,0.2409623 -0.0558,0.2966297 -0.05429,0.055667 -0.13586,0.091099 -0.631226,0.1395828 -0.495367,0.048484 -1.404528,0.1100077 -2.382954,0.2471076 -0.978427,0.1371 -2.026047,0.3497744 -2.62727,0.4825246 -0.601222,0.1327503 -0.761663,0.1875041 -0.802917,0.1857987 -0.04125,-0.00171 0.03389,-0.058915 0.07146,-0.087515 0.03757,-0.0286 0.03757,-0.0286 0.895587,-0.4291222 z"
         id="path18800"
         inkscape:path-effect="#path-effect18802"
         inkscape:original-d="m 34.600824,7.0629718 c 1.716079,-0.8009473 3.432077,-1.6019747 5.147995,-2.4030827 0.08993,-0.018557 0.17977,-0.037193 0.269535,-0.05591 0.14363,0.042725 0.287174,0.091364 0.430641,0.1369247 0.119066,0.1416177 0.238046,0.2831494 0.356949,0.4246034 0.07963,0.2503913 0.159178,0.5006926 0.238647,0.7509177 -0.02385,0.072917 -0.05404,0.1520148 -0.08118,0.2279016 -0.08149,0.035512 -0.163063,0.070942 -0.244716,0.1062926 -0.909116,0.061606 -1.818277,0.1231299 -2.727536,0.1845738 -1.047581,0.212763 -2.095201,0.4254376 -3.142922,0.6380357 -0.154381,0.053871 -0.315151,0.10766 -0.472846,0.1613689 0.07522,-0.057129 0.150366,-0.1143365 0.225429,-0.1716253 z" />
    </g>
  </g>
</svg>
