<?xml version="1.0" encoding="UTF-8" standalone="no"?>
<!-- Created with Inkscape (http://www.inkscape.org/) -->

<svg
   width="56.0px"
   height="56.0px"
   viewBox="0 0 56.0 56.0"
   version="1.1"
   id="SVGRoot"
   sodipodi:docname="man-haircut.svg"
   inkscape:version="1.1.2 (0a00cf5339, 2022-02-04)"
   xmlns:inkscape="http://www.inkscape.org/namespaces/inkscape"
   xmlns:sodipodi="http://sodipodi.sourceforge.net/DTD/sodipodi-0.dtd"
   xmlns="http://www.w3.org/2000/svg"
   xmlns:svg="http://www.w3.org/2000/svg">
  <sodipodi:namedview
     id="namedview14862"
     pagecolor="#ffffff"
     bordercolor="#666666"
     borderopacity="1.0"
     inkscape:pageshadow="2"
     inkscape:pageopacity="0.0"
     inkscape:pagecheckerboard="0"
     inkscape:document-units="px"
     showgrid="true"
     inkscape:zoom="3.5779921"
     inkscape:cx="88.876664"
     inkscape:cy="75.181832"
     inkscape:window-width="1920"
     inkscape:window-height="1003"
     inkscape:window-x="0"
     inkscape:window-y="40"
     inkscape:window-maximized="1"
     inkscape:current-layer="layer1">
    <inkscape:grid
       type="xygrid"
       id="grid14925" />
  </sodipodi:namedview>
  <defs
     id="defs14857">
    <inkscape:path-effect
       effect="bspline"
       id="path-effect8782"
       is_visible="true"
       lpeversion="1"
       weight="33.333333"
       steps="2"
       helper_size="0"
       apply_no_weight="true"
       apply_with_weight="true"
       only_selected="false" />
    <inkscape:path-effect
       effect="bspline"
       id="path-effect9247"
       is_visible="true"
       lpeversion="1"
       weight="33.333333"
       steps="2"
       helper_size="0"
       apply_no_weight="true"
       apply_with_weight="true"
       only_selected="false" />
    <inkscape:path-effect
       effect="bspline"
       id="path-effect8901"
       is_visible="true"
       lpeversion="1"
       weight="33.333333"
       steps="2"
       helper_size="0"
       apply_no_weight="true"
       apply_with_weight="true"
       only_selected="false" />
    <inkscape:path-effect
       effect="bspline"
       id="path-effect8905"
       is_visible="true"
       lpeversion="1"
       weight="33.333333"
       steps="2"
       helper_size="0"
       apply_no_weight="true"
       apply_with_weight="true"
       only_selected="false" />
    <inkscape:path-effect
       effect="bspline"
       id="path-effect8909"
       is_visible="true"
       lpeversion="1"
       weight="33.333333"
       steps="2"
       helper_size="0"
       apply_no_weight="true"
       apply_with_weight="true"
       only_selected="false" />
    <inkscape:path-effect
       effect="bspline"
       id="path-effect8913"
       is_visible="true"
       lpeversion="1"
       weight="33.333333"
       steps="2"
       helper_size="0"
       apply_no_weight="true"
       apply_with_weight="true"
       only_selected="false" />
    <inkscape:path-effect
       effect="bspline"
       id="path-effect8917"
       is_visible="true"
       lpeversion="1"
       weight="33.333333"
       steps="2"
       helper_size="0"
       apply_no_weight="true"
       apply_with_weight="true"
       only_selected="false" />
    <inkscape:path-effect
       effect="bspline"
       id="path-effect9239"
       is_visible="true"
       lpeversion="1"
       weight="33.333333"
       steps="2"
       helper_size="0"
       apply_no_weight="true"
       apply_with_weight="true"
       only_selected="false" />
    <inkscape:path-effect
       effect="bspline"
       id="path-effect9243"
       is_visible="true"
       lpeversion="1"
       weight="33.333333"
       steps="2"
       helper_size="0"
       apply_no_weight="true"
       apply_with_weight="true"
       only_selected="false" />
    <inkscape:path-effect
       effect="bspline"
       id="path-effect9251"
       is_visible="true"
       lpeversion="1"
       weight="33.333333"
       steps="2"
       helper_size="0"
       apply_no_weight="true"
       apply_with_weight="true"
       only_selected="false" />
    <inkscape:path-effect
       effect="bspline"
       id="path-effect9255"
       is_visible="true"
       lpeversion="1"
       weight="33.333333"
       steps="2"
       helper_size="0"
       apply_no_weight="true"
       apply_with_weight="true"
       only_selected="false" />
    <inkscape:path-effect
       effect="bspline"
       id="path-effect9259"
       is_visible="true"
       lpeversion="1"
       weight="33.333333"
       steps="2"
       helper_size="0"
       apply_no_weight="true"
       apply_with_weight="true"
       only_selected="false" />
    <inkscape:path-effect
       effect="bspline"
       id="path-effect9737"
       is_visible="true"
       lpeversion="1"
       weight="33.333333"
       steps="2"
       helper_size="0"
       apply_no_weight="true"
       apply_with_weight="true"
       only_selected="false" />
    <inkscape:path-effect
       effect="bspline"
       id="path-effect9859"
       is_visible="true"
       lpeversion="1"
       weight="33.333333"
       steps="2"
       helper_size="0"
       apply_no_weight="true"
       apply_with_weight="true"
       only_selected="false" />
    <inkscape:path-effect
       effect="bspline"
       id="path-effect10256"
       is_visible="true"
       lpeversion="1"
       weight="33.333333"
       steps="2"
       helper_size="0"
       apply_no_weight="true"
       apply_with_weight="true"
       only_selected="false" />
    <inkscape:path-effect
       effect="bspline"
       id="path-effect10260"
       is_visible="true"
       lpeversion="1"
       weight="33.333333"
       steps="2"
       helper_size="0"
       apply_no_weight="true"
       apply_with_weight="true"
       only_selected="false" />
    <inkscape:path-effect
       effect="bspline"
       id="path-effect10264"
       is_visible="true"
       lpeversion="1"
       weight="33.333333"
       steps="2"
       helper_size="0"
       apply_no_weight="true"
       apply_with_weight="true"
       only_selected="false" />
    <inkscape:path-effect
       effect="bspline"
       id="path-effect10268"
       is_visible="true"
       lpeversion="1"
       weight="33.333333"
       steps="2"
       helper_size="0"
       apply_no_weight="true"
       apply_with_weight="true"
       only_selected="false" />
    <inkscape:path-effect
       effect="bspline"
       id="path-effect14070"
       is_visible="true"
       lpeversion="1"
       weight="33.333333"
       steps="2"
       helper_size="0"
       apply_no_weight="true"
       apply_with_weight="true"
       only_selected="false" />
  </defs>
  <g
     inkscape:label="Layer 1"
     inkscape:groupmode="layer"
     id="layer1">
    <g
       id="g14757"
       style="display:inline;opacity:0.998907;stroke-width:1.97919;stroke-miterlimit:4;stroke-dasharray:none"
       transform="matrix(0.15107185,0,0,0.15107185,-113.21226,-8.6642095)">
      <path
         style="fill:#ffe6d5;stroke:#000000;stroke-width:1.97919;stroke-linecap:butt;stroke-linejoin:miter;stroke-miterlimit:4;stroke-dasharray:none;stroke-opacity:1"
         d="m 858.74591,239.77609 c -0.24088,-0.18138 -0.72376,-0.54498 -1.28633,-2.89634 -0.56257,-2.35136 -1.21792,-6.78584 -1.87742,-10.47605 -0.6595,-3.69021 -1.33023,-6.6836 -1.87988,-9.12284 -0.54965,-2.43924 -0.97821,-4.32419 -1.30945,-5.55571 -0.33124,-1.23152 -0.56539,-1.8096 -0.9802,-1.81191 -0.41482,-0.002 -1.00979,0.57238 -1.75457,0.59679 -0.74477,0.0244 -1.64047,-0.50215 -2.9862,-0.79339 -1.34573,-0.29124 -3.14126,-0.34649 -4.5262,0.32033 -1.38495,0.66682 -2.35807,2.05548 -2.8439,3.89316 -0.48584,1.83769 -0.4845,4.12348 -0.38977,6.6764 0.0947,2.55292 0.28278,5.37275 0.88407,8.05957 0.60129,2.68682 1.61537,5.24031 2.33355,7.75523 0.71819,2.51492 1.14073,4.99119 1.64249,7.06183 0.50175,2.07064 1.08247,3.73547 1.99939,5.75969 0.91692,2.02421 2.17847,4.42421 3.28476,6.11952 1.10629,1.69531 2.06124,2.69428 2.82487,3.87393 0.76362,1.17965 1.33636,2.53971 2.53531,3.86618 1.19895,1.32646 3.02342,2.61966 4.47232,3.29385 1.4489,0.67418 2.52226,0.73009 3.17561,0.75801 0.65336,0.0279 0.96305,0.0279 1.13178,-0.13692 0.16873,-0.16486 0.23579,-0.4953 0.41398,1.11049 0.17818,1.60578 0.46723,5.14736 0.95837,10.04992 0.49115,4.90255 1.18433,11.16573 1.91364,16.39385 0.7293,5.22813 1.49461,9.42083 2.63135,12.85907 1.13674,3.43824 2.64438,6.12175 4.42149,8.56484 1.77711,2.4431 3.87342,4.69977 6.45894,7.08701 2.58552,2.38724 5.68501,4.93202 8.48485,6.89354 2.79984,1.96151 5.29976,3.33988 7.67631,4.69837 2.37656,1.35848 4.6296,2.69695 6.54085,3.75066 1.91124,1.05372 3.48056,1.82273 5.11751,2.53761 1.63694,0.71488 3.3414,1.37572 6.46566,2.43016 3.12427,1.05445 7.66813,2.50252 11.29301,3.30093 3.62488,0.79841 6.32517,0.94713 8.79435,0.77369 2.46917,-0.17344 4.7763,-0.68485 6.68663,-0.87557 1.91033,-0.19072 3.45926,-0.0689 5.27454,0.0781 1.81529,0.14706 3.89681,0.31936 6.49659,-0.40528 2.59978,-0.72464 5.79687,-2.3867 8.82619,-4.26545 3.02933,-1.87876 5.93019,-3.99457 8.28053,-5.65229 2.35035,-1.65772 4.15002,-2.85724 6.32898,-4.49771 2.17897,-1.64047 4.82511,-3.79337 7.49768,-6.25372 2.67258,-2.46035 5.4155,-5.26386 7.93327,-8.50274 2.51778,-3.23889 4.85545,-6.9854 6.72241,-10.62474 1.86693,-3.63933 3.28573,-7.20768 4.21623,-11.238 0.9306,-4.03032 1.3729,-8.52277 1.5671,-14.35633 0.1941,-5.83356 0.14,-13.00796 0.1305,-17.90046 -0.01,-4.8925 0.026,-7.50284 0.2484,-8.56896 0.2227,-1.06613 0.6318,-0.58814 1.6641,-0.10449 1.0323,0.48365 2.6873,0.97359 4.7251,-0.0621 2.0378,-1.03572 4.5915,-3.73616 6.3225,-6.23978 1.7311,-2.50363 2.7056,-4.88051 4.1087,-8.12715 1.4031,-3.24663 3.2346,-7.36271 4.9713,-12.23126 1.7367,-4.86856 3.3785,-10.48947 3.3918,-14.92016 0.013,-4.43069 -1.6027,-7.67149 -2.9681,-9.62776 -1.3653,-1.95628 -2.4805,-2.62742 -3.797,-2.96337 -1.3164,-0.33595 -2.8338,-0.33595 -4.3277,0.60031 -1.494,0.93626 -3.0841,2.96232 -4.3843,4.73547 -1.3002,1.77315 -2.4706,3.51894 -2.889,6.1683 -0.4184,2.64936 -0.1128,6.55765 -0.1158,9.11156 0,2.55392 -0.4605,4.59617 -1.1661,6.22112 -0.7056,1.62495 -1.7379,3.18384 -2.4794,2.21363 -0.7416,-0.97021 -1.2272,-4.73873 -2.2699,-12.45654 -1.0426,-7.71781 -2.6597,-19.51862 -3.5483,-26.21969 -0.8886,-6.70107 -1.0488,-8.30207 -2.20024,-9.87893 -1.15147,-1.57685 -3.29523,-3.12922 -4.30488,-6.2758 -1.00965,-3.14658 -0.88398,-7.88732 -1.12853,-12.55046 -0.24454,-4.66314 -0.85945,-9.24854 -2.72523,-13.07243 -1.86578,-3.82389 -5.04207,-6.94382 -8.60829,-10.12125 -3.56622,-3.17742 -7.55169,-6.44101 -11.02907,-7.9242 -3.47737,-1.48318 -6.44625,-1.18492 -9.27637,-0.33453 -2.83012,0.85038 -5.52079,2.25293 -8.90401,4.56313 -3.38321,2.31021 -7.4585,5.52781 -10.83309,7.99042 -3.37459,2.46261 -6.04841,4.17016 -9.07908,3.89561 -3.03066,-0.27456 -6.41887,-2.53208 -9.76905,-4.29729 -3.35017,-1.7652 -6.66214,-3.03769 -11.47898,-5.18417 -4.81683,-2.14649 -11.24698,-5.21891 -16.17295,-6.78176 -4.92598,-1.56285 -8.40172,-1.64148 -11.66893,-0.42476 -3.26722,1.21673 -6.19176,3.61951 -9.1895,7.71499 -2.99774,4.09548 -6.00167,9.82825 -7.72605,14.62057 -1.72438,4.79232 -2.1846,8.77648 -1.98109,12.52222 0.20352,3.74575 1.12387,7.5736 1.91855,10.63235 0.79467,3.05876 1.5425,5.6425 1.74375,7.50625 0.20125,1.86375 -0.11938,3.09141 -0.95705,3.88149 -0.83767,0.79007 -2.38896,1.19443 -3.66005,2.01321 -1.27109,0.81878 -2.35904,2.07718 -3.07165,3.52959 -0.71261,1.45242 -1.04975,3.09809 -0.98787,5.63116 0.0619,2.53307 0.52248,5.95302 0.59459,9.7533 0.0721,3.80027 -0.24407,7.98082 -0.78524,11.48457 -0.54117,3.50376 -1.3072,6.33076 -1.60226,9.64527 -0.29506,3.3145 -0.11937,7.11594 -0.0315,9.01618 0.0878,1.90024 0.0875,1.90024 -0.15338,1.71886 z"
         id="path8780"
         inkscape:path-effect="#path-effect8782"
         inkscape:original-d="m 858.98679,239.95747 c -0.48188,-0.3626 -0.96476,-0.7262 -1.44864,-1.09081 -0.64734,-4.33735 -1.29566,-8.77287 -1.94499,-13.16081 -0.66976,-2.99252 -1.34048,-5.98592 -2.01223,-8.98038 -0.42757,-1.88402 -0.85612,-3.76897 -1.28568,-5.65495 -0.23315,-0.5771 -0.4673,-1.15518 -0.70245,-1.73427 -0.594,0.57571 -1.18898,1.15039 -1.78497,1.72408 -0.89472,-0.52558 -1.79042,-1.05214 -2.68712,-1.57972 -1.79461,-0.0542 -3.59014,-0.10948 -5.3867,-0.16573 -0.97216,1.38971 -1.94528,2.77837 -2.91942,4.16605 0.002,2.28689 0.003,4.57268 0.004,6.85752 0.18905,2.82094 0.3771,5.64077 0.56416,8.45966 1.01512,2.5546 2.0292,5.10809 3.0423,7.66064 0.42356,2.47736 0.8461,4.95363 1.26765,7.42895 0.58173,1.6659 1.16245,3.33073 1.74217,4.9946 1.23818,2.39283 2.51547,4.78456 3.7717,7.17535 0.95599,1.00001 1.91094,1.99898 2.86491,2.99697 0.57376,1.36112 1.14649,2.72118 1.71823,4.08027 1.82554,1.29424 3.65,2.58744 5.47349,3.87966 1.0744,0.0569 2.14776,0.11281 3.22014,0.16772 0.23438,10e-4 0.54407,10e-4 0.81461,0 0.0681,-0.32947 0.13514,-0.65992 0.20121,-0.99138 0.29006,3.54273 0.5791,7.08431 0.86715,10.62496 0.69421,6.26443 1.38739,12.52761 2.07958,18.78992 0.76634,4.19389 1.53164,8.3866 2.29596,12.57841 1.5087,2.68462 3.01634,5.36813 4.52302,8.0507 2.07232,2.18048 4.14356,4.46045 6.21385,6.68918 3.10062,2.54589 6.20011,5.09067 9.29867,7.63451 2.50102,1.37943 5.00094,2.7578 7.49992,4.1352 2.25414,1.33952 4.50718,2.67799 6.75928,4.01549 1.57037,0.77004 3.13969,1.53905 4.70803,2.30707 1.70554,0.66187 3.41,1.3227 5.1135,1.98255 4.54504,1.44913 9.0889,2.8972 13.63185,4.3443 2.70418,0.20039 5.40725,0.29876 8.10937,0.44665 2.23478,-0.50249 4.54367,-1.00596 6.81401,-1.51044 1.54999,0.1228 3.09892,0.2446 4.64687,0.36539 2.08261,0.17331 4.16413,0.34562 6.2447,0.51692 3.10908,-1.64071 6.31678,-3.28236 9.47367,-4.92504 2.90197,-2.11489 5.80282,-4.23071 8.70273,-6.34757 1.80073,-1.19856 3.6004,-2.39807 5.39909,-3.59861 2.5528,-2.08853 5.20549,-4.23337 7.80674,-6.35155 2.74403,-2.80262 5.48695,-5.60613 8.22893,-8.41069 2.31624,-3.65942 4.6314,-7.41998 6.9456,-11.13146 1.41972,-3.56746 2.83852,-7.13578 4.25622,-10.70517 0.4433,-4.49163 0.8856,-8.98408 1.3269,-13.47762 -0.053,-7.1737 -0.1072,-14.3481 -0.1623,-21.52365 0.036,-2.60943 0.071,-5.21977 0.1056,-7.83115 0.4102,0.47904 0.8193,0.95705 1.2275,1.43408 1.6561,0.49097 3.3111,0.98091 4.9651,1.46986 2.3491,-2.62979 4.9765,-5.26048 7.4632,-7.89222 0.9756,-2.376 1.9501,-4.7529 2.9237,-7.13085 1.8326,-4.11525 3.6641,-8.23133 5.4946,-12.34849 1.6429,-5.62014 3.2847,-11.24105 4.9255,-16.86308 -1.615,-3.23992 -3.231,-6.48071 -4.848,-9.72257 -1.1143,-0.67019 -2.2295,-1.34135 -3.3458,-2.01353 -1.5164,10e-4 -3.0338,10e-4 -4.5521,0 -1.5288,1.82604 -3.0586,3.89941 -4.5893,5.84762 -1.1196,1.56456 -2.2401,3.34381 -3.3616,5.01421 0.2956,3.62662 0.5902,7.53577 0.8837,11.30216 -0.3779,1.32418 -0.7568,3.38403 -1.1367,5.07455 -1.0313,1.55991 -2.0637,3.11876 -3.097,4.67664 -0.4673,-3.49693 -0.9356,-7.26768 -1.4049,-10.90302 -1.6161,-11.80029 -3.2331,-23.6011 -4.8512,-35.40315 -0.1591,-1.60006 -0.3193,-3.20106 -0.4804,-4.80308 -2.14284,-1.55143 -4.2866,-3.10379 -6.43141,-4.65718 0.12667,-4.73992 0.25233,-9.48066 0.377,-14.22249 -0.61393,-4.58459 -1.22884,-9.16999 -1.84476,-13.75649 -3.14596,-3.03117 -6.29279,-6.18109 -9.44069,-9.27313 -3.98462,-3.26272 -7.97009,-6.52631 -11.95664,-9.79096 -2.968,0.29927 -5.93688,0.59754 -8.90682,0.8948 -2.68979,1.40361 -5.38046,2.80616 -8.07219,4.20774 -4.07445,3.21873 -8.14974,6.43633 -12.22612,9.653 -2.67293,1.70861 -5.34675,3.41616 -8.02162,5.12274 -3.38735,-2.25662 -6.77557,-4.51414 -10.16485,-6.77271 -3.31111,-1.27154 -6.62309,-2.54402 -9.93613,-3.81753 -6.37501,-2.90576 -12.75077,-6.092 -19.12766,-9.1395 -3.47488,-0.0776 -6.95062,-0.15627 -10.42743,-0.23591 -2.99018,2.59417 -5.98125,4.91598 -8.97337,7.37247 -3.00305,5.73401 -6.00698,11.46678 -9.01197,17.19867 -0.45155,3.85136 -0.90409,7.83641 -1.35764,11.75312 0.78227,3.59321 1.78055,7.40233 2.66933,11.102 0.72468,2.41082 1.44833,5.00156 2.171,7.50085 -0.31965,1.22871 -0.64027,2.45637 -0.96191,3.68305 -1.34792,0.37986 -2.90586,0.75871 -4.3603,1.13656 -1.08699,1.25944 -2.17493,2.51784 -3.2639,3.77526 -0.33616,1.64673 -0.6733,3.2924 -1.01146,4.9371 0.46162,3.42109 0.92221,6.84104 1.38182,10.26006 -0.31518,4.18172 -0.63134,8.36227 -0.94852,12.5419 -0.76506,2.82812 -1.53109,5.65512 -2.29813,8.48118 0.1767,3.80259 0.35239,7.60403 0.52708,11.40455 z" />
      <path
         style="display:inline;fill:#f2f2f2;stroke:#000000;stroke-width:1.97919;stroke-linecap:butt;stroke-linejoin:miter;stroke-miterlimit:4;stroke-dasharray:none;stroke-opacity:1"
         d="m 949.7187,217.2083 c 0.67061,-0.59089 2.01176,-1.7726 3.37786,-2.92418 1.36611,-1.15158 2.75706,-2.27295 4.45557,-2.81968 1.6985,-0.54672 3.70357,-0.51889 5.69549,-0.58631 1.99191,-0.0674 4.04695,-0.23629 5.65975,-0.23857 1.6128,-0.002 2.89307,0.16823 4.4026,0.50754 1.50952,0.33932 3.28404,0.852 4.62983,1.42117 1.34579,0.56918 2.17432,1.13404 2.44643,1.52405 0.27211,0.39002 -0.0556,0.57596 -1.34535,1.08103 -1.28971,0.50507 -3.50928,1.31745 -6.13413,1.90647 -2.62484,0.58902 -5.63899,0.94865 -8.2552,0.91438 -2.6162,-0.0343 -4.83459,-0.46278 -6.46224,-0.6993 -1.62765,-0.23652 -2.66437,-0.28087 -3.9424,0.12399 -1.27804,0.40486 -2.7966,1.25914 -3.70297,1.39809 -0.90637,0.13895 -1.2008,-0.43882 -1.34832,-0.72831 -0.14752,-0.28948 -0.14752,-0.28949 0.52308,-0.88037 z"
         id="path9245"
         inkscape:path-effect="#path-effect9247"
         inkscape:original-d="m 949.0481,217.79918 c 1.34214,-1.18071 2.68329,-2.36242 4.02344,-3.54513 1.39201,-1.12042 2.78296,-2.24179 4.17294,-3.36418 2.00614,0.0288 4.01121,0.0567 6.01531,0.0835 1.97957,-0.16473 4.03487,-0.33046 6.0508,-0.49718 1.20883,0.16673 2.48974,0.33245 3.73311,0.49718 1.7756,0.5137 3.55012,1.02639 5.32369,1.53808 0.91234,0.63459 1.74658,1.19108 2.61837,1.78512 -0.32675,0.18695 -0.65449,0.3729 -0.98324,0.55785 -2.23478,0.86928 -4.47048,1.63758 -6.70722,2.45487 -3.01326,0.36065 -6.02741,0.72029 -9.04262,1.07893 -2.21748,-0.42752 -4.43587,-0.85602 -6.6553,-1.28553 -1.03576,-0.0434 -2.07248,-0.0877 -3.11022,-0.13306 -1.51762,0.85531 -3.03618,1.70959 -4.55577,2.56288 -0.29344,-0.57678 -0.58786,-1.15455 -0.88329,-1.73332 z" />
      <path
         id="path9486"
         style="fill:#000000;stroke:#000000;stroke-width:1.97919;stroke-linecap:butt;stroke-linejoin:miter;stroke-miterlimit:4;stroke-dasharray:none;stroke-opacity:1"
         d="m 968.51138,210.54054 c -1.23085,0.002 -2.79953,0.17054 -4.3197,0.23707 -1.17037,0.0512 -2.3455,0.0496 -3.41643,0.29104 -0.009,0.13429 -0.0202,0.27007 -0.0253,0.40089 -0.0643,1.65524 0.16746,2.98211 0.66033,4.37125 0.19291,0.5437 0.42592,1.09737 0.73188,1.61898 0.92438,0.16829 1.96442,0.31962 3.12127,0.33921 1.99664,0.0339 4.29598,-0.32074 6.29921,-0.90198 0.68982,-0.20016 1.33914,-0.4262 1.93926,-0.65725 0.3145,-1.1659 0.24997,-2.34822 0.0924,-3.37673 -0.0719,-0.46941 -0.16367,-0.90578 -0.28172,-1.33952 -0.49059,-0.18082 -0.98158,-0.3482 -1.44139,-0.48184 -1.15205,-0.33483 -2.12893,-0.50337 -3.35978,-0.50112 z" />
      <path
         style="display:inline;fill:none;stroke:#000000;stroke-width:1.97919;stroke-linecap:butt;stroke-linejoin:miter;stroke-miterlimit:4;stroke-dasharray:none;stroke-opacity:1"
         d="m 918.52128,206.52125 c 1.62991,2.13728 3.25897,4.27345 4.44438,7.03329 1.1854,2.75984 1.92772,6.14316 1.84359,8.69091 -0.0841,2.54776 -0.99421,4.26056 -1.68385,5.70995 -0.68964,1.44939 -1.15873,2.63501 -1.28552,4.09546 -0.12679,1.46046 0.0884,3.19497 0.67725,5.26452 0.58886,2.06955 1.551,4.47389 1.58655,6.24251 0.0355,1.76862 -1.01112,3.10148 -1.97959,4.33475"
         id="path8899"
         inkscape:path-effect="#path-effect8901"
         inkscape:original-d="m 918.52128,206.52125 c 1.63006,2.13717 3.25912,4.27334 4.88718,6.40851 0.74335,3.38446 1.48566,6.76778 2.22699,10.15017 -0.90914,1.71391 -1.81922,3.42671 -2.73036,5.13863 -0.46812,1.18671 -0.93721,2.37233 -1.40733,3.55704 0.21619,1.73561 0.43137,3.47012 0.64557,5.20372 0.96317,2.40541 1.92532,4.80974 2.88648,7.21311 -0.83565,1.17722 -1.93614,2.46781 -2.90572,3.70021"
         sodipodi:nodetypes="cccccccc" />
      <path
         style="display:inline;fill:none;stroke:#000000;stroke-width:1.97919;stroke-linecap:butt;stroke-linejoin:miter;stroke-miterlimit:4;stroke-dasharray:none;stroke-opacity:1"
         d="m 917.21303,247.42515 c -0.32202,1.28546 -0.64386,2.57022 -1.17039,4.11267 -0.52653,1.54245 -1.25769,3.34273 -1.6477,5.11698 -0.39001,1.77425 -0.43905,3.52192 -0.0822,5.25236 0.35687,1.73044 1.11904,3.44331 2.02769,4.56579 0.90865,1.12248 1.96306,1.6551 3.22509,1.92111 1.26204,0.26601 2.80064,0.26601 3.89645,0.24741 1.09582,-0.0186 1.85415,-0.0596 2.57611,-0.0986"
         id="path8903"
         inkscape:path-effect="#path-effect8905"
         inkscape:original-d="m 917.21303,247.42515 c -0.32084,1.28576 -0.64268,2.57051 -0.96552,3.85426 -0.73019,1.80135 -1.46135,3.60163 -2.19352,5.40094 -0.048,1.74873 -0.0971,3.4964 -0.14711,5.24309 0.7632,1.71395 1.52537,3.42682 2.28656,5.13874 1.05545,0.53364 2.10986,1.06626 3.16329,1.59789 1.47084,10e-4 3.00944,10e-4 4.51266,0 0.68836,-0.0381 1.4468,-0.0771 2.1687,-0.11718" />
      <path
         style="display:inline;fill:none;stroke:#000000;stroke-width:1.97919;stroke-linecap:butt;stroke-linejoin:miter;stroke-miterlimit:4;stroke-dasharray:none;stroke-opacity:1"
         d="m 946.31453,245.19547 c 1.31994,1.68535 2.63901,3.36959 4.0371,5.08363 1.39809,1.71403 2.87509,3.45781 3.70998,4.88749 0.83488,1.42968 1.02833,2.54513 0.97189,3.65987 -0.0565,1.11474 -0.3624,2.22917 -1.22573,3.38479 -0.86333,1.15562 -2.32627,2.38849 -3.4996,3.11796 -1.17333,0.72948 -2.07858,0.97331 -3.15362,1.06426 -1.07503,0.091 -2.32014,0.0288 -3.56633,-0.0335"
         id="path8907"
         inkscape:path-effect="#path-effect8909"
         inkscape:original-d="m 946.31453,245.19547 c 1.32007,1.68525 2.63914,3.36949 3.95722,5.05274 1.47806,1.74484 2.95506,3.48862 4.43109,5.23143 0.19446,1.11649 0.38791,2.23194 0.58036,3.34642 -0.30496,1.11547 -0.61091,2.2299 -0.91787,3.34336 -1.40507,1.21622 -2.88292,2.4314 -4.32588,3.6456 -0.90429,0.24485 -1.80954,0.48868 -2.71581,0.73153 -1.24417,-0.0612 -2.48928,-0.12336 -3.73542,-0.18654" />
      <path
         style="display:inline;fill:none;stroke:#000000;stroke-width:1.97919;stroke-linecap:butt;stroke-linejoin:miter;stroke-miterlimit:4;stroke-dasharray:none;stroke-opacity:1"
         d="m 931.52011,267.27707 c -1.03797,-0.71732 -2.07707,-1.43542 -3.22999,-1.99069 -1.15292,-0.55526 -2.41967,-0.94726 -3.5132,-1.16894 -1.09354,-0.22168 -2.05839,-0.2752 -2.64655,-0.24875 -0.58815,0.0264 -0.82136,0.13187 -1.05164,0.39812 -0.23029,0.26624 -0.457,0.69271 -0.21146,1.03885 0.24553,0.34615 1.01059,0.62991 1.59934,0.83204 0.58876,0.20212 1.02555,0.33172 1.55989,0.51217 0.53434,0.18046 1.16618,0.41168 1.79682,0.64246"
         id="path8911"
         inkscape:path-effect="#path-effect8913"
         inkscape:original-d="m 931.52011,267.27707 c -1.03811,-0.71711 -2.07722,-1.43521 -3.11732,-2.15431 -1.26579,-0.39101 -2.53253,-0.78301 -3.80029,-1.17601 -0.9191,-0.0513 -1.88402,-0.10357 -2.82753,-0.15685 -0.23221,0.10643 -0.46541,0.21187 -0.69962,0.3163 -0.22571,0.42749 -0.45242,0.85396 -0.68014,1.27944 0.71404,0.27575 1.48244,0.55049 2.22216,0.82423 0.43781,0.1306 0.8746,0.26019 1.3104,0.38879 0.63286,0.23223 1.2647,0.46345 1.89555,0.69367" />
      <path
         style="display:inline;fill:none;stroke:#000000;stroke-width:1.97919;stroke-linecap:butt;stroke-linejoin:miter;stroke-miterlimit:4;stroke-dasharray:none;stroke-opacity:1"
         d="m 938.38171,265.48594 c 0.49348,-0.9578 1.0044,-1.94947 1.81259,-2.59584 0.80818,-0.64636 1.93492,-0.96746 3.12829,-1.23946 1.19337,-0.27199 2.45995,-0.49684 3.2562,-0.53908 0.79625,-0.0422 1.12173,0.0975 1.32682,0.40792 0.2051,0.31042 0.29974,0.84105 -0.18312,1.29734 -0.48287,0.45628 -1.53906,0.86464 -2.29294,1.1871 -0.75389,0.32247 -1.20525,0.55901 -1.81375,0.63235 -0.60851,0.0733 -1.37486,-0.0169 -2.14232,-0.10717"
         id="path8915"
         inkscape:path-effect="#path-effect8917"
         inkscape:original-d="m 938.38171,265.48594 c 0.5033,-0.95274 1.0056,-1.94885 1.5069,-2.92477 1.121,-0.29243 2.24095,-0.63735 3.35993,-0.95752 1.26762,-0.22386 2.5342,-0.44871 3.7998,-0.67457 0.32649,0.14073 0.65197,0.28046 0.97646,0.41919 0.14469,0.47115 0.18135,1.01212 0.27052,1.51667 -1.05523,0.40938 -2.11142,0.81773 -3.16864,1.22509 -0.45039,0.23755 -0.90175,0.4741 -1.35413,0.70964 -0.76536,-0.0892 -1.53171,-0.17938 -2.29907,-0.27057"
         sodipodi:nodetypes="ccccccccc" />
      <path
         style="display:inline;fill:#f2f2f2;stroke:#000000;stroke-width:1.97919;stroke-linecap:butt;stroke-linejoin:miter;stroke-miterlimit:4;stroke-dasharray:none;stroke-opacity:1"
         d="m 915.73083,219.82312 c 0.65298,0.0304 0.23412,-0.16097 -0.22558,-0.48885 -0.45969,-0.32787 -0.96002,-0.79268 -1.38182,-1.27462 -0.42179,-0.48193 -0.79112,-1.01949 -1.47952,-1.39695 -0.6884,-0.37745 -1.70937,-0.61307 -2.84528,-1.0305 -1.13591,-0.41743 -2.38671,-1.01695 -3.65479,-1.47728 -1.26808,-0.46032 -2.55334,-0.78115 -3.90711,-1.0084 -1.35377,-0.22725 -2.77586,-0.36073 -4.67091,-0.2209 -1.89505,0.13983 -4.31228,0.56186 -5.95058,1.16128 -1.63829,0.59942 -2.52164,1.38044 -3.19868,2.05293 -0.67703,0.67248 -1.14756,1.23623 -1.50041,1.62411 -0.35284,0.38787 -0.66243,0.66701 -0.27424,0.86431 0.38819,0.19731 1.43588,0.34607 2.54191,0.50146 1.10604,0.15538 2.27034,0.3174 3.67235,0.43537 1.40202,0.11797 3.04166,0.19199 4.99763,0.19145 1.95598,-5.3e-4 4.2281,-0.0755 6.02078,-0.0724 1.79268,0.003 3.10561,0.0844 4.31786,0.0315 1.21225,-0.0529 2.32392,-0.23972 3.74231,-0.20715 1.41839,0.0326 3.1431,0.28423 3.79608,0.31459 z"
         id="path9237"
         inkscape:path-effect="#path-effect9239"
         inkscape:original-d="m 916.80147,220.04427 c -0.41787,-0.19033 -0.83673,-0.38167 -1.25659,-0.57401 -0.49936,-0.46382 -0.99969,-0.92863 -1.50103,-1.39445 -0.35517,-0.48919 -0.71133,-1.0358 -1.0685,-1.5552 -1.02001,-0.23463 -2.04098,-0.47025 -3.06298,-0.70688 -1.24985,-0.59854 -2.50065,-1.19806 -3.75248,-1.79859 -1.28431,-0.31984 -2.56957,-0.64066 -3.85586,-0.96249 -1.42115,-0.13248 -2.84324,-0.26596 -4.26636,-0.40045 -2.36594,0.41872 -4.78393,0.83642 -7.1774,1.25313 -0.88239,0.78205 -1.76574,1.56307 -2.6501,2.3431 -0.46956,0.56478 -0.94009,1.12853 -1.41164,1.6913 -0.23601,0.21121 -0.54386,0.49227 -0.81729,0.7369 1.04874,0.14977 2.09643,0.29853 3.14314,0.44629 1.16536,0.16302 2.32966,0.32503 3.49302,0.48605 1.64075,0.075 3.28039,0.14905 4.91914,0.22208 2.27327,-0.074 4.54539,-0.14904 6.81665,-0.22506 1.31401,0.0823 2.62694,0.16351 3.93897,0.24377 1.11272,-0.18584 2.22439,-0.37267 3.33508,-0.5605 1.72578,0.25268 3.45049,0.50434 5.17423,0.75501 z"
         sodipodi:nodetypes="ccccccccccccccccccc" />
      <path
         style="display:inline;fill:none;stroke:#000000;stroke-width:1.97919;stroke-linecap:butt;stroke-linejoin:miter;stroke-miterlimit:4;stroke-dasharray:none;stroke-opacity:1"
         d="m 880.07783,219.71781 c 0.61177,-1.63286 1.23553,-3.29775 2.30238,-4.50146 1.06685,-1.20371 2.58202,-1.9612 4.86128,-2.68093 2.27927,-0.71973 5.32215,-1.4017 8.18863,-1.83061 2.86648,-0.42892 5.55621,-0.60487 7.83561,-0.45272 2.2794,0.15215 4.1481,0.63203 6.03879,1.36343 1.89069,0.73139 3.84411,1.73495 4.97856,2.59523 1.13445,0.86027 1.47096,1.58713 1.80691,2.3128"
         id="path9241"
         inkscape:path-effect="#path-effect9243"
         inkscape:original-d="m 880.07783,219.71781 c 0.57097,-1.64815 1.23674,-3.2973 1.85361,-4.94745 1.51622,-0.75652 3.03139,-1.51401 4.54558,-2.27251 3.044,-0.68099 6.08688,-1.36296 9.12882,-2.04594 2.69083,-0.17496 5.38056,-0.35091 8.06934,-0.52787 1.86977,0.4809 3.73847,0.96077 5.60621,1.43966 1.93406,0.94382 3.86704,1.98716 5.79907,2.97924 0.33751,0.72788 0.67402,1.45474 1.00953,2.18061" />
      <path
         style="display:inline;fill:none;stroke:#000000;stroke-width:1.97919;stroke-linecap:butt;stroke-linejoin:miter;stroke-miterlimit:4;stroke-dasharray:none;stroke-opacity:1"
         d="m 984.84634,213.14675 c -1.96265,-1.19105 -3.9605,-2.40346 -5.75763,-3.25958 -1.79712,-0.85612 -3.41048,-1.36592 -5.52045,-1.64318 -2.10997,-0.27727 -4.71625,-0.32164 -6.90165,-0.32585 -2.18539,-0.004 -3.94973,0.0318 -5.52149,0.19861 -1.57175,0.16683 -2.9506,0.46466 -4.465,1.08303 -1.51441,0.61836 -3.16385,1.55725 -4.46956,2.28557 -1.3057,0.72832 -2.26761,1.24604 -3.22991,1.76396"
         id="path9249"
         inkscape:path-effect="#path-effect9251"
         inkscape:original-d="m 984.84634,213.14675 c -1.97984,-1.16272 -3.96068,-2.40317 -5.94252,-3.60626 -1.61243,-0.50881 -3.22579,-1.01861 -4.84018,-1.52942 -2.60537,-0.0434 -5.21165,-0.0877 -7.81898,-0.13311 -1.76342,0.037 -3.52776,0.073 -5.29315,0.10795 -1.37789,0.29884 -2.75674,0.59666 -4.1366,0.89349 -1.64852,0.93993 -3.29797,1.87881 -4.94845,2.81672 -0.96096,0.51874 -1.92287,1.03646 -2.88581,1.55319" />
      <path
         style="display:inline;fill:#000000;stroke:#000000;stroke-width:1.97919;stroke-linecap:butt;stroke-linejoin:miter;stroke-miterlimit:4;stroke-dasharray:none;stroke-opacity:1"
         d="m 946.68803,206.67349 c 1.8838,0.0704 5.5066,-0.21112 8.86403,-0.83699 3.35743,-0.62587 6.47484,-1.60379 9.69224,-2.5495 3.21741,-0.9457 6.5472,-1.8631 10.09935,-2.2524 3.55216,-0.3893 7.32609,-0.25072 10.88436,0.2345 3.55827,0.48522 6.90052,1.31679 8.83667,1.76145 1.93615,0.44466 2.45365,0.5012 2.01996,-0.35757 -0.43368,-0.85876 -1.82453,-2.63444 -3.85817,-4.23403 -2.03364,-1.5996 -4.71026,-3.02256 -7.27511,-4.20857 -2.56486,-1.18602 -5.01781,-2.13484 -7.69509,-2.46253 -2.67728,-0.32768 -5.66285,-0.0251 -8.25932,0.43554 -2.59646,0.46064 -4.92573,1.10589 -6.96453,1.87017 -2.0388,0.76429 -3.82676,1.65867 -5.7243,2.5835 -1.89754,0.92484 -3.90457,1.88006 -5.53401,2.85389 -1.62944,0.97383 -2.97746,2.04266 -4.10753,3.06855 -1.13008,1.02589 -2.15733,2.11822 -2.58191,2.85903 -0.42458,0.7408 -0.28045,1.16451 1.60336,1.23496 z"
         id="path9253"
         inkscape:path-effect="#path-effect9255"
         inkscape:original-d="m 944.94796,207.02558 c 3.62395,-0.28057 7.24675,-0.56214 10.86863,-0.84471 3.1059,-0.9288 6.21068,-1.94697 9.31452,-2.92195 3.33092,-0.91644 6.66072,-1.83383 9.98958,-2.75225 3.77508,0.13959 7.54901,0.27817 11.32202,0.41576 3.34339,0.8326 6.68564,1.66417 10.02696,2.49475 0.52479,0.11638 1.04856,0.11544 1.57134,0.17167 -1.38991,-1.77474 -2.78077,-3.55041 -4.17265,-5.32711 -2.67572,-1.42202 -5.35234,-2.84499 -8.03001,-4.26898 -2.45206,-0.94786 -4.90501,-1.89668 -7.35902,-2.84653 -2.8998,0.29931 -5.8858,0.5976 -8.83021,0.8949 -2.24523,0.63518 -4.57757,1.26933 -6.86786,1.9025 -1.78704,0.89542 -3.575,1.7898 -5.36401,2.68321 -2.0061,0.95626 -4.01313,1.91149 -6.0212,2.86573 -1.26231,0.97843 -2.59852,2.06214 -3.89928,3.0917 -0.92134,1.05773 -1.98649,2.11442 -2.98123,3.17013 0.14514,0.42473 0.28928,0.84844 0.43242,1.27118 z"
         sodipodi:nodetypes="ccccccccccccccccc" />
      <path
         style="display:inline;fill:#000000;stroke:#000000;stroke-width:1.97919;stroke-linecap:butt;stroke-linejoin:miter;stroke-miterlimit:4;stroke-dasharray:none;stroke-opacity:1"
         d="m 869.35154,209.82296 c 0.99948,-0.88803 2.99838,-2.66402 5.07531,-3.64702 2.07692,-0.98301 4.33965,-1.1826 7.12531,-1.25051 2.78565,-0.0679 6.28805,-0.007 10.12828,0.38123 3.84024,0.38782 8.08785,1.10317 11.27268,1.59872 3.18483,0.49555 5.30675,0.77132 7.29433,0.94823 1.98757,0.1769 3.84075,0.25503 4.99298,0.3655 1.15224,0.11048 1.60331,0.25297 1.62239,-0.2092 0.0191,-0.46216 -0.39308,-1.52977 -1.81305,-2.98137 -1.41997,-1.4516 -3.84831,-3.28672 -6.41098,-4.51068 -2.56266,-1.22395 -5.25956,-1.83611 -7.57418,-2.15044 -2.31461,-0.31432 -4.24717,-0.33056 -6.88379,-0.7258 -2.63661,-0.39525 -5.97753,-1.16973 -8.32452,-1.50191 -2.347,-0.33218 -3.69969,-0.22169 -5.41304,0.3949 -1.71334,0.6166 -3.78669,1.73938 -5.34058,2.75119 -1.5539,1.01181 -2.58799,1.91248 -3.44345,3.08681 -0.85546,1.17433 -1.5243,2.60532 -2.16068,3.94756 -0.63637,1.34224 -1.31854,2.75787 -1.5029,3.47359 -0.18435,0.71573 0.0866,0.8167 0.22152,0.86697 0.13489,0.0503 0.13489,0.0503 1.13437,-0.83777 z"
         id="path9257"
         inkscape:path-effect="#path-effect9259"
         inkscape:original-d="m 868.35206,210.71098 c 1.9999,-1.77499 3.9988,-3.55098 5.9967,-5.32797 2.15468,-0.1938 4.41784,-0.38858 6.62526,-0.58438 3.36375,0.0611 6.86617,0.12119 10.29775,0.18028 4.24877,0.71638 8.49638,1.43173 12.74306,2.14609 2.12301,0.27678 4.24493,0.55256 6.36589,0.82734 1.85426,0.0791 3.70744,0.15725 5.55966,0.23438 0.45209,0.14349 0.90316,0.28598 1.35324,0.42747 -0.41118,-1.06665 -0.82334,-2.13426 -1.23652,-3.2029 -2.42742,-1.83419 -4.85575,-3.66932 -7.28513,-5.50547 -2.69601,-0.61118 -5.39291,-1.22333 -8.09087,-1.8365 -1.93137,0.0156 -3.86367,-0.0315 -5.797,-0.0487 -3.34006,-0.77352 -6.68098,-1.548 -10.02297,-2.3235 -1.35174,0.11149 -2.70443,0.22197 -4.05814,0.33146 -2.07243,1.12382 -4.14577,2.2466 -6.22016,3.3684 -1.03312,0.9017 -2.06721,1.80236 -3.10231,2.70204 -0.69313,1.44027 -1.34438,2.87948 -2.01808,4.31772 -0.58966,1.25078 -1.28123,2.66188 -1.92334,3.99132 0.27199,0.10198 0.54297,0.20295 0.81296,0.30293 z" />
      <path
         id="path9610"
         style="display:inline;fill:#000000;stroke:#000000;stroke-width:1.97919;stroke-linecap:butt;stroke-linejoin:miter;stroke-miterlimit:4;stroke-dasharray:none;stroke-opacity:1"
         d="m 898.9043,212.86914 c -0.42097,0.004 -0.86413,0.0217 -1.33789,0.0566 -1.82716,0.13482 -4.13382,0.5321 -5.76563,1.09766 -0.006,0.0911 -0.0114,0.18606 -0.0156,0.27148 -0.0612,1.22443 -0.0121,1.78078 0.11914,2.36524 0.13122,0.58445 0.34288,1.18072 0.90039,1.88476 0.0147,0.0185 1.25191,1.013 1.26711,1.0316 0.17963,-0.0214 1.10362,0.17342 1.28584,0.15292 1.4712,-0.16541 1.02991,0.0519 2.88065,-0.1003 1.26305,-0.10386 1.57596,0.009 2.91155,-0.074 0.0691,-0.12942 1.23505,-2.01747 1.2916,-2.14309 0.36599,-0.81309 0.46565,-1.56346 0.24609,-2.54688 -0.11686,-0.52342 -0.32606,-1.12165 -0.62695,-1.74414 -0.96239,-0.1549 -1.96497,-0.26213 -3.15625,-0.25195 z"
         sodipodi:nodetypes="scccsscsscsscss" />
      <path
         style="display:inline;fill:#ffd5d5;stroke:#000000;stroke-width:1.97919;stroke-linecap:butt;stroke-linejoin:miter;stroke-miterlimit:4;stroke-dasharray:none;stroke-opacity:1"
         d="m 908.96205,296.62274 c 0.20032,-0.13507 0.60076,-0.40508 1.21216,-0.50913 0.6114,-0.10405 1.50243,-0.0372 2.4391,-0.041 0.93668,-0.004 2.008,-0.0794 3.1442,-0.49905 1.1362,-0.4196 2.36495,-1.18497 3.64094,-2.14501 1.27598,-0.96003 2.59931,-2.11477 3.7826,-3.04133 1.18328,-0.92657 2.22629,-1.62481 3.52294,-2.00634 1.29666,-0.38152 2.84615,-0.44641 4.57622,-0.39822 1.73007,0.0482 3.64049,0.20935 5.11019,0.32201 1.46971,0.11266 2.49864,0.17685 3.67585,-0.0741 1.17721,-0.25095 2.52145,-0.82454 4.04662,-0.90354 1.52517,-0.079 3.23962,0.33221 5.01338,0.91054 1.77376,0.57832 3.6067,1.32352 5.04805,1.92648 1.44135,0.60296 2.51242,1.07299 3.45835,1.36003 0.94594,0.28704 1.77748,0.39616 2.7412,0.392 0.96372,-0.004 2.05978,-0.12134 2.90281,-0.0845 0.84303,0.0369 1.407,0.21906 1.74454,0.45837 0.33755,0.23931 0.46565,0.61622 0.36035,0.7339 -0.1053,0.11769 -0.46582,0.009 -1.18163,-0.0536 -0.71582,-0.0626 -1.8045,-0.0842 -3.12834,-0.0995 -1.32383,-0.0153 -2.88272,-0.0243 -4.84486,-0.23812 -1.96213,-0.21384 -4.32752,-0.63268 -6.2612,-0.7318 -1.93369,-0.0991 -3.43525,0.12181 -5.20364,0.68538 -1.7684,0.56358 -3.80314,1.46985 -5.88567,1.75331 -2.08253,0.28347 -4.21339,-0.0563 -6.30095,-0.32015 -2.08756,-0.26389 -4.13164,-0.45186 -5.75894,-0.25711 -1.62729,0.19476 -2.83706,0.77252 -4.25318,1.35332 -1.41611,0.5808 -3.03862,1.16461 -4.44096,1.53533 -1.40234,0.37072 -2.58472,0.52825 -3.805,0.55347 -1.22028,0.0252 -2.47863,-0.0821 -3.4107,-0.17856 -0.93206,-0.0965 -1.53785,-0.18218 -1.84131,-0.22512 -0.30345,-0.0429 -0.30345,-0.0429 -0.10312,-0.17802 z"
         id="path9735"
         inkscape:path-effect="#path-effect9737"
         inkscape:original-d="m 908.76172,296.75782 c 0.40143,-0.269 0.80187,-0.53901 1.2013,-0.81001 0.82232,0.0653 1.71355,0.12956 2.56882,0.19284 1.01809,-0.0727 2.08954,-0.14641 3.1328,-0.22111 1.2298,-0.7644 2.45855,-1.52977 3.68633,-2.29616 1.32439,-1.15379 2.64772,-2.30853 3.97008,-3.46429 1.04405,-0.69728 2.08706,-1.39552 3.12909,-2.09478 1.55055,-0.0639 3.10004,-0.12879 4.64856,-0.19469 1.9115,0.16216 3.82192,0.32331 5.73138,0.48346 1.02997,0.0652 2.0589,0.12939 3.08685,0.19258 1.33617,-0.54345 2.67129,-1.13841 4.00543,-1.70912 1.71551,0.41222 3.42996,0.82343 5.14343,1.23364 1.83401,0.74623 3.66695,1.49144 5.49893,2.23565 1.06141,0.43731 2.12179,0.93169 3.18119,1.39604 0.83257,0.11012 1.66411,0.21923 2.49467,0.32735 1.09711,-0.11619 2.19317,-0.23338 3.28826,-0.35156 0.59199,0.18733 1.15462,0.37365 1.73043,0.55898 0.11458,0.28755 0.22816,0.66939 0.34075,1.00258 -0.32235,-0.10234 -0.68448,-0.20567 -1.02821,-0.31001 -1.08773,-0.0206 -2.17641,-0.0421 -3.26612,-0.0647 -1.55795,-0.008 -3.11684,-0.017 -4.67676,-0.027 -2.36448,-0.41785 -4.72987,-0.8367 -7.09631,-1.25655 -1.50062,0.22194 -3.00218,0.44286 -4.50478,0.66279 -2.03382,0.90731 -4.06856,1.81358 -6.10434,2.71886 -2.12995,-0.33874 -4.26081,-0.67847 -6.39271,-1.0192 -2.04317,-0.18697 -4.08725,-0.37494 -6.13237,-0.56391 -1.20882,0.57878 -2.41859,1.15654 -3.62938,1.73331 -1.62158,0.58483 -3.24409,1.16864 -4.86763,1.75146 -1.18142,0.15854 -2.3638,0.31607 -3.5472,0.4726 -1.25739,-0.10631 -2.51574,-0.21361 -3.77511,-0.32191 -0.6048,-0.0847 -1.21059,-0.17042 -1.81738,-0.25713 z" />
      <path
         style="fill:#ffd5d5;stroke:#000000;stroke-width:1.97919;stroke-linecap:butt;stroke-linejoin:miter;stroke-miterlimit:4;stroke-dasharray:none;stroke-opacity:1"
         d="m 962.10892,293.05908 c -0.24405,0.17126 -0.73235,0.51393 -1.17437,1.09583 -0.44201,0.58191 -0.83733,1.40246 -1.41185,2.36134 -0.57452,0.95887 -1.3396,2.07271 -2.47361,3.18601 -1.134,1.11329 -2.64283,2.23454 -4.29077,3.07384 -1.64794,0.83931 -3.43534,1.3967 -5.35323,1.83633 -1.91789,0.43963 -3.96633,0.76141 -5.40659,0.86173 -1.44026,0.10031 -2.27256,-0.0211 -2.98021,0.0129 -0.70766,0.0341 -1.29011,0.22408 -2.46557,0.32875 -1.17546,0.10468 -2.94423,0.12384 -4.9204,-0.0458 -1.97617,-0.1696 -4.15977,-0.52815 -6.17995,-1.01806 -2.02018,-0.4899 -3.8769,-1.11136 -5.58437,-1.91613 -1.70748,-0.80477 -3.26559,-1.79314 -4.43214,-2.5632 -1.16656,-0.77006 -1.94149,-1.32183 -2.46541,-1.63216 -0.52393,-0.31033 -0.79685,-0.37869 -1.13168,-0.6 -0.33483,-0.2213 -0.74882,-0.61271 -0.54103,-0.77773 0.20779,-0.16503 1.02859,-0.11101 1.95164,-0.073 0.92304,0.038 1.98297,0.0609 3.17436,-0.10268 1.19138,-0.16354 2.53181,-0.51287 3.95475,-0.9991 1.42294,-0.48624 2.9285,-1.10931 4.06771,-1.52114 1.13922,-0.41183 1.91182,-0.61243 2.80548,-0.72594 0.89366,-0.11352 1.94254,-0.141 2.97304,-0.0763 1.03051,0.0647 2.05967,0.22089 3.01863,0.35408 0.95896,0.13318 1.84769,0.24336 2.73354,0.29839 0.88585,0.055 1.76889,0.055 2.87549,-0.12788 1.10661,-0.1829 2.43703,-0.5485 3.68978,-0.91319 1.25275,-0.36469 2.42781,-0.72844 3.34323,-0.99684 0.91543,-0.2684 1.57111,-0.44146 2.69272,-0.45871 1.12161,-0.0172 2.70657,0.12084 4.31062,0.30134 1.60406,0.18051 3.22601,0.40327 4.65823,0.52665 1.43223,0.12339 2.67419,0.14752 3.44373,0.15416 0.76954,0.007 1.06638,-0.004 1.21433,-0.01 0.14795,-0.005 0.14795,-0.005 -0.0961,0.16597 z"
         id="path9857"
         inkscape:path-effect="#path-effect9859"
         inkscape:original-d="m 962.35297,292.88782 c -0.4873,0.34366 -0.9756,0.68633 -1.4649,1.02799 -0.39433,0.82159 -0.78964,1.64214 -1.18596,2.4617 -0.74077,1.10665 -1.51786,2.21224 -2.27829,3.31686 -1.5079,1.1223 -3.01673,2.24355 -4.52659,3.36382 -1.78648,0.55841 -3.57388,1.11581 -5.36233,1.67221 -2.04752,0.32279 -4.09596,0.64458 -6.14544,0.96536 -0.83134,-0.12045 -1.66364,-0.24191 -2.49697,-0.36436 -0.58147,0.19099 -1.16392,0.38099 -1.74738,0.56998 -1.76784,0.0202 -3.53661,0.0393 -5.30641,0.0575 -2.18268,-0.35756 -4.36628,-0.71611 -6.55092,-1.07567 -1.85579,-0.62047 -3.71251,-1.24192 -5.57026,-1.86439 -1.55717,-0.98741 -3.11527,-1.97579 -4.6744,-2.96518 -0.77396,-0.55079 -1.54888,-1.10257 -2.32482,-1.65535 -0.27195,-0.0674 -0.54488,-0.13573 -0.81882,-0.20509 -0.40429,-0.3647 -0.80956,-0.76533 -1.21584,-1.14949 0.82183,0.055 1.64263,0.10903 2.46245,0.16204 1.02612,0.032 2.08624,0.046 3.12786,0.0674 1.34148,-0.34835 2.68191,-0.69768 4.02136,-1.04802 1.50662,-0.6221 3.01218,-1.24518 4.51677,-1.86926 0.77364,-0.19961 1.54625,-0.4002 2.31788,-0.6018 1.0154,-0.026 2.06429,-0.0531 3.09494,-0.0811 1.0302,0.15721 2.05936,0.31341 3.08754,0.46862 0.88976,0.11119 1.77849,0.22137 2.66623,0.33056 0.88407,10e-4 1.76711,10e-4 2.64917,0 1.33147,-0.36462 2.66189,-0.73022 3.99133,-1.09682 1.17611,-0.36276 2.35117,-0.72651 3.52526,-1.09127 0.6567,-0.17206 1.31238,-0.34512 1.96707,-0.51918 1.58708,0.15146 3.1731,0.27737 4.75815,0.41456 1.62302,0.22377 3.24497,0.44652 4.86595,0.66829 1.24329,0.0397 2.48553,0.0493 3.72679,0.0724 0.29787,-0.01 0.59472,-0.0206 0.89058,-0.0324 z" />
      <path
         id="path9861"
         style="fill:#241c1c;stroke:#000000;stroke-width:1.97919;stroke-linecap:butt;stroke-linejoin:miter;stroke-miterlimit:4;stroke-dasharray:none;stroke-opacity:1"
         d="m 937.91992,58.365234 c -1.87517,-0.07224 -3.62422,0.02179 -5.17383,0.3125 -6.19843,1.162831 -9.20664,5.47808 -10.08984,9.494141 -0.8832,4.016061 0.35822,7.732001 -1.77148,7.589844 -2.12971,-0.142157 -7.82441,-4.282805 -15.48047,-5.869141 -7.65607,-1.586335 -17.36864,-0.687148 -24.41797,2.59375 -7.04934,3.280898 -11.43411,8.944089 -14.97656,13.666016 -3.54246,4.721927 -6.24217,8.502529 -9.79688,12.167968 -3.55471,3.665438 -7.96286,7.214258 -11.14062,12.265628 -3.17777,5.05136 -5.12424,11.60314 -5.9961,18.27148 -0.87185,6.66834 -0.6708,13.45381 0.0918,22.21289 0.76259,8.75908 2.08709,19.49102 3.08008,27.81641 0.99298,8.32539 1.65508,14.24224 2.53711,18.53711 0.88202,4.29487 1.98261,6.96723 3.54296,9.49609 0.66197,1.07284 1.39461,2.15831 2.07422,3.39258 0.40165,-0.17524 0.746,-0.39971 1.00977,-0.39844 0.41481,0.002 0.64923,0.57903 0.98047,1.81055 0.33124,1.23152 0.76089,3.1174 1.31054,5.55664 0.54965,2.43924 1.21941,5.43284 1.87891,9.12305 0.6595,3.69021 1.31438,8.12325 1.87695,10.47461 0.56257,2.35136 1.04623,2.7151 1.28711,2.89648 0.24088,0.18138 0.24015,0.18149 0.15235,-1.71875 -0.0879,-1.90024 -0.26186,-5.70112 0.0332,-9.01562 0.29506,-3.31451 1.06039,-6.14078 1.60156,-9.64454 0.54117,-3.50375 0.85726,-7.6841 0.78516,-11.48437 -0.0721,-3.80028 -0.53185,-7.22084 -0.59375,-9.75391 -0.0619,-2.53307 0.27372,-4.17844 0.98633,-5.63086 0.71261,-1.45241 1.80117,-2.71051 3.07226,-3.52929 1.27109,-0.81878 2.82249,-1.22361 3.66016,-2.01367 0.83767,-0.79008 1.15828,-2.01907 0.95703,-3.88282 -0.20125,-1.86375 -0.94947,-4.4471 -1.74414,-7.50586 -0.79468,-3.05875 -1.71445,-6.88706 -1.91797,-10.63281 -0.20351,-3.74574 0.25609,-7.72916 1.98047,-12.52148 1.72438,-4.79232 4.72882,-10.52562 7.72656,-14.6211 2.99774,-4.09548 5.92224,-6.49811 9.18946,-7.71484 3.26721,-1.21672 6.74198,-1.13707 11.66796,0.42578 4.92597,1.56285 11.357,4.63476 16.17383,6.78125 4.81684,2.14648 8.12835,3.41839 11.47852,5.18359 3.35018,1.76521 6.73887,4.02427 9.76953,4.29883 3.03067,0.27455 5.70353,-1.43387 9.07812,-3.89648 3.37459,-2.46261 7.45078,-5.68003 10.83399,-7.99024 3.38322,-2.3102 6.07418,-3.71212 8.9043,-4.5625 2.83012,-0.85039 5.79802,-1.14919 9.27539,0.33399 3.47738,1.48319 7.46307,4.74641 11.02929,7.92383 3.56622,3.17743 6.7436,6.2972 8.60938,10.12109 1.86578,3.82389 2.48007,8.40913 2.72461,13.07227 0.24455,4.66313 0.11925,9.4042 1.1289,12.55078 1.00965,3.14658 3.15322,4.69854 4.30469,6.27539 1.15142,1.57686 1.31062,3.17783 2.19922,9.8789 0.8886,6.70107 2.5062,18.5029 3.5488,26.22071 1.0427,7.71781 1.528,11.48682 2.2696,12.45703 0.7415,0.97021 1.7748,-0.5899 2.4804,-2.21485 0.7056,-1.62495 1.166,-3.66678 1.166,-6.2207 0,-2.55391 -0.3031,-6.46197 0.1153,-9.11133 0.4184,-2.64936 1.5884,-4.39482 2.8886,-6.16797 1.3003,-1.77315 2.8908,-3.80006 4.3848,-4.73632 0.363,-0.22749 0.7273,-0.39399 1.0899,-0.51954 -0.03,-0.84089 -0.049,-1.67633 -0.016,-2.54687 0.141,-3.65842 1.1421,-7.93983 1.92,-12.65234 0.7778,-4.71252 1.3312,-9.8552 1.3984,-13.25782 0.067,-3.40261 -0.3522,-5.06489 0.2402,-7.08984 0.5925,-2.02495 2.1974,-4.41148 2.1485,-5.66016 -0.049,-1.24868 -1.7516,-1.36012 -1.1211,-3.32617 0.6304,-1.96604 3.5953,-5.78599 5.2265,-8.86133 1.6313,-3.07533 1.9289,-5.40631 0.5098,-6.24023 -1.4191,-0.83392 -4.5555,-0.17138 -5.918,-0.83984 -1.3625,-0.66847 -0.9496,-2.66815 -0.2461,-6.15821 0.7036,-3.49006 1.6986,-8.46988 0.9258,-12.53906 -0.7727,-4.06918 -3.3146,-7.22811 -4.8398,-10.05078 -1.5252,-2.82268 -2.0637,-5.45562 -2.8965,-8.23828 -0.8328,-2.78267 -1.9764,-5.788274 -3.7598,-9.332034 -1.7834,-3.543761 -4.2066,-7.625623 -7.039,-11.271485 -2.8325,-3.645862 -6.0726,-6.856761 -10.25785,-8.492187 -4.18527,-1.635427 -9.31684,-1.694738 -12.64258,-1.296875 -3.32574,0.397863 -4.84662,1.253203 -8.82422,-0.480469 -3.9776,-1.733672 -10.41162,-6.057888 -18.32226,-9.214844 -5.93299,-2.367717 -12.69674,-4.078189 -18.32227,-4.294922 z" />
      <path
         id="path10111"
         style="fill:#ffe6d5;stroke:#000000;stroke-width:1.97919;stroke-linecap:butt;stroke-linejoin:miter;stroke-miterlimit:4;stroke-dasharray:none;stroke-opacity:1"
         d="m 994.25,313.50781 c -0.82692,1.23556 -1.67471,2.4489 -2.55859,3.58594 -2.51777,3.23888 -5.26102,6.0416 -7.9336,8.50195 -2.67257,2.46035 -5.31907,4.61344 -7.49804,6.25391 -2.17896,1.64047 -3.97778,2.84033 -6.32813,4.49805 -2.35034,1.65772 -5.25192,3.77358 -8.28125,5.65234 -3.02932,1.87875 -6.22639,3.54098 -8.82617,4.26562 -2.59978,0.72464 -4.6808,0.55136 -6.4961,0.4043 -1.81527,-0.147 -3.36506,-0.26884 -5.27539,-0.0781 -1.91033,0.19072 -4.21637,0.70156 -6.68554,0.875 -2.46918,0.17344 -5.17004,0.025 -8.79492,-0.77344 -3.62488,-0.79841 -8.1687,-2.24633 -11.29297,-3.30078 -3.12426,-1.05444 -4.82986,-1.71481 -6.4668,-2.42969 -1.63695,-0.71488 -3.20595,-1.48339 -5.11719,-2.53711 -1.91125,-1.05371 -4.16445,-2.39347 -6.54101,-3.75195 -2.37655,-1.35849 -4.87594,-2.73576 -7.67578,-4.69727 -2.79984,-1.96152 -5.89886,-4.50729 -8.48438,-6.89453 -0.92529,-0.85433 -3.87528,-3.81179 -4.68305,-4.6472 -0.14536,2.75794 0.28305,7.81267 -0.10172,10.74095 -0.57646,4.38726 0.0424,8.85624 0.18125,13.69141 0.13884,4.83517 1.17124,10.12643 2.96485,15.83789 1.7936,5.71146 4.35101,11.85465 10,23.04101 5.64899,11.18636 14.26692,27.18745 21.91211,35.85157 7.64519,8.66412 14.25501,9.87946 20.58398,9.34765 6.32898,-0.5318 12.50857,-2.85995 20.0625,-7.11523 7.55393,-4.25528 16.8111,-10.64524 25.00196,-22.08008 8.19085,-11.43484 15.44807,-28.00525 19.01953,-38.04688 3.57145,-10.04162 3.45567,-13.55417 2.95312,-17.64453 -0.50254,-4.09035 -1.39242,-8.75679 -2.07812,-13.32031 -0.6857,-4.56352 -1.16633,-9.02274 -1.49024,-14.15625 -0.0224,-0.35436 -0.0486,-0.71526 -0.0703,-1.07422 z"
         sodipodi:nodetypes="csssssssssssssssscssssssssssssc" />
      <path
         style="fill:none;stroke:#000000;stroke-width:1.97919;stroke-linecap:butt;stroke-linejoin:miter;stroke-miterlimit:4;stroke-dasharray:none;stroke-opacity:1"
         d="m 1007.2726,231.37726 c 0.8708,1.0876 1.7838,2.22784 1.6639,3.511 -0.1198,1.28316 -1.2499,2.73704 -1.9079,4.3515 -0.6581,1.61446 -0.8443,3.3887 -0.4758,4.16809 0.3685,0.7794 1.2907,0.56499 2.564,-0.2226 1.2733,-0.78759 2.8982,-2.1484 4.1478,-4.29962 1.2496,-2.15121 2.1633,-5.2254 2.6814,-8.70915 0.518,-3.48375 0.6598,-7.44315 0.8016,-11.40359"
         id="path10254"
         inkscape:path-effect="#path-effect10256"
         inkscape:original-d="m 1007.2726,231.37726 c 0.8925,1.07023 1.7839,2.22773 2.6743,3.3401 -1.1291,1.45491 -2.2592,2.90877 -3.3902,4.36166 -0.1852,1.77531 -0.3713,3.54955 -0.5584,5.32283 0.9233,-0.21343 1.8455,-0.42785 2.7668,-0.64327 1.6259,-1.35985 3.2508,-2.72065 4.8747,-4.08248 0.8952,-2.93549 1.7893,-6.01552 2.6825,-9.02478 0.1428,-3.95855 0.2845,-7.91795 0.4253,-11.87843" />
      <path
         style="fill:none;stroke:#000000;stroke-width:1.97919;stroke-linecap:butt;stroke-linejoin:miter;stroke-miterlimit:4;stroke-dasharray:none;stroke-opacity:1"
         d="m 1013.6679,217.5823 c 1.1858,-2.33071 2.3502,-4.61935 3.5618,-6.54335 1.2116,-1.92399 2.4593,-3.46171 3.7966,-4.29818 1.3372,-0.83646 2.7629,-0.9714 3.7708,-0.22552 1.0078,0.74589 1.5983,2.37122 1.7381,4.45823 0.1399,2.087 -0.1702,4.63584 -0.6761,7.12243 -0.5059,2.48658 -1.2074,4.91099 -1.9295,7.11529 -0.7221,2.2043 -1.4647,4.1885 -2.0732,6.23115 -0.6084,2.04265 -1.0826,4.14349 -1.5566,6.24362"
         id="path10258"
         inkscape:path-effect="#path-effect10260"
         inkscape:original-d="m 1013.6679,217.5823 c 1.1762,-2.33559 2.3514,-4.61874 3.5256,-6.92961 1.2489,-1.53681 2.4966,-3.07457 3.7434,-4.61335 1.4267,-0.13394 2.8524,-0.26889 4.2771,-0.40483 0.5915,1.62642 1.1819,3.25177 1.7714,4.87615 -0.3092,2.54995 -0.6194,5.09879 -0.9305,7.64668 -0.7005,2.4255 -1.402,4.8499 -2.1045,7.27335 -0.7417,1.98526 -1.4844,3.96944 -2.228,5.95266 -0.4732,2.10192 -0.9474,4.20275 -1.4226,6.30262" />
      <path
         style="fill:none;stroke:#000000;stroke-width:1.97919;stroke-linecap:butt;stroke-linejoin:miter;stroke-miterlimit:4;stroke-dasharray:none;stroke-opacity:1"
         d="m 857.48217,241.73793 c -0.438,1.37314 -0.87581,2.74565 -0.79086,3.96828 0.0849,1.22262 0.69176,2.29476 1.51538,3.7739 0.82362,1.47913 1.86401,3.36515 2.36518,5.30669 0.50117,1.94153 0.46379,3.93866 -0.51951,3.89679 -0.9833,-0.0419 -2.91341,-2.12275 -4.60919,-4.10415 -1.69579,-1.98141 -3.22593,-3.952 -4.46335,-7.3832 -1.23743,-3.4312 -2.21587,-8.36716 -2.54545,-12.27202 -0.32957,-3.90487 -0.01,-6.77814 0.30979,-9.65236"
         id="path10262"
         inkscape:path-effect="#path-effect10264"
         inkscape:original-d="m 857.48217,241.73793 c -0.4368,1.37352 -0.87461,2.74603 -1.31341,4.11754 0.60783,1.07318 1.21464,2.14532 1.82046,3.21647 1.04143,1.88711 2.08182,3.77313 3.12123,5.65819 -0.0364,1.99822 -0.0738,3.99535 -0.11216,5.99153 -1.92919,-2.07997 -3.8593,-4.16086 -5.79046,-6.24279 -1.49475,-1.8542 -2.99045,-3.85154 -4.48718,-5.77881 -0.97748,-4.93517 -1.95593,-9.87113 -2.9354,-14.8082 0.32064,-2.87239 0.64027,-5.74566 0.95891,-8.62" />
      <path
         style="fill:none;stroke:#000000;stroke-width:1.97919;stroke-linecap:butt;stroke-linejoin:miter;stroke-miterlimit:4;stroke-dasharray:none;stroke-opacity:1"
         d="m 850.84762,220.43248 c -1.50052,-1.14478 -3.00217,-2.29042 -4.21993,-3.07939 -1.21776,-0.78898 -2.18252,-1.23524 -2.89363,-1.09106 -0.7111,0.14419 -1.18257,0.87199 -1.44781,2.06277 -0.26525,1.19078 -0.32437,2.84375 -0.0403,4.76454 0.28404,1.92079 0.91084,4.10905 1.56389,6.19191 0.65304,2.08287 1.33222,4.06022 1.89111,6.45433 0.5589,2.39411 1.0178,5.33348 1.46649,8.2075"
         id="path10266"
         inkscape:path-effect="#path-effect10268"
         inkscape:original-d="m 850.84762,220.43248 c -1.50064,-1.14463 -3.00228,-2.29027 -4.50492,-3.4369 -0.93788,-0.42043 -1.89773,-0.87729 -2.8481,-1.31743 -0.47048,0.72882 -0.94195,1.45662 -1.41443,2.18343 -0.0581,1.65404 -0.11726,3.30701 -0.17739,4.95901 0.62783,2.18935 1.25463,4.37761 1.88045,6.56491 0.6802,1.97842 1.35937,3.95577 2.03756,5.93215 0.48555,2.80478 0.89874,5.75128 1.34661,8.62543" />
      <path
         style="fill:none;stroke:#000000;stroke-width:1.97919;stroke-linecap:butt;stroke-linejoin:miter;stroke-miterlimit:4;stroke-dasharray:none;stroke-opacity:1"
         d="m 933.13228,361.8197 c 0.70332,3.14104 1.44011,6.43155 2.11213,8.26533 0.67202,1.83378 1.29523,2.28648 2.98776,2.60145 1.69252,0.31497 4.44876,0.4926 7.20677,0.67035"
         id="path14068"
         inkscape:path-effect="#path-effect14070"
         inkscape:original-d="m 933.13228,361.8197 c 0.61292,3.16128 1.44085,6.43139 2.15978,9.64558 0.62424,0.45371 1.24745,0.90641 1.86968,1.35811 2.76012,0.22198 5.51913,0.35663 8.2772,0.53344" />
    </g>
  </g>
</svg>
