<?xml version="1.0" encoding="UTF-8" standalone="no"?>
<!-- Created with Inkscape (http://www.inkscape.org/) -->

<svg
   width="56.0px"
   height="56.0px"
   viewBox="0 0 56.0 56.0"
   version="1.1"
   id="SVGRoot"
   sodipodi:docname="men-haircuats.svg"
   inkscape:version="1.1.2 (0a00cf5339, 2022-02-04)"
   xmlns:inkscape="http://www.inkscape.org/namespaces/inkscape"
   xmlns:sodipodi="http://sodipodi.sourceforge.net/DTD/sodipodi-0.dtd"
   xmlns="http://www.w3.org/2000/svg"
   xmlns:svg="http://www.w3.org/2000/svg">
  <sodipodi:namedview
     id="namedview123841"
     pagecolor="#ffffff"
     bordercolor="#666666"
     borderopacity="1.0"
     inkscape:pageshadow="2"
     inkscape:pageopacity="0.0"
     inkscape:pagecheckerboard="0"
     inkscape:document-units="px"
     showgrid="true"
     inkscape:zoom="7.1559841"
     inkscape:cx="47.372939"
     inkscape:cy="44.578076"
     inkscape:window-width="1920"
     inkscape:window-height="1003"
     inkscape:window-x="0"
     inkscape:window-y="40"
     inkscape:window-maximized="1"
     inkscape:current-layer="layer1">
    <inkscape:grid
       type="xygrid"
       id="grid123904" />
  </sodipodi:namedview>
  <defs
     id="defs123836" />
  <g
     inkscape:label="Layer 1"
     inkscape:groupmode="layer"
     id="layer1">
    <g
       id="g124020"
       transform="matrix(0.08908938,0,0,0.08908938,8.9786736,-2.412751)">
      <rect
         style="fill:#000000;fill-opacity:1;stroke:#000000;stroke-width:3.94889;stroke-opacity:1;stop-color:#000000"
         id="rect116099"
         width="395.14151"
         height="315.81491"
         x="15.937593"
         y="47.050125"
         rx="197.57076"
         ry="125.50992" />
      <rect
         style="fill:#ffffff;fill-opacity:1;stroke:none;stroke-width:3.77953;stroke-opacity:1;stop-color:#000000"
         id="rect113379"
         width="360.9567"
         height="573.34778"
         x="33.030014"
         y="67.754425"
         rx="154.5816"
         ry="159.683" />
      <path
         style="fill:#000000;fill-opacity:1;stroke:#000000;stroke-width:0.999999px;stroke-linecap:butt;stroke-linejoin:miter;stroke-opacity:1"
         d="m 254.41492,261.32169 1.0145,-13.90083 78.04033,-10.74955 25.40629,16.6145 -27.83369,-7.60471 z"
         id="path113552" />
      <path
         style="fill:#000000;fill-opacity:1;stroke:#000000;stroke-width:0.999999px;stroke-linecap:butt;stroke-linejoin:miter;stroke-opacity:1"
         d="m 172.60179,261.32169 -1.0145,-13.90083 -78.040324,-10.74955 -25.406287,16.6145 27.833688,-7.60471 z"
         id="path113843" />
      <path
         style="fill:#000000;fill-opacity:1;stroke:#000000;stroke-width:0.999999px;stroke-linecap:butt;stroke-linejoin:miter;stroke-opacity:1"
         d="m 213.29612,411.91655 c 0,0 17.48802,-10.37249 28.12932,-11.24662 38.50129,-3.16264 65.08128,46.15117 108.17458,47.12296 45.86646,-16.42658 43.74799,-162.96367 43.74799,-162.96367 0,0 31.34072,166.07804 1.44412,240.44225 -13.98946,34.79712 -47.87591,58.89365 -78.36499,80.73309 -30.93135,22.15623 -55.55391,52.17271 -103.13102,48.91642 4e-5,-33.27598 -0.33902,-130.57591 0,-166.85643 49.83368,-2.36292 55.9022,-5.61147 106.1969,-27.66671 -32.43519,-30.67548 -44.3777,-41.09174 -72.37882,-43.032 -12.19941,-0.84533 -33.81808,14.21964 -33.81808,14.21964 z"
         id="path114339"
         sodipodi:nodetypes="csccaacccacc" />
      <path
         id="rect116097"
         style="stroke:#ffffff;stroke-width:0.901202;stroke-opacity:1;stop-color:#000000"
         d="m 214.24557,27.532966 c 88.38312,0 150.55299,45.636284 170.01967,76.420954 l -17.4096,23.81541 c -21.62997,29.5886 -64.40341,66.71493 -152.78653,66.71493 -88.38312,0 -159.53628,-29.8721 -159.53628,-66.97784 V 112.6008 c 0,-37.10578 71.32963,-85.067834 159.71274,-85.067834 z"
         sodipodi:nodetypes="scsssss" />
      <path
         style="fill:#000000;fill-opacity:1;stroke:#000000;stroke-width:0.999999px;stroke-linecap:butt;stroke-linejoin:miter;stroke-opacity:1"
         d="m 213.29612,411.91655 c 0,0 -17.48803,-10.37249 -28.12932,-11.24662 C 146.6655,397.50729 120.08552,446.8211 76.992219,447.79289 31.125762,431.36631 33.244225,284.82922 33.244225,284.82922 c 0,0 -31.3407124,166.07804 -1.44412,240.44225 13.989468,34.79712 47.875919,58.89365 78.364985,80.73309 30.93136,22.15623 55.55392,52.17271 103.13103,48.91642 -4e-5,-33.27598 0.33902,-130.57591 0,-166.85643 -49.83368,-2.36292 -55.9022,-5.61147 -106.1969,-27.66671 32.43519,-30.67548 44.3777,-41.09174 72.37882,-43.032 12.19941,-0.84533 33.81808,14.21964 33.81808,14.21964 z"
         id="path118449"
         sodipodi:nodetypes="csccaacccacc" />
      <path
         id="path122141"
         style="stroke:none;stroke-width:1.43587;stop-color:#000000"
         d="m 380.27886,128.50543 -15.88316,3.55479 c -3.23097,0.72314 29.78702,31.95731 18.94855,53.62976 l -11.1772,22.34975 c -10.83851,21.67249 23.47548,76.78949 20.43439,87.67476 v 0 c 0,0 5.97634,-24.48945 5.97634,-43.73927 v -71.04593 c 0,-24.23153 -18.29892,-52.42386 -18.29892,-52.42386 z"
         sodipodi:nodetypes="cssscsssc" />
      <path
         id="path122504"
         style="stroke:none;stroke-width:1.43587;stop-color:#000000"
         d="m 46.46883,128.50543 15.883162,3.55479 c 3.230967,0.72314 -29.787024,31.95731 -18.948548,53.62976 l 11.177197,22.34975 c 10.838513,21.67249 -23.475478,76.78949 -20.434394,87.67476 v 0 c 0,0 -5.97634,-24.48945 -5.97634,-43.73927 v -71.04593 c 0,-24.23153 18.298923,-52.42386 18.298923,-52.42386 z"
         sodipodi:nodetypes="cssscsssc" />
      <path
         style="fill:#ffffff;fill-opacity:1;stroke:#000000;stroke-width:0.999999px;stroke-linecap:butt;stroke-linejoin:miter;stroke-opacity:1"
         d="m 93.126342,72.288167 c 0,0 55.582828,32.586293 71.073558,59.260423 7.92057,13.6388 15.2916,31.01102 8.30722,46.58075 -8.83189,-31.78322 -38.50507,-58.11576 -38.50507,-58.11576 z"
         id="path122736"
         sodipodi:nodetypes="caccc" />
    </g>
  </g>
</svg>
