<?xml version="1.0" encoding="UTF-8" standalone="no"?>
<!-- Created with Inkscape (http://www.inkscape.org/) -->

<svg
   width="110px"
   height="123px"
   viewBox="0 0 110 123"
   version="1.1"
   id="SVGRoot"
   sodipodi:docname="salon.svg"
   inkscape:version="1.1.2 (0a00cf5339, 2022-02-04)"
   xmlns:inkscape="http://www.inkscape.org/namespaces/inkscape"
   xmlns:sodipodi="http://sodipodi.sourceforge.net/DTD/sodipodi-0.dtd"
   xmlns="http://www.w3.org/2000/svg"
   xmlns:svg="http://www.w3.org/2000/svg">
  <sodipodi:namedview
     id="namedview914"
     pagecolor="#ffffff"
     bordercolor="#666666"
     borderopacity="1.0"
     inkscape:pageshadow="2"
     inkscape:pageopacity="0.0"
     inkscape:pagecheckerboard="0"
     inkscape:document-units="px"
     showgrid="false"
     inkscape:zoom="0.63250561"
     inkscape:cx="373.90972"
     inkscape:cy="284.58245"
     inkscape:window-width="1920"
     inkscape:window-height="1003"
     inkscape:window-x="0"
     inkscape:window-y="40"
     inkscape:window-maximized="1"
     inkscape:current-layer="layer1"
     showborder="false" />
  <defs
     id="defs909" />
  <g
     inkscape:label="Layer 1"
     inkscape:groupmode="layer"
     id="layer1">
    <path
       id="path1156"
       style="color:#000000;fill:#d4aa00;fill-rule:evenodd;stroke:#000000;stroke-width:0;stroke-miterlimit:4;stroke-dasharray:none;stroke-opacity:1"
       d="M 769.34386,0.00235466 C 745.02798,0.1055953 720.2919,3.7409617 695.77604,11.415119 598.66092,41.814966 533.0836,136.53531 569.6122,226.8699 596.72816,293.92732 680.8173,339.23422 761.16956,313.73102 820.83288,294.79446 861.14568,236.34126 838.1773,180.33714 821.10094,138.69967 768.66162,110.55431 718.20886,126.8 c -37.60282,12.10792 -63.04832,49.10715 -48.15756,84.88552 11.14028,26.76698 45.0252,44.89846 77.98784,34.124 24.78752,-8.10222 41.59656,-32.63818 31.43924,-56.67198 -7.68722,-18.18914 -30.85918,-30.52142 -53.74262,-22.9235 -12.25408,4.06873 -21.31172,13.95996 -23.30204,25.42158 -0.49428,-14.95851 11.06832,-29.70524 28.03642,-35.16896 29.96116,-9.64738 63.19574,8.16714 74.04864,34.63016 15.5515,37.91938 -13.02068,79.41514 -55.4625,92.88588 C 689.18114,302.98652 624.28244,268.08174 603.3261,216.25716 574.1055,143.99497 627.89364,66.168648 707.72286,41.179748 818.01072,6.6564357 936.1696,70.470272 973.9209,165.10379 c 51.7606,129.75145 -44.3567,268.20841 -186.86014,312.22655 -23.31,7.20026 -47.57428,12.04354 -72.16228,14.48228 l 0.42514,3.37976 c -63.07084,-0.0418 -126.9219,18.99146 -177.48376,54.90866 -3.3206,2.35882 -6.4824,4.81702 -9.65368,7.26564 C 555.4796,426.12616 482.77276,282.92432 331.59844,237.18872 269.16124,218.29922 200.17488,221.1188 141.20605,243.1645 82.23726,265.21022 33.30227,306.4708 10.955106,364.44352 c -33.196554,86.11816 10.327246,190.2837 113.255254,220.98972 76.40586,22.79378 168.80382,-7.37346 195.959,-78.84442 20.16324,-53.06854 -6.78258,-117.24166 -70.79386,-136.0552 -47.59056,-13.98738 -105.12176,4.89224 -121.96575,49.91246 -12.55398,33.55388 4.55841,74.12728 45.58692,85.99578 30.69481,8.8792 67.80989,-3.35394 78.67207,-32.8668 8.16812,-22.1934 -3.20952,-49.05136 -30.86588,-56.91686 -20.9308,-5.95278 -46.26986,2.44332 -53.70567,23.0051 -3.98187,11.0109 -0.79576,23.4348 8.15572,31.91984 -13.59974,-8.93246 -19.5352,-26.08536 -13.87026,-41.22636 10.00272,-26.73508 46.42811,-38.71976 76.67475,-29.82996 43.34088,12.73832 62.51928,58.25364 48.176,96.00436 -20.23482,53.25714 -91.50752,76.57372 -150.55697,58.95784 C 53.340384,530.92604 17.54792,445.40508 44.835704,374.61542 82.535108,276.81608 212.49648,234.54312 320.00308,267.06766 c 147.4015,44.5942 210.85168,197.03382 161.61622,323.03516 -8.05366,20.61068 -18.78708,40.41416 -31.86466,58.95786 l 1.25764,0.68546 c -51.82926,102.6861 -30.34652,230.24578 52.1706,320.40646 18.26174,19.9533 39.08306,38.0166 61.87986,53.8474 L 587.1811,999.16624 C 566.46034,984.77698 547.55492,968.36976 531.01582,950.29864 429.87384,839.78792 430.80386,666.69182 560.27288,574.7223 c 94.48904,-67.12122 242.30784,-66.3941 320.4398,19.707 56.60492,62.37844 55.88538,159.84002 -16.81074,211.03008 -52.20224,36.75892 -133.63452,36.22324 -176.07824,-10.97194 -30.14134,-33.51558 -29.64716,-85.72852 8.95092,-112.6582 27.01162,-18.84588 69.00026,-18.49128 90.36008,5.48596 14.64344,16.43794 14.34944,41.9474 -4.0316,54.64742 -0.71206,0.49154 -1.72446,0.26918 -2.47816,0.7022 13.66058,-11.92926 13.7546,-30.54552 2.86656,-43.02234 -15.43256,-17.6845 -43.47316,-17.97106 -61.49146,-5.64922 -23.8607,16.31712 -24.22392,46.14672 -7.3235,65.3091 22.51936,25.5333 63.89954,25.88598 90.47106,7.52688 35.57926,-24.58282 36.04692,-69.9328 10.11606,-99.0413 -34.84382,-39.11358 -99.32778,-39.5956 -140.68146,-10.74332 -55.6908,38.8551 -56.31574,110.91576 -14.79492,157.08472 55.97456,62.2408 159.91162,62.87788 226.4366,16.03338 89.6886,-63.15558 90.48606,-180.47424 22.41426,-255.48924 C 878.78332,541.77358 840.57328,519.5749 798.8967,507.1602 958.7472,457.78366 1066.6367,302.4332 1007.6719,154.62159 985.74684,99.66074 940.45384,53.614076 884.30048,26.43613 849.20462,9.4499187 809.87024,-0.16977716 769.34386,0.00227106 Z M 735.53734,198.81962 c -8e-5,-1.6e-4 4.15196,0.0653 8.26672,0.1307 0.68932,0.67177 1.7538,0.34122 2.12676,1.22454 0.62968,1.49006 -0.41,3.08016 -0.66564,4.6696 -1.32252,1.31478 -2.4295,2.878 -4.27202,3.51038 -1.34958,0.4632 -2.35896,-0.102 -3.60628,-0.0494 l 0.72152,3.7226 -0.7395,-3.70628 c -4.82312,0.20264 -8.98368,-1.62124 -10.4859,-5.06146 -0.1118,-0.25554 0.0852,-0.42022 0,-0.66942 4.29892,-1.88036 8.655,-3.77161 8.655,-3.77161 z M 209.15202,446.7167 c 0.1942,-0.0502 0.41188,-0.0586 0.66574,0.016 1.7146,0.48738 2.4814,2.20124 3.73572,3.36348 0.34844,1.73126 1.0425,3.45834 0.46208,5.12676 -0.42516,1.222 -1.54882,1.58462 -2.27478,2.4817 l 3.7358,1.79604 -3.7358,-1.77966 c -2.81032,3.46646 -6.99646,5.22314 -10.98518,4.1308 -0.29638,-0.0836 -0.33614,-0.31182 -0.61074,-0.40796 0.99432,-4.14358 2.0159,-8.34326 2.0159,-8.34326 -2e-4,0 2.62502,-2.83906 5.23368,-5.64924 0.7679,-0.0418 1.17344,-0.58848 1.75692,-0.7348 z m 535.78014,272.19208 c 0.32004,0.0836 0.65524,0.1856 1.01712,0.0502 4.34798,2.28458 8.93266,4.68578 8.93246,4.68586 0,0 2.40678,3.41406 4.80842,6.82484 -0.26038,0.21484 -0.195,0.48234 -0.499,0.68548 -3.14948,2.10594 -7.51612,1.73386 -11.3181,-0.52248 -1.0321,-0.61274 -2.21446,-0.64034 -3.08842,-1.66538 -1.75344,-2.0567 -2.49768,-4.69974 -2.25622,-7.33094 0.5331,-0.6445 0.43746,-1.62734 1.1281,-2.15516 0.0662,-0.1788 0.25756,-0.32854 0.33236,-0.50576 0.32004,-0.214 0.62398,-0.1488 0.94308,-0.0668 z" />
  </g>
</svg>
