<?xml version="1.0" encoding="UTF-8" standalone="no"?>
<!-- Created with Inkscape (http://www.inkscape.org/) -->

<svg
   width="110px"
   height="123px"
   viewBox="0 0 110 123"
   version="1.1"
   id="SVGRoot"
   sodipodi:docname="salon.svg"
   inkscape:version="1.1.2 (0a00cf5339, 2022-02-04)"
   xmlns:inkscape="http://www.inkscape.org/namespaces/inkscape"
   xmlns:sodipodi="http://sodipodi.sourceforge.net/DTD/sodipodi-0.dtd"
   xmlns="http://www.w3.org/2000/svg"
   xmlns:svg="http://www.w3.org/2000/svg">
  <sodipodi:namedview
     id="namedview914"
     pagecolor="#ffffff"
     bordercolor="#666666"
     borderopacity="1.0"
     inkscape:pageshadow="2"
     inkscape:pageopacity="0.0"
     inkscape:pagecheckerboard="0"
     inkscape:document-units="px"
     showgrid="false"
     inkscape:zoom="5.0600449"
     inkscape:cx="80.038816"
     inkscape:cy="66.00732"
     inkscape:window-width="1920"
     inkscape:window-height="1003"
     inkscape:window-x="0"
     inkscape:window-y="40"
     inkscape:window-maximized="1"
     inkscape:current-layer="layer1" />
  <defs
     id="defs909" />
  <g
     inkscape:label="Layer 1"
     inkscape:groupmode="layer"
     id="layer1">
    <path
       id="path1156"
       style="color:#000000;fill:#d4aa00;fill-rule:evenodd;stroke:#000000;stroke-width:0;stroke-miterlimit:4;stroke-dasharray:none;stroke-opacity:1"
       d="m 82.150675,0.30028191 c -2.568008,0.01235 -5.180395,0.447225 -7.769523,1.36523399 C 64.124791,5.3020499 57.199147,16.632822 61.056944,27.438954 63.920672,35.460595 72.801354,40.88036 81.287386,37.829579 87.58845,35.564324 91.845898,28.571953 89.420199,21.872548 87.61676,16.891731 82.078625,13.524887 76.75029,15.468251 c -3.971246,1.448391 -6.658554,5.874366 -5.085936,10.154297 1.176529,3.201956 4.755126,5.370908 8.236323,4.082031 2.617818,-0.969217 4.393027,-3.904291 3.320308,-6.779297 -0.81185,-2.175848 -3.259048,-3.651077 -5.675776,-2.742188 -1.294158,0.486716 -2.250738,1.669938 -2.460937,3.041016 -0.0522,-1.789388 1.168929,-3.553442 2.960937,-4.207031 3.164208,-1.154053 6.674124,0.976981 7.820303,4.142578 1.642399,4.536047 -1.375119,9.499913 -5.857415,11.111328 -6.323435,2.273303 -13.177408,-1.902127 -15.390616,-8.101562 -3.085998,-8.64425 2.594587,-17.9541021 11.02538,-20.9433601 11.64754,-4.129797 24.12634,3.503833 28.113269,14.8242191 5.46645,15.521313 -4.684528,32.08401 -19.734367,37.34961 -2.461777,0.86132 -5.024335,1.44069 -7.621083,1.73242 l 0.0449,0.4043 c -6.660934,-0.005 -13.404267,2.27182 -18.744123,6.56836 -0.350689,0.28217 -0.684609,0.57623 -1.019529,0.86914 C 59.564396,51.274672 51.885802,34.144377 35.920227,28.673329 29.326213,26.413703 22.040539,26.75099 15.812821,29.388173 9.5851059,32.025356 4.4170645,36.961087 2.0569726,43.895985 -1.4489272,54.197732 3.1476367,66.658372 14.0179,70.331532 c 8.069249,2.72667 17.82743,-0.88204 20.695298,-9.43164 2.129448,-6.34824 -0.71631,-14.02485 -7.476564,-16.275391 -5.026055,-1.673217 -11.101946,0.585227 -12.880845,5.970701 -1.325831,4.01383 0.481415,8.86736 4.81445,10.28711 3.24169,1.06216 7.161426,-0.40121 8.308585,-3.93164 0.862639,-2.65485 -0.338959,-5.86769 -3.259757,-6.80859 -2.210508,-0.71209 -4.886575,0.29228 -5.671874,2.75195 -0.420527,1.31716 -0.08404,2.80335 0.861328,3.81836 -1.436273,-1.06853 -2.063119,-3.12042 -1.464843,-4.93164 1.056391,-3.19814 4.90329,-4.63179 8.097647,-3.56836 4.577247,1.5238 6.602684,6.9685 5.087886,11.48437 -2.137008,6.3708 -9.664142,9.16001 -15.900375,7.05274 C 6.5332967,63.811192 2.753242,53.580882 5.6351144,45.112782 9.6165618,33.413689 23.341828,28.356852 34.695638,32.247548 c 15.567125,5.334514 22.26812,23.569864 17.068345,38.642574 -0.85055,2.46552 -1.984109,4.83448 -3.365237,7.05274 l 0.13282,0.082 c -5.473706,12.28366 -3.204908,27.542788 5.509754,38.328118 1.928629,2.38688 4.127577,4.54767 6.535154,6.44141 l 2.335928,-2.9707 c -2.188327,-1.72129 -4.184935,-3.68398 -5.931635,-5.84571 -10.68164,-13.21967 -10.58342,-33.926018 3.089848,-44.927728 9.979021,-8.02927 25.590217,-7.94229 33.841761,2.35742 5.978065,7.46192 5.902074,19.12061 -1.775389,25.24414 -5.513096,4.397228 -14.113188,4.333148 -18.595684,-1.3125 -3.183238,-4.00925 -3.131047,-10.25514 0.945309,-13.47656 2.852708,-2.25441 7.287143,-2.21199 9.542961,0.65625 1.546499,1.96636 1.51545,5.01789 -0.425779,6.53711 -0.0752,0.0588 -0.18212,0.0322 -0.261719,0.084 1.442698,-1.42702 1.452628,-3.65396 0.302738,-5.14648 -1.629838,-2.11548 -4.591215,-2.14976 -6.494134,-0.67578 -2.519937,1.95191 -2.558297,5.52023 -0.773439,7.8125 2.378278,3.05438 6.748454,3.09657 9.554681,0.90039 3.757539,-2.94068 3.806929,-8.3656 1.06836,-11.84766 -3.679866,-4.6789 -10.490041,-4.73656 -14.857417,-1.28515 -5.881525,4.64798 -5.947525,13.26812 -1.562498,18.79101 5.911494,7.445458 16.888324,7.521668 23.914049,1.91797 9.472045,-7.55489 9.556265,-21.58895 2.367178,-30.5625 -3.152978,-3.9356 -7.188353,-6.59108 -11.589831,-8.07617 C 102.15363,55.061652 113.54788,36.478096 107.32058,18.796366 105.00507,12.22176 100.22166,6.7134999 94.291285,3.4623809 90.584799,1.4304319 86.430682,0.27969091 82.150675,0.30027191 Z M 78.580358,24.083485 c -1e-5,-1.9e-5 0.43849,0.0078 0.87305,0.01563 0.0728,0.08036 0.185219,0.04082 0.224609,0.146484 0.0665,0.178246 -0.0433,0.368459 -0.0703,0.558594 -0.13967,0.157279 -0.256579,0.344277 -0.451169,0.419922 -0.14253,0.05541 -0.24913,-0.01219 -0.38086,-0.0059 l 0.0762,0.445312 -0.0781,-0.443359 c -0.50937,0.02424 -0.948769,-0.193938 -1.107419,-0.605469 -0.0118,-0.03057 0.009,-0.05027 0,-0.08008 0.45401,-0.224932 0.914059,-0.451172 0.914059,-0.451172 z m -55.59174,29.654297 c 0.0205,-0.006 0.0435,-0.007 0.07031,0.002 0.18108,0.0583 0.26206,0.26332 0.39453,0.40235 0.0368,0.2071 0.1101,0.4137 0.0488,0.61328 -0.0449,0.14618 -0.16357,0.18956 -0.24024,0.29687 l 0.39454,0.21485 -0.39454,-0.21289 c -0.296799,0.41467 -0.738899,0.62481 -1.160149,0.49414 -0.0313,-0.01 -0.0355,-0.0373 -0.0645,-0.0488 0.10501,-0.49567 0.212899,-0.99805 0.212899,-0.99805 -2e-5,0 0.277231,-0.33962 0.552731,-0.67578 0.0811,-0.005 0.123929,-0.0704 0.185549,-0.0879 z m 56.58393,32.56055 c 0.0338,0.01 0.0692,0.0222 0.107419,0.006 0.45919,0.27329 0.94338,0.56053 0.94336,0.56054 0,0 0.25418,0.4084 0.507819,0.81641 -0.0275,0.0257 -0.0206,0.0577 -0.0527,0.082 -0.332619,0.25192 -0.79378,0.20741 -1.195309,-0.0625 -0.109,-0.0733 -0.233869,-0.0766 -0.32617,-0.19922 -0.18518,-0.24603 -0.263779,-0.5622 -0.238279,-0.87695 0.0563,-0.0771 0.0462,-0.19467 0.119139,-0.25781 0.007,-0.0214 0.0272,-0.0393 0.0351,-0.0605 0.0338,-0.0256 0.0659,-0.0178 0.0996,-0.008 z" />
  </g>
</svg>
