<?xml version="1.0" encoding="UTF-8" standalone="no"?>
<!-- Created with Inkscape (http://www.inkscape.org/) -->

<svg
   width="120"
   height="120"
   viewBox="0 0 120 120"
   version="1.1"
   id="SVGRoot"
   sodipodi:docname="salon_120x120.svg"
   inkscape:version="1.1.2 (0a00cf5339, 2022-02-04)"
   xmlns:inkscape="http://www.inkscape.org/namespaces/inkscape"
   xmlns:sodipodi="http://sodipodi.sourceforge.net/DTD/sodipodi-0.dtd"
   xmlns="http://www.w3.org/2000/svg"
   xmlns:svg="http://www.w3.org/2000/svg">
  <sodipodi:namedview
     id="namedview914"
     pagecolor="#ffffff"
     bordercolor="#666666"
     borderopacity="1.0"
     inkscape:pageshadow="2"
     inkscape:pageopacity="0.0"
     inkscape:pagecheckerboard="0"
     inkscape:document-units="px"
     showgrid="false"
     inkscape:zoom="5.0600449"
     inkscape:cx="79.149495"
     inkscape:cy="65.612066"
     inkscape:window-width="1920"
     inkscape:window-height="1003"
     inkscape:window-x="0"
     inkscape:window-y="40"
     inkscape:window-maximized="1"
     inkscape:current-layer="layer1"
     fit-margin-top="0"
     fit-margin-left="0"
     fit-margin-right="0"
     fit-margin-bottom="0" />
  <defs
     id="defs909" />
  <g
     inkscape:label="Layer 1"
     inkscape:groupmode="layer"
     id="layer1"
     transform="translate(-0.90000001,-0.30000002)">
    <path
       id="path1156"
       style="color:#000000;fill:#000000;fill-rule:evenodd;stroke:#000000;stroke-width:0;stroke-miterlimit:4;stroke-dasharray:none;stroke-opacity:1"
       d="M 91.057483,0.3002762 C 88.207966,0.31237472 85.309206,0.73839422 82.436254,1.6377095 71.055577,5.2001916 63.370735,16.300232 67.651429,26.886315 c 3.177653,7.858293 13.031848,13.167694 22.44813,10.179038 6.991795,-2.219128 11.715951,-9.069111 9.024343,-15.632093 -2.001135,-4.879391 -8.146368,-8.177675 -14.058802,-6.273885 -4.406579,1.418898 -7.388473,5.754745 -5.643463,9.947522 1.305502,3.136753 5.276389,5.261539 9.1392,3.998907 2.904787,-0.949481 4.874596,-3.824786 3.684284,-6.641247 -0.900846,-2.131541 -3.616309,-3.576729 -6.297962,-2.686349 -1.436025,0.476805 -2.497467,1.635933 -2.730708,2.979092 -0.05792,-1.752951 1.297069,-3.481083 3.285519,-4.121363 3.511073,-1.130553 7.40575,0.957087 8.677575,4.058222 1.822441,4.443678 -1.525861,9.306463 -6.499513,10.885064 C 81.663414,35.806234 74.058099,31.71583 71.602277,25.642636 68.177987,17.174412 74.481286,8.0541388 83.836273,5.125752 96.760632,1.0800513 110.60738,8.5582354 115.03136,19.648101 c 6.06569,15.205247 -5.19806,31.430673 -21.897678,36.589048 -2.73164,0.843781 -5.575109,1.411353 -8.456516,1.697142 l 0.04982,0.396068 c -7.391115,-0.0049 -14.873661,2.225558 -20.798879,6.434606 -0.389132,0.276424 -0.759657,0.564496 -1.131291,0.851441 C 65.995266,50.236659 57.474934,33.455193 39.759191,28.095554 32.442332,25.881941 24.357993,26.21236 17.447584,28.795841 10.537179,31.379323 4.8026098,36.214545 2.1838015,43.008226 c -3.8902212,10.091969 1.2102241,22.29887 13.2721005,25.897232 8.953811,2.671146 19.781696,-0.864079 22.963944,-9.239581 2.362881,-6.218968 -0.794833,-13.739257 -8.296155,-15.94397 -5.577018,-1.639144 -12.318956,0.57331 -14.29286,5.849118 -1.471171,3.932095 0.534188,8.686791 5.342216,10.07763 3.597048,1.040531 7.946471,-0.39304 9.219383,-3.851579 0.957203,-2.600788 -0.376116,-5.748204 -3.617096,-6.669944 -2.452827,-0.69759 -5.422248,0.286328 -6.293632,2.695911 -0.466626,1.290339 -0.09325,2.746265 0.955748,3.740606 -1.593719,-1.046772 -2.289281,-3.056878 -1.625421,-4.831216 1.172194,-3.133014 5.440795,-4.537471 8.985322,-3.495696 5.079011,1.49277 7.326479,6.826598 5.645627,11.250511 -2.37127,6.241068 -10.723539,8.973481 -17.643396,6.909122 C 7.1508262,62.517894 2.9563969,52.495907 6.154184,44.200245 10.572083,32.739385 25.801931,27.785522 38.400361,31.59699 c 17.273614,5.225886 24.709181,23.089904 18.9394,37.855684 -0.943789,2.415313 -2.20161,4.736033 -3.734139,6.909122 l 0.14738,0.08033 c -6.073741,12.033526 -3.556234,26.981924 6.113741,37.547624 2.140047,2.33829 4.580047,4.45507 7.251546,6.31025 l 2.591995,-2.91021 C 67.28207,115.70356 65.066591,113.78083 63.128416,111.66312 51.27584,98.712642 51.384827,78.427949 66.556977,67.65027 c 11.072935,-7.865768 28.395451,-7.780559 37.551543,2.309415 6.63339,7.309971 6.54906,18.731253 -1.97001,24.730088 -6.117451,4.307679 -15.660297,4.244908 -20.63417,-1.285775 -3.532189,-3.927609 -3.474277,-10.046312 1.048935,-13.202133 3.165426,-2.208502 8.085969,-2.166946 10.589073,0.642887 1.716028,1.926318 1.681576,4.915709 -0.472453,6.403993 -0.08344,0.05761 -0.202085,0.03154 -0.290409,0.08229 1.600848,-1.397962 1.611867,-3.579554 0.335924,-5.041681 -1.808503,-2.072402 -5.09451,-2.105984 -7.20603,-0.662019 -2.796175,1.912163 -2.838741,5.40782 -0.858224,7.653412 2.638988,2.992178 7.488229,3.033514 10.602078,0.882053 4.169445,-2.880796 4.22425,-8.195247 1.185475,-11.606401 -4.083258,-4.583622 -11.639973,-4.640108 -16.486107,-1.25898 -6.526266,4.553332 -6.599501,12.997934 -1.733781,18.408362 6.55952,7.293849 18.739645,7.368499 26.535539,1.878914 10.51038,-7.40105 10.60384,-21.149329 2.62667,-29.940148 C 103.88242,63.78909 99.404681,61.187684 94.520707,59.732836 113.25319,53.946524 125.89649,35.74139 118.98655,18.419718 116.41721,11.978993 111.10943,6.5828998 104.52896,3.3979844 100.41617,1.4074126 95.80667,0.2801045 91.057483,0.30026641 Z m -3.9617,23.2988978 c -1.1e-5,-1.8e-5 0.486558,0.0077 0.968755,0.01531 0.08078,0.07872 0.205523,0.03998 0.249231,0.143501 0.07379,0.174616 -0.04805,0.360956 -0.07801,0.547219 -0.154981,0.154077 -0.284705,0.337267 -0.500627,0.411371 -0.158154,0.05428 -0.276439,-0.01195 -0.42261,-0.0057 l 0.08455,0.436244 -0.08666,-0.434331 c -0.565208,0.02375 -1.052775,-0.189989 -1.228816,-0.59314 -0.01309,-0.02995 0.01,-0.04924 0,-0.07845 0.503779,-0.220352 1.014259,-0.441985 1.014259,-0.441985 z M 25.410002,52.649612 c 0.02275,-0.0059 0.04827,-0.0069 0.07802,0.0019 0.200931,0.05711 0.290788,0.257958 0.437779,0.394157 0.04083,0.202883 0.12217,0.405276 0.05415,0.600792 -0.04982,0.143203 -0.181501,0.1857 -0.266576,0.290824 l 0.43779,0.210476 -0.43779,-0.208556 c -0.329334,0.406226 -0.819898,0.612087 -1.287326,0.484079 -0.03473,-0.0098 -0.03939,-0.03654 -0.07157,-0.04781 0.116521,-0.485577 0.236237,-0.977727 0.236237,-0.977727 -2.2e-5,0 0.307621,-0.332704 0.613322,-0.662018 0.08999,-0.0049 0.137514,-0.06897 0.205889,-0.08611 z m 62.786736,31.897509 c 0.03751,0.0098 0.07679,0.02174 0.119194,0.0059 0.509527,0.267725 1.046795,0.549116 1.046773,0.549125 0,0 0.282043,0.400084 0.563487,0.799786 -0.03051,0.02518 -0.02286,0.05653 -0.05848,0.08033 -0.369082,0.24679 -0.880796,0.203187 -1.326341,-0.06123 -0.120949,-0.07181 -0.259506,-0.07504 -0.361925,-0.195164 -0.20548,-0.24102 -0.292695,-0.550751 -0.2644,-0.859093 0.06247,-0.07553 0.05127,-0.190706 0.1322,-0.252559 0.0078,-0.02097 0.03018,-0.0385 0.03895,-0.05927 0.03751,-0.02508 0.07312,-0.01744 0.110519,-0.0079 z" />
  </g>
</svg>
