<?xml version="1.0" encoding="UTF-8" standalone="no"?>
<!-- Created with Inkscape (http://www.inkscape.org/) -->

<svg
   width="110px"
   height="123px"
   viewBox="0 0 110 123"
   version="1.1"
   id="SVGRoot"
   sodipodi:docname="salon.svg"
   inkscape:version="1.1.2 (0a00cf5339, 2022-02-04)"
   xmlns:inkscape="http://www.inkscape.org/namespaces/inkscape"
   xmlns:sodipodi="http://sodipodi.sourceforge.net/DTD/sodipodi-0.dtd"
   xmlns="http://www.w3.org/2000/svg"
   xmlns:svg="http://www.w3.org/2000/svg">
  <sodipodi:namedview
     id="namedview914"
     pagecolor="#ffffff"
     bordercolor="#666666"
     borderopacity="1.0"
     inkscape:pageshadow="2"
     inkscape:pageopacity="0.0"
     inkscape:pagecheckerboard="0"
     inkscape:document-units="px"
     showgrid="false"
     inkscape:zoom="0.63250561"
     inkscape:cx="-193.67417"
     inkscape:cy="162.8444"
     inkscape:window-width="1920"
     inkscape:window-height="1003"
     inkscape:window-x="0"
     inkscape:window-y="40"
     inkscape:window-maximized="1"
     inkscape:current-layer="layer1"
     showborder="false" />
  <defs
     id="defs909" />
  <g
     inkscape:label="Layer 1"
     inkscape:groupmode="layer"
     id="layer1">
    <path
       id="path1156"
       style="color:#000000;fill:#d4aa00;fill-rule:evenodd;stroke:#000000;stroke-width:0;stroke-miterlimit:4;stroke-dasharray:none;stroke-opacity:1"
       d="M 384.67193,0.00117799 C 372.51399,0.05279831 360.14595,1.8704815 347.88802,5.7075603 299.33046,20.907484 266.5418,68.267656 284.8061,113.43495 c 13.55798,33.52871 55.60255,56.18216 95.77868,43.43056 29.83166,-9.46828 49.98806,-38.69488 38.50387,-66.696939 -8.53818,-20.818735 -34.75784,-34.891415 -59.98422,-26.76857 -18.80141,6.05396 -31.52416,24.553575 -24.07878,42.442759 5.57014,13.38349 22.5126,22.44923 38.99392,17.062 12.39376,-4.05111 20.79828,-16.31909 15.71962,-28.335989 -3.84361,-9.09457 -15.42959,-15.26071 -26.87131,-11.46175 -6.12704,2.034365 -10.65586,6.97998 -11.65102,12.71079 -0.24714,-7.479255 5.53416,-14.85262 14.01821,-17.58448 14.98058,-4.82369 31.59787,4.08357 37.02432,17.31508 7.77575,18.959689 -6.51034,39.707569 -27.73125,46.442939 -29.93757,9.50191 -62.38692,-7.95048 -72.86509,-33.86277 -14.6103,-36.131094 12.28377,-75.044255 52.19838,-87.538705 55.14393,-17.2616565 114.22337,14.645262 133.09902,61.962021 25.8803,64.875724 -22.17835,134.104204 -93.43007,156.113274 -11.655,3.60013 -23.78714,6.02177 -36.08114,7.24114 l 0.21257,1.68988 c -31.53542,-0.0209 -63.46095,9.49573 -88.74188,27.45433 -1.6603,1.17941 -3.2412,2.40851 -4.82684,3.63282 13.64671,-65.62026 -22.70671,-137.22118 -98.29387,-160.08898 -31.2186,-9.44475 -65.71178,-8.03496 -95.196196,2.98789 -29.484394,11.02286 -53.951889,31.65315 -65.125471,60.63951 -16.598277,43.05908 5.163623,95.14185 56.627626,110.49486 38.202931,11.39689 84.401911,-3.68673 97.979501,-39.42221 10.08162,-26.53427 -3.39129,-58.62083 -35.39693,-68.0276 -23.79528,-6.99369 -52.560881,2.44612 -60.982876,24.95623 -6.27699,16.77694 2.279205,37.06364 22.79346,42.99789 15.347406,4.4396 33.904946,-1.67697 39.336036,-16.4334 4.08406,-11.0967 -1.60476,-24.52568 -15.43294,-28.45843 -10.465401,-2.97639 -23.134931,1.22166 -26.852836,11.50255 -1.990935,5.50545 -0.39788,11.7174 4.07786,15.95992 -6.79987,-4.46623 -9.7676,-13.04268 -6.93513,-20.61318 5.00136,-13.36754 23.214056,-19.35988 38.337376,-14.91498 21.67044,6.36916 31.25964,29.12682 24.088,48.00218 -10.11741,26.62857 -45.753761,38.28686 -75.278486,29.47892 -41.168022,-12.28149 -59.0642541,-55.04197 -45.420362,-90.4368 18.849702,-48.89967 83.830388,-70.03615 137.583688,-53.77388 73.70075,22.2971 105.42584,98.51691 80.80811,161.51758 -4.02683,10.30534 -9.39354,20.20708 -15.93233,29.47893 l 0.62882,0.34273 c -25.91463,51.34305 -15.17326,115.12289 26.0853,160.20323 9.13087,9.97665 19.54153,19.0083 30.93993,26.9237 l 11.05918,-12.41688 c -10.36038,-7.19463 -19.81309,-15.39824 -28.08264,-24.4338 -50.57099,-55.25536 -50.10598,-141.80341 14.62853,-187.78817 47.24452,-33.56061 121.15392,-33.19705 160.2199,9.8535 28.30246,31.18922 27.94269,79.92001 -8.40537,105.51504 -26.10112,18.37946 -66.81726,18.11162 -88.03912,-5.48597 -15.07067,-16.75779 -14.82358,-42.86426 4.47546,-56.3291 13.50581,-9.42294 34.50013,-9.24564 45.18004,2.74298 7.32172,8.21897 7.17472,20.9737 -2.0158,27.32371 -0.35603,0.24577 -0.86223,0.13459 -1.23908,0.3511 6.83029,-5.96463 6.8773,-15.27276 1.43328,-21.51117 -7.71628,-8.84225 -21.73658,-8.98553 -30.74573,-2.82461 -11.93035,8.15856 -12.11196,23.07336 -3.66175,32.65455 11.25968,12.76665 31.94977,12.94299 45.23553,3.76344 17.78963,-12.29141 18.02346,-34.9664 5.05803,-49.52065 -17.42191,-19.55679 -49.66389,-19.7978 -70.34073,-5.37166 -27.8454,19.42755 -28.15787,55.45788 -7.39746,78.54236 27.98728,31.1204 79.95581,31.43894 113.2183,8.01669 44.8443,-31.57779 45.24303,-90.23712 11.20713,-127.74462 C 439.39166,270.88679 420.28664,259.78745 399.44835,253.5801 479.3736,228.89183 533.31834,151.2166 503.83595,77.310796 492.87342,49.830371 470.22692,26.807039 442.15024,13.218066 424.60231,4.72496 404.93512,-0.08488792 384.67193,0.00113619 Z M 367.76867,99.409811 c -4e-5,-8e-5 2.07598,0.03265 4.13336,0.06535 0.34466,0.335885 0.8769,0.17061 1.06338,0.612269 0.31484,0.74503 -0.205,1.54008 -0.33282,2.3348 -0.66126,0.65739 -1.21475,1.439 -2.13601,1.75519 -0.67479,0.2316 -1.17948,-0.051 -1.80314,-0.0247 l 0.36076,1.8613 -0.36975,-1.85314 c -2.41156,0.10132 -4.49184,-0.81062 -5.24295,-2.53073 -0.0559,-0.12777 0.0426,-0.21011 0,-0.33471 2.14946,-0.94018 4.3275,-1.885804 4.3275,-1.885804 z M 104.57601,223.35835 c 0.0971,-0.0251 0.20594,-0.0293 0.33287,0.008 0.8573,0.24369 1.2407,1.10062 1.86786,1.68174 0.17422,0.86563 0.52125,1.72917 0.23104,2.56338 -0.21258,0.611 -0.77441,0.79231 -1.13739,1.24085 l 1.8679,0.89802 -1.8679,-0.88983 c -1.40516,1.73323 -3.49823,2.61157 -5.49259,2.0654 -0.14819,-0.0418 -0.16807,-0.15591 -0.30537,-0.20398 0.49716,-2.07179 1.00795,-4.17163 1.00795,-4.17163 -1e-4,0 1.31251,-1.41953 2.61684,-2.82462 0.38395,-0.0209 0.58672,-0.29424 0.87846,-0.3674 z m 267.89007,136.09604 c 0.16002,0.0418 0.32762,0.0928 0.50856,0.0251 2.17399,1.14229 4.46633,2.34289 4.46623,2.34293 0,0 1.20339,1.70703 2.40421,3.41242 -0.13019,0.10742 -0.0975,0.24117 -0.2495,0.34274 -1.57474,1.05297 -3.75806,0.86693 -5.65905,-0.26124 -0.51605,-0.30637 -1.10723,-0.32017 -1.54421,-0.83269 -0.87672,-1.02835 -1.24884,-2.34987 -1.12811,-3.66547 0.26655,-0.32225 0.21873,-0.81367 0.56405,-1.07758 0.0331,-0.0894 0.12878,-0.16427 0.16618,-0.25288 0.16002,-0.107 0.31199,-0.0744 0.47154,-0.0334 z" />
  </g>
</svg>
