<?xml version="1.0" encoding="UTF-8" standalone="no"?>
<!-- Created with Inkscape (http://www.inkscape.org/) -->

<svg
   width="56.0px"
   height="56.0px"
   viewBox="0 0 56.0 56.0"
   version="1.1"
   id="SVGRoot"
   sodipodi:docname="women-below-aircuts.svg"
   inkscape:version="1.1.2 (0a00cf5339, 2022-02-04)"
   xmlns:inkscape="http://www.inkscape.org/namespaces/inkscape"
   xmlns:sodipodi="http://sodipodi.sourceforge.net/DTD/sodipodi-0.dtd"
   xmlns="http://www.w3.org/2000/svg"
   xmlns:svg="http://www.w3.org/2000/svg">
  <sodipodi:namedview
     id="namedview32512"
     pagecolor="#ffffff"
     bordercolor="#666666"
     borderopacity="1.0"
     inkscape:pageshadow="2"
     inkscape:pageopacity="0.0"
     inkscape:pagecheckerboard="0"
     inkscape:document-units="px"
     showgrid="true"
     inkscape:zoom="7.1559841"
     inkscape:cx="53.940869"
     inkscape:cy="38.429375"
     inkscape:window-width="1920"
     inkscape:window-height="1003"
     inkscape:window-x="0"
     inkscape:window-y="40"
     inkscape:window-maximized="1"
     inkscape:current-layer="layer1">
    <inkscape:grid
       type="xygrid"
       id="grid32575" />
  </sodipodi:namedview>
  <defs
     id="defs32507">
    <inkscape:path-effect
       effect="bspline"
       id="path-effect30029"
       is_visible="true"
       lpeversion="1"
       weight="33.333333"
       steps="2"
       helper_size="0"
       apply_no_weight="true"
       apply_with_weight="true"
       only_selected="false" />
  </defs>
  <g
     inkscape:label="Layer 1"
     inkscape:groupmode="layer"
     id="layer1">
    <g
       id="g32178"
       transform="matrix(0.24238629,0,0,0.24238629,185.39848,25.254706)">
      <path
         id="rect30057"
         style="fill:#000000;fill-opacity:1;stroke:#000000;stroke-width:0.258533;stop-color:#000000"
         d="m -710.3465,-104.06271 c 13.49777,0 24.3642,12.0058 24.3642,26.918839 V 85.21339 c 0,14.91304 -50.86349,16.79057 -64.36126,16.79057 -13.49776,0 15.63287,-1.87753 15.63287,-16.79057 V -77.143871 c 0,-14.913039 10.86643,-26.918839 24.36419,-26.918839 z"
         sodipodi:nodetypes="sssssss" />
      <path
         style="fill:#ffffff;fill-opacity:1;stroke:#000000;stroke-width:4.12564589;stroke-linecap:butt;stroke-linejoin:miter;stroke-opacity:1;stroke-miterlimit:4;stroke-dasharray:none"
         d="m -680.71892,-90.606666 c -14.60778,-2.467553 -32.64225,0.312771 -42.40294,5.853705 -9.76068,5.540935 -11.24746,13.842295 -11.94286,20.848844 -0.69539,7.006549 -0.59943,12.718269 -0.62257,15.926633 -0.0231,3.208364 -0.16532,3.913368 -7.00686,7.896518 -6.84154,3.983149 -20.38164,11.244165 -21.95447,16.203365 -1.57284,4.959199 8.82184,7.615973 11.2635,12.00952 2.44167,4.3935476 -3.06946,10.5235387 -1.48973,13.9355445 1.57972,3.4120057 10.25026,4.1059026 10.25018,4.1058958 -9e-5,-6.8e-6 -8.67028,-0.6938757 -10.61347,1.4310191 -1.94319,2.1248949 2.84079,7.0680936 3.76869,11.3668216 0.92789,4.298728 -2.00027,7.952357 -1.19691,13.48244 0.80336,5.530084 5.33811,12.935742 14.96285,11.583381 9.62474,-1.352361 24.33844,-11.462244 39.47912,-12.843051 15.14068,-1.380807 30.70728,5.967447 41.93022,-3.397587 11.22294,-9.365034 18.10182,-35.4429241 19.46865,-54.979429 1.36683,-19.536506 -2.77843,-32.530819 -10.44165,-42.885878 -7.66322,-10.355058 -18.84397,-18.070188 -33.45175,-20.537742 z"
         id="path30025"
         inkscape:path-effect="#path-effect30029"
         inkscape:original-d="m -677.29231,-95.85453 c -18.03436,2.78052 -36.06883,5.56085 -54.10341,8.34097 -1.48667,8.30156 -2.97346,16.60292 -4.46036,24.90408 0.0961,5.71191 0.19204,11.42363 0.28789,17.135151 -0.14208,0.70524 -0.28429,1.41024 -0.42658,2.11506 -13.54081,7.26165 -27.08091,14.52267 -40.62197,21.78394 10.39525,2.65704 20.78993,5.31382 31.1847,7.97049 -5.51124,6.1304599 -11.02237,12.2604499 -16.53377,18.3903999 8.67067,0.69406 17.34121,1.38795 26.01161,2.08169 -8.67057,-0.69375 -17.34076,-1.38762 -26.01161,-2.08169 4.78448,4.94371 9.56846,9.8869101 14.3527,14.8303801 -2.92827,3.65413 -5.85643,7.30776 -8.785,10.96153 4.53519,7.406205 9.06994,14.811863 13.6047,22.217717 14.71485,-10.11022 29.42855,-20.220107 44.14246,-30.330582 15.56719,7.348672 31.13379,14.696925 46.7007,22.045185 6.87922,-26.07839 13.7581,-52.1562801 20.63691,-78.23471 -4.1453,-12.99465 -8.29056,-25.988961 -12.43601,-38.983731 -11.1811,-7.71525 -22.36185,-15.43038 -33.54296,-23.14588 z"
         sodipodi:nodetypes="cccccccccccccccccc" />
      <path
         id="rect30055"
         style="stroke:#000000;stroke-width:0.234345;stop-color:#000000"
         d="m -713.00053,-104.06271 h 74.50863 c 12.02743,0 21.71017,6.061298 21.71017,13.59036 0,7.529061 -9.68389,13.423771 -21.71017,13.590363 0,0 -62.87204,16.637531 -87.71563,1.215064 -4.37954,-2.718745 -7.93501,-8.95612 -6.66827,-13.952856 2.01251,-7.938463 7.84784,-14.442931 19.87527,-14.442931 z"
         sodipodi:nodetypes="ssssaas" />
      <path
         id="rect30053"
         style="fill:#000000;fill-opacity:1;stroke:#000000;stroke-width:0.318889;stop-color:#000000"
         d="m -656.77891,-97.628777 h 30.75103 c 17.73051,0 39.4495,23.265695 26.7333,79.583688 l -8.12058,35.964749 c -12.71619,56.317993 58.01904,57.93758 37.20773,77.743513 -10.51249,10.004637 -23.88289,-18.995203 -38.2929,-20.714761 -6.43057,-0.767364 -13.5717,1.119691 -18.78387,4.963433 -7.48762,5.521792 -11.43345,14.993874 -14.785,23.672685 -2.76513,7.16029 3.50072,21.55458 -4.09493,22.65993 -30.43585,4.42914 -40.03955,-24.64156 -41.60656,-82.35605 l -1.01276,-37.3010153 c -1.56701,-57.7144897 14.27403,-104.2161717 32.00454,-104.2161717 z"
         sodipodi:nodetypes="ssssaaaaasss" />
    </g>
  </g>
</svg>
