<?xml version="1.0" encoding="UTF-8" standalone="no"?>
<!-- Created with Inkscape (http://www.inkscape.org/) -->

<svg
   width="56.0px"
   height="56.0px"
   viewBox="0 0 56.0 56.0"
   version="1.1"
   id="SVGRoot"
   sodipodi:docname="women-above-haircuts.svg"
   inkscape:version="1.1.2 (0a00cf5339, 2022-02-04)"
   xmlns:inkscape="http://www.inkscape.org/namespaces/inkscape"
   xmlns:sodipodi="http://sodipodi.sourceforge.net/DTD/sodipodi-0.dtd"
   xmlns="http://www.w3.org/2000/svg"
   xmlns:svg="http://www.w3.org/2000/svg">
  <sodipodi:namedview
     id="namedview28956"
     pagecolor="#ffffff"
     bordercolor="#666666"
     borderopacity="1.0"
     inkscape:pageshadow="2"
     inkscape:pageopacity="0.0"
     inkscape:pagecheckerboard="0"
     inkscape:document-units="px"
     showgrid="true"
     inkscape:zoom="8"
     inkscape:cx="21.875"
     inkscape:cy="29.875"
     inkscape:window-width="1920"
     inkscape:window-height="1003"
     inkscape:window-x="0"
     inkscape:window-y="40"
     inkscape:window-maximized="1"
     inkscape:current-layer="layer1">
    <inkscape:grid
       type="xygrid"
       id="grid29019" />
  </sodipodi:namedview>
  <defs
     id="defs28951">
    <inkscape:path-effect
       effect="bspline"
       id="path-effect17685"
       is_visible="true"
       lpeversion="1"
       weight="33.333333"
       steps="2"
       helper_size="0"
       apply_no_weight="true"
       apply_with_weight="true"
       only_selected="false" />
    <inkscape:path-effect
       effect="bspline"
       id="path-effect23215"
       is_visible="true"
       lpeversion="1"
       weight="33.333333"
       steps="2"
       helper_size="0"
       apply_no_weight="true"
       apply_with_weight="true"
       only_selected="false" />
    <inkscape:path-effect
       effect="skeletal"
       id="path-effect23219"
       is_visible="true"
       lpeversion="1"
       pattern="m 67.104283,53.253856 c 0.05011,-0.403383 0.221883,-0.71793 0.383432,-0.702114 0.161552,0.01582 0.252,0.356037 0.201895,0.75942 -0.0501,0.403384 -0.22188,0.717931 -0.383433,0.702114 -0.161548,-0.01582 -0.251997,-0.356037 -0.201894,-0.75942 z"
       copytype="single_stretched"
       prop_scale="1"
       scale_y_rel="false"
       spacing="0"
       normal_offset="0"
       tang_offset="0"
       prop_units="false"
       vertical_pattern="false"
       hide_knot="false"
       fuse_tolerance="0" />
    <inkscape:path-effect
       effect="bspline"
       id="path-effect25062"
       is_visible="true"
       lpeversion="1"
       weight="33.333333"
       steps="2"
       helper_size="0"
       apply_no_weight="true"
       apply_with_weight="true"
       only_selected="false" />
    <inkscape:path-effect
       effect="skeletal"
       id="path-effect25066"
       is_visible="true"
       lpeversion="1"
       pattern="m 43.614263,23.300756 c -0.202769,-0.0076 -0.368743,0.04167 -0.37048,0.109995 -0.0017,0.06833 0.161418,0.129955 0.364185,0.137562 0.202765,0.0076 0.368739,-0.04167 0.370478,-0.109998 0.0017,-0.06832 -0.161418,-0.129951 -0.364183,-0.137559 z"
       copytype="single_stretched"
       prop_scale="1"
       scale_y_rel="false"
       spacing="0"
       normal_offset="0"
       tang_offset="0"
       prop_units="false"
       vertical_pattern="false"
       hide_knot="false"
       fuse_tolerance="0" />
    <inkscape:path-effect
       effect="bspline"
       id="path-effect25152"
       is_visible="true"
       lpeversion="1"
       weight="33.333333"
       steps="2"
       helper_size="0"
       apply_no_weight="true"
       apply_with_weight="true"
       only_selected="false" />
    <inkscape:path-effect
       effect="skeletal"
       id="path-effect25156"
       is_visible="true"
       lpeversion="1"
       pattern="m 22.885521,19.893052 c -0.04556,-0.0033 -0.08286,0.01828 -0.08325,0.04825 -3.46e-4,0.02997 0.03627,0.05701 0.08184,0.06034 0.04556,0.0033 0.08286,-0.01828 0.08325,-0.04825 3.45e-4,-0.02997 -0.03627,-0.05701 -0.08184,-0.06034 z"
       copytype="single_stretched"
       prop_scale="1"
       scale_y_rel="false"
       spacing="0"
       normal_offset="0"
       tang_offset="0"
       prop_units="false"
       vertical_pattern="false"
       hide_knot="false"
       fuse_tolerance="0" />
    <inkscape:path-effect
       effect="bspline"
       id="path-effect17685-3"
       is_visible="true"
       lpeversion="1"
       weight="33.333333"
       steps="2"
       helper_size="0"
       apply_no_weight="true"
       apply_with_weight="true"
       only_selected="false" />
    <inkscape:path-effect
       effect="bspline"
       id="path-effect23215-6"
       is_visible="true"
       lpeversion="1"
       weight="33.333333"
       steps="2"
       helper_size="0"
       apply_no_weight="true"
       apply_with_weight="true"
       only_selected="false" />
    <inkscape:path-effect
       effect="skeletal"
       id="path-effect23219-7"
       is_visible="true"
       lpeversion="1"
       pattern="m -306.58672,-43.65128 c 0.28997,-2.334472 1.28409,-4.154828 2.21901,-4.063295 0.93494,0.09154 1.45838,2.060468 1.16841,4.39494 -0.28996,2.334472 -1.28407,4.154829 -2.21901,4.063294 -0.93492,-0.09153 -1.45837,-2.060466 -1.16841,-4.394939 z"
       copytype="single_stretched"
       prop_scale="1"
       scale_y_rel="false"
       spacing="0"
       normal_offset="0"
       tang_offset="0"
       prop_units="false"
       vertical_pattern="false"
       hide_knot="false"
       fuse_tolerance="0" />
    <inkscape:path-effect
       effect="bspline"
       id="path-effect25062-5"
       is_visible="true"
       lpeversion="1"
       weight="33.333333"
       steps="2"
       helper_size="0"
       apply_no_weight="true"
       apply_with_weight="true"
       only_selected="false" />
    <inkscape:path-effect
       effect="skeletal"
       id="path-effect25066-3"
       is_visible="true"
       lpeversion="1"
       pattern="m -442.5289,-216.9968 c -1.17347,-0.044 -2.134,0.24116 -2.14405,0.63657 -0.01,0.39543 0.93416,0.75208 2.10762,0.7961 1.17345,0.044 2.13398,-0.24116 2.14404,-0.63658 0.01,-0.39541 -0.93416,-0.75206 -2.10761,-0.79609 z"
       copytype="single_stretched"
       prop_scale="1"
       scale_y_rel="false"
       spacing="0"
       normal_offset="0"
       tang_offset="0"
       prop_units="false"
       vertical_pattern="false"
       hide_knot="false"
       fuse_tolerance="0" />
    <inkscape:path-effect
       effect="bspline"
       id="path-effect25152-5"
       is_visible="true"
       lpeversion="1"
       weight="33.333333"
       steps="2"
       helper_size="0"
       apply_no_weight="true"
       apply_with_weight="true"
       only_selected="false" />
    <inkscape:path-effect
       effect="skeletal"
       id="path-effect25156-6"
       is_visible="true"
       lpeversion="1"
       pattern="m -562.49092,-236.71797 c -0.26369,-0.0193 -0.47953,0.10579 -0.48179,0.27925 -0.002,0.17346 0.20991,0.32991 0.47361,0.34922 0.26369,0.0193 0.47953,-0.10579 0.48179,-0.27925 0.002,-0.17345 -0.20992,-0.3299 -0.47361,-0.34922 z"
       copytype="single_stretched"
       prop_scale="1"
       scale_y_rel="false"
       spacing="0"
       normal_offset="0"
       tang_offset="0"
       prop_units="false"
       vertical_pattern="false"
       hide_knot="false"
       fuse_tolerance="0" />
    <inkscape:path-effect
       effect="bspline"
       id="path-effect17685-2"
       is_visible="true"
       lpeversion="1"
       weight="33.333333"
       steps="2"
       helper_size="0"
       apply_no_weight="true"
       apply_with_weight="true"
       only_selected="false" />
    <inkscape:path-effect
       effect="bspline"
       id="path-effect23215-9"
       is_visible="true"
       lpeversion="1"
       weight="33.333333"
       steps="2"
       helper_size="0"
       apply_no_weight="true"
       apply_with_weight="true"
       only_selected="false" />
    <inkscape:path-effect
       effect="skeletal"
       id="path-effect23219-1"
       is_visible="true"
       lpeversion="1"
       pattern="m -306.58672,-43.65128 c 0.28997,-2.334472 1.28409,-4.154828 2.21901,-4.063295 0.93494,0.09154 1.45838,2.060468 1.16841,4.39494 -0.28996,2.334472 -1.28407,4.154829 -2.21901,4.063294 -0.93492,-0.09153 -1.45837,-2.060466 -1.16841,-4.394939 z"
       copytype="single_stretched"
       prop_scale="1"
       scale_y_rel="false"
       spacing="0"
       normal_offset="0"
       tang_offset="0"
       prop_units="false"
       vertical_pattern="false"
       hide_knot="false"
       fuse_tolerance="0" />
    <inkscape:path-effect
       effect="bspline"
       id="path-effect25062-2"
       is_visible="true"
       lpeversion="1"
       weight="33.333333"
       steps="2"
       helper_size="0"
       apply_no_weight="true"
       apply_with_weight="true"
       only_selected="false" />
    <inkscape:path-effect
       effect="skeletal"
       id="path-effect25066-7"
       is_visible="true"
       lpeversion="1"
       pattern="m -442.5289,-216.9968 c -1.17347,-0.044 -2.134,0.24116 -2.14405,0.63657 -0.01,0.39543 0.93416,0.75208 2.10762,0.7961 1.17345,0.044 2.13398,-0.24116 2.14404,-0.63658 0.01,-0.39541 -0.93416,-0.75206 -2.10761,-0.79609 z"
       copytype="single_stretched"
       prop_scale="1"
       scale_y_rel="false"
       spacing="0"
       normal_offset="0"
       tang_offset="0"
       prop_units="false"
       vertical_pattern="false"
       hide_knot="false"
       fuse_tolerance="0" />
    <inkscape:path-effect
       effect="bspline"
       id="path-effect25152-0"
       is_visible="true"
       lpeversion="1"
       weight="33.333333"
       steps="2"
       helper_size="0"
       apply_no_weight="true"
       apply_with_weight="true"
       only_selected="false" />
    <inkscape:path-effect
       effect="skeletal"
       id="path-effect25156-9"
       is_visible="true"
       lpeversion="1"
       pattern="m -562.49092,-236.71797 c -0.26369,-0.0193 -0.47953,0.10579 -0.48179,0.27925 -0.002,0.17346 0.20991,0.32991 0.47361,0.34922 0.26369,0.0193 0.47953,-0.10579 0.48179,-0.27925 0.002,-0.17345 -0.20992,-0.3299 -0.47361,-0.34922 z"
       copytype="single_stretched"
       prop_scale="1"
       scale_y_rel="false"
       spacing="0"
       normal_offset="0"
       tang_offset="0"
       prop_units="false"
       vertical_pattern="false"
       hide_knot="false"
       fuse_tolerance="0" />
  </defs>
  <g
     inkscape:label="Layer 1"
     inkscape:groupmode="layer"
     id="layer1">
    <g
       id="g29163"
       transform="matrix(0.17279418,0,0,0.17279418,120.08068,60.79654)">
      <path
         id="rect18641"
         style="stroke:#000000;stroke-width:0.295291;stop-color:#000000"
         d="m -543.45985,-314.72134 c -42.62136,-0.0259 -60.02742,30.03881 -74.88483,55.06587 -9.57763,16.13338 -12.45897,43.24377 -26.69397,59.7886 -12.83081,14.91276 -49.69672,31.83475 -49.69672,31.83475 3.91891,7.97752 10.41064,16.15447 18.60198,23.87658 1.10739,-0.6567 2.22494,-1.35809 3.35328,-2.10737 4.44712,-2.95311 8.92363,-6.51579 13.26068,-10.30221 10.53997,-9.20178 21.98973,-21.37035 27.39472,-27.35285 -6.13072,6.78577 -15.45177,18.10273 -25.89766,28.92588 -4.02418,4.16953 -8.23624,8.23996 -12.49071,11.77086 -0.81201,0.67392 -1.62801,1.3241 -2.44636,1.95905 22.91085,20.21085 57.2158,36.58215 87.1642,36.60035 42.62135,0.0259 98.31384,-28.54487 101.91831,-59.75862 l 10.84482,-93.91158 c 3.6045,-31.21376 -27.80638,-56.36344 -70.42774,-56.38931 z" />
      <path
         style="fill:#ffffff;fill-opacity:1;stroke:#000000;stroke-width:0.258332px;stroke-linecap:butt;stroke-linejoin:miter;stroke-opacity:1"
         d="m -493.1049,-324.02151 c -23.6708,-3.99848 -52.8943,0.50682 -68.71076,9.48549 -15.81645,8.97867 -18.22568,22.43039 -19.35251,33.78398 -1.12683,11.35359 -0.97133,20.60899 -1.00882,25.80791 -0.0375,5.19891 -0.2679,6.34132 -11.3541,12.79571 -11.08619,6.4544 -33.02691,18.22033 -35.57558,26.25634 -2.54866,8.03601 14.29515,12.34111 18.25168,19.46053 3.95653,7.11941 -4.97384,17.05259 -2.41401,22.58149 2.55983,5.5289 16.60978,6.65331 16.60964,6.65329 -1.4e-4,-1e-5 -14.04952,-1.12436 -17.19832,2.31887 -3.1488,3.44323 4.60328,11.45332 6.10687,18.41908 1.50358,6.96577 -3.24128,12.8862 -4.44626,20.6923 -1.20497,7.80609 1.13009,17.49653 13.32211,19.23455 12.19202,1.73802 34.24051,-4.47633 61.28123,-5.55895 27.04072,-1.08262 59.07333,2.9664 80.66329,-16.13814 21.58996,-19.10454 32.73666,-61.3618 34.9515,-93.01924 2.21484,-31.65744 -4.50223,-52.71376 -16.91991,-69.49335 -12.41768,-16.77959 -30.53524,-29.28138 -54.20605,-33.27986 z"
         id="path17683"
         inkscape:path-effect="#path-effect17685-2"
         inkscape:original-d="m -487.55232,-332.52528 c -29.22333,4.50562 -58.44683,9.01093 -87.67052,13.51592 -2.40903,13.45205 -4.81826,26.90377 -7.22767,40.35518 0.15569,9.25573 0.31119,18.51113 0.4665,27.76623 -0.23023,1.14278 -0.46067,2.28518 -0.69124,3.42729 -21.94186,11.76695 -43.88258,23.53289 -65.82484,35.29924 16.84471,4.30553 33.68852,8.61064 50.53246,12.91558 -8.93055,9.93395 -17.86092,19.86713 -26.79174,29.80026 14.05018,1.12467 28.10013,2.24907 42.14987,3.37321 -14.05002,-1.12416 -28.0994,-2.24852 -42.14987,-3.37321 7.75289,8.01091 15.50498,16.02099 23.25747,24.03151 -4.74504,5.92125 -9.4899,11.84168 -14.23542,17.76234 2.33546,9.69126 4.67053,19.38169 7.00543,29.072259 22.04904,-6.214169 44.09753,-12.428519 66.14579,-18.643139 32.03306,4.0493 64.06567,8.09832 96.09868,12.14715 11.14725,-42.25806 22.29396,-84.51532 33.44056,-126.77346 -6.71715,-21.05685 -13.43424,-42.11316 -20.15162,-63.1702 -18.11814,-12.50199 -36.2357,-25.00378 -54.35384,-37.50616 z"
         sodipodi:nodetypes="cccccccccccccccccc" />
      <path
         id="rect18336"
         style="stroke:#000000;stroke-width:0.333661;stop-color:#000000"
         d="m -449.21857,-325.34809 c -38.44346,-0.52261 -74.76271,41.32812 -82.47042,96.08302 l -10.26758,72.94128 c -3.74372,26.59508 -36.54393,77.811785 -59.99427,89.544921 0.0998,0.01609 0.20511,0.03035 0.29713,0.04806 0.6313,0.121512 1.24595,0.304096 1.66193,0.435115 0.40553,0.127743 0.77864,0.253759 0.86505,0.321429 0.052,0.04066 0.0413,0.07462 -0.0465,0.134358 -0.0874,0.0595 -0.26048,0.147272 -0.47696,0.318328 6.84553,-3.698383 14.07276,-6.5528 21.15425,-9.753412 6.92187,-3.128462 13.59242,-6.541479 19.42569,-11.311969 0.82372,-0.591595 1.56069,-1.267971 2.2598,-2.027785 0.70538,-0.766612 1.35557,-1.599901 2.01282,-2.495455 1.33136,-1.814145 2.63795,-3.814678 4.3072,-5.638932 2.19877,-2.480061 4.6154,-4.748868 6.78461,-6.811468 2.43417,-2.3145 4.59055,-4.40024 6.59289,-6.7567 1.90711,-2.33604 3.54935,-4.97436 4.95784,-7.63984 1.52233,-2.88097 2.80352,-5.85503 3.86747,-8.61291 1.1817,-3.06321 2.16021,-6.03049 2.92951,-8.50749 0.87678,-2.82299 1.65868,-5.59299 2.15234,-7.34219 -0.53904,1.90996 -1.19079,4.37683 -2.04587,7.37371 -0.71048,2.49005 -1.60983,5.4973 -2.69441,8.60154 -0.97718,2.7968 -2.1609,5.83538 -3.58428,8.80205 -1.31559,2.74198 -2.8742,5.50351 -4.72271,7.99434 -1.83999,2.58295 -3.81627,4.88983 -6.0234,7.44916 -1.98419,2.300796 -4.06577,4.706607 -5.91489,7.28948 -1.25275,1.836227 -2.10412,3.718303 -3.24011,5.88853 -0.53888,1.029475 -1.13467,2.102553 -1.83968,3.152261 -0.70516,1.049936 -1.53085,2.093989 -2.54508,3.077848 -6.13301,5.486223 -13.13669,9.448173 -20.07007,12.960966 -7.32719,3.712295 -13.86946,6.608276 -20.27992,10.443808 -0.53345,0.350856 -1.07698,0.565626 -1.54874,0.702799 -0.13853,0.04028 -0.27432,0.07358 -0.40822,0.103871 25.00632,12.991996 93.98817,17.836012 131.68548,2.961057 36.74607,-14.499605 67.91187,-51.63154 80.93461,-86.56887 19.16541,-51.4169 23.02536,-115.74708 -11.52022,-161.24029 -9.6256,-12.67595 -30.15547,-17.18183 -47.33872,-21.64054 -0.36164,-0.0934 -1.13017,-0.0961 -1.13017,-0.0961 -1.24365,-0.10604 -2.48626,-0.16711 -3.72639,-0.18396 z" />
      <rect
         style="fill:#000000;fill-opacity:1;stroke:#000000;stroke-width:0.18499;stroke-opacity:1;stop-color:#000000"
         id="rect18557"
         width="71.718384"
         height="173.96704"
         x="261.51093"
         y="-583.13208"
         rx="35.859192"
         ry="75.402237"
         transform="rotate(-90)" />
      <path
         style="fill:#ffffff;fill-opacity:1;stroke:none;stroke-width:0.0991504px;stroke-linecap:butt;stroke-linejoin:miter;stroke-opacity:1"
         d="m -487.38573,-315.48256 c 0.32992,-0.11363 0.69097,-0.22501 1.07728,-0.3244 1.20024,-0.30965 2.85556,-0.53179 4.62373,-0.0968 0,0 0,0 0,0 1.68828,0.43664 3.35897,1.45432 4.79087,2.9864 1.85159,1.96507 3.26283,4.38633 4.51351,7.22742 0,0 10e-6,0 10e-6,0 1.63203,3.6626 2.88305,7.56531 4.08495,12.02263 1.29294,4.78065 2.39769,9.82458 3.3804,15.26156 0,0 0,0 0,1e-5 1.78957,9.88041 3.17101,20.61923 3.48786,31.72711 0.17541,6.01537 -0.0456,12.09582 -0.90281,18.13029 -0.2336,1.64452 -0.51004,3.25444 -0.82938,4.83151 -1.22781,5.9881 -3.18123,11.66783 -4.8872,16.31474 -4.49113,12.26441 -8.44569,21.79496 -10.62789,26.33144 -2.28788,4.75616 -3.1246,5.15181 -2.06127,0.16533 1.15517,-5.41723 4.02352,-15.01801 8.00882,-28.09959 1.459,-4.80199 3.09467,-10.32426 4.02679,-15.8006 1.18723,-6.88121 1.49062,-14.07959 1.23705,-21.75104 -0.30467,-9.04797 -1.22571,-18.1033 -2.51411,-27.2463 -0.17837,-1.26575 -0.36116,-2.5147 -0.54656,-3.74339 -0.82804,-5.47259 -1.70288,-10.36327 -2.7035,-14.98958 -0.97976,-4.50118 -1.88953,-8.14893 -3.12743,-11.62697 0,0 0,0 0,0 -1.00573,-2.74998 -1.91756,-4.83061 -3.22652,-6.52756 0,0 0,-10e-6 0,-10e-6 -0.98786,-1.25936 -1.96794,-2.12804 -3.00847,-2.54649 -1.05891,-0.49632 -2.40914,-0.56249 -3.44148,-0.55212 -2.44981,0.0476 -4.10691,0.38304 -4.42135,0.14033 -0.31445,-0.2427 0.59096,-0.98124 3.0667,-1.83389 z"
         id="path20239"
         sodipodi:nodetypes="ccccc" />
      <path
         style="fill:#ffffff;fill-opacity:1;stroke:none;stroke-width:0.142707px;stroke-linecap:butt;stroke-linejoin:miter;stroke-opacity:1"
         d="m -462.45256,-317.93134 c 0.63765,-0.13799 1.35639,-0.27503 2.12207,-0.38297 1.82095,-0.25699 4.25881,-0.38055 6.70525,0.31378 0,0 1e-5,0 1e-5,0 2.27154,0.64881 4.52615,2.02478 6.50859,4.09467 2.48319,2.59226 4.37049,5.82302 6.08544,9.68415 0,0 0,0 0,0 2.20097,4.94471 3.85627,10.20692 5.46779,16.25976 1.73059,6.49557 3.19738,13.31738 4.50743,20.67886 2.38942,13.42097 4.24466,27.90659 4.60632,42.81161 0.19365,7.93498 -0.14711,15.90902 -1.35293,23.75584 -0.35477,2.30864 -0.7774,4.56054 -1.26836,6.75887 -1.76748,7.89416 -4.63431,15.53308 -7.09328,21.80896 -6.22919,15.90729 -12.39074,30.71284 -14.73461,36.23197 -2.84169,6.69133 -3.29687,7.40876 -0.8386,0.90094 2.55197,-6.75595 7.90717,-20.24867 14.49632,-37.55101 2.4646,-6.47438 5.20814,-13.98625 6.88389,-21.67738 2.08052,-9.52838 2.76424,-19.5806 2.49853,-30.19588 -0.32552,-12.93572 -1.76005,-25.89014 -3.88023,-38.87127 -0.20609,-1.26184 -0.41646,-2.51052 -0.63007,-3.74453 -1.29568,-7.48127 -2.71422,-14.24302 -4.3531,-20.6056 -1.58336,-6.14066 -3.15738,-11.30598 -5.24408,-16.15383 0,0 0,0 0,0 -1.67092,-3.86727 -3.43753,-7.0008 -5.76916,-9.51019 0,0 0,0 0,0 -1.87729,-2.01992 -3.97784,-3.36232 -6.08845,-4.01248 -2.30389,-0.72226 -4.68698,-0.6613 -6.44633,-0.4793 0,0 0,0 0,0 -3.98269,0.41581 -6.27424,1.16578 -6.7135,1.19868 -0.43926,0.0329 0.96172,-0.54119 4.53106,-1.31365 z"
         id="path23211"
         inkscape:path-effect="#path-effect23215;#path-effect23219"
         inkscape:original-d="m -467.10738,-316.80806 c 9.0794,-2.32042 18.15797,-4.64086 27.23665,-6.96157 6.06305,37.07806 12.12606,74.15685 18.18855,111.23362 -4.90868,13.23884 -9.81757,26.4775 -14.72704,39.71696 -5.69917,14.08511 -11.3983,28.16912 -17.09707,42.25216"
         sodipodi:nodetypes="ccccc" />
      <path
         style="fill:#ffffff;fill-opacity:1;stroke:none;stroke-width:0.0654343px;stroke-linecap:butt;stroke-linejoin:miter;stroke-opacity:1"
         d="m -527.66077,-280.51106 c -6.44436,-1.18086 -12.58689,-2.76751 -18.13953,-4.39847 -3.60457,-1.05884 -6.87852,-2.12757 -9.96664,-3.27307 -2.93598,-1.08927 -5.40385,-2.11011 -7.71805,-3.34472 -1.80517,-0.96404 -3.25477,-1.9128 -4.41362,-3.12236 -0.87634,-0.91578 -1.44301,-1.89589 -1.64954,-2.89409 -0.73795,-3.49024 1.23277,-5.42058 1.24502,-5.49439 0.006,-0.0376 -0.23425,0.40715 -0.63163,1.32655 -0.3283,0.75955 -1.0602,2.48338 -0.72479,4.19052 0.2043,1.02451 0.77343,2.03383 1.65897,2.96857 1.16577,1.23163 2.62538,2.20199 4.43403,3.17728 2.31663,1.25024 4.7908,2.28599 7.72765,3.38584 3.08754,1.15647 6.36501,2.23553 9.97307,3.3024 5.29825,1.56675 11.14698,3.09223 17.28692,4.25677 1.2144,0.23033 2.42108,0.44295 3.62092,0.6376 5.3355,0.86574 10.35872,1.26447 15.20759,1.0504 0,0 1e-5,0 1e-5,0 3.93691,-0.17433 7.85683,-0.81355 11.18699,-1.40323 13.02035,-2.30496 21.55102,-4.02296 21.6898,-4.09134 0.13797,-0.069 -8.45595,1.58853 -21.72488,3.89152 -3.32574,0.57709 -7.24273,1.20593 -11.16199,1.37172 0,0 0,0 0,0 -4.82582,0.20473 -9.82916,-0.19745 -15.15794,-1.06319 -0.90965,-0.14782 -1.82363,-0.30596 -2.74236,-0.47431 z"
         id="path25058"
         inkscape:path-effect="#path-effect25062;#path-effect25066"
         inkscape:original-d="m -568.31483,-303.04567 c -1.68723,3.61366 -3.37442,7.22696 -5.06176,10.8403 18.00576,5.13772 36.01189,10.27547 54.01704,15.41287 6.8481,-1.10838 13.69611,-2.21685 20.54456,-3.32551 7.31407,-1.37754 14.62762,-2.75515 21.94066,-4.13268"
         sodipodi:nodetypes="ccccc" />
      <path
         style="fill:#ffffff;fill-opacity:1;stroke:none;stroke-width:0.0205441px;stroke-linecap:butt;stroke-linejoin:miter;stroke-opacity:1"
         d="m -582.92768,-265.10225 c -0.96916,-0.42461 -1.8915,-0.91039 -2.75024,-1.40332 -1.63392,-0.93873 -2.9194,-1.80821 -3.9694,-2.90239 -0.83825,-0.87468 -1.27324,-1.78916 -1.3658,-2.6413 0,0 0,0 0,0 -0.16582,-1.49777 0.2678,-2.38771 0.2623,-2.41399 -0.006,-0.0243 -0.47704,0.85403 -0.3245,2.42048 0,0 0,0 0,0 0.0858,0.86742 0.51893,1.80561 1.36456,2.69541 1.05105,1.10723 2.34253,1.99014 3.98001,2.93368 0.79762,0.45999 1.65205,0.91381 2.54931,1.31766 0.71996,0.32404 1.4366,0.60206 2.15569,0.82949 2.17778,0.68732 4.3206,0.4085 5.95394,-0.15605 2.95318,-1.02108 4.83645,-1.76307 4.86476,-1.79185 0.0248,-0.0279 -1.87923,0.69011 -4.89256,1.71073 -1.6198,0.54874 -3.74323,0.81931 -5.89379,0.13493 -0.64401,-0.20451 -1.28726,-0.44999 -1.93428,-0.73348 z"
         id="path25148"
         inkscape:path-effect="#path-effect25152;#path-effect25156"
         inkscape:original-d="m -590.75661,-274.46504 c -0.37915,1.58521 -0.75828,3.17025 -1.13744,4.75532 4.04612,2.25376 8.09233,4.50754 12.13831,6.76116 1.53886,-0.48621 3.07769,-0.97246 4.61663,-1.4588 1.64356,-0.60428 3.28701,-1.2086 4.93034,-1.81288"
         sodipodi:nodetypes="ccccc" />
    </g>
  </g>
</svg>
